<?xml version="1.0"?>
<!-- Generated by SVGo -->
<svg width="319.565mm" height="90.965mm"
     viewBox="0.000 0.000 319.565 90.965"
     xmlns="http://www.w3.org/2000/svg" 
     xmlns:xlink="http://www.w3.org/1999/xlink">
<polygon points="314.376,52.182 310.875,52.182 310.103,52.304 309.406,52.660 308.853,53.212 308.498,53.910 308.376,54.681 308.498,55.456 308.853,56.152 309.406,56.704 310.103,57.059 310.875,57.182 314.376,57.182 314.376,85.802 208.291,85.802 208.555,85.760 209.251,85.404 209.805,84.852 210.160,84.154 210.282,83.382 210.160,82.609 209.805,81.912 209.251,81.359 208.555,81.004 207.782,80.882 207.010,81.004 206.312,81.359 205.760,81.912 205.405,82.609 205.282,83.382 205.405,84.154 205.760,84.852 206.312,85.404 207.010,85.760 207.274,85.802 5.189,85.802 5.189,57.182 8.689,57.182 9.462,57.059 10.158,56.704 10.711,56.152 11.066,55.456 11.189,54.684 11.066,53.910 10.711,53.212 10.158,52.660 9.462,52.304 8.690,52.182 5.189,52.182 5.189,5.163 314.376,5.163" style="fill:none;stroke-width:0.050000mm;stroke:black"/>
<polygon points="259.938,69.439 259.938,70.439 259.138,70.439 259.138,73.538 259.938,73.538 259.938,79.338 259.138,79.338 259.138,82.439 259.938,82.439 259.938,83.439 273.938,83.439 273.938,82.439 274.738,82.439 274.738,79.338 273.938,79.338 273.938,73.538 274.738,73.538 274.738,70.439 273.938,70.439 273.938,69.439" style="fill:none;stroke-width:0.050000mm;stroke:black"/>
<polygon points="278.988,69.439 278.988,70.439 278.188,70.439 278.188,73.538 278.988,73.538 278.988,79.338 278.188,79.338 278.188,82.439 278.988,82.439 278.988,83.439 292.988,83.439 292.988,82.439 293.788,82.439 293.788,79.338 292.988,79.338 292.988,73.538 293.788,73.538 293.788,70.439 292.988,70.439 292.988,69.439" style="fill:none;stroke-width:0.050000mm;stroke:black"/>
<polygon points="298.038,69.439 298.038,70.439 297.238,70.439 297.238,73.538 298.038,73.538 298.038,79.338 297.238,79.338 297.238,82.439 298.038,82.439 298.038,83.439 312.038,83.439 312.038,82.439 312.838,82.439 312.838,79.338 312.038,79.338 312.038,73.538 312.838,73.538 312.838,70.439 312.038,70.439 312.038,69.439" style="fill:none;stroke-width:0.050000mm;stroke:black"/>
<polygon points="98.607,65.225 98.607,79.425 101.907,79.425 101.907,65.225" style="fill:none;stroke-width:0.050000mm;stroke:black"/>
<polygon points="122.407,65.225 122.407,79.425 125.707,79.425 125.707,65.225" style="fill:none;stroke-width:0.050000mm;stroke:black"/>
<polygon points="146.232,65.225 146.232,79.425 149.531,79.425 149.531,65.225" style="fill:none;stroke-width:0.050000mm;stroke:black"/>
<polygon points="170.031,65.225 170.031,79.425 173.332,79.425 173.332,65.225" style="fill:none;stroke-width:0.050000mm;stroke:black"/>
<polygon points="26.576,64.675 26.576,65.675 25.776,65.675 25.776,68.775 26.576,68.775 26.576,74.576 25.776,74.576 25.776,77.675 26.576,77.675 26.576,78.675 40.576,78.675 40.576,77.675 41.376,77.675 41.376,74.576 40.576,74.576 40.576,68.775 41.376,68.775 41.376,65.675 40.576,65.675 40.576,64.675" style="fill:none;stroke-width:0.050000mm;stroke:black"/>
<polygon points="48.007,64.675 48.007,65.675 47.207,65.675 47.207,68.775 48.007,68.775 48.007,74.576 47.207,74.576 47.207,77.675 48.007,77.675 48.007,78.675 62.007,78.675 62.007,77.675 62.806,77.675 62.806,74.576 62.007,74.576 62.007,68.775 62.806,68.775 62.806,65.675 62.007,65.675 62.007,64.675" style="fill:none;stroke-width:0.050000mm;stroke:black"/>
<polygon points="71.820,64.675 71.820,65.675 71.020,65.675 71.020,68.775 71.820,68.775 71.820,74.576 71.020,74.576 71.020,77.675 71.820,77.675 71.820,78.675 85.820,78.675 85.820,77.675 86.620,77.675 86.620,74.576 85.820,74.576 85.820,68.775 86.620,68.775 86.620,65.675 85.820,65.675 85.820,64.675" style="fill:none;stroke-width:0.050000mm;stroke:black"/>
<polygon points="105.157,64.675 105.157,65.675 104.357,65.675 104.357,68.775 105.157,68.775 105.157,74.576 104.357,74.576 104.357,77.675 105.157,77.675 105.157,78.675 119.157,78.675 119.157,77.675 119.957,77.675 119.957,74.576 119.157,74.576 119.157,68.775 119.957,68.775 119.957,65.675 119.157,65.675 119.157,64.675" style="fill:none;stroke-width:0.050000mm;stroke:black"/>
<polygon points="152.781,64.675 152.781,65.675 151.982,65.675 151.982,68.775 152.781,68.775 152.781,74.576 151.982,74.576 151.982,77.675 152.781,77.675 152.781,78.675 166.781,78.675 166.781,77.675 167.582,77.675 167.582,74.576 166.781,74.576 166.781,68.775 167.582,68.775 167.582,65.675 166.781,65.675 166.781,64.675" style="fill:none;stroke-width:0.050000mm;stroke:black"/>
<polygon points="190.882,64.675 190.882,65.675 190.082,65.675 190.082,68.775 190.882,68.775 190.882,74.576 190.082,74.576 190.082,77.675 190.882,77.675 190.882,78.675 204.882,78.675 204.882,77.675 205.681,77.675 205.681,74.576 204.882,74.576 204.882,68.775 205.681,68.775 205.681,65.675 204.882,65.675 204.882,64.675" style="fill:none;stroke-width:0.050000mm;stroke:black"/>
<polygon points="214.695,64.675 214.695,65.675 213.894,65.675 213.894,68.775 214.695,68.775 214.695,74.576 213.894,74.576 213.894,77.675 214.695,77.675 214.695,78.675 228.695,78.675 228.695,77.675 229.495,77.675 229.495,74.576 228.695,74.576 228.695,68.775 229.495,68.775 229.495,65.675 228.695,65.675 228.695,64.675" style="fill:none;stroke-width:0.050000mm;stroke:black"/>
<polygon points="236.126,64.675 236.126,65.675 235.326,65.675 235.326,68.775 236.126,68.775 236.126,74.576 235.326,74.576 235.326,77.675 236.126,77.675 236.126,78.675 250.126,78.675 250.126,77.675 250.925,77.675 250.925,74.576 250.126,74.576 250.126,68.775 250.925,68.775 250.925,65.675 250.126,65.675 250.126,64.675" style="fill:none;stroke-width:0.050000mm;stroke:black"/>
<polygon points="278.988,50.389 278.988,51.389 278.188,51.389 278.188,54.489 278.988,54.489 278.988,60.288 278.188,60.288 278.188,63.389 278.988,63.389 278.988,64.388 292.988,64.388 292.988,63.389 293.788,63.389 293.788,60.288 292.988,60.288 292.988,54.489 293.788,54.489 293.788,51.389 292.988,51.389 292.988,50.389" style="fill:none;stroke-width:0.050000mm;stroke:black"/>
<polygon points="14.670,45.626 14.670,46.626 13.870,46.626 13.870,49.725 14.670,49.725 14.670,55.526 13.870,55.526 13.870,58.626 14.670,58.626 14.670,59.626 28.670,59.626 28.670,58.626 29.470,58.626 29.470,55.526 28.670,55.526 28.670,49.725 29.470,49.725 29.470,46.626 28.670,46.626 28.670,45.626" style="fill:none;stroke-width:0.050000mm;stroke:black"/>
<polygon points="40.864,45.626 40.864,46.626 40.064,46.626 40.064,49.725 40.864,49.725 40.864,55.526 40.064,55.526 40.064,58.626 40.864,58.626 40.864,59.626 54.864,59.626 54.864,58.626 55.662,58.626 55.662,55.526 54.864,55.526 54.864,49.725 55.662,49.725 55.662,46.626 54.864,46.626 54.864,45.626" style="fill:none;stroke-width:0.050000mm;stroke:black"/>
<polygon points="59.912,45.626 59.912,46.626 59.114,46.626 59.114,49.725 59.912,49.725 59.912,55.526 59.114,55.526 59.114,58.626 59.912,58.626 59.912,59.626 73.913,59.626 73.913,58.626 74.713,58.626 74.713,55.526 73.913,55.526 73.913,49.725 74.713,49.725 74.713,46.626 73.913,46.626 73.913,45.626" style="fill:none;stroke-width:0.050000mm;stroke:black"/>
<polygon points="78.963,45.626 78.963,46.626 78.163,46.626 78.163,49.725 78.963,49.725 78.963,55.526 78.163,55.526 78.163,58.626 78.963,58.626 78.963,59.626 92.963,59.626 92.963,58.626 93.763,58.626 93.763,55.526 92.963,55.526 92.963,49.725 93.763,49.725 93.763,46.626 92.963,46.626 92.963,45.626" style="fill:none;stroke-width:0.050000mm;stroke:black"/>
<polygon points="98.013,45.626 98.013,46.626 97.213,46.626 97.213,49.725 98.013,49.725 98.013,55.526 97.213,55.526 97.213,58.626 98.013,58.626 98.013,59.626 112.013,59.626 112.013,58.626 112.812,58.626 112.812,55.526 112.013,55.526 112.013,49.725 112.812,49.725 112.812,46.626 112.013,46.626 112.013,45.626" style="fill:none;stroke-width:0.050000mm;stroke:black"/>
<polygon points="117.062,45.626 117.062,46.626 116.263,46.626 116.263,49.725 117.062,49.725 117.062,55.526 116.263,55.526 116.263,58.626 117.062,58.626 117.062,59.626 131.064,59.626 131.064,58.626 131.863,58.626 131.863,55.526 131.064,55.526 131.064,49.725 131.863,49.725 131.863,46.626 131.064,46.626 131.064,45.626" style="fill:none;stroke-width:0.050000mm;stroke:black"/>
<polygon points="144.709,43.105 144.013,43.459 143.459,44.012 143.105,44.709 142.983,45.483 143.006,45.626 136.113,45.626 136.113,46.626 135.312,46.626 135.312,49.725 136.113,49.725 136.113,55.526 135.312,55.526 135.312,58.626 136.113,58.626 136.113,59.626 150.113,59.626 150.113,58.626 150.913,58.626 150.913,55.526 150.113,55.526 150.113,49.725 150.913,49.725 150.913,46.626 150.113,46.626 150.113,45.626 147.959,45.626 147.983,45.483 147.859,44.709 147.505,44.012 146.952,43.459 146.255,43.105 145.483,42.983" style="fill:none;stroke-width:0.050000mm;stroke:black"/>
<polygon points="155.163,45.626 155.163,46.626 154.363,46.626 154.363,49.725 155.163,49.725 155.163,55.526 154.363,55.526 154.363,58.626 155.163,58.626 155.163,59.626 169.163,59.626 169.163,58.626 169.964,58.626 169.964,55.526 169.163,55.526 169.163,49.725 169.964,49.725 169.964,46.626 169.163,46.626 169.163,45.626" style="fill:none;stroke-width:0.050000mm;stroke:black"/>
<polygon points="174.214,45.626 174.214,46.626 173.413,46.626 173.413,49.725 174.214,49.725 174.214,55.526 173.413,55.526 173.413,58.626 174.214,58.626 174.214,59.626 188.214,59.626 188.214,58.626 189.013,58.626 189.013,55.526 188.214,55.526 188.214,49.725 189.013,49.725 189.013,46.626 188.214,46.626 188.214,45.626" style="fill:none;stroke-width:0.050000mm;stroke:black"/>
<polygon points="193.263,45.626 193.263,46.626 192.464,46.626 192.464,49.725 193.263,49.725 193.263,55.526 192.464,55.526 192.464,58.626 193.263,58.626 193.263,59.626 207.263,59.626 207.263,58.626 208.064,58.626 208.064,55.526 207.263,55.526 207.263,49.725 208.064,49.725 208.064,46.626 207.263,46.626 207.263,45.626" style="fill:none;stroke-width:0.050000mm;stroke:black"/>
<polygon points="212.314,45.626 212.314,46.626 211.513,46.626 211.513,49.725 212.314,49.725 212.314,55.526 211.513,55.526 211.513,58.626 212.314,58.626 212.314,59.626 226.314,59.626 226.314,58.626 227.114,58.626 227.114,55.526 226.314,55.526 226.314,49.725 227.114,49.725 227.114,46.626 226.314,46.626 226.314,45.626" style="fill:none;stroke-width:0.050000mm;stroke:black"/>
<polygon points="231.364,45.626 231.364,46.626 230.564,46.626 230.564,49.725 231.364,49.725 231.364,55.526 230.564,55.526 230.564,58.626 231.364,58.626 231.364,59.626 245.364,59.626 245.364,58.626 246.163,58.626 246.163,55.526 245.364,55.526 245.364,49.725 246.163,49.725 246.163,46.626 245.364,46.626 245.364,45.626" style="fill:none;stroke-width:0.050000mm;stroke:black"/>
<polygon points="252.794,45.626 252.794,46.626 251.995,46.626 251.995,49.725 252.794,49.725 252.794,55.526 251.995,55.526 251.995,58.626 252.794,58.626 252.794,59.626 266.794,59.626 266.794,58.626 267.594,58.626 267.594,55.526 266.794,55.526 266.794,49.725 267.594,49.725 267.594,46.626 266.794,46.626 266.794,45.626" style="fill:none;stroke-width:0.050000mm;stroke:black"/>
<polygon points="9.907,26.575 9.907,27.575 9.107,27.575 9.107,30.675 9.907,30.675 9.907,36.475 9.107,36.475 9.107,39.575 9.907,39.575 9.907,40.575 23.907,40.575 23.907,39.575 24.707,39.575 24.707,36.475 23.907,36.475 23.907,30.675 24.707,30.675 24.707,27.575 23.907,27.575 23.907,26.575" style="fill:none;stroke-width:0.050000mm;stroke:black"/>
<polygon points="41.710,23.704 41.013,24.059 40.460,24.613 40.105,25.309 39.983,26.082 40.061,26.575 31.338,26.575 31.338,27.575 30.538,27.575 30.538,30.675 31.338,30.675 31.338,36.475 30.538,36.475 30.538,39.575 31.338,39.575 31.338,40.575 45.338,40.575 45.338,39.575 46.138,39.575 46.138,36.475 45.338,36.475 45.338,30.675 46.138,30.675 46.138,27.575 45.338,27.575 45.338,26.575 44.904,26.575 44.983,26.082 44.859,25.309 44.505,24.613 43.951,24.059 43.255,23.704 42.483,23.582" style="fill:none;stroke-width:0.050000mm;stroke:black"/>
<polygon points="50.389,26.575 50.389,27.575 49.588,27.575 49.588,30.675 50.389,30.675 50.389,36.475 49.588,36.475 49.588,39.575 50.389,39.575 50.389,40.575 64.389,40.575 64.389,39.575 65.189,39.575 65.189,36.475 64.389,36.475 64.389,30.675 65.189,30.675 65.189,27.575 64.389,27.575 64.389,26.575" style="fill:none;stroke-width:0.050000mm;stroke:black"/>
<polygon points="69.439,26.575 69.439,27.575 68.639,27.575 68.639,30.675 69.439,30.675 69.439,36.475 68.639,36.475 68.639,39.575 69.439,39.575 69.439,40.575 83.439,40.575 83.439,39.575 84.239,39.575 84.239,36.475 83.439,36.475 83.439,30.675 84.239,30.675 84.239,27.575 83.439,27.575 83.439,26.575" style="fill:none;stroke-width:0.050000mm;stroke:black"/>
<polygon points="88.489,26.575 88.489,27.575 87.689,27.575 87.689,30.675 88.489,30.675 88.489,36.475 87.689,36.475 87.689,39.575 88.489,39.575 88.489,40.575 102.489,40.575 102.489,39.575 103.288,39.575 103.288,36.475 102.489,36.475 102.489,30.675 103.288,30.675 103.288,27.575 102.489,27.575 102.489,26.575" style="fill:none;stroke-width:0.050000mm;stroke:black"/>
<polygon points="107.538,26.575 107.538,27.575 106.739,27.575 106.739,30.675 107.538,30.675 107.538,36.475 106.739,36.475 106.739,39.575 107.538,39.575 107.538,40.575 121.538,40.575 121.538,39.575 122.338,39.575 122.338,36.475 121.538,36.475 121.538,30.675 122.338,30.675 122.338,27.575 121.538,27.575 121.538,26.575" style="fill:none;stroke-width:0.050000mm;stroke:black"/>
<polygon points="126.589,26.575 126.589,27.575 125.788,27.575 125.788,30.675 126.589,30.675 126.589,36.475 125.788,36.475 125.788,39.575 126.589,39.575 126.589,40.575 140.589,40.575 140.589,39.575 141.388,39.575 141.388,36.475 140.589,36.475 140.589,30.675 141.388,30.675 141.388,27.575 140.589,27.575 140.589,26.575" style="fill:none;stroke-width:0.050000mm;stroke:black"/>
<polygon points="145.638,26.575 145.638,27.575 144.839,27.575 144.839,30.675 145.638,30.675 145.638,36.475 144.839,36.475 144.839,39.575 145.638,39.575 145.638,40.575 159.638,40.575 159.638,39.575 160.439,39.575 160.439,36.475 159.638,36.475 159.638,30.675 160.439,30.675 160.439,27.575 159.638,27.575 159.638,26.575" style="fill:none;stroke-width:0.050000mm;stroke:black"/>
<polygon points="164.689,26.575 164.689,27.575 163.888,27.575 163.888,30.675 164.689,30.675 164.689,36.475 163.888,36.475 163.888,39.575 164.689,39.575 164.689,40.575 178.689,40.575 178.689,39.575 179.489,39.575 179.489,36.475 178.689,36.475 178.689,30.675 179.489,30.675 179.489,27.575 178.689,27.575 178.689,26.575" style="fill:none;stroke-width:0.050000mm;stroke:black"/>
<polygon points="183.739,26.575 183.739,27.575 182.939,27.575 182.939,30.675 183.739,30.675 183.739,36.475 182.939,36.475 182.939,39.575 183.739,39.575 183.739,40.575 197.739,40.575 197.739,39.575 198.538,39.575 198.538,36.475 197.739,36.475 197.739,30.675 198.538,30.675 198.538,27.575 197.739,27.575 197.739,26.575" style="fill:none;stroke-width:0.050000mm;stroke:black"/>
<polygon points="202.788,26.575 202.788,27.575 201.989,27.575 201.989,30.675 202.788,30.675 202.788,36.475 201.989,36.475 201.989,39.575 202.788,39.575 202.788,40.575 216.788,40.575 216.788,39.575 217.589,39.575 217.589,36.475 216.788,36.475 216.788,30.675 217.589,30.675 217.589,27.575 216.788,27.575 216.788,26.575" style="fill:none;stroke-width:0.050000mm;stroke:black"/>
<polygon points="221.839,26.575 221.839,27.575 221.038,27.575 221.038,30.675 221.839,30.675 221.839,36.475 221.038,36.475 221.038,39.575 221.839,39.575 221.839,40.575 235.839,40.575 235.839,39.575 236.638,39.575 236.638,36.475 235.839,36.475 235.839,30.675 236.638,30.675 236.638,27.575 235.839,27.575 235.839,26.575" style="fill:none;stroke-width:0.050000mm;stroke:black"/>
<polygon points="248.031,26.575 248.031,27.575 247.232,27.575 247.232,30.675 248.031,30.675 248.031,36.475 247.232,36.475 247.232,39.575 248.031,39.575 248.031,40.575 262.031,40.575 262.031,39.575 262.831,39.575 262.831,36.475 262.031,36.475 262.031,30.675 262.831,30.675 262.831,27.575 262.031,27.575 262.031,26.575" style="fill:none;stroke-width:0.050000mm;stroke:black"/>
<polygon points="276.559,23.704 275.862,24.059 275.309,24.613 274.954,25.309 274.832,26.082 274.954,26.854 275.309,27.552 275.862,28.104 276.559,28.459 277.332,28.582 278.104,28.459 278.188,28.416 278.188,30.675 278.988,30.675 278.988,36.475 278.188,36.475 278.188,39.575 278.988,39.575 278.988,40.575 292.988,40.575 292.988,39.575 293.788,39.575 293.788,36.475 292.988,36.475 292.988,30.675 293.788,30.675 293.788,27.575 292.988,27.575 292.988,26.575 279.753,26.575 279.832,26.082 279.709,25.309 279.354,24.613 278.801,24.059 278.104,23.704 277.332,23.582" style="fill:none;stroke-width:0.050000mm;stroke:black"/>
<polygon points="7.526,7.525 7.526,8.525 6.726,8.525 6.726,11.625 7.526,11.625 7.526,17.425 6.726,17.425 6.726,20.525 7.526,20.525 7.526,21.525 21.526,21.525 21.526,20.525 22.326,20.525 22.326,17.425 21.526,17.425 21.526,11.625 22.326,11.625 22.326,8.525 21.526,8.525 21.526,7.525" style="fill:none;stroke-width:0.050000mm;stroke:black"/>
<polygon points="26.576,7.525 26.576,8.525 25.776,8.525 25.776,11.625 26.576,11.625 26.576,17.425 25.776,17.425 25.776,20.525 26.576,20.525 26.576,21.525 40.576,21.525 40.576,20.525 41.376,20.525 41.376,17.425 40.576,17.425 40.576,11.625 41.376,11.625 41.376,8.525 40.576,8.525 40.576,7.525" style="fill:none;stroke-width:0.050000mm;stroke:black"/>
<polygon points="45.626,7.525 45.626,8.525 44.826,8.525 44.826,11.625 45.626,11.625 45.626,17.425 44.826,17.425 44.826,20.525 45.626,20.525 45.626,21.525 59.626,21.525 59.626,20.525 60.425,20.525 60.425,17.425 59.626,17.425 59.626,11.625 60.425,11.625 60.425,8.525 59.626,8.525 59.626,7.525" style="fill:none;stroke-width:0.050000mm;stroke:black"/>
<polygon points="64.675,7.525 64.675,8.525 63.876,8.525 63.876,11.625 64.675,11.625 64.675,17.425 63.876,17.425 63.876,20.525 64.675,20.525 64.675,21.525 78.675,21.525 78.675,20.525 79.476,20.525 79.476,17.425 78.675,17.425 78.675,11.625 79.476,11.625 79.476,8.525 78.675,8.525 78.675,7.525" style="fill:none;stroke-width:0.050000mm;stroke:black"/>
<polygon points="83.726,7.525 83.726,8.525 82.925,8.525 82.925,11.625 83.726,11.625 83.726,17.425 82.925,17.425 82.925,20.525 83.726,20.525 83.726,21.525 97.726,21.525 97.726,20.525 98.526,20.525 98.526,17.425 97.726,17.425 97.726,11.625 98.526,11.625 98.526,8.525 97.726,8.525 97.726,7.525" style="fill:none;stroke-width:0.050000mm;stroke:black"/>
<polygon points="102.776,7.525 102.776,8.525 101.976,8.525 101.976,11.625 102.776,11.625 102.776,17.425 101.976,17.425 101.976,20.525 102.776,20.525 102.776,21.525 116.776,21.525 116.776,20.525 117.576,20.525 117.576,17.425 116.776,17.425 116.776,11.625 117.576,11.625 117.576,8.525 116.776,8.525 116.776,7.525" style="fill:none;stroke-width:0.050000mm;stroke:black"/>
<polygon points="121.826,7.525 121.826,8.525 121.026,8.525 121.026,11.625 121.826,11.625 121.826,17.425 121.026,17.425 121.026,20.525 121.826,20.525 121.826,21.525 135.826,21.525 135.826,20.525 136.626,20.525 136.626,17.425 135.826,17.425 135.826,11.625 136.626,11.625 136.626,8.525 135.826,8.525 135.826,7.525" style="fill:none;stroke-width:0.050000mm;stroke:black"/>
<polygon points="140.876,7.525 140.876,8.525 140.076,8.525 140.076,11.625 140.876,11.625 140.876,17.425 140.076,17.425 140.076,20.525 140.876,20.525 140.876,21.525 154.876,21.525 154.876,20.525 155.675,20.525 155.675,17.425 154.876,17.425 154.876,11.625 155.675,11.625 155.675,8.525 154.876,8.525 154.876,7.525" style="fill:none;stroke-width:0.050000mm;stroke:black"/>
<polygon points="159.925,7.525 159.925,8.525 159.126,8.525 159.126,11.625 159.925,11.625 159.925,17.425 159.126,17.425 159.126,20.525 159.925,20.525 159.925,21.525 173.925,21.525 173.925,20.525 174.726,20.525 174.726,17.425 173.925,17.425 173.925,11.625 174.726,11.625 174.726,8.525 173.925,8.525 173.925,7.525" style="fill:none;stroke-width:0.050000mm;stroke:black"/>
<polygon points="178.976,7.525 178.976,8.525 178.175,8.525 178.175,11.625 178.976,11.625 178.976,17.425 178.175,17.425 178.175,20.525 178.976,20.525 178.976,21.525 192.976,21.525 192.976,20.525 193.775,20.525 193.775,17.425 192.976,17.425 192.976,11.625 193.775,11.625 193.775,8.525 192.976,8.525 192.976,7.525" style="fill:none;stroke-width:0.050000mm;stroke:black"/>
<polygon points="198.025,7.525 198.025,8.525 197.226,8.525 197.226,11.625 198.025,11.625 198.025,17.425 197.226,17.425 197.226,20.525 198.025,20.525 198.025,21.525 212.025,21.525 212.025,20.525 212.826,20.525 212.826,17.425 212.025,17.425 212.025,11.625 212.826,11.625 212.826,8.525 212.025,8.525 212.025,7.525" style="fill:none;stroke-width:0.050000mm;stroke:black"/>
<polygon points="217.076,7.525 217.076,8.525 216.275,8.525 216.275,11.625 217.076,11.625 217.076,17.425 216.275,17.425 216.275,20.525 217.076,20.525 217.076,21.525 231.076,21.525 231.076,20.525 231.876,20.525 231.876,17.425 231.076,17.425 231.076,11.625 231.876,11.625 231.876,8.525 231.076,8.525 231.076,7.525" style="fill:none;stroke-width:0.050000mm;stroke:black"/>
<polygon points="236.126,7.525 236.126,8.525 235.326,8.525 235.326,11.625 236.126,11.625 236.126,17.425 235.326,17.425 235.326,20.525 236.126,20.525 236.126,21.525 250.126,21.525 250.126,20.525 250.925,20.525 250.925,17.425 250.126,17.425 250.126,11.625 250.925,11.625 250.925,8.525 250.126,8.525 250.126,7.525" style="fill:none;stroke-width:0.050000mm;stroke:black"/>
<polygon points="255.175,7.525 255.175,8.525 254.376,8.525 254.376,11.625 255.175,11.625 255.175,17.425 254.376,17.425 254.376,20.525 255.175,20.525 255.175,21.525 269.175,21.525 269.175,20.525 269.975,20.525 269.975,17.425 269.175,17.425 269.175,11.625 269.975,11.625 269.975,8.525 269.175,8.525 269.175,7.525" style="fill:none;stroke-width:0.050000mm;stroke:black"/>
<polygon points="278.988,7.525 278.988,8.525 278.188,8.525 278.188,11.625 278.988,11.625 278.988,17.425 278.188,17.425 278.188,20.525 278.988,20.525 278.988,21.525 292.988,21.525 292.988,20.525 293.788,20.525 293.788,17.425 292.988,17.425 292.988,11.625 293.788,11.625 293.788,8.525 292.988,8.525 292.988,7.525" style="fill:none;stroke-width:0.050000mm;stroke:black"/>
</svg>
