M48
INCH
T1C0.0118
T2C0.0157
T3C0.0236
T4C0.0579
%
G90
G05
T1
X3.0175Y-6.4325
X4.0425Y-6.4547
X4.4175Y-5.7528
X5.5425Y-6.4691
X6.3451Y-6.4835
X6.671Y-5.7735
X7.4296Y-5.7821
X8.5425Y-6.4979
X8.9503Y-5.8028
X10.0425Y-6.6949
X10.7925Y-6.7093
X11.5605Y-6.7255
X12.3253Y-6.7381
X13.087Y-6.7525
X13.5499Y-6.0751
X13.5792Y-5.9813
X13.755Y-5.5636
X13.88Y-5.275
X13.88Y-5.31
X13.9659Y-6.9247
X13.97Y-5.275
X13.97Y-5.31
X13.9838Y-4.6412
X13.9857Y-5.5887
X14.065Y-4.87
X14.2179Y-5.6415
X14.2999Y-5.6139
T2
X13.9132Y-4.9768
X13.9132Y-5.0673
X14.1077Y-4.703
X14.1079Y-4.7552
X14.1411Y-4.703
X14.1413Y-4.7552
X14.1746Y-4.703
X14.1748Y-4.7552
X14.2081Y-4.703
X14.2083Y-4.7552
X14.2415Y-4.703
X14.2417Y-4.7552
X14.275Y-4.703
X14.2752Y-4.7552
X14.3085Y-4.703
X14.3087Y-4.7552
X14.3421Y-4.703
X14.3421Y-4.7552
T4
X8.73Y-4.645
X8.98Y-4.545
X3.6675Y-5.395
X3.9175Y-5.295
X10.7925Y-6.145
X11.0425Y-6.045
X11.73Y-6.895
X11.98Y-6.795
X8.5425Y-6.145
X8.7925Y-6.045
X3.48Y-4.645
X3.73Y-4.545
X6.5737Y-6.895
X6.8237Y-6.795
X7.23Y-4.645
X7.48Y-4.545
X5.2612Y-6.895
X5.5112Y-6.795
X7.4175Y-5.395
X7.6675Y-5.295
X11.6363Y-6.145
X11.8863Y-6.045
X13.4175Y-7.0825
X13.6675Y-6.9825
X10.0425Y-6.145
X10.2925Y-6.045
X10.4175Y-5.395
X10.6675Y-5.295
X4.3237Y-6.895
X4.5737Y-6.795
X5.73Y-4.645
X5.98Y-4.545
X4.7925Y-6.145
X5.0425Y-6.045
X11.5425Y-6.145
X11.7925Y-6.045
X7.7925Y-6.145
X8.0425Y-6.045
X8.1675Y-5.395
X8.4175Y-5.295
X4.98Y-4.645
X5.23Y-4.545
X6.48Y-4.645
X6.73Y-4.545
X3.0112Y-6.145
X3.2612Y-6.045
X12.48Y-6.145
X12.73Y-6.045
X5.5425Y-6.145
X5.7925Y-6.045
X5.9175Y-5.395
X6.1675Y-5.295
X3.48Y-6.895
X3.73Y-6.795
X11.73Y-4.645
X11.98Y-4.545
X10.8863Y-6.895
X11.1363Y-6.795
X8.9175Y-5.395
X9.1675Y-5.295
X12.48Y-4.645
X12.73Y-4.545
X11.1675Y-5.395
X11.4175Y-5.295
X10.23Y-4.645
X10.48Y-4.545
X12.1988Y-5.395
X12.4488Y-5.295
X10.98Y-4.645
X11.23Y-4.545
X4.4175Y-5.395
X4.6675Y-5.295
X9.48Y-4.645
X9.73Y-4.545
X6.2925Y-6.145
X6.5425Y-6.045
X9.2925Y-6.145
X9.5425Y-6.045
X2.8237Y-5.395
X3.0737Y-5.295
X6.6675Y-5.395
X6.9175Y-5.295
X2.73Y-4.645
X2.98Y-4.545
X9.6675Y-5.395
X9.9175Y-5.295
X5.1675Y-5.395
X5.4175Y-5.295
X13.4175Y-6.3325
X13.6675Y-6.2325
X13.4175Y-4.645
X13.6675Y-4.545
X14.1675Y-7.0825
X14.4175Y-6.9825
X7.0425Y-6.145
X7.2925Y-6.045
X12.6675Y-7.0825
X12.9175Y-6.9825
X13.4175Y-5.395
X13.6675Y-5.295
X8.4488Y-6.895
X8.6988Y-6.795
X7.98Y-4.645
X8.23Y-4.545
X4.0425Y-6.145
X4.2925Y-6.045
X12.3863Y-6.145
X12.6363Y-6.045
X9.9488Y-6.895
X10.1988Y-6.795
X4.23Y-4.645
X4.48Y-4.545
T3
G00X14.0547Y-4.5993
M15
G01X14.0547Y-4.5678
M16
G05
G00X14.0547Y-4.7461
M15
G01X14.0547Y-4.687
M16
G05
G00X14.3953Y-4.5993
M15
G01X14.3953Y-4.5678
M16
G05
G00X14.3953Y-4.7461
M15
G01X14.3953Y-4.687
M16
G05
T0
M30
