G04 #@! TF.GenerationSoftware,KiCad,Pcbnew,5.1.2*
G04 #@! TF.CreationDate,2019-06-12T21:28:34-04:00*
G04 #@! TF.ProjectId,CoquiKeyboard,436f7175-694b-4657-9962-6f6172642e6b,2.1*
G04 #@! TF.SameCoordinates,Original*
G04 #@! TF.FileFunction,Paste,Bot*
G04 #@! TF.FilePolarity,Positive*
%FSLAX46Y46*%
G04 Gerber Fmt 4.6, Leading zero omitted, Abs format (unit mm)*
G04 Created by KiCad (PCBNEW 5.1.2) date 2019-06-12 21:28:34*
%MOMM*%
%LPD*%
G04 APERTURE LIST*
%ADD10C,0.100000*%
%ADD11C,0.150000*%
%ADD12C,0.300000*%
%ADD13C,0.400000*%
%ADD14R,1.200000X0.900000*%
%ADD15C,0.975000*%
%ADD16C,1.250000*%
%ADD17R,1.800000X1.100000*%
%ADD18R,1.500000X0.550000*%
%ADD19R,0.550000X1.500000*%
%ADD20R,1.200000X1.400000*%
G04 APERTURE END LIST*
D10*
D11*
X299989000Y-253002200D02*
X299989000Y-285002200D01*
X407989000Y-285002200D01*
X407989000Y-253002200D01*
X299989000Y-253002200D01*
D10*
D11*
X10000000Y-10000000D02*
X10000000Y-287002200D01*
X409989000Y-287002200D01*
X409989000Y-10000000D01*
X10000000Y-10000000D01*
D10*
D11*
X12000000Y-12000000D02*
X12000000Y-285002200D01*
X407989000Y-285002200D01*
X407989000Y-12000000D01*
X12000000Y-12000000D01*
D10*
D11*
X60000000Y-12000000D02*
X60000000Y-10000000D01*
D10*
D11*
X110000000Y-12000000D02*
X110000000Y-10000000D01*
D10*
D11*
X160000000Y-12000000D02*
X160000000Y-10000000D01*
D10*
D11*
X210000000Y-12000000D02*
X210000000Y-10000000D01*
D10*
D11*
X260000000Y-12000000D02*
X260000000Y-10000000D01*
D10*
D11*
X310000000Y-12000000D02*
X310000000Y-10000000D01*
D10*
D11*
X360000000Y-12000000D02*
X360000000Y-10000000D01*
D10*
D11*
X36065476Y-11588095D02*
X35322619Y-11588095D01*
X35694047Y-11588095D02*
X35694047Y-10288095D01*
X35570238Y-10473809D01*
X35446428Y-10597619D01*
X35322619Y-10659523D01*
D10*
D11*
X85322619Y-10411904D02*
X85384523Y-10350000D01*
X85508333Y-10288095D01*
X85817857Y-10288095D01*
X85941666Y-10350000D01*
X86003571Y-10411904D01*
X86065476Y-10535714D01*
X86065476Y-10659523D01*
X86003571Y-10845238D01*
X85260714Y-11588095D01*
X86065476Y-11588095D01*
D10*
D11*
X135260714Y-10288095D02*
X136065476Y-10288095D01*
X135632142Y-10783333D01*
X135817857Y-10783333D01*
X135941666Y-10845238D01*
X136003571Y-10907142D01*
X136065476Y-11030952D01*
X136065476Y-11340476D01*
X136003571Y-11464285D01*
X135941666Y-11526190D01*
X135817857Y-11588095D01*
X135446428Y-11588095D01*
X135322619Y-11526190D01*
X135260714Y-11464285D01*
D10*
D11*
X185941666Y-10721428D02*
X185941666Y-11588095D01*
X185632142Y-10226190D02*
X185322619Y-11154761D01*
X186127380Y-11154761D01*
D10*
D11*
X236003571Y-10288095D02*
X235384523Y-10288095D01*
X235322619Y-10907142D01*
X235384523Y-10845238D01*
X235508333Y-10783333D01*
X235817857Y-10783333D01*
X235941666Y-10845238D01*
X236003571Y-10907142D01*
X236065476Y-11030952D01*
X236065476Y-11340476D01*
X236003571Y-11464285D01*
X235941666Y-11526190D01*
X235817857Y-11588095D01*
X235508333Y-11588095D01*
X235384523Y-11526190D01*
X235322619Y-11464285D01*
D10*
D11*
X285941666Y-10288095D02*
X285694047Y-10288095D01*
X285570238Y-10350000D01*
X285508333Y-10411904D01*
X285384523Y-10597619D01*
X285322619Y-10845238D01*
X285322619Y-11340476D01*
X285384523Y-11464285D01*
X285446428Y-11526190D01*
X285570238Y-11588095D01*
X285817857Y-11588095D01*
X285941666Y-11526190D01*
X286003571Y-11464285D01*
X286065476Y-11340476D01*
X286065476Y-11030952D01*
X286003571Y-10907142D01*
X285941666Y-10845238D01*
X285817857Y-10783333D01*
X285570238Y-10783333D01*
X285446428Y-10845238D01*
X285384523Y-10907142D01*
X285322619Y-11030952D01*
D10*
D11*
X335260714Y-10288095D02*
X336127380Y-10288095D01*
X335570238Y-11588095D01*
D10*
D11*
X385570238Y-10845238D02*
X385446428Y-10783333D01*
X385384523Y-10721428D01*
X385322619Y-10597619D01*
X385322619Y-10535714D01*
X385384523Y-10411904D01*
X385446428Y-10350000D01*
X385570238Y-10288095D01*
X385817857Y-10288095D01*
X385941666Y-10350000D01*
X386003571Y-10411904D01*
X386065476Y-10535714D01*
X386065476Y-10597619D01*
X386003571Y-10721428D01*
X385941666Y-10783333D01*
X385817857Y-10845238D01*
X385570238Y-10845238D01*
X385446428Y-10907142D01*
X385384523Y-10969047D01*
X385322619Y-11092857D01*
X385322619Y-11340476D01*
X385384523Y-11464285D01*
X385446428Y-11526190D01*
X385570238Y-11588095D01*
X385817857Y-11588095D01*
X385941666Y-11526190D01*
X386003571Y-11464285D01*
X386065476Y-11340476D01*
X386065476Y-11092857D01*
X386003571Y-10969047D01*
X385941666Y-10907142D01*
X385817857Y-10845238D01*
D10*
D11*
X60000000Y-285002200D02*
X60000000Y-287002200D01*
D10*
D11*
X110000000Y-285002200D02*
X110000000Y-287002200D01*
D10*
D11*
X160000000Y-285002200D02*
X160000000Y-287002200D01*
D10*
D11*
X210000000Y-285002200D02*
X210000000Y-287002200D01*
D10*
D11*
X260000000Y-285002200D02*
X260000000Y-287002200D01*
D10*
D11*
X310000000Y-285002200D02*
X310000000Y-287002200D01*
D10*
D11*
X360000000Y-285002200D02*
X360000000Y-287002200D01*
D10*
D11*
X36065476Y-286590295D02*
X35322619Y-286590295D01*
X35694047Y-286590295D02*
X35694047Y-285290295D01*
X35570238Y-285476009D01*
X35446428Y-285599819D01*
X35322619Y-285661723D01*
D10*
D11*
X85322619Y-285414104D02*
X85384523Y-285352200D01*
X85508333Y-285290295D01*
X85817857Y-285290295D01*
X85941666Y-285352200D01*
X86003571Y-285414104D01*
X86065476Y-285537914D01*
X86065476Y-285661723D01*
X86003571Y-285847438D01*
X85260714Y-286590295D01*
X86065476Y-286590295D01*
D10*
D11*
X135260714Y-285290295D02*
X136065476Y-285290295D01*
X135632142Y-285785533D01*
X135817857Y-285785533D01*
X135941666Y-285847438D01*
X136003571Y-285909342D01*
X136065476Y-286033152D01*
X136065476Y-286342676D01*
X136003571Y-286466485D01*
X135941666Y-286528390D01*
X135817857Y-286590295D01*
X135446428Y-286590295D01*
X135322619Y-286528390D01*
X135260714Y-286466485D01*
D10*
D11*
X185941666Y-285723628D02*
X185941666Y-286590295D01*
X185632142Y-285228390D02*
X185322619Y-286156961D01*
X186127380Y-286156961D01*
D10*
D11*
X236003571Y-285290295D02*
X235384523Y-285290295D01*
X235322619Y-285909342D01*
X235384523Y-285847438D01*
X235508333Y-285785533D01*
X235817857Y-285785533D01*
X235941666Y-285847438D01*
X236003571Y-285909342D01*
X236065476Y-286033152D01*
X236065476Y-286342676D01*
X236003571Y-286466485D01*
X235941666Y-286528390D01*
X235817857Y-286590295D01*
X235508333Y-286590295D01*
X235384523Y-286528390D01*
X235322619Y-286466485D01*
D10*
D11*
X285941666Y-285290295D02*
X285694047Y-285290295D01*
X285570238Y-285352200D01*
X285508333Y-285414104D01*
X285384523Y-285599819D01*
X285322619Y-285847438D01*
X285322619Y-286342676D01*
X285384523Y-286466485D01*
X285446428Y-286528390D01*
X285570238Y-286590295D01*
X285817857Y-286590295D01*
X285941666Y-286528390D01*
X286003571Y-286466485D01*
X286065476Y-286342676D01*
X286065476Y-286033152D01*
X286003571Y-285909342D01*
X285941666Y-285847438D01*
X285817857Y-285785533D01*
X285570238Y-285785533D01*
X285446428Y-285847438D01*
X285384523Y-285909342D01*
X285322619Y-286033152D01*
D10*
D11*
X335260714Y-285290295D02*
X336127380Y-285290295D01*
X335570238Y-286590295D01*
D10*
D11*
X385570238Y-285847438D02*
X385446428Y-285785533D01*
X385384523Y-285723628D01*
X385322619Y-285599819D01*
X385322619Y-285537914D01*
X385384523Y-285414104D01*
X385446428Y-285352200D01*
X385570238Y-285290295D01*
X385817857Y-285290295D01*
X385941666Y-285352200D01*
X386003571Y-285414104D01*
X386065476Y-285537914D01*
X386065476Y-285599819D01*
X386003571Y-285723628D01*
X385941666Y-285785533D01*
X385817857Y-285847438D01*
X385570238Y-285847438D01*
X385446428Y-285909342D01*
X385384523Y-285971247D01*
X385322619Y-286095057D01*
X385322619Y-286342676D01*
X385384523Y-286466485D01*
X385446428Y-286528390D01*
X385570238Y-286590295D01*
X385817857Y-286590295D01*
X385941666Y-286528390D01*
X386003571Y-286466485D01*
X386065476Y-286342676D01*
X386065476Y-286095057D01*
X386003571Y-285971247D01*
X385941666Y-285909342D01*
X385817857Y-285847438D01*
D10*
D11*
X10000000Y-60000000D02*
X12000000Y-60000000D01*
D10*
D11*
X10000000Y-110000000D02*
X12000000Y-110000000D01*
D10*
D11*
X10000000Y-160000000D02*
X12000000Y-160000000D01*
D10*
D11*
X10000000Y-210000000D02*
X12000000Y-210000000D01*
D10*
D11*
X10000000Y-260000000D02*
X12000000Y-260000000D01*
D10*
D11*
X10690476Y-35216666D02*
X11309523Y-35216666D01*
X10566666Y-35588095D02*
X11000000Y-34288095D01*
X11433333Y-35588095D01*
D10*
D11*
X11092857Y-84907142D02*
X11278571Y-84969047D01*
X11340476Y-85030952D01*
X11402380Y-85154761D01*
X11402380Y-85340476D01*
X11340476Y-85464285D01*
X11278571Y-85526190D01*
X11154761Y-85588095D01*
X10659523Y-85588095D01*
X10659523Y-84288095D01*
X11092857Y-84288095D01*
X11216666Y-84350000D01*
X11278571Y-84411904D01*
X11340476Y-84535714D01*
X11340476Y-84659523D01*
X11278571Y-84783333D01*
X11216666Y-84845238D01*
X11092857Y-84907142D01*
X10659523Y-84907142D01*
D10*
D11*
X11402380Y-135464285D02*
X11340476Y-135526190D01*
X11154761Y-135588095D01*
X11030952Y-135588095D01*
X10845238Y-135526190D01*
X10721428Y-135402380D01*
X10659523Y-135278571D01*
X10597619Y-135030952D01*
X10597619Y-134845238D01*
X10659523Y-134597619D01*
X10721428Y-134473809D01*
X10845238Y-134350000D01*
X11030952Y-134288095D01*
X11154761Y-134288095D01*
X11340476Y-134350000D01*
X11402380Y-134411904D01*
D10*
D11*
X10659523Y-185588095D02*
X10659523Y-184288095D01*
X10969047Y-184288095D01*
X11154761Y-184350000D01*
X11278571Y-184473809D01*
X11340476Y-184597619D01*
X11402380Y-184845238D01*
X11402380Y-185030952D01*
X11340476Y-185278571D01*
X11278571Y-185402380D01*
X11154761Y-185526190D01*
X10969047Y-185588095D01*
X10659523Y-185588095D01*
D10*
D11*
X10721428Y-234907142D02*
X11154761Y-234907142D01*
X11340476Y-235588095D02*
X10721428Y-235588095D01*
X10721428Y-234288095D01*
X11340476Y-234288095D01*
D10*
D11*
X11185714Y-284907142D02*
X10752380Y-284907142D01*
X10752380Y-285588095D02*
X10752380Y-284288095D01*
X11371428Y-284288095D01*
D10*
D11*
X409989000Y-60000000D02*
X407989000Y-60000000D01*
D10*
D11*
X409989000Y-110000000D02*
X407989000Y-110000000D01*
D10*
D11*
X409989000Y-160000000D02*
X407989000Y-160000000D01*
D10*
D11*
X409989000Y-210000000D02*
X407989000Y-210000000D01*
D10*
D11*
X409989000Y-260000000D02*
X407989000Y-260000000D01*
D10*
D11*
X408679476Y-35216666D02*
X409298523Y-35216666D01*
X408555666Y-35588095D02*
X408989000Y-34288095D01*
X409422333Y-35588095D01*
D10*
D11*
X409081857Y-84907142D02*
X409267571Y-84969047D01*
X409329476Y-85030952D01*
X409391380Y-85154761D01*
X409391380Y-85340476D01*
X409329476Y-85464285D01*
X409267571Y-85526190D01*
X409143761Y-85588095D01*
X408648523Y-85588095D01*
X408648523Y-84288095D01*
X409081857Y-84288095D01*
X409205666Y-84350000D01*
X409267571Y-84411904D01*
X409329476Y-84535714D01*
X409329476Y-84659523D01*
X409267571Y-84783333D01*
X409205666Y-84845238D01*
X409081857Y-84907142D01*
X408648523Y-84907142D01*
D10*
D11*
X409391380Y-135464285D02*
X409329476Y-135526190D01*
X409143761Y-135588095D01*
X409019952Y-135588095D01*
X408834238Y-135526190D01*
X408710428Y-135402380D01*
X408648523Y-135278571D01*
X408586619Y-135030952D01*
X408586619Y-134845238D01*
X408648523Y-134597619D01*
X408710428Y-134473809D01*
X408834238Y-134350000D01*
X409019952Y-134288095D01*
X409143761Y-134288095D01*
X409329476Y-134350000D01*
X409391380Y-134411904D01*
D10*
D11*
X408648523Y-185588095D02*
X408648523Y-184288095D01*
X408958047Y-184288095D01*
X409143761Y-184350000D01*
X409267571Y-184473809D01*
X409329476Y-184597619D01*
X409391380Y-184845238D01*
X409391380Y-185030952D01*
X409329476Y-185278571D01*
X409267571Y-185402380D01*
X409143761Y-185526190D01*
X408958047Y-185588095D01*
X408648523Y-185588095D01*
D10*
D11*
X408710428Y-234907142D02*
X409143761Y-234907142D01*
X409329476Y-235588095D02*
X408710428Y-235588095D01*
X408710428Y-234288095D01*
X409329476Y-234288095D01*
D10*
D11*
X409174714Y-284907142D02*
X408741380Y-284907142D01*
X408741380Y-285588095D02*
X408741380Y-284288095D01*
X409360428Y-284288095D01*
D10*
D11*
X323421142Y-280780771D02*
X323421142Y-279280771D01*
X323778285Y-279280771D01*
X323992571Y-279352200D01*
X324135428Y-279495057D01*
X324206857Y-279637914D01*
X324278285Y-279923628D01*
X324278285Y-280137914D01*
X324206857Y-280423628D01*
X324135428Y-280566485D01*
X323992571Y-280709342D01*
X323778285Y-280780771D01*
X323421142Y-280780771D01*
X325564000Y-280780771D02*
X325564000Y-279995057D01*
X325492571Y-279852200D01*
X325349714Y-279780771D01*
X325064000Y-279780771D01*
X324921142Y-279852200D01*
X325564000Y-280709342D02*
X325421142Y-280780771D01*
X325064000Y-280780771D01*
X324921142Y-280709342D01*
X324849714Y-280566485D01*
X324849714Y-280423628D01*
X324921142Y-280280771D01*
X325064000Y-280209342D01*
X325421142Y-280209342D01*
X325564000Y-280137914D01*
X326064000Y-279780771D02*
X326635428Y-279780771D01*
X326278285Y-279280771D02*
X326278285Y-280566485D01*
X326349714Y-280709342D01*
X326492571Y-280780771D01*
X326635428Y-280780771D01*
X327706857Y-280709342D02*
X327564000Y-280780771D01*
X327278285Y-280780771D01*
X327135428Y-280709342D01*
X327064000Y-280566485D01*
X327064000Y-279995057D01*
X327135428Y-279852200D01*
X327278285Y-279780771D01*
X327564000Y-279780771D01*
X327706857Y-279852200D01*
X327778285Y-279995057D01*
X327778285Y-280137914D01*
X327064000Y-280280771D01*
X328421142Y-280637914D02*
X328492571Y-280709342D01*
X328421142Y-280780771D01*
X328349714Y-280709342D01*
X328421142Y-280637914D01*
X328421142Y-280780771D01*
X328421142Y-279852200D02*
X328492571Y-279923628D01*
X328421142Y-279995057D01*
X328349714Y-279923628D01*
X328421142Y-279852200D01*
X328421142Y-279995057D01*
X330206857Y-279423628D02*
X330278285Y-279352200D01*
X330421142Y-279280771D01*
X330778285Y-279280771D01*
X330921142Y-279352200D01*
X330992571Y-279423628D01*
X331064000Y-279566485D01*
X331064000Y-279709342D01*
X330992571Y-279923628D01*
X330135428Y-280780771D01*
X331064000Y-280780771D01*
X331992571Y-279280771D02*
X332135428Y-279280771D01*
X332278285Y-279352200D01*
X332349714Y-279423628D01*
X332421142Y-279566485D01*
X332492571Y-279852200D01*
X332492571Y-280209342D01*
X332421142Y-280495057D01*
X332349714Y-280637914D01*
X332278285Y-280709342D01*
X332135428Y-280780771D01*
X331992571Y-280780771D01*
X331849714Y-280709342D01*
X331778285Y-280637914D01*
X331706857Y-280495057D01*
X331635428Y-280209342D01*
X331635428Y-279852200D01*
X331706857Y-279566485D01*
X331778285Y-279423628D01*
X331849714Y-279352200D01*
X331992571Y-279280771D01*
X333921142Y-280780771D02*
X333064000Y-280780771D01*
X333492571Y-280780771D02*
X333492571Y-279280771D01*
X333349714Y-279495057D01*
X333206857Y-279637914D01*
X333064000Y-279709342D01*
X334635428Y-280780771D02*
X334921142Y-280780771D01*
X335064000Y-280709342D01*
X335135428Y-280637914D01*
X335278285Y-280423628D01*
X335349714Y-280137914D01*
X335349714Y-279566485D01*
X335278285Y-279423628D01*
X335206857Y-279352200D01*
X335064000Y-279280771D01*
X334778285Y-279280771D01*
X334635428Y-279352200D01*
X334564000Y-279423628D01*
X334492571Y-279566485D01*
X334492571Y-279923628D01*
X334564000Y-280066485D01*
X334635428Y-280137914D01*
X334778285Y-280209342D01*
X335064000Y-280209342D01*
X335206857Y-280137914D01*
X335278285Y-280066485D01*
X335349714Y-279923628D01*
X335992571Y-280209342D02*
X337135428Y-280209342D01*
X338135428Y-279280771D02*
X338278285Y-279280771D01*
X338421142Y-279352200D01*
X338492571Y-279423628D01*
X338564000Y-279566485D01*
X338635428Y-279852200D01*
X338635428Y-280209342D01*
X338564000Y-280495057D01*
X338492571Y-280637914D01*
X338421142Y-280709342D01*
X338278285Y-280780771D01*
X338135428Y-280780771D01*
X337992571Y-280709342D01*
X337921142Y-280637914D01*
X337849714Y-280495057D01*
X337778285Y-280209342D01*
X337778285Y-279852200D01*
X337849714Y-279566485D01*
X337921142Y-279423628D01*
X337992571Y-279352200D01*
X338135428Y-279280771D01*
X339921142Y-279280771D02*
X339635428Y-279280771D01*
X339492571Y-279352200D01*
X339421142Y-279423628D01*
X339278285Y-279637914D01*
X339206857Y-279923628D01*
X339206857Y-280495057D01*
X339278285Y-280637914D01*
X339349714Y-280709342D01*
X339492571Y-280780771D01*
X339778285Y-280780771D01*
X339921142Y-280709342D01*
X339992571Y-280637914D01*
X340064000Y-280495057D01*
X340064000Y-280137914D01*
X339992571Y-279995057D01*
X339921142Y-279923628D01*
X339778285Y-279852200D01*
X339492571Y-279852200D01*
X339349714Y-279923628D01*
X339278285Y-279995057D01*
X339206857Y-280137914D01*
X340706857Y-280209342D02*
X341849714Y-280209342D01*
X342849714Y-279280771D02*
X342992571Y-279280771D01*
X343135428Y-279352200D01*
X343206857Y-279423628D01*
X343278285Y-279566485D01*
X343349714Y-279852200D01*
X343349714Y-280209342D01*
X343278285Y-280495057D01*
X343206857Y-280637914D01*
X343135428Y-280709342D01*
X342992571Y-280780771D01*
X342849714Y-280780771D01*
X342706857Y-280709342D01*
X342635428Y-280637914D01*
X342564000Y-280495057D01*
X342492571Y-280209342D01*
X342492571Y-279852200D01*
X342564000Y-279566485D01*
X342635428Y-279423628D01*
X342706857Y-279352200D01*
X342849714Y-279280771D01*
X344064000Y-280780771D02*
X344349714Y-280780771D01*
X344492571Y-280709342D01*
X344564000Y-280637914D01*
X344706857Y-280423628D01*
X344778285Y-280137914D01*
X344778285Y-279566485D01*
X344706857Y-279423628D01*
X344635428Y-279352200D01*
X344492571Y-279280771D01*
X344206857Y-279280771D01*
X344064000Y-279352200D01*
X343992571Y-279423628D01*
X343921142Y-279566485D01*
X343921142Y-279923628D01*
X343992571Y-280066485D01*
X344064000Y-280137914D01*
X344206857Y-280209342D01*
X344492571Y-280209342D01*
X344635428Y-280137914D01*
X344706857Y-280066485D01*
X344778285Y-279923628D01*
D10*
D11*
X299989000Y-281502200D02*
X407989000Y-281502200D01*
D10*
D11*
X301421142Y-283580771D02*
X301421142Y-282080771D01*
X302278285Y-283580771D02*
X301635428Y-282723628D01*
X302278285Y-282080771D02*
X301421142Y-282937914D01*
X302921142Y-283580771D02*
X302921142Y-282580771D01*
X302921142Y-282080771D02*
X302849714Y-282152200D01*
X302921142Y-282223628D01*
X302992571Y-282152200D01*
X302921142Y-282080771D01*
X302921142Y-282223628D01*
X304492571Y-283437914D02*
X304421142Y-283509342D01*
X304206857Y-283580771D01*
X304064000Y-283580771D01*
X303849714Y-283509342D01*
X303706857Y-283366485D01*
X303635428Y-283223628D01*
X303564000Y-282937914D01*
X303564000Y-282723628D01*
X303635428Y-282437914D01*
X303706857Y-282295057D01*
X303849714Y-282152200D01*
X304064000Y-282080771D01*
X304206857Y-282080771D01*
X304421142Y-282152200D01*
X304492571Y-282223628D01*
X305778285Y-283580771D02*
X305778285Y-282795057D01*
X305706857Y-282652200D01*
X305564000Y-282580771D01*
X305278285Y-282580771D01*
X305135428Y-282652200D01*
X305778285Y-283509342D02*
X305635428Y-283580771D01*
X305278285Y-283580771D01*
X305135428Y-283509342D01*
X305064000Y-283366485D01*
X305064000Y-283223628D01*
X305135428Y-283080771D01*
X305278285Y-283009342D01*
X305635428Y-283009342D01*
X305778285Y-282937914D01*
X307135428Y-283580771D02*
X307135428Y-282080771D01*
X307135428Y-283509342D02*
X306992571Y-283580771D01*
X306706857Y-283580771D01*
X306564000Y-283509342D01*
X306492571Y-283437914D01*
X306421142Y-283295057D01*
X306421142Y-282866485D01*
X306492571Y-282723628D01*
X306564000Y-282652200D01*
X306706857Y-282580771D01*
X306992571Y-282580771D01*
X307135428Y-282652200D01*
X308992571Y-282795057D02*
X309492571Y-282795057D01*
X309706857Y-283580771D02*
X308992571Y-283580771D01*
X308992571Y-282080771D01*
X309706857Y-282080771D01*
X310349714Y-283437914D02*
X310421142Y-283509342D01*
X310349714Y-283580771D01*
X310278285Y-283509342D01*
X310349714Y-283437914D01*
X310349714Y-283580771D01*
X311064000Y-283580771D02*
X311064000Y-282080771D01*
X311421142Y-282080771D01*
X311635428Y-282152200D01*
X311778285Y-282295057D01*
X311849714Y-282437914D01*
X311921142Y-282723628D01*
X311921142Y-282937914D01*
X311849714Y-283223628D01*
X311778285Y-283366485D01*
X311635428Y-283509342D01*
X311421142Y-283580771D01*
X311064000Y-283580771D01*
X312564000Y-283437914D02*
X312635428Y-283509342D01*
X312564000Y-283580771D01*
X312492571Y-283509342D01*
X312564000Y-283437914D01*
X312564000Y-283580771D01*
X313206857Y-283152200D02*
X313921142Y-283152200D01*
X313064000Y-283580771D02*
X313564000Y-282080771D01*
X314064000Y-283580771D01*
X314564000Y-283437914D02*
X314635428Y-283509342D01*
X314564000Y-283580771D01*
X314492571Y-283509342D01*
X314564000Y-283437914D01*
X314564000Y-283580771D01*
X317564000Y-283580771D02*
X317564000Y-282080771D01*
X317706857Y-283009342D02*
X318135428Y-283580771D01*
X318135428Y-282580771D02*
X317564000Y-283152200D01*
X318778285Y-283580771D02*
X318778285Y-282580771D01*
X318778285Y-282080771D02*
X318706857Y-282152200D01*
X318778285Y-282223628D01*
X318849714Y-282152200D01*
X318778285Y-282080771D01*
X318778285Y-282223628D01*
X320135428Y-283509342D02*
X319992571Y-283580771D01*
X319706857Y-283580771D01*
X319564000Y-283509342D01*
X319492571Y-283437914D01*
X319421142Y-283295057D01*
X319421142Y-282866485D01*
X319492571Y-282723628D01*
X319564000Y-282652200D01*
X319706857Y-282580771D01*
X319992571Y-282580771D01*
X320135428Y-282652200D01*
X321421142Y-283580771D02*
X321421142Y-282795057D01*
X321349714Y-282652200D01*
X321206857Y-282580771D01*
X320921142Y-282580771D01*
X320778285Y-282652200D01*
X321421142Y-283509342D02*
X321278285Y-283580771D01*
X320921142Y-283580771D01*
X320778285Y-283509342D01*
X320706857Y-283366485D01*
X320706857Y-283223628D01*
X320778285Y-283080771D01*
X320921142Y-283009342D01*
X321278285Y-283009342D01*
X321421142Y-282937914D01*
X322778285Y-283580771D02*
X322778285Y-282080771D01*
X322778285Y-283509342D02*
X322635428Y-283580771D01*
X322349714Y-283580771D01*
X322206857Y-283509342D01*
X322135428Y-283437914D01*
X322064000Y-283295057D01*
X322064000Y-282866485D01*
X322135428Y-282723628D01*
X322206857Y-282652200D01*
X322349714Y-282580771D01*
X322635428Y-282580771D01*
X322778285Y-282652200D01*
X325349714Y-282080771D02*
X324635428Y-282080771D01*
X324564000Y-282795057D01*
X324635428Y-282723628D01*
X324778285Y-282652200D01*
X325135428Y-282652200D01*
X325278285Y-282723628D01*
X325349714Y-282795057D01*
X325421142Y-282937914D01*
X325421142Y-283295057D01*
X325349714Y-283437914D01*
X325278285Y-283509342D01*
X325135428Y-283580771D01*
X324778285Y-283580771D01*
X324635428Y-283509342D01*
X324564000Y-283437914D01*
X326064000Y-283437914D02*
X326135428Y-283509342D01*
X326064000Y-283580771D01*
X325992571Y-283509342D01*
X326064000Y-283437914D01*
X326064000Y-283580771D01*
X327564000Y-283580771D02*
X326706857Y-283580771D01*
X327135428Y-283580771D02*
X327135428Y-282080771D01*
X326992571Y-282295057D01*
X326849714Y-282437914D01*
X326706857Y-282509342D01*
X328206857Y-283437914D02*
X328278285Y-283509342D01*
X328206857Y-283580771D01*
X328135428Y-283509342D01*
X328206857Y-283437914D01*
X328206857Y-283580771D01*
X328849714Y-282223628D02*
X328921142Y-282152200D01*
X329064000Y-282080771D01*
X329421142Y-282080771D01*
X329564000Y-282152200D01*
X329635428Y-282223628D01*
X329706857Y-282366485D01*
X329706857Y-282509342D01*
X329635428Y-282723628D01*
X328778285Y-283580771D01*
X329706857Y-283580771D01*
D10*
D11*
X299989000Y-278502200D02*
X407989000Y-278502200D01*
D10*
D12*
X387398285Y-280780771D02*
X386898285Y-280066485D01*
X386541142Y-280780771D02*
X386541142Y-279280771D01*
X387112571Y-279280771D01*
X387255428Y-279352200D01*
X387326857Y-279423628D01*
X387398285Y-279566485D01*
X387398285Y-279780771D01*
X387326857Y-279923628D01*
X387255428Y-279995057D01*
X387112571Y-280066485D01*
X386541142Y-280066485D01*
X388612571Y-280709342D02*
X388469714Y-280780771D01*
X388184000Y-280780771D01*
X388041142Y-280709342D01*
X387969714Y-280566485D01*
X387969714Y-279995057D01*
X388041142Y-279852200D01*
X388184000Y-279780771D01*
X388469714Y-279780771D01*
X388612571Y-279852200D01*
X388684000Y-279995057D01*
X388684000Y-280137914D01*
X387969714Y-280280771D01*
X389184000Y-279780771D02*
X389541142Y-280780771D01*
X389898285Y-279780771D01*
X390469714Y-280637914D02*
X390541142Y-280709342D01*
X390469714Y-280780771D01*
X390398285Y-280709342D01*
X390469714Y-280637914D01*
X390469714Y-280780771D01*
X390469714Y-279852200D02*
X390541142Y-279923628D01*
X390469714Y-279995057D01*
X390398285Y-279923628D01*
X390469714Y-279852200D01*
X390469714Y-279995057D01*
X392255428Y-279423628D02*
X392326857Y-279352200D01*
X392469714Y-279280771D01*
X392826857Y-279280771D01*
X392969714Y-279352200D01*
X393041142Y-279423628D01*
X393112571Y-279566485D01*
X393112571Y-279709342D01*
X393041142Y-279923628D01*
X392184000Y-280780771D01*
X393112571Y-280780771D01*
X393755428Y-280637914D02*
X393826857Y-280709342D01*
X393755428Y-280780771D01*
X393684000Y-280709342D01*
X393755428Y-280637914D01*
X393755428Y-280780771D01*
X395255428Y-280780771D02*
X394398285Y-280780771D01*
X394826857Y-280780771D02*
X394826857Y-279280771D01*
X394684000Y-279495057D01*
X394541142Y-279637914D01*
X394398285Y-279709342D01*
D10*
D11*
X301349714Y-280709342D02*
X301564000Y-280780771D01*
X301921142Y-280780771D01*
X302064000Y-280709342D01*
X302135428Y-280637914D01*
X302206857Y-280495057D01*
X302206857Y-280352200D01*
X302135428Y-280209342D01*
X302064000Y-280137914D01*
X301921142Y-280066485D01*
X301635428Y-279995057D01*
X301492571Y-279923628D01*
X301421142Y-279852200D01*
X301349714Y-279709342D01*
X301349714Y-279566485D01*
X301421142Y-279423628D01*
X301492571Y-279352200D01*
X301635428Y-279280771D01*
X301992571Y-279280771D01*
X302206857Y-279352200D01*
X302849714Y-280780771D02*
X302849714Y-279780771D01*
X302849714Y-279280771D02*
X302778285Y-279352200D01*
X302849714Y-279423628D01*
X302921142Y-279352200D01*
X302849714Y-279280771D01*
X302849714Y-279423628D01*
X303421142Y-279780771D02*
X304206857Y-279780771D01*
X303421142Y-280780771D01*
X304206857Y-280780771D01*
X305349714Y-280709342D02*
X305206857Y-280780771D01*
X304921142Y-280780771D01*
X304778285Y-280709342D01*
X304706857Y-280566485D01*
X304706857Y-279995057D01*
X304778285Y-279852200D01*
X304921142Y-279780771D01*
X305206857Y-279780771D01*
X305349714Y-279852200D01*
X305421142Y-279995057D01*
X305421142Y-280137914D01*
X304706857Y-280280771D01*
X306064000Y-280637914D02*
X306135428Y-280709342D01*
X306064000Y-280780771D01*
X305992571Y-280709342D01*
X306064000Y-280637914D01*
X306064000Y-280780771D01*
X306064000Y-279852200D02*
X306135428Y-279923628D01*
X306064000Y-279995057D01*
X305992571Y-279923628D01*
X306064000Y-279852200D01*
X306064000Y-279995057D01*
X307849714Y-280352200D02*
X308564000Y-280352200D01*
X307706857Y-280780771D02*
X308206857Y-279280771D01*
X308706857Y-280780771D01*
X309064000Y-279280771D02*
X309992571Y-279280771D01*
X309492571Y-279852200D01*
X309706857Y-279852200D01*
X309849714Y-279923628D01*
X309921142Y-279995057D01*
X309992571Y-280137914D01*
X309992571Y-280495057D01*
X309921142Y-280637914D01*
X309849714Y-280709342D01*
X309706857Y-280780771D01*
X309278285Y-280780771D01*
X309135428Y-280709342D01*
X309064000Y-280637914D01*
D10*
D11*
X386421142Y-283580771D02*
X386421142Y-282080771D01*
X387778285Y-283580771D02*
X387778285Y-282080771D01*
X387778285Y-283509342D02*
X387635428Y-283580771D01*
X387349714Y-283580771D01*
X387206857Y-283509342D01*
X387135428Y-283437914D01*
X387064000Y-283295057D01*
X387064000Y-282866485D01*
X387135428Y-282723628D01*
X387206857Y-282652200D01*
X387349714Y-282580771D01*
X387635428Y-282580771D01*
X387778285Y-282652200D01*
X388492571Y-283437914D02*
X388564000Y-283509342D01*
X388492571Y-283580771D01*
X388421142Y-283509342D01*
X388492571Y-283437914D01*
X388492571Y-283580771D01*
X388492571Y-282652200D02*
X388564000Y-282723628D01*
X388492571Y-282795057D01*
X388421142Y-282723628D01*
X388492571Y-282652200D01*
X388492571Y-282795057D01*
X391135428Y-283580771D02*
X390278285Y-283580771D01*
X390706857Y-283580771D02*
X390706857Y-282080771D01*
X390564000Y-282295057D01*
X390421142Y-282437914D01*
X390278285Y-282509342D01*
X392849714Y-282009342D02*
X391564000Y-283937914D01*
X394135428Y-283580771D02*
X393278285Y-283580771D01*
X393706857Y-283580771D02*
X393706857Y-282080771D01*
X393564000Y-282295057D01*
X393421142Y-282437914D01*
X393278285Y-282509342D01*
D10*
D11*
X299989000Y-274502200D02*
X407989000Y-274502200D01*
D10*
D13*
X301701380Y-275206961D02*
X302844238Y-275206961D01*
X302022809Y-277206961D02*
X302272809Y-275206961D01*
X303260904Y-277206961D02*
X303427571Y-275873628D01*
X303510904Y-275206961D02*
X303403761Y-275302200D01*
X303487095Y-275397438D01*
X303594238Y-275302200D01*
X303510904Y-275206961D01*
X303487095Y-275397438D01*
X304094238Y-275873628D02*
X304856142Y-275873628D01*
X304463285Y-275206961D02*
X304249000Y-276921247D01*
X304320428Y-277111723D01*
X304499000Y-277206961D01*
X304689476Y-277206961D01*
X305641857Y-277206961D02*
X305463285Y-277111723D01*
X305391857Y-276921247D01*
X305606142Y-275206961D01*
X307177571Y-277111723D02*
X306975190Y-277206961D01*
X306594238Y-277206961D01*
X306415666Y-277111723D01*
X306344238Y-276921247D01*
X306439476Y-276159342D01*
X306558523Y-275968866D01*
X306760904Y-275873628D01*
X307141857Y-275873628D01*
X307320428Y-275968866D01*
X307391857Y-276159342D01*
X307368047Y-276349819D01*
X306391857Y-276540295D01*
X308141857Y-277016485D02*
X308225190Y-277111723D01*
X308118047Y-277206961D01*
X308034714Y-277111723D01*
X308141857Y-277016485D01*
X308118047Y-277206961D01*
X308272809Y-275968866D02*
X308356142Y-276064104D01*
X308249000Y-276159342D01*
X308165666Y-276064104D01*
X308272809Y-275968866D01*
X308249000Y-276159342D01*
X311760904Y-277016485D02*
X311653761Y-277111723D01*
X311356142Y-277206961D01*
X311165666Y-277206961D01*
X310891857Y-277111723D01*
X310725190Y-276921247D01*
X310653761Y-276730771D01*
X310606142Y-276349819D01*
X310641857Y-276064104D01*
X310784714Y-275683152D01*
X310903761Y-275492676D01*
X311118047Y-275302200D01*
X311415666Y-275206961D01*
X311606142Y-275206961D01*
X311879952Y-275302200D01*
X311963285Y-275397438D01*
X312879952Y-277206961D02*
X312701380Y-277111723D01*
X312618047Y-277016485D01*
X312546619Y-276826009D01*
X312618047Y-276254580D01*
X312737095Y-276064104D01*
X312844238Y-275968866D01*
X313046619Y-275873628D01*
X313332333Y-275873628D01*
X313510904Y-275968866D01*
X313594238Y-276064104D01*
X313665666Y-276254580D01*
X313594238Y-276826009D01*
X313475190Y-277016485D01*
X313368047Y-277111723D01*
X313165666Y-277206961D01*
X312879952Y-277206961D01*
X315427571Y-275873628D02*
X315177571Y-277873628D01*
X315272809Y-277111723D02*
X315070428Y-277206961D01*
X314689476Y-277206961D01*
X314510904Y-277111723D01*
X314427571Y-277016485D01*
X314356142Y-276826009D01*
X314427571Y-276254580D01*
X314546619Y-276064104D01*
X314653761Y-275968866D01*
X314856142Y-275873628D01*
X315237095Y-275873628D01*
X315415666Y-275968866D01*
X317237095Y-275873628D02*
X317070428Y-277206961D01*
X316379952Y-275873628D02*
X316249000Y-276921247D01*
X316320428Y-277111723D01*
X316499000Y-277206961D01*
X316784714Y-277206961D01*
X316987095Y-277111723D01*
X317094238Y-277016485D01*
X318022809Y-277206961D02*
X318189476Y-275873628D01*
X318272809Y-275206961D02*
X318165666Y-275302200D01*
X318249000Y-275397438D01*
X318356142Y-275302200D01*
X318272809Y-275206961D01*
X318249000Y-275397438D01*
X320499000Y-277206961D02*
X320749000Y-275206961D01*
X321641857Y-277206961D02*
X320927571Y-276064104D01*
X321891857Y-275206961D02*
X320606142Y-276349819D01*
X323272809Y-277111723D02*
X323070428Y-277206961D01*
X322689476Y-277206961D01*
X322510904Y-277111723D01*
X322439476Y-276921247D01*
X322534714Y-276159342D01*
X322653761Y-275968866D01*
X322856142Y-275873628D01*
X323237095Y-275873628D01*
X323415666Y-275968866D01*
X323487095Y-276159342D01*
X323463285Y-276349819D01*
X322487095Y-276540295D01*
X324189476Y-275873628D02*
X324499000Y-277206961D01*
X325141857Y-275873628D02*
X324499000Y-277206961D01*
X324249000Y-277683152D01*
X324141857Y-277778390D01*
X323939476Y-277873628D01*
X325737095Y-277206961D02*
X325987095Y-275206961D01*
X325891857Y-275968866D02*
X326094238Y-275873628D01*
X326475190Y-275873628D01*
X326653761Y-275968866D01*
X326737095Y-276064104D01*
X326808523Y-276254580D01*
X326737095Y-276826009D01*
X326618047Y-277016485D01*
X326510904Y-277111723D01*
X326308523Y-277206961D01*
X325927571Y-277206961D01*
X325749000Y-277111723D01*
X327832333Y-277206961D02*
X327653761Y-277111723D01*
X327570428Y-277016485D01*
X327499000Y-276826009D01*
X327570428Y-276254580D01*
X327689476Y-276064104D01*
X327796619Y-275968866D01*
X327999000Y-275873628D01*
X328284714Y-275873628D01*
X328463285Y-275968866D01*
X328546619Y-276064104D01*
X328618047Y-276254580D01*
X328546619Y-276826009D01*
X328427571Y-277016485D01*
X328320428Y-277111723D01*
X328118047Y-277206961D01*
X327832333Y-277206961D01*
X330213285Y-277206961D02*
X330344238Y-276159342D01*
X330272809Y-275968866D01*
X330094238Y-275873628D01*
X329713285Y-275873628D01*
X329510904Y-275968866D01*
X330225190Y-277111723D02*
X330022809Y-277206961D01*
X329546619Y-277206961D01*
X329368047Y-277111723D01*
X329296619Y-276921247D01*
X329320428Y-276730771D01*
X329439476Y-276540295D01*
X329641857Y-276445057D01*
X330118047Y-276445057D01*
X330320428Y-276349819D01*
X331165666Y-277206961D02*
X331332333Y-275873628D01*
X331284714Y-276254580D02*
X331403761Y-276064104D01*
X331510904Y-275968866D01*
X331713285Y-275873628D01*
X331903761Y-275873628D01*
X333260904Y-277206961D02*
X333510904Y-275206961D01*
X333272809Y-277111723D02*
X333070428Y-277206961D01*
X332689476Y-277206961D01*
X332510904Y-277111723D01*
X332427571Y-277016485D01*
X332356142Y-276826009D01*
X332427571Y-276254580D01*
X332546619Y-276064104D01*
X332653761Y-275968866D01*
X332856142Y-275873628D01*
X333237095Y-275873628D01*
X333415666Y-275968866D01*
D10*
D11*
X301921142Y-272595057D02*
X301421142Y-272595057D01*
X301421142Y-273380771D02*
X301421142Y-271880771D01*
X302135428Y-271880771D01*
X302706857Y-273380771D02*
X302706857Y-272380771D01*
X302706857Y-271880771D02*
X302635428Y-271952200D01*
X302706857Y-272023628D01*
X302778285Y-271952200D01*
X302706857Y-271880771D01*
X302706857Y-272023628D01*
X303635428Y-273380771D02*
X303492571Y-273309342D01*
X303421142Y-273166485D01*
X303421142Y-271880771D01*
X304778285Y-273309342D02*
X304635428Y-273380771D01*
X304349714Y-273380771D01*
X304206857Y-273309342D01*
X304135428Y-273166485D01*
X304135428Y-272595057D01*
X304206857Y-272452200D01*
X304349714Y-272380771D01*
X304635428Y-272380771D01*
X304778285Y-272452200D01*
X304849714Y-272595057D01*
X304849714Y-272737914D01*
X304135428Y-272880771D01*
X305492571Y-273237914D02*
X305564000Y-273309342D01*
X305492571Y-273380771D01*
X305421142Y-273309342D01*
X305492571Y-273237914D01*
X305492571Y-273380771D01*
X305492571Y-272452200D02*
X305564000Y-272523628D01*
X305492571Y-272595057D01*
X305421142Y-272523628D01*
X305492571Y-272452200D01*
X305492571Y-272595057D01*
X308206857Y-273237914D02*
X308135428Y-273309342D01*
X307921142Y-273380771D01*
X307778285Y-273380771D01*
X307564000Y-273309342D01*
X307421142Y-273166485D01*
X307349714Y-273023628D01*
X307278285Y-272737914D01*
X307278285Y-272523628D01*
X307349714Y-272237914D01*
X307421142Y-272095057D01*
X307564000Y-271952200D01*
X307778285Y-271880771D01*
X307921142Y-271880771D01*
X308135428Y-271952200D01*
X308206857Y-272023628D01*
X309064000Y-273380771D02*
X308921142Y-273309342D01*
X308849714Y-273237914D01*
X308778285Y-273095057D01*
X308778285Y-272666485D01*
X308849714Y-272523628D01*
X308921142Y-272452200D01*
X309064000Y-272380771D01*
X309278285Y-272380771D01*
X309421142Y-272452200D01*
X309492571Y-272523628D01*
X309564000Y-272666485D01*
X309564000Y-273095057D01*
X309492571Y-273237914D01*
X309421142Y-273309342D01*
X309278285Y-273380771D01*
X309064000Y-273380771D01*
X310849714Y-272380771D02*
X310849714Y-273880771D01*
X310849714Y-273309342D02*
X310706857Y-273380771D01*
X310421142Y-273380771D01*
X310278285Y-273309342D01*
X310206857Y-273237914D01*
X310135428Y-273095057D01*
X310135428Y-272666485D01*
X310206857Y-272523628D01*
X310278285Y-272452200D01*
X310421142Y-272380771D01*
X310706857Y-272380771D01*
X310849714Y-272452200D01*
X312206857Y-272380771D02*
X312206857Y-273380771D01*
X311564000Y-272380771D02*
X311564000Y-273166485D01*
X311635428Y-273309342D01*
X311778285Y-273380771D01*
X311992571Y-273380771D01*
X312135428Y-273309342D01*
X312206857Y-273237914D01*
X312921142Y-273380771D02*
X312921142Y-272380771D01*
X312921142Y-271880771D02*
X312849714Y-271952200D01*
X312921142Y-272023628D01*
X312992571Y-271952200D01*
X312921142Y-271880771D01*
X312921142Y-272023628D01*
X313635428Y-273380771D02*
X313635428Y-271880771D01*
X314492571Y-273380771D02*
X313849714Y-272523628D01*
X314492571Y-271880771D02*
X313635428Y-272737914D01*
X315706857Y-273309342D02*
X315564000Y-273380771D01*
X315278285Y-273380771D01*
X315135428Y-273309342D01*
X315064000Y-273166485D01*
X315064000Y-272595057D01*
X315135428Y-272452200D01*
X315278285Y-272380771D01*
X315564000Y-272380771D01*
X315706857Y-272452200D01*
X315778285Y-272595057D01*
X315778285Y-272737914D01*
X315064000Y-272880771D01*
X316278285Y-272380771D02*
X316635428Y-273380771D01*
X316992571Y-272380771D02*
X316635428Y-273380771D01*
X316492571Y-273737914D01*
X316421142Y-273809342D01*
X316278285Y-273880771D01*
X317564000Y-273380771D02*
X317564000Y-271880771D01*
X317564000Y-272452200D02*
X317706857Y-272380771D01*
X317992571Y-272380771D01*
X318135428Y-272452200D01*
X318206857Y-272523628D01*
X318278285Y-272666485D01*
X318278285Y-273095057D01*
X318206857Y-273237914D01*
X318135428Y-273309342D01*
X317992571Y-273380771D01*
X317706857Y-273380771D01*
X317564000Y-273309342D01*
X319135428Y-273380771D02*
X318992571Y-273309342D01*
X318921142Y-273237914D01*
X318849714Y-273095057D01*
X318849714Y-272666485D01*
X318921142Y-272523628D01*
X318992571Y-272452200D01*
X319135428Y-272380771D01*
X319349714Y-272380771D01*
X319492571Y-272452200D01*
X319564000Y-272523628D01*
X319635428Y-272666485D01*
X319635428Y-273095057D01*
X319564000Y-273237914D01*
X319492571Y-273309342D01*
X319349714Y-273380771D01*
X319135428Y-273380771D01*
X320921142Y-273380771D02*
X320921142Y-272595057D01*
X320849714Y-272452200D01*
X320706857Y-272380771D01*
X320421142Y-272380771D01*
X320278285Y-272452200D01*
X320921142Y-273309342D02*
X320778285Y-273380771D01*
X320421142Y-273380771D01*
X320278285Y-273309342D01*
X320206857Y-273166485D01*
X320206857Y-273023628D01*
X320278285Y-272880771D01*
X320421142Y-272809342D01*
X320778285Y-272809342D01*
X320921142Y-272737914D01*
X321635428Y-273380771D02*
X321635428Y-272380771D01*
X321635428Y-272666485D02*
X321706857Y-272523628D01*
X321778285Y-272452200D01*
X321921142Y-272380771D01*
X322064000Y-272380771D01*
X323206857Y-273380771D02*
X323206857Y-271880771D01*
X323206857Y-273309342D02*
X323064000Y-273380771D01*
X322778285Y-273380771D01*
X322635428Y-273309342D01*
X322564000Y-273237914D01*
X322492571Y-273095057D01*
X322492571Y-272666485D01*
X322564000Y-272523628D01*
X322635428Y-272452200D01*
X322778285Y-272380771D01*
X323064000Y-272380771D01*
X323206857Y-272452200D01*
X323921142Y-273237914D02*
X323992571Y-273309342D01*
X323921142Y-273380771D01*
X323849714Y-273309342D01*
X323921142Y-273237914D01*
X323921142Y-273380771D01*
X324635428Y-273380771D02*
X324635428Y-271880771D01*
X324778285Y-272809342D02*
X325206857Y-273380771D01*
X325206857Y-272380771D02*
X324635428Y-272952200D01*
X325849714Y-273380771D02*
X325849714Y-272380771D01*
X325849714Y-271880771D02*
X325778285Y-271952200D01*
X325849714Y-272023628D01*
X325921142Y-271952200D01*
X325849714Y-271880771D01*
X325849714Y-272023628D01*
X327206857Y-273309342D02*
X327064000Y-273380771D01*
X326778285Y-273380771D01*
X326635428Y-273309342D01*
X326564000Y-273237914D01*
X326492571Y-273095057D01*
X326492571Y-272666485D01*
X326564000Y-272523628D01*
X326635428Y-272452200D01*
X326778285Y-272380771D01*
X327064000Y-272380771D01*
X327206857Y-272452200D01*
X328492571Y-273380771D02*
X328492571Y-272595057D01*
X328421142Y-272452200D01*
X328278285Y-272380771D01*
X327992571Y-272380771D01*
X327849714Y-272452200D01*
X328492571Y-273309342D02*
X328349714Y-273380771D01*
X327992571Y-273380771D01*
X327849714Y-273309342D01*
X327778285Y-273166485D01*
X327778285Y-273023628D01*
X327849714Y-272880771D01*
X327992571Y-272809342D01*
X328349714Y-272809342D01*
X328492571Y-272737914D01*
X329849714Y-273380771D02*
X329849714Y-271880771D01*
X329849714Y-273309342D02*
X329706857Y-273380771D01*
X329421142Y-273380771D01*
X329278285Y-273309342D01*
X329206857Y-273237914D01*
X329135428Y-273095057D01*
X329135428Y-272666485D01*
X329206857Y-272523628D01*
X329278285Y-272452200D01*
X329421142Y-272380771D01*
X329706857Y-272380771D01*
X329849714Y-272452200D01*
X330206857Y-273523628D02*
X331349714Y-273523628D01*
X331706857Y-272380771D02*
X331706857Y-273880771D01*
X331706857Y-272452200D02*
X331849714Y-272380771D01*
X332135428Y-272380771D01*
X332278285Y-272452200D01*
X332349714Y-272523628D01*
X332421142Y-272666485D01*
X332421142Y-273095057D01*
X332349714Y-273237914D01*
X332278285Y-273309342D01*
X332135428Y-273380771D01*
X331849714Y-273380771D01*
X331706857Y-273309342D01*
X333706857Y-273309342D02*
X333564000Y-273380771D01*
X333278285Y-273380771D01*
X333135428Y-273309342D01*
X333064000Y-273237914D01*
X332992571Y-273095057D01*
X332992571Y-272666485D01*
X333064000Y-272523628D01*
X333135428Y-272452200D01*
X333278285Y-272380771D01*
X333564000Y-272380771D01*
X333706857Y-272452200D01*
X334349714Y-273380771D02*
X334349714Y-271880771D01*
X334349714Y-272452200D02*
X334492571Y-272380771D01*
X334778285Y-272380771D01*
X334921142Y-272452200D01*
X334992571Y-272523628D01*
X335064000Y-272666485D01*
X335064000Y-273095057D01*
X334992571Y-273237914D01*
X334921142Y-273309342D01*
X334778285Y-273380771D01*
X334492571Y-273380771D01*
X334349714Y-273309342D01*
D10*
D11*
X299989000Y-268502200D02*
X407989000Y-268502200D01*
D10*
D11*
X301349714Y-270609342D02*
X301564000Y-270680771D01*
X301921142Y-270680771D01*
X302064000Y-270609342D01*
X302135428Y-270537914D01*
X302206857Y-270395057D01*
X302206857Y-270252200D01*
X302135428Y-270109342D01*
X302064000Y-270037914D01*
X301921142Y-269966485D01*
X301635428Y-269895057D01*
X301492571Y-269823628D01*
X301421142Y-269752200D01*
X301349714Y-269609342D01*
X301349714Y-269466485D01*
X301421142Y-269323628D01*
X301492571Y-269252200D01*
X301635428Y-269180771D01*
X301992571Y-269180771D01*
X302206857Y-269252200D01*
X302849714Y-270680771D02*
X302849714Y-269180771D01*
X303492571Y-270680771D02*
X303492571Y-269895057D01*
X303421142Y-269752200D01*
X303278285Y-269680771D01*
X303064000Y-269680771D01*
X302921142Y-269752200D01*
X302849714Y-269823628D01*
X304778285Y-270609342D02*
X304635428Y-270680771D01*
X304349714Y-270680771D01*
X304206857Y-270609342D01*
X304135428Y-270466485D01*
X304135428Y-269895057D01*
X304206857Y-269752200D01*
X304349714Y-269680771D01*
X304635428Y-269680771D01*
X304778285Y-269752200D01*
X304849714Y-269895057D01*
X304849714Y-270037914D01*
X304135428Y-270180771D01*
X306064000Y-270609342D02*
X305921142Y-270680771D01*
X305635428Y-270680771D01*
X305492571Y-270609342D01*
X305421142Y-270466485D01*
X305421142Y-269895057D01*
X305492571Y-269752200D01*
X305635428Y-269680771D01*
X305921142Y-269680771D01*
X306064000Y-269752200D01*
X306135428Y-269895057D01*
X306135428Y-270037914D01*
X305421142Y-270180771D01*
X306564000Y-269680771D02*
X307135428Y-269680771D01*
X306778285Y-269180771D02*
X306778285Y-270466485D01*
X306849714Y-270609342D01*
X306992571Y-270680771D01*
X307135428Y-270680771D01*
X307635428Y-270537914D02*
X307706857Y-270609342D01*
X307635428Y-270680771D01*
X307564000Y-270609342D01*
X307635428Y-270537914D01*
X307635428Y-270680771D01*
X307635428Y-269752200D02*
X307706857Y-269823628D01*
X307635428Y-269895057D01*
X307564000Y-269823628D01*
X307635428Y-269752200D01*
X307635428Y-269895057D01*
D10*
D12*
X302398285Y-267537914D02*
X302326857Y-267609342D01*
X302112571Y-267680771D01*
X301969714Y-267680771D01*
X301755428Y-267609342D01*
X301612571Y-267466485D01*
X301541142Y-267323628D01*
X301469714Y-267037914D01*
X301469714Y-266823628D01*
X301541142Y-266537914D01*
X301612571Y-266395057D01*
X301755428Y-266252200D01*
X301969714Y-266180771D01*
X302112571Y-266180771D01*
X302326857Y-266252200D01*
X302398285Y-266323628D01*
X303684000Y-267680771D02*
X303684000Y-266895057D01*
X303612571Y-266752200D01*
X303469714Y-266680771D01*
X303184000Y-266680771D01*
X303041142Y-266752200D01*
X303684000Y-267609342D02*
X303541142Y-267680771D01*
X303184000Y-267680771D01*
X303041142Y-267609342D01*
X302969714Y-267466485D01*
X302969714Y-267323628D01*
X303041142Y-267180771D01*
X303184000Y-267109342D01*
X303541142Y-267109342D01*
X303684000Y-267037914D01*
X304398285Y-266680771D02*
X304398285Y-267680771D01*
X304398285Y-266823628D02*
X304469714Y-266752200D01*
X304612571Y-266680771D01*
X304826857Y-266680771D01*
X304969714Y-266752200D01*
X305041142Y-266895057D01*
X305041142Y-267680771D01*
X305755428Y-267680771D02*
X305755428Y-266680771D01*
X305755428Y-266180771D02*
X305684000Y-266252200D01*
X305755428Y-266323628D01*
X305826857Y-266252200D01*
X305755428Y-266180771D01*
X305755428Y-266323628D01*
X306469714Y-266680771D02*
X306469714Y-267680771D01*
X306469714Y-266823628D02*
X306541142Y-266752200D01*
X306684000Y-266680771D01*
X306898285Y-266680771D01*
X307041142Y-266752200D01*
X307112571Y-266895057D01*
X307112571Y-267680771D01*
X308041142Y-267680771D02*
X307898285Y-267609342D01*
X307826857Y-267537914D01*
X307755428Y-267395057D01*
X307755428Y-266966485D01*
X307826857Y-266823628D01*
X307898285Y-266752200D01*
X308041142Y-266680771D01*
X308255428Y-266680771D01*
X308398285Y-266752200D01*
X308469714Y-266823628D01*
X308541142Y-266966485D01*
X308541142Y-267395057D01*
X308469714Y-267537914D01*
X308398285Y-267609342D01*
X308255428Y-267680771D01*
X308041142Y-267680771D01*
X310326857Y-267680771D02*
X310326857Y-266180771D01*
X310684000Y-266180771D01*
X310898285Y-266252200D01*
X311041142Y-266395057D01*
X311112571Y-266537914D01*
X311184000Y-266823628D01*
X311184000Y-267037914D01*
X311112571Y-267323628D01*
X311041142Y-267466485D01*
X310898285Y-267609342D01*
X310684000Y-267680771D01*
X310326857Y-267680771D01*
X312398285Y-267609342D02*
X312255428Y-267680771D01*
X311969714Y-267680771D01*
X311826857Y-267609342D01*
X311755428Y-267466485D01*
X311755428Y-266895057D01*
X311826857Y-266752200D01*
X311969714Y-266680771D01*
X312255428Y-266680771D01*
X312398285Y-266752200D01*
X312469714Y-266895057D01*
X312469714Y-267037914D01*
X311755428Y-267180771D01*
X312969714Y-266680771D02*
X313326857Y-267680771D01*
X313684000Y-266680771D01*
X314826857Y-267609342D02*
X314684000Y-267680771D01*
X314398285Y-267680771D01*
X314255428Y-267609342D01*
X314184000Y-267466485D01*
X314184000Y-266895057D01*
X314255428Y-266752200D01*
X314398285Y-266680771D01*
X314684000Y-266680771D01*
X314826857Y-266752200D01*
X314898285Y-266895057D01*
X314898285Y-267037914D01*
X314184000Y-267180771D01*
X315755428Y-267680771D02*
X315612571Y-267609342D01*
X315541142Y-267466485D01*
X315541142Y-266180771D01*
X316541142Y-267680771D02*
X316398285Y-267609342D01*
X316326857Y-267537914D01*
X316255428Y-267395057D01*
X316255428Y-266966485D01*
X316326857Y-266823628D01*
X316398285Y-266752200D01*
X316541142Y-266680771D01*
X316755428Y-266680771D01*
X316898285Y-266752200D01*
X316969714Y-266823628D01*
X317041142Y-266966485D01*
X317041142Y-267395057D01*
X316969714Y-267537914D01*
X316898285Y-267609342D01*
X316755428Y-267680771D01*
X316541142Y-267680771D01*
X317684000Y-266680771D02*
X317684000Y-268180771D01*
X317684000Y-266752200D02*
X317826857Y-266680771D01*
X318112571Y-266680771D01*
X318255428Y-266752200D01*
X318326857Y-266823628D01*
X318398285Y-266966485D01*
X318398285Y-267395057D01*
X318326857Y-267537914D01*
X318255428Y-267609342D01*
X318112571Y-267680771D01*
X317826857Y-267680771D01*
X317684000Y-267609342D01*
X319041142Y-267680771D02*
X319041142Y-266680771D01*
X319041142Y-266823628D02*
X319112571Y-266752200D01*
X319255428Y-266680771D01*
X319469714Y-266680771D01*
X319612571Y-266752200D01*
X319684000Y-266895057D01*
X319684000Y-267680771D01*
X319684000Y-266895057D02*
X319755428Y-266752200D01*
X319898285Y-266680771D01*
X320112571Y-266680771D01*
X320255428Y-266752200D01*
X320326857Y-266895057D01*
X320326857Y-267680771D01*
X321612571Y-267609342D02*
X321469714Y-267680771D01*
X321184000Y-267680771D01*
X321041142Y-267609342D01*
X320969714Y-267466485D01*
X320969714Y-266895057D01*
X321041142Y-266752200D01*
X321184000Y-266680771D01*
X321469714Y-266680771D01*
X321612571Y-266752200D01*
X321684000Y-266895057D01*
X321684000Y-267037914D01*
X320969714Y-267180771D01*
X322326857Y-266680771D02*
X322326857Y-267680771D01*
X322326857Y-266823628D02*
X322398285Y-266752200D01*
X322541142Y-266680771D01*
X322755428Y-266680771D01*
X322898285Y-266752200D01*
X322969714Y-266895057D01*
X322969714Y-267680771D01*
X323469714Y-266680771D02*
X324041142Y-266680771D01*
X323684000Y-266180771D02*
X323684000Y-267466485D01*
X323755428Y-267609342D01*
X323898285Y-267680771D01*
X324041142Y-267680771D01*
X324469714Y-267609342D02*
X324612571Y-267680771D01*
X324898285Y-267680771D01*
X325041142Y-267609342D01*
X325112571Y-267466485D01*
X325112571Y-267395057D01*
X325041142Y-267252200D01*
X324898285Y-267180771D01*
X324684000Y-267180771D01*
X324541142Y-267109342D01*
X324469714Y-266966485D01*
X324469714Y-266895057D01*
X324541142Y-266752200D01*
X324684000Y-266680771D01*
X324898285Y-266680771D01*
X325041142Y-266752200D01*
D10*
D11*
X319989000Y-278502200D02*
X319989000Y-281502200D01*
D10*
D11*
X383989000Y-278502200D02*
X383989000Y-285002200D01*
D14*
X195834000Y-118872000D03*
X195834000Y-122172000D03*
D10*
G36*
X357731142Y-125400674D02*
G01*
X357754803Y-125404184D01*
X357778007Y-125409996D01*
X357800529Y-125418054D01*
X357822153Y-125428282D01*
X357842670Y-125440579D01*
X357861883Y-125454829D01*
X357879607Y-125470893D01*
X357895671Y-125488617D01*
X357909921Y-125507830D01*
X357922218Y-125528347D01*
X357932446Y-125549971D01*
X357940504Y-125572493D01*
X357946316Y-125595697D01*
X357949826Y-125619358D01*
X357951000Y-125643250D01*
X357951000Y-126130750D01*
X357949826Y-126154642D01*
X357946316Y-126178303D01*
X357940504Y-126201507D01*
X357932446Y-126224029D01*
X357922218Y-126245653D01*
X357909921Y-126266170D01*
X357895671Y-126285383D01*
X357879607Y-126303107D01*
X357861883Y-126319171D01*
X357842670Y-126333421D01*
X357822153Y-126345718D01*
X357800529Y-126355946D01*
X357778007Y-126364004D01*
X357754803Y-126369816D01*
X357731142Y-126373326D01*
X357707250Y-126374500D01*
X356794750Y-126374500D01*
X356770858Y-126373326D01*
X356747197Y-126369816D01*
X356723993Y-126364004D01*
X356701471Y-126355946D01*
X356679847Y-126345718D01*
X356659330Y-126333421D01*
X356640117Y-126319171D01*
X356622393Y-126303107D01*
X356606329Y-126285383D01*
X356592079Y-126266170D01*
X356579782Y-126245653D01*
X356569554Y-126224029D01*
X356561496Y-126201507D01*
X356555684Y-126178303D01*
X356552174Y-126154642D01*
X356551000Y-126130750D01*
X356551000Y-125643250D01*
X356552174Y-125619358D01*
X356555684Y-125595697D01*
X356561496Y-125572493D01*
X356569554Y-125549971D01*
X356579782Y-125528347D01*
X356592079Y-125507830D01*
X356606329Y-125488617D01*
X356622393Y-125470893D01*
X356640117Y-125454829D01*
X356659330Y-125440579D01*
X356679847Y-125428282D01*
X356701471Y-125418054D01*
X356723993Y-125409996D01*
X356747197Y-125404184D01*
X356770858Y-125400674D01*
X356794750Y-125399500D01*
X357707250Y-125399500D01*
X357731142Y-125400674D01*
X357731142Y-125400674D01*
G37*
D15*
X357251000Y-125887000D03*
D10*
G36*
X357731142Y-127275674D02*
G01*
X357754803Y-127279184D01*
X357778007Y-127284996D01*
X357800529Y-127293054D01*
X357822153Y-127303282D01*
X357842670Y-127315579D01*
X357861883Y-127329829D01*
X357879607Y-127345893D01*
X357895671Y-127363617D01*
X357909921Y-127382830D01*
X357922218Y-127403347D01*
X357932446Y-127424971D01*
X357940504Y-127447493D01*
X357946316Y-127470697D01*
X357949826Y-127494358D01*
X357951000Y-127518250D01*
X357951000Y-128005750D01*
X357949826Y-128029642D01*
X357946316Y-128053303D01*
X357940504Y-128076507D01*
X357932446Y-128099029D01*
X357922218Y-128120653D01*
X357909921Y-128141170D01*
X357895671Y-128160383D01*
X357879607Y-128178107D01*
X357861883Y-128194171D01*
X357842670Y-128208421D01*
X357822153Y-128220718D01*
X357800529Y-128230946D01*
X357778007Y-128239004D01*
X357754803Y-128244816D01*
X357731142Y-128248326D01*
X357707250Y-128249500D01*
X356794750Y-128249500D01*
X356770858Y-128248326D01*
X356747197Y-128244816D01*
X356723993Y-128239004D01*
X356701471Y-128230946D01*
X356679847Y-128220718D01*
X356659330Y-128208421D01*
X356640117Y-128194171D01*
X356622393Y-128178107D01*
X356606329Y-128160383D01*
X356592079Y-128141170D01*
X356579782Y-128120653D01*
X356569554Y-128099029D01*
X356561496Y-128076507D01*
X356555684Y-128053303D01*
X356552174Y-128029642D01*
X356551000Y-128005750D01*
X356551000Y-127518250D01*
X356552174Y-127494358D01*
X356555684Y-127470697D01*
X356561496Y-127447493D01*
X356569554Y-127424971D01*
X356579782Y-127403347D01*
X356592079Y-127382830D01*
X356606329Y-127363617D01*
X356622393Y-127345893D01*
X356640117Y-127329829D01*
X356659330Y-127315579D01*
X356679847Y-127303282D01*
X356701471Y-127293054D01*
X356723993Y-127284996D01*
X356747197Y-127279184D01*
X356770858Y-127275674D01*
X356794750Y-127274500D01*
X357707250Y-127274500D01*
X357731142Y-127275674D01*
X357731142Y-127275674D01*
G37*
D15*
X357251000Y-127762000D03*
D10*
G36*
X353794142Y-119274674D02*
G01*
X353817803Y-119278184D01*
X353841007Y-119283996D01*
X353863529Y-119292054D01*
X353885153Y-119302282D01*
X353905670Y-119314579D01*
X353924883Y-119328829D01*
X353942607Y-119344893D01*
X353958671Y-119362617D01*
X353972921Y-119381830D01*
X353985218Y-119402347D01*
X353995446Y-119423971D01*
X354003504Y-119446493D01*
X354009316Y-119469697D01*
X354012826Y-119493358D01*
X354014000Y-119517250D01*
X354014000Y-120004750D01*
X354012826Y-120028642D01*
X354009316Y-120052303D01*
X354003504Y-120075507D01*
X353995446Y-120098029D01*
X353985218Y-120119653D01*
X353972921Y-120140170D01*
X353958671Y-120159383D01*
X353942607Y-120177107D01*
X353924883Y-120193171D01*
X353905670Y-120207421D01*
X353885153Y-120219718D01*
X353863529Y-120229946D01*
X353841007Y-120238004D01*
X353817803Y-120243816D01*
X353794142Y-120247326D01*
X353770250Y-120248500D01*
X352857750Y-120248500D01*
X352833858Y-120247326D01*
X352810197Y-120243816D01*
X352786993Y-120238004D01*
X352764471Y-120229946D01*
X352742847Y-120219718D01*
X352722330Y-120207421D01*
X352703117Y-120193171D01*
X352685393Y-120177107D01*
X352669329Y-120159383D01*
X352655079Y-120140170D01*
X352642782Y-120119653D01*
X352632554Y-120098029D01*
X352624496Y-120075507D01*
X352618684Y-120052303D01*
X352615174Y-120028642D01*
X352614000Y-120004750D01*
X352614000Y-119517250D01*
X352615174Y-119493358D01*
X352618684Y-119469697D01*
X352624496Y-119446493D01*
X352632554Y-119423971D01*
X352642782Y-119402347D01*
X352655079Y-119381830D01*
X352669329Y-119362617D01*
X352685393Y-119344893D01*
X352703117Y-119328829D01*
X352722330Y-119314579D01*
X352742847Y-119302282D01*
X352764471Y-119292054D01*
X352786993Y-119283996D01*
X352810197Y-119278184D01*
X352833858Y-119274674D01*
X352857750Y-119273500D01*
X353770250Y-119273500D01*
X353794142Y-119274674D01*
X353794142Y-119274674D01*
G37*
D15*
X353314000Y-119761000D03*
D10*
G36*
X353794142Y-117399674D02*
G01*
X353817803Y-117403184D01*
X353841007Y-117408996D01*
X353863529Y-117417054D01*
X353885153Y-117427282D01*
X353905670Y-117439579D01*
X353924883Y-117453829D01*
X353942607Y-117469893D01*
X353958671Y-117487617D01*
X353972921Y-117506830D01*
X353985218Y-117527347D01*
X353995446Y-117548971D01*
X354003504Y-117571493D01*
X354009316Y-117594697D01*
X354012826Y-117618358D01*
X354014000Y-117642250D01*
X354014000Y-118129750D01*
X354012826Y-118153642D01*
X354009316Y-118177303D01*
X354003504Y-118200507D01*
X353995446Y-118223029D01*
X353985218Y-118244653D01*
X353972921Y-118265170D01*
X353958671Y-118284383D01*
X353942607Y-118302107D01*
X353924883Y-118318171D01*
X353905670Y-118332421D01*
X353885153Y-118344718D01*
X353863529Y-118354946D01*
X353841007Y-118363004D01*
X353817803Y-118368816D01*
X353794142Y-118372326D01*
X353770250Y-118373500D01*
X352857750Y-118373500D01*
X352833858Y-118372326D01*
X352810197Y-118368816D01*
X352786993Y-118363004D01*
X352764471Y-118354946D01*
X352742847Y-118344718D01*
X352722330Y-118332421D01*
X352703117Y-118318171D01*
X352685393Y-118302107D01*
X352669329Y-118284383D01*
X352655079Y-118265170D01*
X352642782Y-118244653D01*
X352632554Y-118223029D01*
X352624496Y-118200507D01*
X352618684Y-118177303D01*
X352615174Y-118153642D01*
X352614000Y-118129750D01*
X352614000Y-117642250D01*
X352615174Y-117618358D01*
X352618684Y-117594697D01*
X352624496Y-117571493D01*
X352632554Y-117548971D01*
X352642782Y-117527347D01*
X352655079Y-117506830D01*
X352669329Y-117487617D01*
X352685393Y-117469893D01*
X352703117Y-117453829D01*
X352722330Y-117439579D01*
X352742847Y-117427282D01*
X352764471Y-117417054D01*
X352786993Y-117408996D01*
X352810197Y-117403184D01*
X352833858Y-117399674D01*
X352857750Y-117398500D01*
X353770250Y-117398500D01*
X353794142Y-117399674D01*
X353794142Y-117399674D01*
G37*
D15*
X353314000Y-117886000D03*
D10*
G36*
X360017142Y-125370674D02*
G01*
X360040803Y-125374184D01*
X360064007Y-125379996D01*
X360086529Y-125388054D01*
X360108153Y-125398282D01*
X360128670Y-125410579D01*
X360147883Y-125424829D01*
X360165607Y-125440893D01*
X360181671Y-125458617D01*
X360195921Y-125477830D01*
X360208218Y-125498347D01*
X360218446Y-125519971D01*
X360226504Y-125542493D01*
X360232316Y-125565697D01*
X360235826Y-125589358D01*
X360237000Y-125613250D01*
X360237000Y-126100750D01*
X360235826Y-126124642D01*
X360232316Y-126148303D01*
X360226504Y-126171507D01*
X360218446Y-126194029D01*
X360208218Y-126215653D01*
X360195921Y-126236170D01*
X360181671Y-126255383D01*
X360165607Y-126273107D01*
X360147883Y-126289171D01*
X360128670Y-126303421D01*
X360108153Y-126315718D01*
X360086529Y-126325946D01*
X360064007Y-126334004D01*
X360040803Y-126339816D01*
X360017142Y-126343326D01*
X359993250Y-126344500D01*
X359080750Y-126344500D01*
X359056858Y-126343326D01*
X359033197Y-126339816D01*
X359009993Y-126334004D01*
X358987471Y-126325946D01*
X358965847Y-126315718D01*
X358945330Y-126303421D01*
X358926117Y-126289171D01*
X358908393Y-126273107D01*
X358892329Y-126255383D01*
X358878079Y-126236170D01*
X358865782Y-126215653D01*
X358855554Y-126194029D01*
X358847496Y-126171507D01*
X358841684Y-126148303D01*
X358838174Y-126124642D01*
X358837000Y-126100750D01*
X358837000Y-125613250D01*
X358838174Y-125589358D01*
X358841684Y-125565697D01*
X358847496Y-125542493D01*
X358855554Y-125519971D01*
X358865782Y-125498347D01*
X358878079Y-125477830D01*
X358892329Y-125458617D01*
X358908393Y-125440893D01*
X358926117Y-125424829D01*
X358945330Y-125410579D01*
X358965847Y-125398282D01*
X358987471Y-125388054D01*
X359009993Y-125379996D01*
X359033197Y-125374184D01*
X359056858Y-125370674D01*
X359080750Y-125369500D01*
X359993250Y-125369500D01*
X360017142Y-125370674D01*
X360017142Y-125370674D01*
G37*
D15*
X359537000Y-125857000D03*
D10*
G36*
X360017142Y-127245674D02*
G01*
X360040803Y-127249184D01*
X360064007Y-127254996D01*
X360086529Y-127263054D01*
X360108153Y-127273282D01*
X360128670Y-127285579D01*
X360147883Y-127299829D01*
X360165607Y-127315893D01*
X360181671Y-127333617D01*
X360195921Y-127352830D01*
X360208218Y-127373347D01*
X360218446Y-127394971D01*
X360226504Y-127417493D01*
X360232316Y-127440697D01*
X360235826Y-127464358D01*
X360237000Y-127488250D01*
X360237000Y-127975750D01*
X360235826Y-127999642D01*
X360232316Y-128023303D01*
X360226504Y-128046507D01*
X360218446Y-128069029D01*
X360208218Y-128090653D01*
X360195921Y-128111170D01*
X360181671Y-128130383D01*
X360165607Y-128148107D01*
X360147883Y-128164171D01*
X360128670Y-128178421D01*
X360108153Y-128190718D01*
X360086529Y-128200946D01*
X360064007Y-128209004D01*
X360040803Y-128214816D01*
X360017142Y-128218326D01*
X359993250Y-128219500D01*
X359080750Y-128219500D01*
X359056858Y-128218326D01*
X359033197Y-128214816D01*
X359009993Y-128209004D01*
X358987471Y-128200946D01*
X358965847Y-128190718D01*
X358945330Y-128178421D01*
X358926117Y-128164171D01*
X358908393Y-128148107D01*
X358892329Y-128130383D01*
X358878079Y-128111170D01*
X358865782Y-128090653D01*
X358855554Y-128069029D01*
X358847496Y-128046507D01*
X358841684Y-128023303D01*
X358838174Y-127999642D01*
X358837000Y-127975750D01*
X358837000Y-127488250D01*
X358838174Y-127464358D01*
X358841684Y-127440697D01*
X358847496Y-127417493D01*
X358855554Y-127394971D01*
X358865782Y-127373347D01*
X358878079Y-127352830D01*
X358892329Y-127333617D01*
X358908393Y-127315893D01*
X358926117Y-127299829D01*
X358945330Y-127285579D01*
X358965847Y-127273282D01*
X358987471Y-127263054D01*
X359009993Y-127254996D01*
X359033197Y-127249184D01*
X359056858Y-127245674D01*
X359080750Y-127244500D01*
X359993250Y-127244500D01*
X360017142Y-127245674D01*
X360017142Y-127245674D01*
G37*
D15*
X359537000Y-127732000D03*
D10*
G36*
X346920966Y-141999538D02*
G01*
X346944627Y-142003048D01*
X346967831Y-142008860D01*
X346990353Y-142016918D01*
X347011977Y-142027146D01*
X347032494Y-142039443D01*
X347051707Y-142053693D01*
X347069431Y-142069757D01*
X347085495Y-142087481D01*
X347099745Y-142106694D01*
X347112042Y-142127211D01*
X347122270Y-142148835D01*
X347130328Y-142171357D01*
X347136140Y-142194561D01*
X347139650Y-142218222D01*
X347140824Y-142242114D01*
X347140824Y-143154614D01*
X347139650Y-143178506D01*
X347136140Y-143202167D01*
X347130328Y-143225371D01*
X347122270Y-143247893D01*
X347112042Y-143269517D01*
X347099745Y-143290034D01*
X347085495Y-143309247D01*
X347069431Y-143326971D01*
X347051707Y-143343035D01*
X347032494Y-143357285D01*
X347011977Y-143369582D01*
X346990353Y-143379810D01*
X346967831Y-143387868D01*
X346944627Y-143393680D01*
X346920966Y-143397190D01*
X346897074Y-143398364D01*
X346409574Y-143398364D01*
X346385682Y-143397190D01*
X346362021Y-143393680D01*
X346338817Y-143387868D01*
X346316295Y-143379810D01*
X346294671Y-143369582D01*
X346274154Y-143357285D01*
X346254941Y-143343035D01*
X346237217Y-143326971D01*
X346221153Y-143309247D01*
X346206903Y-143290034D01*
X346194606Y-143269517D01*
X346184378Y-143247893D01*
X346176320Y-143225371D01*
X346170508Y-143202167D01*
X346166998Y-143178506D01*
X346165824Y-143154614D01*
X346165824Y-142242114D01*
X346166998Y-142218222D01*
X346170508Y-142194561D01*
X346176320Y-142171357D01*
X346184378Y-142148835D01*
X346194606Y-142127211D01*
X346206903Y-142106694D01*
X346221153Y-142087481D01*
X346237217Y-142069757D01*
X346254941Y-142053693D01*
X346274154Y-142039443D01*
X346294671Y-142027146D01*
X346316295Y-142016918D01*
X346338817Y-142008860D01*
X346362021Y-142003048D01*
X346385682Y-141999538D01*
X346409574Y-141998364D01*
X346897074Y-141998364D01*
X346920966Y-141999538D01*
X346920966Y-141999538D01*
G37*
D15*
X346653324Y-142698364D03*
D10*
G36*
X348795966Y-141999538D02*
G01*
X348819627Y-142003048D01*
X348842831Y-142008860D01*
X348865353Y-142016918D01*
X348886977Y-142027146D01*
X348907494Y-142039443D01*
X348926707Y-142053693D01*
X348944431Y-142069757D01*
X348960495Y-142087481D01*
X348974745Y-142106694D01*
X348987042Y-142127211D01*
X348997270Y-142148835D01*
X349005328Y-142171357D01*
X349011140Y-142194561D01*
X349014650Y-142218222D01*
X349015824Y-142242114D01*
X349015824Y-143154614D01*
X349014650Y-143178506D01*
X349011140Y-143202167D01*
X349005328Y-143225371D01*
X348997270Y-143247893D01*
X348987042Y-143269517D01*
X348974745Y-143290034D01*
X348960495Y-143309247D01*
X348944431Y-143326971D01*
X348926707Y-143343035D01*
X348907494Y-143357285D01*
X348886977Y-143369582D01*
X348865353Y-143379810D01*
X348842831Y-143387868D01*
X348819627Y-143393680D01*
X348795966Y-143397190D01*
X348772074Y-143398364D01*
X348284574Y-143398364D01*
X348260682Y-143397190D01*
X348237021Y-143393680D01*
X348213817Y-143387868D01*
X348191295Y-143379810D01*
X348169671Y-143369582D01*
X348149154Y-143357285D01*
X348129941Y-143343035D01*
X348112217Y-143326971D01*
X348096153Y-143309247D01*
X348081903Y-143290034D01*
X348069606Y-143269517D01*
X348059378Y-143247893D01*
X348051320Y-143225371D01*
X348045508Y-143202167D01*
X348041998Y-143178506D01*
X348040824Y-143154614D01*
X348040824Y-142242114D01*
X348041998Y-142218222D01*
X348045508Y-142194561D01*
X348051320Y-142171357D01*
X348059378Y-142148835D01*
X348069606Y-142127211D01*
X348081903Y-142106694D01*
X348096153Y-142087481D01*
X348112217Y-142069757D01*
X348129941Y-142053693D01*
X348149154Y-142039443D01*
X348169671Y-142027146D01*
X348191295Y-142016918D01*
X348213817Y-142008860D01*
X348237021Y-142003048D01*
X348260682Y-141999538D01*
X348284574Y-141998364D01*
X348772074Y-141998364D01*
X348795966Y-141999538D01*
X348795966Y-141999538D01*
G37*
D15*
X348528324Y-142698364D03*
D10*
G36*
X364422906Y-143041334D02*
G01*
X364446567Y-143044844D01*
X364469771Y-143050656D01*
X364492293Y-143058714D01*
X364513917Y-143068942D01*
X364534434Y-143081239D01*
X364553647Y-143095489D01*
X364571371Y-143111553D01*
X364587435Y-143129277D01*
X364601685Y-143148490D01*
X364613982Y-143169007D01*
X364624210Y-143190631D01*
X364632268Y-143213153D01*
X364638080Y-143236357D01*
X364641590Y-143260018D01*
X364642764Y-143283910D01*
X364642764Y-144196410D01*
X364641590Y-144220302D01*
X364638080Y-144243963D01*
X364632268Y-144267167D01*
X364624210Y-144289689D01*
X364613982Y-144311313D01*
X364601685Y-144331830D01*
X364587435Y-144351043D01*
X364571371Y-144368767D01*
X364553647Y-144384831D01*
X364534434Y-144399081D01*
X364513917Y-144411378D01*
X364492293Y-144421606D01*
X364469771Y-144429664D01*
X364446567Y-144435476D01*
X364422906Y-144438986D01*
X364399014Y-144440160D01*
X363911514Y-144440160D01*
X363887622Y-144438986D01*
X363863961Y-144435476D01*
X363840757Y-144429664D01*
X363818235Y-144421606D01*
X363796611Y-144411378D01*
X363776094Y-144399081D01*
X363756881Y-144384831D01*
X363739157Y-144368767D01*
X363723093Y-144351043D01*
X363708843Y-144331830D01*
X363696546Y-144311313D01*
X363686318Y-144289689D01*
X363678260Y-144267167D01*
X363672448Y-144243963D01*
X363668938Y-144220302D01*
X363667764Y-144196410D01*
X363667764Y-143283910D01*
X363668938Y-143260018D01*
X363672448Y-143236357D01*
X363678260Y-143213153D01*
X363686318Y-143190631D01*
X363696546Y-143169007D01*
X363708843Y-143148490D01*
X363723093Y-143129277D01*
X363739157Y-143111553D01*
X363756881Y-143095489D01*
X363776094Y-143081239D01*
X363796611Y-143068942D01*
X363818235Y-143058714D01*
X363840757Y-143050656D01*
X363863961Y-143044844D01*
X363887622Y-143041334D01*
X363911514Y-143040160D01*
X364399014Y-143040160D01*
X364422906Y-143041334D01*
X364422906Y-143041334D01*
G37*
D15*
X364155264Y-143740160D03*
D10*
G36*
X362547906Y-143041334D02*
G01*
X362571567Y-143044844D01*
X362594771Y-143050656D01*
X362617293Y-143058714D01*
X362638917Y-143068942D01*
X362659434Y-143081239D01*
X362678647Y-143095489D01*
X362696371Y-143111553D01*
X362712435Y-143129277D01*
X362726685Y-143148490D01*
X362738982Y-143169007D01*
X362749210Y-143190631D01*
X362757268Y-143213153D01*
X362763080Y-143236357D01*
X362766590Y-143260018D01*
X362767764Y-143283910D01*
X362767764Y-144196410D01*
X362766590Y-144220302D01*
X362763080Y-144243963D01*
X362757268Y-144267167D01*
X362749210Y-144289689D01*
X362738982Y-144311313D01*
X362726685Y-144331830D01*
X362712435Y-144351043D01*
X362696371Y-144368767D01*
X362678647Y-144384831D01*
X362659434Y-144399081D01*
X362638917Y-144411378D01*
X362617293Y-144421606D01*
X362594771Y-144429664D01*
X362571567Y-144435476D01*
X362547906Y-144438986D01*
X362524014Y-144440160D01*
X362036514Y-144440160D01*
X362012622Y-144438986D01*
X361988961Y-144435476D01*
X361965757Y-144429664D01*
X361943235Y-144421606D01*
X361921611Y-144411378D01*
X361901094Y-144399081D01*
X361881881Y-144384831D01*
X361864157Y-144368767D01*
X361848093Y-144351043D01*
X361833843Y-144331830D01*
X361821546Y-144311313D01*
X361811318Y-144289689D01*
X361803260Y-144267167D01*
X361797448Y-144243963D01*
X361793938Y-144220302D01*
X361792764Y-144196410D01*
X361792764Y-143283910D01*
X361793938Y-143260018D01*
X361797448Y-143236357D01*
X361803260Y-143213153D01*
X361811318Y-143190631D01*
X361821546Y-143169007D01*
X361833843Y-143148490D01*
X361848093Y-143129277D01*
X361864157Y-143111553D01*
X361881881Y-143095489D01*
X361901094Y-143081239D01*
X361921611Y-143068942D01*
X361943235Y-143058714D01*
X361965757Y-143050656D01*
X361988961Y-143044844D01*
X362012622Y-143041334D01*
X362036514Y-143040160D01*
X362524014Y-143040160D01*
X362547906Y-143041334D01*
X362547906Y-143041334D01*
G37*
D15*
X362280264Y-143740160D03*
D10*
G36*
X345838546Y-152883122D02*
G01*
X345862207Y-152886632D01*
X345885411Y-152892444D01*
X345907933Y-152900502D01*
X345929557Y-152910730D01*
X345950074Y-152923027D01*
X345969287Y-152937277D01*
X345987011Y-152953341D01*
X346003075Y-152971065D01*
X346017325Y-152990278D01*
X346029622Y-153010795D01*
X346039850Y-153032419D01*
X346047908Y-153054941D01*
X346053720Y-153078145D01*
X346057230Y-153101806D01*
X346058404Y-153125698D01*
X346058404Y-153613198D01*
X346057230Y-153637090D01*
X346053720Y-153660751D01*
X346047908Y-153683955D01*
X346039850Y-153706477D01*
X346029622Y-153728101D01*
X346017325Y-153748618D01*
X346003075Y-153767831D01*
X345987011Y-153785555D01*
X345969287Y-153801619D01*
X345950074Y-153815869D01*
X345929557Y-153828166D01*
X345907933Y-153838394D01*
X345885411Y-153846452D01*
X345862207Y-153852264D01*
X345838546Y-153855774D01*
X345814654Y-153856948D01*
X344902154Y-153856948D01*
X344878262Y-153855774D01*
X344854601Y-153852264D01*
X344831397Y-153846452D01*
X344808875Y-153838394D01*
X344787251Y-153828166D01*
X344766734Y-153815869D01*
X344747521Y-153801619D01*
X344729797Y-153785555D01*
X344713733Y-153767831D01*
X344699483Y-153748618D01*
X344687186Y-153728101D01*
X344676958Y-153706477D01*
X344668900Y-153683955D01*
X344663088Y-153660751D01*
X344659578Y-153637090D01*
X344658404Y-153613198D01*
X344658404Y-153125698D01*
X344659578Y-153101806D01*
X344663088Y-153078145D01*
X344668900Y-153054941D01*
X344676958Y-153032419D01*
X344687186Y-153010795D01*
X344699483Y-152990278D01*
X344713733Y-152971065D01*
X344729797Y-152953341D01*
X344747521Y-152937277D01*
X344766734Y-152923027D01*
X344787251Y-152910730D01*
X344808875Y-152900502D01*
X344831397Y-152892444D01*
X344854601Y-152886632D01*
X344878262Y-152883122D01*
X344902154Y-152881948D01*
X345814654Y-152881948D01*
X345838546Y-152883122D01*
X345838546Y-152883122D01*
G37*
D15*
X345358404Y-153369448D03*
D10*
G36*
X345838546Y-154758122D02*
G01*
X345862207Y-154761632D01*
X345885411Y-154767444D01*
X345907933Y-154775502D01*
X345929557Y-154785730D01*
X345950074Y-154798027D01*
X345969287Y-154812277D01*
X345987011Y-154828341D01*
X346003075Y-154846065D01*
X346017325Y-154865278D01*
X346029622Y-154885795D01*
X346039850Y-154907419D01*
X346047908Y-154929941D01*
X346053720Y-154953145D01*
X346057230Y-154976806D01*
X346058404Y-155000698D01*
X346058404Y-155488198D01*
X346057230Y-155512090D01*
X346053720Y-155535751D01*
X346047908Y-155558955D01*
X346039850Y-155581477D01*
X346029622Y-155603101D01*
X346017325Y-155623618D01*
X346003075Y-155642831D01*
X345987011Y-155660555D01*
X345969287Y-155676619D01*
X345950074Y-155690869D01*
X345929557Y-155703166D01*
X345907933Y-155713394D01*
X345885411Y-155721452D01*
X345862207Y-155727264D01*
X345838546Y-155730774D01*
X345814654Y-155731948D01*
X344902154Y-155731948D01*
X344878262Y-155730774D01*
X344854601Y-155727264D01*
X344831397Y-155721452D01*
X344808875Y-155713394D01*
X344787251Y-155703166D01*
X344766734Y-155690869D01*
X344747521Y-155676619D01*
X344729797Y-155660555D01*
X344713733Y-155642831D01*
X344699483Y-155623618D01*
X344687186Y-155603101D01*
X344676958Y-155581477D01*
X344668900Y-155558955D01*
X344663088Y-155535751D01*
X344659578Y-155512090D01*
X344658404Y-155488198D01*
X344658404Y-155000698D01*
X344659578Y-154976806D01*
X344663088Y-154953145D01*
X344668900Y-154929941D01*
X344676958Y-154907419D01*
X344687186Y-154885795D01*
X344699483Y-154865278D01*
X344713733Y-154846065D01*
X344729797Y-154828341D01*
X344747521Y-154812277D01*
X344766734Y-154798027D01*
X344787251Y-154785730D01*
X344808875Y-154775502D01*
X344831397Y-154767444D01*
X344854601Y-154761632D01*
X344878262Y-154758122D01*
X344902154Y-154756948D01*
X345814654Y-154756948D01*
X345838546Y-154758122D01*
X345838546Y-154758122D01*
G37*
D15*
X345358404Y-155244448D03*
D10*
G36*
X349004558Y-136492902D02*
G01*
X349028219Y-136496412D01*
X349051423Y-136502224D01*
X349073945Y-136510282D01*
X349095569Y-136520510D01*
X349116086Y-136532807D01*
X349135299Y-136547057D01*
X349153023Y-136563121D01*
X349169087Y-136580845D01*
X349183337Y-136600058D01*
X349195634Y-136620575D01*
X349205862Y-136642199D01*
X349213920Y-136664721D01*
X349219732Y-136687925D01*
X349223242Y-136711586D01*
X349224416Y-136735478D01*
X349224416Y-137647978D01*
X349223242Y-137671870D01*
X349219732Y-137695531D01*
X349213920Y-137718735D01*
X349205862Y-137741257D01*
X349195634Y-137762881D01*
X349183337Y-137783398D01*
X349169087Y-137802611D01*
X349153023Y-137820335D01*
X349135299Y-137836399D01*
X349116086Y-137850649D01*
X349095569Y-137862946D01*
X349073945Y-137873174D01*
X349051423Y-137881232D01*
X349028219Y-137887044D01*
X349004558Y-137890554D01*
X348980666Y-137891728D01*
X348493166Y-137891728D01*
X348469274Y-137890554D01*
X348445613Y-137887044D01*
X348422409Y-137881232D01*
X348399887Y-137873174D01*
X348378263Y-137862946D01*
X348357746Y-137850649D01*
X348338533Y-137836399D01*
X348320809Y-137820335D01*
X348304745Y-137802611D01*
X348290495Y-137783398D01*
X348278198Y-137762881D01*
X348267970Y-137741257D01*
X348259912Y-137718735D01*
X348254100Y-137695531D01*
X348250590Y-137671870D01*
X348249416Y-137647978D01*
X348249416Y-136735478D01*
X348250590Y-136711586D01*
X348254100Y-136687925D01*
X348259912Y-136664721D01*
X348267970Y-136642199D01*
X348278198Y-136620575D01*
X348290495Y-136600058D01*
X348304745Y-136580845D01*
X348320809Y-136563121D01*
X348338533Y-136547057D01*
X348357746Y-136532807D01*
X348378263Y-136520510D01*
X348399887Y-136510282D01*
X348422409Y-136502224D01*
X348445613Y-136496412D01*
X348469274Y-136492902D01*
X348493166Y-136491728D01*
X348980666Y-136491728D01*
X349004558Y-136492902D01*
X349004558Y-136492902D01*
G37*
D15*
X348736916Y-137191728D03*
D10*
G36*
X350879558Y-136492902D02*
G01*
X350903219Y-136496412D01*
X350926423Y-136502224D01*
X350948945Y-136510282D01*
X350970569Y-136520510D01*
X350991086Y-136532807D01*
X351010299Y-136547057D01*
X351028023Y-136563121D01*
X351044087Y-136580845D01*
X351058337Y-136600058D01*
X351070634Y-136620575D01*
X351080862Y-136642199D01*
X351088920Y-136664721D01*
X351094732Y-136687925D01*
X351098242Y-136711586D01*
X351099416Y-136735478D01*
X351099416Y-137647978D01*
X351098242Y-137671870D01*
X351094732Y-137695531D01*
X351088920Y-137718735D01*
X351080862Y-137741257D01*
X351070634Y-137762881D01*
X351058337Y-137783398D01*
X351044087Y-137802611D01*
X351028023Y-137820335D01*
X351010299Y-137836399D01*
X350991086Y-137850649D01*
X350970569Y-137862946D01*
X350948945Y-137873174D01*
X350926423Y-137881232D01*
X350903219Y-137887044D01*
X350879558Y-137890554D01*
X350855666Y-137891728D01*
X350368166Y-137891728D01*
X350344274Y-137890554D01*
X350320613Y-137887044D01*
X350297409Y-137881232D01*
X350274887Y-137873174D01*
X350253263Y-137862946D01*
X350232746Y-137850649D01*
X350213533Y-137836399D01*
X350195809Y-137820335D01*
X350179745Y-137802611D01*
X350165495Y-137783398D01*
X350153198Y-137762881D01*
X350142970Y-137741257D01*
X350134912Y-137718735D01*
X350129100Y-137695531D01*
X350125590Y-137671870D01*
X350124416Y-137647978D01*
X350124416Y-136735478D01*
X350125590Y-136711586D01*
X350129100Y-136687925D01*
X350134912Y-136664721D01*
X350142970Y-136642199D01*
X350153198Y-136620575D01*
X350165495Y-136600058D01*
X350179745Y-136580845D01*
X350195809Y-136563121D01*
X350213533Y-136547057D01*
X350232746Y-136532807D01*
X350253263Y-136520510D01*
X350274887Y-136510282D01*
X350297409Y-136502224D01*
X350320613Y-136496412D01*
X350344274Y-136492902D01*
X350368166Y-136491728D01*
X350855666Y-136491728D01*
X350879558Y-136492902D01*
X350879558Y-136492902D01*
G37*
D15*
X350611916Y-137191728D03*
D10*
G36*
X368694642Y-151971049D02*
G01*
X368718303Y-151974559D01*
X368741507Y-151980371D01*
X368764029Y-151988429D01*
X368785653Y-151998657D01*
X368806170Y-152010954D01*
X368825383Y-152025204D01*
X368843107Y-152041268D01*
X368859171Y-152058992D01*
X368873421Y-152078205D01*
X368885718Y-152098722D01*
X368895946Y-152120346D01*
X368904004Y-152142868D01*
X368909816Y-152166072D01*
X368913326Y-152189733D01*
X368914500Y-152213625D01*
X368914500Y-153126125D01*
X368913326Y-153150017D01*
X368909816Y-153173678D01*
X368904004Y-153196882D01*
X368895946Y-153219404D01*
X368885718Y-153241028D01*
X368873421Y-153261545D01*
X368859171Y-153280758D01*
X368843107Y-153298482D01*
X368825383Y-153314546D01*
X368806170Y-153328796D01*
X368785653Y-153341093D01*
X368764029Y-153351321D01*
X368741507Y-153359379D01*
X368718303Y-153365191D01*
X368694642Y-153368701D01*
X368670750Y-153369875D01*
X368183250Y-153369875D01*
X368159358Y-153368701D01*
X368135697Y-153365191D01*
X368112493Y-153359379D01*
X368089971Y-153351321D01*
X368068347Y-153341093D01*
X368047830Y-153328796D01*
X368028617Y-153314546D01*
X368010893Y-153298482D01*
X367994829Y-153280758D01*
X367980579Y-153261545D01*
X367968282Y-153241028D01*
X367958054Y-153219404D01*
X367949996Y-153196882D01*
X367944184Y-153173678D01*
X367940674Y-153150017D01*
X367939500Y-153126125D01*
X367939500Y-152213625D01*
X367940674Y-152189733D01*
X367944184Y-152166072D01*
X367949996Y-152142868D01*
X367958054Y-152120346D01*
X367968282Y-152098722D01*
X367980579Y-152078205D01*
X367994829Y-152058992D01*
X368010893Y-152041268D01*
X368028617Y-152025204D01*
X368047830Y-152010954D01*
X368068347Y-151998657D01*
X368089971Y-151988429D01*
X368112493Y-151980371D01*
X368135697Y-151974559D01*
X368159358Y-151971049D01*
X368183250Y-151969875D01*
X368670750Y-151969875D01*
X368694642Y-151971049D01*
X368694642Y-151971049D01*
G37*
D15*
X368427000Y-152669875D03*
D10*
G36*
X366819642Y-151971049D02*
G01*
X366843303Y-151974559D01*
X366866507Y-151980371D01*
X366889029Y-151988429D01*
X366910653Y-151998657D01*
X366931170Y-152010954D01*
X366950383Y-152025204D01*
X366968107Y-152041268D01*
X366984171Y-152058992D01*
X366998421Y-152078205D01*
X367010718Y-152098722D01*
X367020946Y-152120346D01*
X367029004Y-152142868D01*
X367034816Y-152166072D01*
X367038326Y-152189733D01*
X367039500Y-152213625D01*
X367039500Y-153126125D01*
X367038326Y-153150017D01*
X367034816Y-153173678D01*
X367029004Y-153196882D01*
X367020946Y-153219404D01*
X367010718Y-153241028D01*
X366998421Y-153261545D01*
X366984171Y-153280758D01*
X366968107Y-153298482D01*
X366950383Y-153314546D01*
X366931170Y-153328796D01*
X366910653Y-153341093D01*
X366889029Y-153351321D01*
X366866507Y-153359379D01*
X366843303Y-153365191D01*
X366819642Y-153368701D01*
X366795750Y-153369875D01*
X366308250Y-153369875D01*
X366284358Y-153368701D01*
X366260697Y-153365191D01*
X366237493Y-153359379D01*
X366214971Y-153351321D01*
X366193347Y-153341093D01*
X366172830Y-153328796D01*
X366153617Y-153314546D01*
X366135893Y-153298482D01*
X366119829Y-153280758D01*
X366105579Y-153261545D01*
X366093282Y-153241028D01*
X366083054Y-153219404D01*
X366074996Y-153196882D01*
X366069184Y-153173678D01*
X366065674Y-153150017D01*
X366064500Y-153126125D01*
X366064500Y-152213625D01*
X366065674Y-152189733D01*
X366069184Y-152166072D01*
X366074996Y-152142868D01*
X366083054Y-152120346D01*
X366093282Y-152098722D01*
X366105579Y-152078205D01*
X366119829Y-152058992D01*
X366135893Y-152041268D01*
X366153617Y-152025204D01*
X366172830Y-152010954D01*
X366193347Y-151998657D01*
X366214971Y-151988429D01*
X366237493Y-151980371D01*
X366260697Y-151974559D01*
X366284358Y-151971049D01*
X366308250Y-151969875D01*
X366795750Y-151969875D01*
X366819642Y-151971049D01*
X366819642Y-151971049D01*
G37*
D15*
X366552000Y-152669875D03*
D10*
G36*
X368738918Y-144827270D02*
G01*
X368762579Y-144830780D01*
X368785783Y-144836592D01*
X368808305Y-144844650D01*
X368829929Y-144854878D01*
X368850446Y-144867175D01*
X368869659Y-144881425D01*
X368887383Y-144897489D01*
X368903447Y-144915213D01*
X368917697Y-144934426D01*
X368929994Y-144954943D01*
X368940222Y-144976567D01*
X368948280Y-144999089D01*
X368954092Y-145022293D01*
X368957602Y-145045954D01*
X368958776Y-145069846D01*
X368958776Y-145982346D01*
X368957602Y-146006238D01*
X368954092Y-146029899D01*
X368948280Y-146053103D01*
X368940222Y-146075625D01*
X368929994Y-146097249D01*
X368917697Y-146117766D01*
X368903447Y-146136979D01*
X368887383Y-146154703D01*
X368869659Y-146170767D01*
X368850446Y-146185017D01*
X368829929Y-146197314D01*
X368808305Y-146207542D01*
X368785783Y-146215600D01*
X368762579Y-146221412D01*
X368738918Y-146224922D01*
X368715026Y-146226096D01*
X368227526Y-146226096D01*
X368203634Y-146224922D01*
X368179973Y-146221412D01*
X368156769Y-146215600D01*
X368134247Y-146207542D01*
X368112623Y-146197314D01*
X368092106Y-146185017D01*
X368072893Y-146170767D01*
X368055169Y-146154703D01*
X368039105Y-146136979D01*
X368024855Y-146117766D01*
X368012558Y-146097249D01*
X368002330Y-146075625D01*
X367994272Y-146053103D01*
X367988460Y-146029899D01*
X367984950Y-146006238D01*
X367983776Y-145982346D01*
X367983776Y-145069846D01*
X367984950Y-145045954D01*
X367988460Y-145022293D01*
X367994272Y-144999089D01*
X368002330Y-144976567D01*
X368012558Y-144954943D01*
X368024855Y-144934426D01*
X368039105Y-144915213D01*
X368055169Y-144897489D01*
X368072893Y-144881425D01*
X368092106Y-144867175D01*
X368112623Y-144854878D01*
X368134247Y-144844650D01*
X368156769Y-144836592D01*
X368179973Y-144830780D01*
X368203634Y-144827270D01*
X368227526Y-144826096D01*
X368715026Y-144826096D01*
X368738918Y-144827270D01*
X368738918Y-144827270D01*
G37*
D15*
X368471276Y-145526096D03*
D10*
G36*
X366863918Y-144827270D02*
G01*
X366887579Y-144830780D01*
X366910783Y-144836592D01*
X366933305Y-144844650D01*
X366954929Y-144854878D01*
X366975446Y-144867175D01*
X366994659Y-144881425D01*
X367012383Y-144897489D01*
X367028447Y-144915213D01*
X367042697Y-144934426D01*
X367054994Y-144954943D01*
X367065222Y-144976567D01*
X367073280Y-144999089D01*
X367079092Y-145022293D01*
X367082602Y-145045954D01*
X367083776Y-145069846D01*
X367083776Y-145982346D01*
X367082602Y-146006238D01*
X367079092Y-146029899D01*
X367073280Y-146053103D01*
X367065222Y-146075625D01*
X367054994Y-146097249D01*
X367042697Y-146117766D01*
X367028447Y-146136979D01*
X367012383Y-146154703D01*
X366994659Y-146170767D01*
X366975446Y-146185017D01*
X366954929Y-146197314D01*
X366933305Y-146207542D01*
X366910783Y-146215600D01*
X366887579Y-146221412D01*
X366863918Y-146224922D01*
X366840026Y-146226096D01*
X366352526Y-146226096D01*
X366328634Y-146224922D01*
X366304973Y-146221412D01*
X366281769Y-146215600D01*
X366259247Y-146207542D01*
X366237623Y-146197314D01*
X366217106Y-146185017D01*
X366197893Y-146170767D01*
X366180169Y-146154703D01*
X366164105Y-146136979D01*
X366149855Y-146117766D01*
X366137558Y-146097249D01*
X366127330Y-146075625D01*
X366119272Y-146053103D01*
X366113460Y-146029899D01*
X366109950Y-146006238D01*
X366108776Y-145982346D01*
X366108776Y-145069846D01*
X366109950Y-145045954D01*
X366113460Y-145022293D01*
X366119272Y-144999089D01*
X366127330Y-144976567D01*
X366137558Y-144954943D01*
X366149855Y-144934426D01*
X366164105Y-144915213D01*
X366180169Y-144897489D01*
X366197893Y-144881425D01*
X366217106Y-144867175D01*
X366237623Y-144854878D01*
X366259247Y-144844650D01*
X366281769Y-144836592D01*
X366304973Y-144830780D01*
X366328634Y-144827270D01*
X366352526Y-144826096D01*
X366840026Y-144826096D01*
X366863918Y-144827270D01*
X366863918Y-144827270D01*
G37*
D15*
X366596276Y-145526096D03*
D10*
G36*
X354064710Y-139618290D02*
G01*
X354088371Y-139621800D01*
X354111575Y-139627612D01*
X354134097Y-139635670D01*
X354155721Y-139645898D01*
X354176238Y-139658195D01*
X354195451Y-139672445D01*
X354213175Y-139688509D01*
X354229239Y-139706233D01*
X354243489Y-139725446D01*
X354255786Y-139745963D01*
X354266014Y-139767587D01*
X354274072Y-139790109D01*
X354279884Y-139813313D01*
X354283394Y-139836974D01*
X354284568Y-139860866D01*
X354284568Y-140773366D01*
X354283394Y-140797258D01*
X354279884Y-140820919D01*
X354274072Y-140844123D01*
X354266014Y-140866645D01*
X354255786Y-140888269D01*
X354243489Y-140908786D01*
X354229239Y-140927999D01*
X354213175Y-140945723D01*
X354195451Y-140961787D01*
X354176238Y-140976037D01*
X354155721Y-140988334D01*
X354134097Y-140998562D01*
X354111575Y-141006620D01*
X354088371Y-141012432D01*
X354064710Y-141015942D01*
X354040818Y-141017116D01*
X353553318Y-141017116D01*
X353529426Y-141015942D01*
X353505765Y-141012432D01*
X353482561Y-141006620D01*
X353460039Y-140998562D01*
X353438415Y-140988334D01*
X353417898Y-140976037D01*
X353398685Y-140961787D01*
X353380961Y-140945723D01*
X353364897Y-140927999D01*
X353350647Y-140908786D01*
X353338350Y-140888269D01*
X353328122Y-140866645D01*
X353320064Y-140844123D01*
X353314252Y-140820919D01*
X353310742Y-140797258D01*
X353309568Y-140773366D01*
X353309568Y-139860866D01*
X353310742Y-139836974D01*
X353314252Y-139813313D01*
X353320064Y-139790109D01*
X353328122Y-139767587D01*
X353338350Y-139745963D01*
X353350647Y-139725446D01*
X353364897Y-139706233D01*
X353380961Y-139688509D01*
X353398685Y-139672445D01*
X353417898Y-139658195D01*
X353438415Y-139645898D01*
X353460039Y-139635670D01*
X353482561Y-139627612D01*
X353505765Y-139621800D01*
X353529426Y-139618290D01*
X353553318Y-139617116D01*
X354040818Y-139617116D01*
X354064710Y-139618290D01*
X354064710Y-139618290D01*
G37*
D15*
X353797068Y-140317116D03*
D10*
G36*
X355939710Y-139618290D02*
G01*
X355963371Y-139621800D01*
X355986575Y-139627612D01*
X356009097Y-139635670D01*
X356030721Y-139645898D01*
X356051238Y-139658195D01*
X356070451Y-139672445D01*
X356088175Y-139688509D01*
X356104239Y-139706233D01*
X356118489Y-139725446D01*
X356130786Y-139745963D01*
X356141014Y-139767587D01*
X356149072Y-139790109D01*
X356154884Y-139813313D01*
X356158394Y-139836974D01*
X356159568Y-139860866D01*
X356159568Y-140773366D01*
X356158394Y-140797258D01*
X356154884Y-140820919D01*
X356149072Y-140844123D01*
X356141014Y-140866645D01*
X356130786Y-140888269D01*
X356118489Y-140908786D01*
X356104239Y-140927999D01*
X356088175Y-140945723D01*
X356070451Y-140961787D01*
X356051238Y-140976037D01*
X356030721Y-140988334D01*
X356009097Y-140998562D01*
X355986575Y-141006620D01*
X355963371Y-141012432D01*
X355939710Y-141015942D01*
X355915818Y-141017116D01*
X355428318Y-141017116D01*
X355404426Y-141015942D01*
X355380765Y-141012432D01*
X355357561Y-141006620D01*
X355335039Y-140998562D01*
X355313415Y-140988334D01*
X355292898Y-140976037D01*
X355273685Y-140961787D01*
X355255961Y-140945723D01*
X355239897Y-140927999D01*
X355225647Y-140908786D01*
X355213350Y-140888269D01*
X355203122Y-140866645D01*
X355195064Y-140844123D01*
X355189252Y-140820919D01*
X355185742Y-140797258D01*
X355184568Y-140773366D01*
X355184568Y-139860866D01*
X355185742Y-139836974D01*
X355189252Y-139813313D01*
X355195064Y-139790109D01*
X355203122Y-139767587D01*
X355213350Y-139745963D01*
X355225647Y-139725446D01*
X355239897Y-139706233D01*
X355255961Y-139688509D01*
X355273685Y-139672445D01*
X355292898Y-139658195D01*
X355313415Y-139645898D01*
X355335039Y-139635670D01*
X355357561Y-139627612D01*
X355380765Y-139621800D01*
X355404426Y-139618290D01*
X355428318Y-139617116D01*
X355915818Y-139617116D01*
X355939710Y-139618290D01*
X355939710Y-139618290D01*
G37*
D15*
X355672068Y-140317116D03*
D14*
X81486375Y-118873000D03*
X81486375Y-122173000D03*
X100536375Y-118873000D03*
X100536375Y-122173000D03*
X119586375Y-118873000D03*
X119586375Y-122173000D03*
X138636375Y-118873000D03*
X138636375Y-122173000D03*
X157686375Y-118873000D03*
X157686375Y-122173000D03*
X176736375Y-118873000D03*
X176736375Y-122173000D03*
X214836375Y-118873000D03*
X214836375Y-122173000D03*
X233886375Y-118873000D03*
X233886375Y-122173000D03*
X252936375Y-118873000D03*
X252936375Y-122173000D03*
X271986375Y-118873000D03*
X271986375Y-122173000D03*
X291036375Y-118873000D03*
X291036375Y-122173000D03*
X310086375Y-118873000D03*
X310086375Y-122173000D03*
X329136375Y-118873000D03*
X329136375Y-122173000D03*
X336280125Y-118873000D03*
X336280125Y-122173000D03*
X83867625Y-137923000D03*
X83867625Y-141223000D03*
X105298875Y-137923000D03*
X105298875Y-141223000D03*
X124348875Y-137923000D03*
X124348875Y-141223000D03*
X143398875Y-137923000D03*
X143398875Y-141223000D03*
X162448875Y-137923000D03*
X162448875Y-141223000D03*
X181498875Y-137923000D03*
X181498875Y-141223000D03*
X200548875Y-137923000D03*
X200548875Y-141223000D03*
X219598875Y-137923000D03*
X219598875Y-141223000D03*
X238648875Y-137923000D03*
X238648875Y-141223000D03*
X257698875Y-137923000D03*
X257698875Y-141223000D03*
X276748875Y-137923000D03*
X276748875Y-141223000D03*
X295798875Y-137923000D03*
X295798875Y-141223000D03*
X321992625Y-137923000D03*
X321992625Y-141223000D03*
X336280125Y-137923000D03*
X336280125Y-141223000D03*
X88630125Y-156973000D03*
X88630125Y-160273000D03*
X114823875Y-156973000D03*
X114823875Y-160273000D03*
X133873875Y-156973000D03*
X133873875Y-160273000D03*
X152923875Y-156973000D03*
X152923875Y-160273000D03*
X171973875Y-156973000D03*
X171973875Y-160273000D03*
X191023875Y-156973000D03*
X191023875Y-160273000D03*
X210073875Y-156973000D03*
X210073875Y-160273000D03*
X229123875Y-156973000D03*
X229123875Y-160273000D03*
X248173875Y-156973000D03*
X248173875Y-160273000D03*
X267223875Y-156973000D03*
X267223875Y-160273000D03*
X286273875Y-156973000D03*
X286273875Y-160273000D03*
X307705125Y-156973000D03*
X307705125Y-160273000D03*
X310086375Y-156973000D03*
X310086375Y-160273000D03*
X336280125Y-161735500D03*
X336280125Y-165035500D03*
X100536375Y-176023000D03*
X100536375Y-179323000D03*
X121967625Y-176023000D03*
X121967625Y-179323000D03*
X145780125Y-176023000D03*
X145780125Y-179323000D03*
X179117625Y-176023000D03*
X179117625Y-179323000D03*
X226742625Y-176023000D03*
X226742625Y-179323000D03*
X264842625Y-176023000D03*
X264842625Y-179323000D03*
X288655125Y-176023000D03*
X288655125Y-179323000D03*
X310086375Y-176023000D03*
X310086375Y-179323000D03*
X333898875Y-180785500D03*
X333898875Y-184085500D03*
X352948875Y-180785500D03*
X352948875Y-184085500D03*
X355330125Y-180785500D03*
X355330125Y-184085500D03*
D10*
G36*
X365012504Y-124976204D02*
G01*
X365036773Y-124979804D01*
X365060571Y-124985765D01*
X365083671Y-124994030D01*
X365105849Y-125004520D01*
X365126893Y-125017133D01*
X365146598Y-125031747D01*
X365164777Y-125048223D01*
X365181253Y-125066402D01*
X365195867Y-125086107D01*
X365208480Y-125107151D01*
X365218970Y-125129329D01*
X365227235Y-125152429D01*
X365233196Y-125176227D01*
X365236796Y-125200496D01*
X365238000Y-125225000D01*
X365238000Y-125975000D01*
X365236796Y-125999504D01*
X365233196Y-126023773D01*
X365227235Y-126047571D01*
X365218970Y-126070671D01*
X365208480Y-126092849D01*
X365195867Y-126113893D01*
X365181253Y-126133598D01*
X365164777Y-126151777D01*
X365146598Y-126168253D01*
X365126893Y-126182867D01*
X365105849Y-126195480D01*
X365083671Y-126205970D01*
X365060571Y-126214235D01*
X365036773Y-126220196D01*
X365012504Y-126223796D01*
X364988000Y-126225000D01*
X363738000Y-126225000D01*
X363713496Y-126223796D01*
X363689227Y-126220196D01*
X363665429Y-126214235D01*
X363642329Y-126205970D01*
X363620151Y-126195480D01*
X363599107Y-126182867D01*
X363579402Y-126168253D01*
X363561223Y-126151777D01*
X363544747Y-126133598D01*
X363530133Y-126113893D01*
X363517520Y-126092849D01*
X363507030Y-126070671D01*
X363498765Y-126047571D01*
X363492804Y-126023773D01*
X363489204Y-125999504D01*
X363488000Y-125975000D01*
X363488000Y-125225000D01*
X363489204Y-125200496D01*
X363492804Y-125176227D01*
X363498765Y-125152429D01*
X363507030Y-125129329D01*
X363517520Y-125107151D01*
X363530133Y-125086107D01*
X363544747Y-125066402D01*
X363561223Y-125048223D01*
X363579402Y-125031747D01*
X363599107Y-125017133D01*
X363620151Y-125004520D01*
X363642329Y-124994030D01*
X363665429Y-124985765D01*
X363689227Y-124979804D01*
X363713496Y-124976204D01*
X363738000Y-124975000D01*
X364988000Y-124975000D01*
X365012504Y-124976204D01*
X365012504Y-124976204D01*
G37*
D16*
X364363000Y-125600000D03*
D10*
G36*
X365012504Y-127776204D02*
G01*
X365036773Y-127779804D01*
X365060571Y-127785765D01*
X365083671Y-127794030D01*
X365105849Y-127804520D01*
X365126893Y-127817133D01*
X365146598Y-127831747D01*
X365164777Y-127848223D01*
X365181253Y-127866402D01*
X365195867Y-127886107D01*
X365208480Y-127907151D01*
X365218970Y-127929329D01*
X365227235Y-127952429D01*
X365233196Y-127976227D01*
X365236796Y-128000496D01*
X365238000Y-128025000D01*
X365238000Y-128775000D01*
X365236796Y-128799504D01*
X365233196Y-128823773D01*
X365227235Y-128847571D01*
X365218970Y-128870671D01*
X365208480Y-128892849D01*
X365195867Y-128913893D01*
X365181253Y-128933598D01*
X365164777Y-128951777D01*
X365146598Y-128968253D01*
X365126893Y-128982867D01*
X365105849Y-128995480D01*
X365083671Y-129005970D01*
X365060571Y-129014235D01*
X365036773Y-129020196D01*
X365012504Y-129023796D01*
X364988000Y-129025000D01*
X363738000Y-129025000D01*
X363713496Y-129023796D01*
X363689227Y-129020196D01*
X363665429Y-129014235D01*
X363642329Y-129005970D01*
X363620151Y-128995480D01*
X363599107Y-128982867D01*
X363579402Y-128968253D01*
X363561223Y-128951777D01*
X363544747Y-128933598D01*
X363530133Y-128913893D01*
X363517520Y-128892849D01*
X363507030Y-128870671D01*
X363498765Y-128847571D01*
X363492804Y-128823773D01*
X363489204Y-128799504D01*
X363488000Y-128775000D01*
X363488000Y-128025000D01*
X363489204Y-128000496D01*
X363492804Y-127976227D01*
X363498765Y-127952429D01*
X363507030Y-127929329D01*
X363517520Y-127907151D01*
X363530133Y-127886107D01*
X363544747Y-127866402D01*
X363561223Y-127848223D01*
X363579402Y-127831747D01*
X363599107Y-127817133D01*
X363620151Y-127804520D01*
X363642329Y-127794030D01*
X363665429Y-127785765D01*
X363689227Y-127779804D01*
X363713496Y-127776204D01*
X363738000Y-127775000D01*
X364988000Y-127775000D01*
X365012504Y-127776204D01*
X365012504Y-127776204D01*
G37*
D16*
X364363000Y-128400000D03*
D10*
G36*
X362547906Y-140957742D02*
G01*
X362571567Y-140961252D01*
X362594771Y-140967064D01*
X362617293Y-140975122D01*
X362638917Y-140985350D01*
X362659434Y-140997647D01*
X362678647Y-141011897D01*
X362696371Y-141027961D01*
X362712435Y-141045685D01*
X362726685Y-141064898D01*
X362738982Y-141085415D01*
X362749210Y-141107039D01*
X362757268Y-141129561D01*
X362763080Y-141152765D01*
X362766590Y-141176426D01*
X362767764Y-141200318D01*
X362767764Y-142112818D01*
X362766590Y-142136710D01*
X362763080Y-142160371D01*
X362757268Y-142183575D01*
X362749210Y-142206097D01*
X362738982Y-142227721D01*
X362726685Y-142248238D01*
X362712435Y-142267451D01*
X362696371Y-142285175D01*
X362678647Y-142301239D01*
X362659434Y-142315489D01*
X362638917Y-142327786D01*
X362617293Y-142338014D01*
X362594771Y-142346072D01*
X362571567Y-142351884D01*
X362547906Y-142355394D01*
X362524014Y-142356568D01*
X362036514Y-142356568D01*
X362012622Y-142355394D01*
X361988961Y-142351884D01*
X361965757Y-142346072D01*
X361943235Y-142338014D01*
X361921611Y-142327786D01*
X361901094Y-142315489D01*
X361881881Y-142301239D01*
X361864157Y-142285175D01*
X361848093Y-142267451D01*
X361833843Y-142248238D01*
X361821546Y-142227721D01*
X361811318Y-142206097D01*
X361803260Y-142183575D01*
X361797448Y-142160371D01*
X361793938Y-142136710D01*
X361792764Y-142112818D01*
X361792764Y-141200318D01*
X361793938Y-141176426D01*
X361797448Y-141152765D01*
X361803260Y-141129561D01*
X361811318Y-141107039D01*
X361821546Y-141085415D01*
X361833843Y-141064898D01*
X361848093Y-141045685D01*
X361864157Y-141027961D01*
X361881881Y-141011897D01*
X361901094Y-140997647D01*
X361921611Y-140985350D01*
X361943235Y-140975122D01*
X361965757Y-140967064D01*
X361988961Y-140961252D01*
X362012622Y-140957742D01*
X362036514Y-140956568D01*
X362524014Y-140956568D01*
X362547906Y-140957742D01*
X362547906Y-140957742D01*
G37*
D15*
X362280264Y-141656568D03*
D10*
G36*
X364422906Y-140957742D02*
G01*
X364446567Y-140961252D01*
X364469771Y-140967064D01*
X364492293Y-140975122D01*
X364513917Y-140985350D01*
X364534434Y-140997647D01*
X364553647Y-141011897D01*
X364571371Y-141027961D01*
X364587435Y-141045685D01*
X364601685Y-141064898D01*
X364613982Y-141085415D01*
X364624210Y-141107039D01*
X364632268Y-141129561D01*
X364638080Y-141152765D01*
X364641590Y-141176426D01*
X364642764Y-141200318D01*
X364642764Y-142112818D01*
X364641590Y-142136710D01*
X364638080Y-142160371D01*
X364632268Y-142183575D01*
X364624210Y-142206097D01*
X364613982Y-142227721D01*
X364601685Y-142248238D01*
X364587435Y-142267451D01*
X364571371Y-142285175D01*
X364553647Y-142301239D01*
X364534434Y-142315489D01*
X364513917Y-142327786D01*
X364492293Y-142338014D01*
X364469771Y-142346072D01*
X364446567Y-142351884D01*
X364422906Y-142355394D01*
X364399014Y-142356568D01*
X363911514Y-142356568D01*
X363887622Y-142355394D01*
X363863961Y-142351884D01*
X363840757Y-142346072D01*
X363818235Y-142338014D01*
X363796611Y-142327786D01*
X363776094Y-142315489D01*
X363756881Y-142301239D01*
X363739157Y-142285175D01*
X363723093Y-142267451D01*
X363708843Y-142248238D01*
X363696546Y-142227721D01*
X363686318Y-142206097D01*
X363678260Y-142183575D01*
X363672448Y-142160371D01*
X363668938Y-142136710D01*
X363667764Y-142112818D01*
X363667764Y-141200318D01*
X363668938Y-141176426D01*
X363672448Y-141152765D01*
X363678260Y-141129561D01*
X363686318Y-141107039D01*
X363696546Y-141085415D01*
X363708843Y-141064898D01*
X363723093Y-141045685D01*
X363739157Y-141027961D01*
X363756881Y-141011897D01*
X363776094Y-140997647D01*
X363796611Y-140985350D01*
X363818235Y-140975122D01*
X363840757Y-140967064D01*
X363863961Y-140961252D01*
X363887622Y-140957742D01*
X363911514Y-140956568D01*
X364399014Y-140956568D01*
X364422906Y-140957742D01*
X364422906Y-140957742D01*
G37*
D15*
X364155264Y-141656568D03*
D10*
G36*
X362303142Y-125370674D02*
G01*
X362326803Y-125374184D01*
X362350007Y-125379996D01*
X362372529Y-125388054D01*
X362394153Y-125398282D01*
X362414670Y-125410579D01*
X362433883Y-125424829D01*
X362451607Y-125440893D01*
X362467671Y-125458617D01*
X362481921Y-125477830D01*
X362494218Y-125498347D01*
X362504446Y-125519971D01*
X362512504Y-125542493D01*
X362518316Y-125565697D01*
X362521826Y-125589358D01*
X362523000Y-125613250D01*
X362523000Y-126100750D01*
X362521826Y-126124642D01*
X362518316Y-126148303D01*
X362512504Y-126171507D01*
X362504446Y-126194029D01*
X362494218Y-126215653D01*
X362481921Y-126236170D01*
X362467671Y-126255383D01*
X362451607Y-126273107D01*
X362433883Y-126289171D01*
X362414670Y-126303421D01*
X362394153Y-126315718D01*
X362372529Y-126325946D01*
X362350007Y-126334004D01*
X362326803Y-126339816D01*
X362303142Y-126343326D01*
X362279250Y-126344500D01*
X361366750Y-126344500D01*
X361342858Y-126343326D01*
X361319197Y-126339816D01*
X361295993Y-126334004D01*
X361273471Y-126325946D01*
X361251847Y-126315718D01*
X361231330Y-126303421D01*
X361212117Y-126289171D01*
X361194393Y-126273107D01*
X361178329Y-126255383D01*
X361164079Y-126236170D01*
X361151782Y-126215653D01*
X361141554Y-126194029D01*
X361133496Y-126171507D01*
X361127684Y-126148303D01*
X361124174Y-126124642D01*
X361123000Y-126100750D01*
X361123000Y-125613250D01*
X361124174Y-125589358D01*
X361127684Y-125565697D01*
X361133496Y-125542493D01*
X361141554Y-125519971D01*
X361151782Y-125498347D01*
X361164079Y-125477830D01*
X361178329Y-125458617D01*
X361194393Y-125440893D01*
X361212117Y-125424829D01*
X361231330Y-125410579D01*
X361251847Y-125398282D01*
X361273471Y-125388054D01*
X361295993Y-125379996D01*
X361319197Y-125374184D01*
X361342858Y-125370674D01*
X361366750Y-125369500D01*
X362279250Y-125369500D01*
X362303142Y-125370674D01*
X362303142Y-125370674D01*
G37*
D15*
X361823000Y-125857000D03*
D10*
G36*
X362303142Y-127245674D02*
G01*
X362326803Y-127249184D01*
X362350007Y-127254996D01*
X362372529Y-127263054D01*
X362394153Y-127273282D01*
X362414670Y-127285579D01*
X362433883Y-127299829D01*
X362451607Y-127315893D01*
X362467671Y-127333617D01*
X362481921Y-127352830D01*
X362494218Y-127373347D01*
X362504446Y-127394971D01*
X362512504Y-127417493D01*
X362518316Y-127440697D01*
X362521826Y-127464358D01*
X362523000Y-127488250D01*
X362523000Y-127975750D01*
X362521826Y-127999642D01*
X362518316Y-128023303D01*
X362512504Y-128046507D01*
X362504446Y-128069029D01*
X362494218Y-128090653D01*
X362481921Y-128111170D01*
X362467671Y-128130383D01*
X362451607Y-128148107D01*
X362433883Y-128164171D01*
X362414670Y-128178421D01*
X362394153Y-128190718D01*
X362372529Y-128200946D01*
X362350007Y-128209004D01*
X362326803Y-128214816D01*
X362303142Y-128218326D01*
X362279250Y-128219500D01*
X361366750Y-128219500D01*
X361342858Y-128218326D01*
X361319197Y-128214816D01*
X361295993Y-128209004D01*
X361273471Y-128200946D01*
X361251847Y-128190718D01*
X361231330Y-128178421D01*
X361212117Y-128164171D01*
X361194393Y-128148107D01*
X361178329Y-128130383D01*
X361164079Y-128111170D01*
X361151782Y-128090653D01*
X361141554Y-128069029D01*
X361133496Y-128046507D01*
X361127684Y-128023303D01*
X361124174Y-127999642D01*
X361123000Y-127975750D01*
X361123000Y-127488250D01*
X361124174Y-127464358D01*
X361127684Y-127440697D01*
X361133496Y-127417493D01*
X361141554Y-127394971D01*
X361151782Y-127373347D01*
X361164079Y-127352830D01*
X361178329Y-127333617D01*
X361194393Y-127315893D01*
X361212117Y-127299829D01*
X361231330Y-127285579D01*
X361251847Y-127273282D01*
X361273471Y-127263054D01*
X361295993Y-127254996D01*
X361319197Y-127249184D01*
X361342858Y-127245674D01*
X361366750Y-127244500D01*
X362279250Y-127244500D01*
X362303142Y-127245674D01*
X362303142Y-127245674D01*
G37*
D15*
X361823000Y-127732000D03*
D10*
G36*
X342564330Y-155948746D02*
G01*
X342587991Y-155952256D01*
X342611195Y-155958068D01*
X342633717Y-155966126D01*
X342655341Y-155976354D01*
X342675858Y-155988651D01*
X342695071Y-156002901D01*
X342712795Y-156018965D01*
X342728859Y-156036689D01*
X342743109Y-156055902D01*
X342755406Y-156076419D01*
X342765634Y-156098043D01*
X342773692Y-156120565D01*
X342779504Y-156143769D01*
X342783014Y-156167430D01*
X342784188Y-156191322D01*
X342784188Y-156678822D01*
X342783014Y-156702714D01*
X342779504Y-156726375D01*
X342773692Y-156749579D01*
X342765634Y-156772101D01*
X342755406Y-156793725D01*
X342743109Y-156814242D01*
X342728859Y-156833455D01*
X342712795Y-156851179D01*
X342695071Y-156867243D01*
X342675858Y-156881493D01*
X342655341Y-156893790D01*
X342633717Y-156904018D01*
X342611195Y-156912076D01*
X342587991Y-156917888D01*
X342564330Y-156921398D01*
X342540438Y-156922572D01*
X341627938Y-156922572D01*
X341604046Y-156921398D01*
X341580385Y-156917888D01*
X341557181Y-156912076D01*
X341534659Y-156904018D01*
X341513035Y-156893790D01*
X341492518Y-156881493D01*
X341473305Y-156867243D01*
X341455581Y-156851179D01*
X341439517Y-156833455D01*
X341425267Y-156814242D01*
X341412970Y-156793725D01*
X341402742Y-156772101D01*
X341394684Y-156749579D01*
X341388872Y-156726375D01*
X341385362Y-156702714D01*
X341384188Y-156678822D01*
X341384188Y-156191322D01*
X341385362Y-156167430D01*
X341388872Y-156143769D01*
X341394684Y-156120565D01*
X341402742Y-156098043D01*
X341412970Y-156076419D01*
X341425267Y-156055902D01*
X341439517Y-156036689D01*
X341455581Y-156018965D01*
X341473305Y-156002901D01*
X341492518Y-155988651D01*
X341513035Y-155976354D01*
X341534659Y-155966126D01*
X341557181Y-155958068D01*
X341580385Y-155952256D01*
X341604046Y-155948746D01*
X341627938Y-155947572D01*
X342540438Y-155947572D01*
X342564330Y-155948746D01*
X342564330Y-155948746D01*
G37*
D15*
X342084188Y-156435072D03*
D10*
G36*
X342564330Y-154073746D02*
G01*
X342587991Y-154077256D01*
X342611195Y-154083068D01*
X342633717Y-154091126D01*
X342655341Y-154101354D01*
X342675858Y-154113651D01*
X342695071Y-154127901D01*
X342712795Y-154143965D01*
X342728859Y-154161689D01*
X342743109Y-154180902D01*
X342755406Y-154201419D01*
X342765634Y-154223043D01*
X342773692Y-154245565D01*
X342779504Y-154268769D01*
X342783014Y-154292430D01*
X342784188Y-154316322D01*
X342784188Y-154803822D01*
X342783014Y-154827714D01*
X342779504Y-154851375D01*
X342773692Y-154874579D01*
X342765634Y-154897101D01*
X342755406Y-154918725D01*
X342743109Y-154939242D01*
X342728859Y-154958455D01*
X342712795Y-154976179D01*
X342695071Y-154992243D01*
X342675858Y-155006493D01*
X342655341Y-155018790D01*
X342633717Y-155029018D01*
X342611195Y-155037076D01*
X342587991Y-155042888D01*
X342564330Y-155046398D01*
X342540438Y-155047572D01*
X341627938Y-155047572D01*
X341604046Y-155046398D01*
X341580385Y-155042888D01*
X341557181Y-155037076D01*
X341534659Y-155029018D01*
X341513035Y-155018790D01*
X341492518Y-155006493D01*
X341473305Y-154992243D01*
X341455581Y-154976179D01*
X341439517Y-154958455D01*
X341425267Y-154939242D01*
X341412970Y-154918725D01*
X341402742Y-154897101D01*
X341394684Y-154874579D01*
X341388872Y-154851375D01*
X341385362Y-154827714D01*
X341384188Y-154803822D01*
X341384188Y-154316322D01*
X341385362Y-154292430D01*
X341388872Y-154268769D01*
X341394684Y-154245565D01*
X341402742Y-154223043D01*
X341412970Y-154201419D01*
X341425267Y-154180902D01*
X341439517Y-154161689D01*
X341455581Y-154143965D01*
X341473305Y-154127901D01*
X341492518Y-154113651D01*
X341513035Y-154101354D01*
X341534659Y-154091126D01*
X341557181Y-154083068D01*
X341580385Y-154077256D01*
X341604046Y-154073746D01*
X341627938Y-154072572D01*
X342540438Y-154072572D01*
X342564330Y-154073746D01*
X342564330Y-154073746D01*
G37*
D15*
X342084188Y-154560072D03*
D17*
X335808250Y-153329250D03*
X329608250Y-149629250D03*
X335808250Y-149629250D03*
X329608250Y-153329250D03*
D18*
X348736912Y-145395624D03*
X348736912Y-146195624D03*
X348736912Y-146995624D03*
X348736912Y-147795624D03*
X348736912Y-148595624D03*
X348736912Y-149395624D03*
X348736912Y-150195624D03*
X348736912Y-150995624D03*
X348736912Y-151795624D03*
X348736912Y-152595624D03*
X348736912Y-153395624D03*
D19*
X350436912Y-155095624D03*
X351236912Y-155095624D03*
X352036912Y-155095624D03*
X352836912Y-155095624D03*
X353636912Y-155095624D03*
X354436912Y-155095624D03*
X355236912Y-155095624D03*
X356036912Y-155095624D03*
X356836912Y-155095624D03*
X357636912Y-155095624D03*
X358436912Y-155095624D03*
D18*
X360136912Y-153395624D03*
X360136912Y-152595624D03*
X360136912Y-151795624D03*
X360136912Y-150995624D03*
X360136912Y-150195624D03*
X360136912Y-149395624D03*
X360136912Y-148595624D03*
X360136912Y-147795624D03*
X360136912Y-146995624D03*
X360136912Y-146195624D03*
X360136912Y-145395624D03*
D19*
X358436912Y-143695624D03*
X357636912Y-143695624D03*
X356836912Y-143695624D03*
X356036912Y-143695624D03*
X355236912Y-143695624D03*
X354436912Y-143695624D03*
X353636912Y-143695624D03*
X352836912Y-143695624D03*
X352036912Y-143695624D03*
X351236912Y-143695624D03*
X350436912Y-143695624D03*
D20*
X368383776Y-150197968D03*
X368383776Y-147997968D03*
X366683776Y-147997968D03*
X366683776Y-150197968D03*
M02*
