M48
INCH
T1C0.0118
T2C0.0157
T3C0.0236
T4C0.0579
%
G90
G05
T1
X1.2625Y-2.8125
X2.2875Y-2.8347
X2.6625Y-2.1328
X3.7875Y-2.8491
X4.5901Y-2.8635
X4.916Y-2.1535
X5.6746Y-2.1621
X6.7875Y-2.8779
X7.1953Y-2.1828
X8.2875Y-3.0749
X9.0375Y-3.0893
X9.8055Y-3.1055
X10.5703Y-3.1181
X11.332Y-3.1325
X11.8242Y-2.3613
X12.125Y-1.58
X12.135Y-1.69
X12.2109Y-3.3047
X12.215Y-1.69
X12.26Y-0.99
X12.3462Y-1.1588
X12.39Y-1.58
X12.455Y-0.99
X12.4629Y-2.0215
X12.58Y-1.155
T2
X11.7949Y-2.4551
X12.0Y-1.9436
X12.1582Y-1.2568
X12.1582Y-1.4473
X12.2307Y-1.9687
X12.5449Y-1.9939
X12.4127Y-1.038
X12.4129Y-1.0902
X12.4461Y-1.038
X12.4463Y-1.0902
X12.4796Y-1.038
X12.4798Y-1.0902
X12.5131Y-1.038
X12.5133Y-1.0902
X12.5465Y-1.038
X12.5467Y-1.0902
X12.58Y-1.038
X12.5802Y-1.0902
X12.6135Y-1.038
X12.6137Y-1.0902
X12.6471Y-1.038
X12.6471Y-1.0902
T4
X4.1625Y-1.775
X4.4125Y-1.675
X1.0687Y-1.775
X1.3187Y-1.675
X10.9125Y-3.4625
X11.1625Y-3.3625
X1.725Y-3.275
X1.975Y-3.175
X8.1937Y-3.275
X8.4437Y-3.175
X6.4125Y-1.775
X6.6625Y-1.675
X2.2875Y-2.525
X2.5375Y-2.425
X6.225Y-1.025
X6.475Y-0.925
X9.4125Y-1.775
X9.6625Y-1.675
X9.225Y-1.025
X9.475Y-0.925
X1.9125Y-1.775
X2.1625Y-1.675
X0.975Y-1.025
X1.225Y-0.925
X4.5375Y-2.525
X4.7875Y-2.425
X3.975Y-1.025
X4.225Y-0.925
X6.7875Y-2.525
X7.0375Y-2.425
X11.6625Y-1.025
X11.9125Y-0.925
X6.975Y-1.025
X7.225Y-0.925
X4.9125Y-1.775
X5.1625Y-1.675
X8.6625Y-1.775
X8.9125Y-1.675
X3.4125Y-1.775
X3.6625Y-1.675
X3.5063Y-3.275
X3.7563Y-3.175
X10.6312Y-2.525
X10.8812Y-2.425
X4.8187Y-3.275
X5.0687Y-3.175
X11.6625Y-2.7125
X11.9125Y-2.6125
X12.4125Y-3.4625
X12.6625Y-3.3625
X1.725Y-1.025
X1.975Y-0.925
X1.2562Y-2.525
X1.5062Y-2.425
X7.9125Y-1.775
X8.1625Y-1.675
X8.475Y-1.025
X8.725Y-0.925
X10.725Y-1.025
X10.975Y-0.925
X9.975Y-3.275
X10.225Y-3.175
X3.7875Y-2.525
X4.0375Y-2.425
X3.225Y-1.025
X3.475Y-0.925
X6.0375Y-2.525
X6.2875Y-2.425
X5.475Y-1.025
X5.725Y-0.925
X11.6625Y-1.775
X11.9125Y-1.675
X9.8812Y-2.525
X10.1312Y-2.425
X2.5688Y-3.275
X2.8188Y-3.175
X9.0375Y-2.525
X9.2875Y-2.425
X9.7875Y-2.525
X10.0375Y-2.425
X11.6625Y-3.4625
X11.9125Y-3.3625
X3.0375Y-2.525
X3.2875Y-2.425
X7.1625Y-1.775
X7.4125Y-1.675
X2.6625Y-1.775
X2.9125Y-1.675
X9.1312Y-3.275
X9.3812Y-3.175
X9.975Y-1.025
X10.225Y-0.925
X10.725Y-2.525
X10.975Y-2.425
X5.2875Y-2.525
X5.5375Y-2.425
X4.725Y-1.025
X4.975Y-0.925
X8.2875Y-2.525
X8.5375Y-2.425
X2.475Y-1.025
X2.725Y-0.925
X7.725Y-1.025
X7.975Y-0.925
X10.4437Y-1.775
X10.6937Y-1.675
X7.5375Y-2.525
X7.7875Y-2.425
X6.6937Y-3.275
X6.9437Y-3.175
X5.6625Y-1.775
X5.9125Y-1.675
T3
G00X12.3597Y-0.9343
M15
G01X12.3597Y-0.9028
M16
G05
G00X12.3597Y-1.0811
M15
G01X12.3597Y-1.022
M16
G05
G00X12.7003Y-0.9343
M15
G01X12.7003Y-0.9028
M16
G05
G00X12.7003Y-1.0811
M15
G01X12.7003Y-1.022
M16
G05
T0
M30
