%TF.GenerationSoftware,KiCad,Pcbnew,5.1.2*%
%TF.CreationDate,2019-06-09T19:24:23-04:00*%
%TF.ProjectId,CoquiKeyboard,436f7175-694b-4657-9962-6f6172642e6b,rev?*%
%TF.SameCoordinates,Original*%
%TF.FileFunction,Copper,L2,Bot*%
%TF.FilePolarity,Positive*%
%FSLAX46Y46*%
G04 Gerber Fmt 4.6, Leading zero omitted, Abs format (unit mm)*
G04 Created by KiCad (PCBNEW 5.1.2) date 2019-06-09 19:24:23*
%MOMM*%
%LPD*%
G04 APERTURE LIST*
%ADD10C,0.100000*%
%ADD11C,0.150000*%
%ADD12C,0.300000*%
%ADD13C,0.400000*%
%ADD14C,2.250000*%
%ADD15R,1.200000X0.900000*%
%ADD16C,0.975000*%
%ADD17C,0.650000*%
%ADD18O,0.900000X2.400000*%
%ADD19O,0.900000X1.700000*%
%ADD20C,1.250000*%
%ADD21R,1.800000X1.100000*%
%ADD22R,1.500000X0.550000*%
%ADD23R,0.550000X1.500000*%
%ADD24R,1.200000X1.400000*%
%ADD25C,0.800000*%
%ADD26C,0.600000*%
%ADD27C,0.203200*%
%ADD28C,0.381000*%
%ADD29C,0.250000*%
%ADD30C,0.200000*%
%ADD31C,0.254000*%
G04 APERTURE END LIST*
D10*
D11*
X177002200Y-166007200D02*
X177002200Y-198007200D01*
X285002200Y-198007200D01*
X285002200Y-166007200D01*
X177002200Y-166007200D01*
D10*
D11*
X10000000Y-10000000D02*
X10000000Y-200007200D01*
X287002200Y-200007200D01*
X287002200Y-10000000D01*
X10000000Y-10000000D01*
D10*
D11*
X12000000Y-12000000D02*
X12000000Y-198007200D01*
X285002200Y-198007200D01*
X285002200Y-12000000D01*
X12000000Y-12000000D01*
D10*
D11*
X60000000Y-12000000D02*
X60000000Y-10000000D01*
D10*
D11*
X110000000Y-12000000D02*
X110000000Y-10000000D01*
D10*
D11*
X160000000Y-12000000D02*
X160000000Y-10000000D01*
D10*
D11*
X210000000Y-12000000D02*
X210000000Y-10000000D01*
D10*
D11*
X260000000Y-12000000D02*
X260000000Y-10000000D01*
D10*
D11*
X36065476Y-11588095D02*
X35322619Y-11588095D01*
X35694047Y-11588095D02*
X35694047Y-10288095D01*
X35570238Y-10473809D01*
X35446428Y-10597619D01*
X35322619Y-10659523D01*
D10*
D11*
X85322619Y-10411904D02*
X85384523Y-10350000D01*
X85508333Y-10288095D01*
X85817857Y-10288095D01*
X85941666Y-10350000D01*
X86003571Y-10411904D01*
X86065476Y-10535714D01*
X86065476Y-10659523D01*
X86003571Y-10845238D01*
X85260714Y-11588095D01*
X86065476Y-11588095D01*
D10*
D11*
X135260714Y-10288095D02*
X136065476Y-10288095D01*
X135632142Y-10783333D01*
X135817857Y-10783333D01*
X135941666Y-10845238D01*
X136003571Y-10907142D01*
X136065476Y-11030952D01*
X136065476Y-11340476D01*
X136003571Y-11464285D01*
X135941666Y-11526190D01*
X135817857Y-11588095D01*
X135446428Y-11588095D01*
X135322619Y-11526190D01*
X135260714Y-11464285D01*
D10*
D11*
X185941666Y-10721428D02*
X185941666Y-11588095D01*
X185632142Y-10226190D02*
X185322619Y-11154761D01*
X186127380Y-11154761D01*
D10*
D11*
X236003571Y-10288095D02*
X235384523Y-10288095D01*
X235322619Y-10907142D01*
X235384523Y-10845238D01*
X235508333Y-10783333D01*
X235817857Y-10783333D01*
X235941666Y-10845238D01*
X236003571Y-10907142D01*
X236065476Y-11030952D01*
X236065476Y-11340476D01*
X236003571Y-11464285D01*
X235941666Y-11526190D01*
X235817857Y-11588095D01*
X235508333Y-11588095D01*
X235384523Y-11526190D01*
X235322619Y-11464285D01*
D10*
D11*
X285941666Y-10288095D02*
X285694047Y-10288095D01*
X285570238Y-10350000D01*
X285508333Y-10411904D01*
X285384523Y-10597619D01*
X285322619Y-10845238D01*
X285322619Y-11340476D01*
X285384523Y-11464285D01*
X285446428Y-11526190D01*
X285570238Y-11588095D01*
X285817857Y-11588095D01*
X285941666Y-11526190D01*
X286003571Y-11464285D01*
X286065476Y-11340476D01*
X286065476Y-11030952D01*
X286003571Y-10907142D01*
X285941666Y-10845238D01*
X285817857Y-10783333D01*
X285570238Y-10783333D01*
X285446428Y-10845238D01*
X285384523Y-10907142D01*
X285322619Y-11030952D01*
D10*
D11*
X60000000Y-198007200D02*
X60000000Y-200007200D01*
D10*
D11*
X110000000Y-198007200D02*
X110000000Y-200007200D01*
D10*
D11*
X160000000Y-198007200D02*
X160000000Y-200007200D01*
D10*
D11*
X210000000Y-198007200D02*
X210000000Y-200007200D01*
D10*
D11*
X260000000Y-198007200D02*
X260000000Y-200007200D01*
D10*
D11*
X36065476Y-199595295D02*
X35322619Y-199595295D01*
X35694047Y-199595295D02*
X35694047Y-198295295D01*
X35570238Y-198481009D01*
X35446428Y-198604819D01*
X35322619Y-198666723D01*
D10*
D11*
X85322619Y-198419104D02*
X85384523Y-198357200D01*
X85508333Y-198295295D01*
X85817857Y-198295295D01*
X85941666Y-198357200D01*
X86003571Y-198419104D01*
X86065476Y-198542914D01*
X86065476Y-198666723D01*
X86003571Y-198852438D01*
X85260714Y-199595295D01*
X86065476Y-199595295D01*
D10*
D11*
X135260714Y-198295295D02*
X136065476Y-198295295D01*
X135632142Y-198790533D01*
X135817857Y-198790533D01*
X135941666Y-198852438D01*
X136003571Y-198914342D01*
X136065476Y-199038152D01*
X136065476Y-199347676D01*
X136003571Y-199471485D01*
X135941666Y-199533390D01*
X135817857Y-199595295D01*
X135446428Y-199595295D01*
X135322619Y-199533390D01*
X135260714Y-199471485D01*
D10*
D11*
X185941666Y-198728628D02*
X185941666Y-199595295D01*
X185632142Y-198233390D02*
X185322619Y-199161961D01*
X186127380Y-199161961D01*
D10*
D11*
X236003571Y-198295295D02*
X235384523Y-198295295D01*
X235322619Y-198914342D01*
X235384523Y-198852438D01*
X235508333Y-198790533D01*
X235817857Y-198790533D01*
X235941666Y-198852438D01*
X236003571Y-198914342D01*
X236065476Y-199038152D01*
X236065476Y-199347676D01*
X236003571Y-199471485D01*
X235941666Y-199533390D01*
X235817857Y-199595295D01*
X235508333Y-199595295D01*
X235384523Y-199533390D01*
X235322619Y-199471485D01*
D10*
D11*
X285941666Y-198295295D02*
X285694047Y-198295295D01*
X285570238Y-198357200D01*
X285508333Y-198419104D01*
X285384523Y-198604819D01*
X285322619Y-198852438D01*
X285322619Y-199347676D01*
X285384523Y-199471485D01*
X285446428Y-199533390D01*
X285570238Y-199595295D01*
X285817857Y-199595295D01*
X285941666Y-199533390D01*
X286003571Y-199471485D01*
X286065476Y-199347676D01*
X286065476Y-199038152D01*
X286003571Y-198914342D01*
X285941666Y-198852438D01*
X285817857Y-198790533D01*
X285570238Y-198790533D01*
X285446428Y-198852438D01*
X285384523Y-198914342D01*
X285322619Y-199038152D01*
D10*
D11*
X10000000Y-60000000D02*
X12000000Y-60000000D01*
D10*
D11*
X10000000Y-110000000D02*
X12000000Y-110000000D01*
D10*
D11*
X10000000Y-160000000D02*
X12000000Y-160000000D01*
D10*
D11*
X10690476Y-35216666D02*
X11309523Y-35216666D01*
X10566666Y-35588095D02*
X11000000Y-34288095D01*
X11433333Y-35588095D01*
D10*
D11*
X11092857Y-84907142D02*
X11278571Y-84969047D01*
X11340476Y-85030952D01*
X11402380Y-85154761D01*
X11402380Y-85340476D01*
X11340476Y-85464285D01*
X11278571Y-85526190D01*
X11154761Y-85588095D01*
X10659523Y-85588095D01*
X10659523Y-84288095D01*
X11092857Y-84288095D01*
X11216666Y-84350000D01*
X11278571Y-84411904D01*
X11340476Y-84535714D01*
X11340476Y-84659523D01*
X11278571Y-84783333D01*
X11216666Y-84845238D01*
X11092857Y-84907142D01*
X10659523Y-84907142D01*
D10*
D11*
X11402380Y-135464285D02*
X11340476Y-135526190D01*
X11154761Y-135588095D01*
X11030952Y-135588095D01*
X10845238Y-135526190D01*
X10721428Y-135402380D01*
X10659523Y-135278571D01*
X10597619Y-135030952D01*
X10597619Y-134845238D01*
X10659523Y-134597619D01*
X10721428Y-134473809D01*
X10845238Y-134350000D01*
X11030952Y-134288095D01*
X11154761Y-134288095D01*
X11340476Y-134350000D01*
X11402380Y-134411904D01*
D10*
D11*
X10659523Y-185588095D02*
X10659523Y-184288095D01*
X10969047Y-184288095D01*
X11154761Y-184350000D01*
X11278571Y-184473809D01*
X11340476Y-184597619D01*
X11402380Y-184845238D01*
X11402380Y-185030952D01*
X11340476Y-185278571D01*
X11278571Y-185402380D01*
X11154761Y-185526190D01*
X10969047Y-185588095D01*
X10659523Y-185588095D01*
D10*
D11*
X287002200Y-60000000D02*
X285002200Y-60000000D01*
D10*
D11*
X287002200Y-110000000D02*
X285002200Y-110000000D01*
D10*
D11*
X287002200Y-160000000D02*
X285002200Y-160000000D01*
D10*
D11*
X285692676Y-35216666D02*
X286311723Y-35216666D01*
X285568866Y-35588095D02*
X286002200Y-34288095D01*
X286435533Y-35588095D01*
D10*
D11*
X286095057Y-84907142D02*
X286280771Y-84969047D01*
X286342676Y-85030952D01*
X286404580Y-85154761D01*
X286404580Y-85340476D01*
X286342676Y-85464285D01*
X286280771Y-85526190D01*
X286156961Y-85588095D01*
X285661723Y-85588095D01*
X285661723Y-84288095D01*
X286095057Y-84288095D01*
X286218866Y-84350000D01*
X286280771Y-84411904D01*
X286342676Y-84535714D01*
X286342676Y-84659523D01*
X286280771Y-84783333D01*
X286218866Y-84845238D01*
X286095057Y-84907142D01*
X285661723Y-84907142D01*
D10*
D11*
X286404580Y-135464285D02*
X286342676Y-135526190D01*
X286156961Y-135588095D01*
X286033152Y-135588095D01*
X285847438Y-135526190D01*
X285723628Y-135402380D01*
X285661723Y-135278571D01*
X285599819Y-135030952D01*
X285599819Y-134845238D01*
X285661723Y-134597619D01*
X285723628Y-134473809D01*
X285847438Y-134350000D01*
X286033152Y-134288095D01*
X286156961Y-134288095D01*
X286342676Y-134350000D01*
X286404580Y-134411904D01*
D10*
D11*
X285661723Y-185588095D02*
X285661723Y-184288095D01*
X285971247Y-184288095D01*
X286156961Y-184350000D01*
X286280771Y-184473809D01*
X286342676Y-184597619D01*
X286404580Y-184845238D01*
X286404580Y-185030952D01*
X286342676Y-185278571D01*
X286280771Y-185402380D01*
X286156961Y-185526190D01*
X285971247Y-185588095D01*
X285661723Y-185588095D01*
D10*
D11*
X200434342Y-193785771D02*
X200434342Y-192285771D01*
X200791485Y-192285771D01*
X201005771Y-192357200D01*
X201148628Y-192500057D01*
X201220057Y-192642914D01*
X201291485Y-192928628D01*
X201291485Y-193142914D01*
X201220057Y-193428628D01*
X201148628Y-193571485D01*
X201005771Y-193714342D01*
X200791485Y-193785771D01*
X200434342Y-193785771D01*
X202577200Y-193785771D02*
X202577200Y-193000057D01*
X202505771Y-192857200D01*
X202362914Y-192785771D01*
X202077200Y-192785771D01*
X201934342Y-192857200D01*
X202577200Y-193714342D02*
X202434342Y-193785771D01*
X202077200Y-193785771D01*
X201934342Y-193714342D01*
X201862914Y-193571485D01*
X201862914Y-193428628D01*
X201934342Y-193285771D01*
X202077200Y-193214342D01*
X202434342Y-193214342D01*
X202577200Y-193142914D01*
X203077200Y-192785771D02*
X203648628Y-192785771D01*
X203291485Y-192285771D02*
X203291485Y-193571485D01*
X203362914Y-193714342D01*
X203505771Y-193785771D01*
X203648628Y-193785771D01*
X204720057Y-193714342D02*
X204577200Y-193785771D01*
X204291485Y-193785771D01*
X204148628Y-193714342D01*
X204077200Y-193571485D01*
X204077200Y-193000057D01*
X204148628Y-192857200D01*
X204291485Y-192785771D01*
X204577200Y-192785771D01*
X204720057Y-192857200D01*
X204791485Y-193000057D01*
X204791485Y-193142914D01*
X204077200Y-193285771D01*
X205434342Y-193642914D02*
X205505771Y-193714342D01*
X205434342Y-193785771D01*
X205362914Y-193714342D01*
X205434342Y-193642914D01*
X205434342Y-193785771D01*
X205434342Y-192857200D02*
X205505771Y-192928628D01*
X205434342Y-193000057D01*
X205362914Y-192928628D01*
X205434342Y-192857200D01*
X205434342Y-193000057D01*
D10*
D11*
X177002200Y-194507200D02*
X285002200Y-194507200D01*
D10*
D11*
X178434342Y-196585771D02*
X178434342Y-195085771D01*
X179291485Y-196585771D02*
X178648628Y-195728628D01*
X179291485Y-195085771D02*
X178434342Y-195942914D01*
X179934342Y-196585771D02*
X179934342Y-195585771D01*
X179934342Y-195085771D02*
X179862914Y-195157200D01*
X179934342Y-195228628D01*
X180005771Y-195157200D01*
X179934342Y-195085771D01*
X179934342Y-195228628D01*
X181505771Y-196442914D02*
X181434342Y-196514342D01*
X181220057Y-196585771D01*
X181077200Y-196585771D01*
X180862914Y-196514342D01*
X180720057Y-196371485D01*
X180648628Y-196228628D01*
X180577200Y-195942914D01*
X180577200Y-195728628D01*
X180648628Y-195442914D01*
X180720057Y-195300057D01*
X180862914Y-195157200D01*
X181077200Y-195085771D01*
X181220057Y-195085771D01*
X181434342Y-195157200D01*
X181505771Y-195228628D01*
X182791485Y-196585771D02*
X182791485Y-195800057D01*
X182720057Y-195657200D01*
X182577200Y-195585771D01*
X182291485Y-195585771D01*
X182148628Y-195657200D01*
X182791485Y-196514342D02*
X182648628Y-196585771D01*
X182291485Y-196585771D01*
X182148628Y-196514342D01*
X182077200Y-196371485D01*
X182077200Y-196228628D01*
X182148628Y-196085771D01*
X182291485Y-196014342D01*
X182648628Y-196014342D01*
X182791485Y-195942914D01*
X184148628Y-196585771D02*
X184148628Y-195085771D01*
X184148628Y-196514342D02*
X184005771Y-196585771D01*
X183720057Y-196585771D01*
X183577200Y-196514342D01*
X183505771Y-196442914D01*
X183434342Y-196300057D01*
X183434342Y-195871485D01*
X183505771Y-195728628D01*
X183577200Y-195657200D01*
X183720057Y-195585771D01*
X184005771Y-195585771D01*
X184148628Y-195657200D01*
X186005771Y-195800057D02*
X186505771Y-195800057D01*
X186720057Y-196585771D02*
X186005771Y-196585771D01*
X186005771Y-195085771D01*
X186720057Y-195085771D01*
X187362914Y-196442914D02*
X187434342Y-196514342D01*
X187362914Y-196585771D01*
X187291485Y-196514342D01*
X187362914Y-196442914D01*
X187362914Y-196585771D01*
X188077200Y-196585771D02*
X188077200Y-195085771D01*
X188434342Y-195085771D01*
X188648628Y-195157200D01*
X188791485Y-195300057D01*
X188862914Y-195442914D01*
X188934342Y-195728628D01*
X188934342Y-195942914D01*
X188862914Y-196228628D01*
X188791485Y-196371485D01*
X188648628Y-196514342D01*
X188434342Y-196585771D01*
X188077200Y-196585771D01*
X189577200Y-196442914D02*
X189648628Y-196514342D01*
X189577200Y-196585771D01*
X189505771Y-196514342D01*
X189577200Y-196442914D01*
X189577200Y-196585771D01*
X190220057Y-196157200D02*
X190934342Y-196157200D01*
X190077200Y-196585771D02*
X190577200Y-195085771D01*
X191077200Y-196585771D01*
X191577200Y-196442914D02*
X191648628Y-196514342D01*
X191577200Y-196585771D01*
X191505771Y-196514342D01*
X191577200Y-196442914D01*
X191577200Y-196585771D01*
X194577200Y-195585771D02*
X194577200Y-197085771D01*
X194577200Y-195657200D02*
X194720057Y-195585771D01*
X195005771Y-195585771D01*
X195148628Y-195657200D01*
X195220057Y-195728628D01*
X195291485Y-195871485D01*
X195291485Y-196300057D01*
X195220057Y-196442914D01*
X195148628Y-196514342D01*
X195005771Y-196585771D01*
X194720057Y-196585771D01*
X194577200Y-196514342D01*
X196577200Y-196514342D02*
X196434342Y-196585771D01*
X196148628Y-196585771D01*
X196005771Y-196514342D01*
X195934342Y-196442914D01*
X195862914Y-196300057D01*
X195862914Y-195871485D01*
X195934342Y-195728628D01*
X196005771Y-195657200D01*
X196148628Y-195585771D01*
X196434342Y-195585771D01*
X196577200Y-195657200D01*
X197220057Y-196585771D02*
X197220057Y-195085771D01*
X197220057Y-195657200D02*
X197362914Y-195585771D01*
X197648628Y-195585771D01*
X197791485Y-195657200D01*
X197862914Y-195728628D01*
X197934342Y-195871485D01*
X197934342Y-196300057D01*
X197862914Y-196442914D01*
X197791485Y-196514342D01*
X197648628Y-196585771D01*
X197362914Y-196585771D01*
X197220057Y-196514342D01*
X198577200Y-195585771D02*
X198577200Y-196585771D01*
X198577200Y-195728628D02*
X198648628Y-195657200D01*
X198791485Y-195585771D01*
X199005771Y-195585771D01*
X199148628Y-195657200D01*
X199220057Y-195800057D01*
X199220057Y-196585771D01*
X200505771Y-196514342D02*
X200362914Y-196585771D01*
X200077200Y-196585771D01*
X199934342Y-196514342D01*
X199862914Y-196371485D01*
X199862914Y-195800057D01*
X199934342Y-195657200D01*
X200077200Y-195585771D01*
X200362914Y-195585771D01*
X200505771Y-195657200D01*
X200577200Y-195800057D01*
X200577200Y-195942914D01*
X199862914Y-196085771D01*
X201077200Y-195585771D02*
X201362914Y-196585771D01*
X201648628Y-195871485D01*
X201934342Y-196585771D01*
X202220057Y-195585771D01*
X204648628Y-195085771D02*
X203934342Y-195085771D01*
X203862914Y-195800057D01*
X203934342Y-195728628D01*
X204077200Y-195657200D01*
X204434342Y-195657200D01*
X204577200Y-195728628D01*
X204648628Y-195800057D01*
X204720057Y-195942914D01*
X204720057Y-196300057D01*
X204648628Y-196442914D01*
X204577200Y-196514342D01*
X204434342Y-196585771D01*
X204077200Y-196585771D01*
X203934342Y-196514342D01*
X203862914Y-196442914D01*
X205362914Y-196442914D02*
X205434342Y-196514342D01*
X205362914Y-196585771D01*
X205291485Y-196514342D01*
X205362914Y-196442914D01*
X205362914Y-196585771D01*
X206862914Y-196585771D02*
X206005771Y-196585771D01*
X206434342Y-196585771D02*
X206434342Y-195085771D01*
X206291485Y-195300057D01*
X206148628Y-195442914D01*
X206005771Y-195514342D01*
X207505771Y-196442914D02*
X207577200Y-196514342D01*
X207505771Y-196585771D01*
X207434342Y-196514342D01*
X207505771Y-196442914D01*
X207505771Y-196585771D01*
X208148628Y-195228628D02*
X208220057Y-195157200D01*
X208362914Y-195085771D01*
X208720057Y-195085771D01*
X208862914Y-195157200D01*
X208934342Y-195228628D01*
X209005771Y-195371485D01*
X209005771Y-195514342D01*
X208934342Y-195728628D01*
X208077200Y-196585771D01*
X209005771Y-196585771D01*
D10*
D11*
X177002200Y-191507200D02*
X285002200Y-191507200D01*
D10*
D12*
X264411485Y-193785771D02*
X263911485Y-193071485D01*
X263554342Y-193785771D02*
X263554342Y-192285771D01*
X264125771Y-192285771D01*
X264268628Y-192357200D01*
X264340057Y-192428628D01*
X264411485Y-192571485D01*
X264411485Y-192785771D01*
X264340057Y-192928628D01*
X264268628Y-193000057D01*
X264125771Y-193071485D01*
X263554342Y-193071485D01*
X265625771Y-193714342D02*
X265482914Y-193785771D01*
X265197200Y-193785771D01*
X265054342Y-193714342D01*
X264982914Y-193571485D01*
X264982914Y-193000057D01*
X265054342Y-192857200D01*
X265197200Y-192785771D01*
X265482914Y-192785771D01*
X265625771Y-192857200D01*
X265697200Y-193000057D01*
X265697200Y-193142914D01*
X264982914Y-193285771D01*
X266197200Y-192785771D02*
X266554342Y-193785771D01*
X266911485Y-192785771D01*
X267482914Y-193642914D02*
X267554342Y-193714342D01*
X267482914Y-193785771D01*
X267411485Y-193714342D01*
X267482914Y-193642914D01*
X267482914Y-193785771D01*
X267482914Y-192857200D02*
X267554342Y-192928628D01*
X267482914Y-193000057D01*
X267411485Y-192928628D01*
X267482914Y-192857200D01*
X267482914Y-193000057D01*
D10*
D11*
X178362914Y-193714342D02*
X178577200Y-193785771D01*
X178934342Y-193785771D01*
X179077200Y-193714342D01*
X179148628Y-193642914D01*
X179220057Y-193500057D01*
X179220057Y-193357200D01*
X179148628Y-193214342D01*
X179077200Y-193142914D01*
X178934342Y-193071485D01*
X178648628Y-193000057D01*
X178505771Y-192928628D01*
X178434342Y-192857200D01*
X178362914Y-192714342D01*
X178362914Y-192571485D01*
X178434342Y-192428628D01*
X178505771Y-192357200D01*
X178648628Y-192285771D01*
X179005771Y-192285771D01*
X179220057Y-192357200D01*
X179862914Y-193785771D02*
X179862914Y-192785771D01*
X179862914Y-192285771D02*
X179791485Y-192357200D01*
X179862914Y-192428628D01*
X179934342Y-192357200D01*
X179862914Y-192285771D01*
X179862914Y-192428628D01*
X180434342Y-192785771D02*
X181220057Y-192785771D01*
X180434342Y-193785771D01*
X181220057Y-193785771D01*
X182362914Y-193714342D02*
X182220057Y-193785771D01*
X181934342Y-193785771D01*
X181791485Y-193714342D01*
X181720057Y-193571485D01*
X181720057Y-193000057D01*
X181791485Y-192857200D01*
X181934342Y-192785771D01*
X182220057Y-192785771D01*
X182362914Y-192857200D01*
X182434342Y-193000057D01*
X182434342Y-193142914D01*
X181720057Y-193285771D01*
X183077200Y-193642914D02*
X183148628Y-193714342D01*
X183077200Y-193785771D01*
X183005771Y-193714342D01*
X183077200Y-193642914D01*
X183077200Y-193785771D01*
X183077200Y-192857200D02*
X183148628Y-192928628D01*
X183077200Y-193000057D01*
X183005771Y-192928628D01*
X183077200Y-192857200D01*
X183077200Y-193000057D01*
X184862914Y-193357200D02*
X185577200Y-193357200D01*
X184720057Y-193785771D02*
X185220057Y-192285771D01*
X185720057Y-193785771D01*
X186862914Y-192785771D02*
X186862914Y-193785771D01*
X186505771Y-192214342D02*
X186148628Y-193285771D01*
X187077200Y-193285771D01*
D10*
D11*
X263434342Y-196585771D02*
X263434342Y-195085771D01*
X264791485Y-196585771D02*
X264791485Y-195085771D01*
X264791485Y-196514342D02*
X264648628Y-196585771D01*
X264362914Y-196585771D01*
X264220057Y-196514342D01*
X264148628Y-196442914D01*
X264077200Y-196300057D01*
X264077200Y-195871485D01*
X264148628Y-195728628D01*
X264220057Y-195657200D01*
X264362914Y-195585771D01*
X264648628Y-195585771D01*
X264791485Y-195657200D01*
X265505771Y-196442914D02*
X265577200Y-196514342D01*
X265505771Y-196585771D01*
X265434342Y-196514342D01*
X265505771Y-196442914D01*
X265505771Y-196585771D01*
X265505771Y-195657200D02*
X265577200Y-195728628D01*
X265505771Y-195800057D01*
X265434342Y-195728628D01*
X265505771Y-195657200D01*
X265505771Y-195800057D01*
X268148628Y-196585771D02*
X267291485Y-196585771D01*
X267720057Y-196585771D02*
X267720057Y-195085771D01*
X267577200Y-195300057D01*
X267434342Y-195442914D01*
X267291485Y-195514342D01*
X269862914Y-195014342D02*
X268577200Y-196942914D01*
X271148628Y-196585771D02*
X270291485Y-196585771D01*
X270720057Y-196585771D02*
X270720057Y-195085771D01*
X270577200Y-195300057D01*
X270434342Y-195442914D01*
X270291485Y-195514342D01*
D10*
D11*
X177002200Y-187507200D02*
X285002200Y-187507200D01*
D10*
D13*
X178714580Y-188211961D02*
X179857438Y-188211961D01*
X179036009Y-190211961D02*
X179286009Y-188211961D01*
X180274104Y-190211961D02*
X180440771Y-188878628D01*
X180524104Y-188211961D02*
X180416961Y-188307200D01*
X180500295Y-188402438D01*
X180607438Y-188307200D01*
X180524104Y-188211961D01*
X180500295Y-188402438D01*
X181107438Y-188878628D02*
X181869342Y-188878628D01*
X181476485Y-188211961D02*
X181262200Y-189926247D01*
X181333628Y-190116723D01*
X181512200Y-190211961D01*
X181702676Y-190211961D01*
X182655057Y-190211961D02*
X182476485Y-190116723D01*
X182405057Y-189926247D01*
X182619342Y-188211961D01*
X184190771Y-190116723D02*
X183988390Y-190211961D01*
X183607438Y-190211961D01*
X183428866Y-190116723D01*
X183357438Y-189926247D01*
X183452676Y-189164342D01*
X183571723Y-188973866D01*
X183774104Y-188878628D01*
X184155057Y-188878628D01*
X184333628Y-188973866D01*
X184405057Y-189164342D01*
X184381247Y-189354819D01*
X183405057Y-189545295D01*
X185155057Y-190021485D02*
X185238390Y-190116723D01*
X185131247Y-190211961D01*
X185047914Y-190116723D01*
X185155057Y-190021485D01*
X185131247Y-190211961D01*
X185286009Y-188973866D02*
X185369342Y-189069104D01*
X185262200Y-189164342D01*
X185178866Y-189069104D01*
X185286009Y-188973866D01*
X185262200Y-189164342D01*
D10*
D11*
X178934342Y-185600057D02*
X178434342Y-185600057D01*
X178434342Y-186385771D02*
X178434342Y-184885771D01*
X179148628Y-184885771D01*
X179720057Y-186385771D02*
X179720057Y-185385771D01*
X179720057Y-184885771D02*
X179648628Y-184957200D01*
X179720057Y-185028628D01*
X179791485Y-184957200D01*
X179720057Y-184885771D01*
X179720057Y-185028628D01*
X180648628Y-186385771D02*
X180505771Y-186314342D01*
X180434342Y-186171485D01*
X180434342Y-184885771D01*
X181791485Y-186314342D02*
X181648628Y-186385771D01*
X181362914Y-186385771D01*
X181220057Y-186314342D01*
X181148628Y-186171485D01*
X181148628Y-185600057D01*
X181220057Y-185457200D01*
X181362914Y-185385771D01*
X181648628Y-185385771D01*
X181791485Y-185457200D01*
X181862914Y-185600057D01*
X181862914Y-185742914D01*
X181148628Y-185885771D01*
X182505771Y-186242914D02*
X182577200Y-186314342D01*
X182505771Y-186385771D01*
X182434342Y-186314342D01*
X182505771Y-186242914D01*
X182505771Y-186385771D01*
X182505771Y-185457200D02*
X182577200Y-185528628D01*
X182505771Y-185600057D01*
X182434342Y-185528628D01*
X182505771Y-185457200D01*
X182505771Y-185600057D01*
X185220057Y-186242914D02*
X185148628Y-186314342D01*
X184934342Y-186385771D01*
X184791485Y-186385771D01*
X184577200Y-186314342D01*
X184434342Y-186171485D01*
X184362914Y-186028628D01*
X184291485Y-185742914D01*
X184291485Y-185528628D01*
X184362914Y-185242914D01*
X184434342Y-185100057D01*
X184577200Y-184957200D01*
X184791485Y-184885771D01*
X184934342Y-184885771D01*
X185148628Y-184957200D01*
X185220057Y-185028628D01*
X186077200Y-186385771D02*
X185934342Y-186314342D01*
X185862914Y-186242914D01*
X185791485Y-186100057D01*
X185791485Y-185671485D01*
X185862914Y-185528628D01*
X185934342Y-185457200D01*
X186077200Y-185385771D01*
X186291485Y-185385771D01*
X186434342Y-185457200D01*
X186505771Y-185528628D01*
X186577200Y-185671485D01*
X186577200Y-186100057D01*
X186505771Y-186242914D01*
X186434342Y-186314342D01*
X186291485Y-186385771D01*
X186077200Y-186385771D01*
X187862914Y-185385771D02*
X187862914Y-186885771D01*
X187862914Y-186314342D02*
X187720057Y-186385771D01*
X187434342Y-186385771D01*
X187291485Y-186314342D01*
X187220057Y-186242914D01*
X187148628Y-186100057D01*
X187148628Y-185671485D01*
X187220057Y-185528628D01*
X187291485Y-185457200D01*
X187434342Y-185385771D01*
X187720057Y-185385771D01*
X187862914Y-185457200D01*
X189220057Y-185385771D02*
X189220057Y-186385771D01*
X188577200Y-185385771D02*
X188577200Y-186171485D01*
X188648628Y-186314342D01*
X188791485Y-186385771D01*
X189005771Y-186385771D01*
X189148628Y-186314342D01*
X189220057Y-186242914D01*
X189934342Y-186385771D02*
X189934342Y-185385771D01*
X189934342Y-184885771D02*
X189862914Y-184957200D01*
X189934342Y-185028628D01*
X190005771Y-184957200D01*
X189934342Y-184885771D01*
X189934342Y-185028628D01*
X190648628Y-186385771D02*
X190648628Y-184885771D01*
X191505771Y-186385771D02*
X190862914Y-185528628D01*
X191505771Y-184885771D02*
X190648628Y-185742914D01*
X192720057Y-186314342D02*
X192577200Y-186385771D01*
X192291485Y-186385771D01*
X192148628Y-186314342D01*
X192077200Y-186171485D01*
X192077200Y-185600057D01*
X192148628Y-185457200D01*
X192291485Y-185385771D01*
X192577200Y-185385771D01*
X192720057Y-185457200D01*
X192791485Y-185600057D01*
X192791485Y-185742914D01*
X192077200Y-185885771D01*
X193291485Y-185385771D02*
X193648628Y-186385771D01*
X194005771Y-185385771D02*
X193648628Y-186385771D01*
X193505771Y-186742914D01*
X193434342Y-186814342D01*
X193291485Y-186885771D01*
X194577200Y-186385771D02*
X194577200Y-184885771D01*
X194577200Y-185457200D02*
X194720057Y-185385771D01*
X195005771Y-185385771D01*
X195148628Y-185457200D01*
X195220057Y-185528628D01*
X195291485Y-185671485D01*
X195291485Y-186100057D01*
X195220057Y-186242914D01*
X195148628Y-186314342D01*
X195005771Y-186385771D01*
X194720057Y-186385771D01*
X194577200Y-186314342D01*
X196148628Y-186385771D02*
X196005771Y-186314342D01*
X195934342Y-186242914D01*
X195862914Y-186100057D01*
X195862914Y-185671485D01*
X195934342Y-185528628D01*
X196005771Y-185457200D01*
X196148628Y-185385771D01*
X196362914Y-185385771D01*
X196505771Y-185457200D01*
X196577200Y-185528628D01*
X196648628Y-185671485D01*
X196648628Y-186100057D01*
X196577200Y-186242914D01*
X196505771Y-186314342D01*
X196362914Y-186385771D01*
X196148628Y-186385771D01*
X197934342Y-186385771D02*
X197934342Y-185600057D01*
X197862914Y-185457200D01*
X197720057Y-185385771D01*
X197434342Y-185385771D01*
X197291485Y-185457200D01*
X197934342Y-186314342D02*
X197791485Y-186385771D01*
X197434342Y-186385771D01*
X197291485Y-186314342D01*
X197220057Y-186171485D01*
X197220057Y-186028628D01*
X197291485Y-185885771D01*
X197434342Y-185814342D01*
X197791485Y-185814342D01*
X197934342Y-185742914D01*
X198648628Y-186385771D02*
X198648628Y-185385771D01*
X198648628Y-185671485D02*
X198720057Y-185528628D01*
X198791485Y-185457200D01*
X198934342Y-185385771D01*
X199077200Y-185385771D01*
X200220057Y-186385771D02*
X200220057Y-184885771D01*
X200220057Y-186314342D02*
X200077200Y-186385771D01*
X199791485Y-186385771D01*
X199648628Y-186314342D01*
X199577200Y-186242914D01*
X199505771Y-186100057D01*
X199505771Y-185671485D01*
X199577200Y-185528628D01*
X199648628Y-185457200D01*
X199791485Y-185385771D01*
X200077200Y-185385771D01*
X200220057Y-185457200D01*
X200934342Y-186242914D02*
X201005771Y-186314342D01*
X200934342Y-186385771D01*
X200862914Y-186314342D01*
X200934342Y-186242914D01*
X200934342Y-186385771D01*
X201648628Y-186385771D02*
X201648628Y-184885771D01*
X201791485Y-185814342D02*
X202220057Y-186385771D01*
X202220057Y-185385771D02*
X201648628Y-185957200D01*
X202862914Y-186385771D02*
X202862914Y-185385771D01*
X202862914Y-184885771D02*
X202791485Y-184957200D01*
X202862914Y-185028628D01*
X202934342Y-184957200D01*
X202862914Y-184885771D01*
X202862914Y-185028628D01*
X204220057Y-186314342D02*
X204077200Y-186385771D01*
X203791485Y-186385771D01*
X203648628Y-186314342D01*
X203577200Y-186242914D01*
X203505771Y-186100057D01*
X203505771Y-185671485D01*
X203577200Y-185528628D01*
X203648628Y-185457200D01*
X203791485Y-185385771D01*
X204077200Y-185385771D01*
X204220057Y-185457200D01*
X205505771Y-186385771D02*
X205505771Y-185600057D01*
X205434342Y-185457200D01*
X205291485Y-185385771D01*
X205005771Y-185385771D01*
X204862914Y-185457200D01*
X205505771Y-186314342D02*
X205362914Y-186385771D01*
X205005771Y-186385771D01*
X204862914Y-186314342D01*
X204791485Y-186171485D01*
X204791485Y-186028628D01*
X204862914Y-185885771D01*
X205005771Y-185814342D01*
X205362914Y-185814342D01*
X205505771Y-185742914D01*
X206862914Y-186385771D02*
X206862914Y-184885771D01*
X206862914Y-186314342D02*
X206720057Y-186385771D01*
X206434342Y-186385771D01*
X206291485Y-186314342D01*
X206220057Y-186242914D01*
X206148628Y-186100057D01*
X206148628Y-185671485D01*
X206220057Y-185528628D01*
X206291485Y-185457200D01*
X206434342Y-185385771D01*
X206720057Y-185385771D01*
X206862914Y-185457200D01*
X207220057Y-186528628D02*
X208362914Y-186528628D01*
X208720057Y-185385771D02*
X208720057Y-186885771D01*
X208720057Y-185457200D02*
X208862914Y-185385771D01*
X209148628Y-185385771D01*
X209291485Y-185457200D01*
X209362914Y-185528628D01*
X209434342Y-185671485D01*
X209434342Y-186100057D01*
X209362914Y-186242914D01*
X209291485Y-186314342D01*
X209148628Y-186385771D01*
X208862914Y-186385771D01*
X208720057Y-186314342D01*
X210720057Y-186314342D02*
X210577200Y-186385771D01*
X210291485Y-186385771D01*
X210148628Y-186314342D01*
X210077200Y-186242914D01*
X210005771Y-186100057D01*
X210005771Y-185671485D01*
X210077200Y-185528628D01*
X210148628Y-185457200D01*
X210291485Y-185385771D01*
X210577200Y-185385771D01*
X210720057Y-185457200D01*
X211362914Y-186385771D02*
X211362914Y-184885771D01*
X211362914Y-185457200D02*
X211505771Y-185385771D01*
X211791485Y-185385771D01*
X211934342Y-185457200D01*
X212005771Y-185528628D01*
X212077200Y-185671485D01*
X212077200Y-186100057D01*
X212005771Y-186242914D01*
X211934342Y-186314342D01*
X211791485Y-186385771D01*
X211505771Y-186385771D01*
X211362914Y-186314342D01*
D10*
D11*
X177002200Y-181507200D02*
X285002200Y-181507200D01*
D10*
D11*
X178362914Y-183614342D02*
X178577200Y-183685771D01*
X178934342Y-183685771D01*
X179077200Y-183614342D01*
X179148628Y-183542914D01*
X179220057Y-183400057D01*
X179220057Y-183257200D01*
X179148628Y-183114342D01*
X179077200Y-183042914D01*
X178934342Y-182971485D01*
X178648628Y-182900057D01*
X178505771Y-182828628D01*
X178434342Y-182757200D01*
X178362914Y-182614342D01*
X178362914Y-182471485D01*
X178434342Y-182328628D01*
X178505771Y-182257200D01*
X178648628Y-182185771D01*
X179005771Y-182185771D01*
X179220057Y-182257200D01*
X179862914Y-183685771D02*
X179862914Y-182185771D01*
X180505771Y-183685771D02*
X180505771Y-182900057D01*
X180434342Y-182757200D01*
X180291485Y-182685771D01*
X180077200Y-182685771D01*
X179934342Y-182757200D01*
X179862914Y-182828628D01*
X181791485Y-183614342D02*
X181648628Y-183685771D01*
X181362914Y-183685771D01*
X181220057Y-183614342D01*
X181148628Y-183471485D01*
X181148628Y-182900057D01*
X181220057Y-182757200D01*
X181362914Y-182685771D01*
X181648628Y-182685771D01*
X181791485Y-182757200D01*
X181862914Y-182900057D01*
X181862914Y-183042914D01*
X181148628Y-183185771D01*
X183077200Y-183614342D02*
X182934342Y-183685771D01*
X182648628Y-183685771D01*
X182505771Y-183614342D01*
X182434342Y-183471485D01*
X182434342Y-182900057D01*
X182505771Y-182757200D01*
X182648628Y-182685771D01*
X182934342Y-182685771D01*
X183077200Y-182757200D01*
X183148628Y-182900057D01*
X183148628Y-183042914D01*
X182434342Y-183185771D01*
X183577200Y-182685771D02*
X184148628Y-182685771D01*
X183791485Y-182185771D02*
X183791485Y-183471485D01*
X183862914Y-183614342D01*
X184005771Y-183685771D01*
X184148628Y-183685771D01*
X184648628Y-183542914D02*
X184720057Y-183614342D01*
X184648628Y-183685771D01*
X184577200Y-183614342D01*
X184648628Y-183542914D01*
X184648628Y-183685771D01*
X184648628Y-182757200D02*
X184720057Y-182828628D01*
X184648628Y-182900057D01*
X184577200Y-182828628D01*
X184648628Y-182757200D01*
X184648628Y-182900057D01*
D10*
D11*
X197002200Y-191507200D02*
X197002200Y-194507200D01*
D10*
D11*
X261002200Y-191507200D02*
X261002200Y-198007200D01*
D14*
X302577500Y-23495000D03*
X296227500Y-26035000D03*
D15*
X151257000Y-26924000D03*
X151257000Y-30224000D03*
D14*
X164465000Y-23495000D03*
X158115000Y-26035000D03*
D10*
G36*
X312011142Y-28947674D02*
G01*
X312034803Y-28951184D01*
X312058007Y-28956996D01*
X312080529Y-28965054D01*
X312102153Y-28975282D01*
X312122670Y-28987579D01*
X312141883Y-29001829D01*
X312159607Y-29017893D01*
X312175671Y-29035617D01*
X312189921Y-29054830D01*
X312202218Y-29075347D01*
X312212446Y-29096971D01*
X312220504Y-29119493D01*
X312226316Y-29142697D01*
X312229826Y-29166358D01*
X312231000Y-29190250D01*
X312231000Y-29677750D01*
X312229826Y-29701642D01*
X312226316Y-29725303D01*
X312220504Y-29748507D01*
X312212446Y-29771029D01*
X312202218Y-29792653D01*
X312189921Y-29813170D01*
X312175671Y-29832383D01*
X312159607Y-29850107D01*
X312141883Y-29866171D01*
X312122670Y-29880421D01*
X312102153Y-29892718D01*
X312080529Y-29902946D01*
X312058007Y-29911004D01*
X312034803Y-29916816D01*
X312011142Y-29920326D01*
X311987250Y-29921500D01*
X311074750Y-29921500D01*
X311050858Y-29920326D01*
X311027197Y-29916816D01*
X311003993Y-29911004D01*
X310981471Y-29902946D01*
X310959847Y-29892718D01*
X310939330Y-29880421D01*
X310920117Y-29866171D01*
X310902393Y-29850107D01*
X310886329Y-29832383D01*
X310872079Y-29813170D01*
X310859782Y-29792653D01*
X310849554Y-29771029D01*
X310841496Y-29748507D01*
X310835684Y-29725303D01*
X310832174Y-29701642D01*
X310831000Y-29677750D01*
X310831000Y-29190250D01*
X310832174Y-29166358D01*
X310835684Y-29142697D01*
X310841496Y-29119493D01*
X310849554Y-29096971D01*
X310859782Y-29075347D01*
X310872079Y-29054830D01*
X310886329Y-29035617D01*
X310902393Y-29017893D01*
X310920117Y-29001829D01*
X310939330Y-28987579D01*
X310959847Y-28975282D01*
X310981471Y-28965054D01*
X311003993Y-28956996D01*
X311027197Y-28951184D01*
X311050858Y-28947674D01*
X311074750Y-28946500D01*
X311987250Y-28946500D01*
X312011142Y-28947674D01*
X312011142Y-28947674D01*
G37*
D16*
X311531000Y-29434000D03*
D10*
G36*
X312011142Y-27072674D02*
G01*
X312034803Y-27076184D01*
X312058007Y-27081996D01*
X312080529Y-27090054D01*
X312102153Y-27100282D01*
X312122670Y-27112579D01*
X312141883Y-27126829D01*
X312159607Y-27142893D01*
X312175671Y-27160617D01*
X312189921Y-27179830D01*
X312202218Y-27200347D01*
X312212446Y-27221971D01*
X312220504Y-27244493D01*
X312226316Y-27267697D01*
X312229826Y-27291358D01*
X312231000Y-27315250D01*
X312231000Y-27802750D01*
X312229826Y-27826642D01*
X312226316Y-27850303D01*
X312220504Y-27873507D01*
X312212446Y-27896029D01*
X312202218Y-27917653D01*
X312189921Y-27938170D01*
X312175671Y-27957383D01*
X312159607Y-27975107D01*
X312141883Y-27991171D01*
X312122670Y-28005421D01*
X312102153Y-28017718D01*
X312080529Y-28027946D01*
X312058007Y-28036004D01*
X312034803Y-28041816D01*
X312011142Y-28045326D01*
X311987250Y-28046500D01*
X311074750Y-28046500D01*
X311050858Y-28045326D01*
X311027197Y-28041816D01*
X311003993Y-28036004D01*
X310981471Y-28027946D01*
X310959847Y-28017718D01*
X310939330Y-28005421D01*
X310920117Y-27991171D01*
X310902393Y-27975107D01*
X310886329Y-27957383D01*
X310872079Y-27938170D01*
X310859782Y-27917653D01*
X310849554Y-27896029D01*
X310841496Y-27873507D01*
X310835684Y-27850303D01*
X310832174Y-27826642D01*
X310831000Y-27802750D01*
X310831000Y-27315250D01*
X310832174Y-27291358D01*
X310835684Y-27267697D01*
X310841496Y-27244493D01*
X310849554Y-27221971D01*
X310859782Y-27200347D01*
X310872079Y-27179830D01*
X310886329Y-27160617D01*
X310902393Y-27142893D01*
X310920117Y-27126829D01*
X310939330Y-27112579D01*
X310959847Y-27100282D01*
X310981471Y-27090054D01*
X311003993Y-27081996D01*
X311027197Y-27076184D01*
X311050858Y-27072674D01*
X311074750Y-27071500D01*
X311987250Y-27071500D01*
X312011142Y-27072674D01*
X312011142Y-27072674D01*
G37*
D16*
X311531000Y-27559000D03*
D10*
G36*
X308709142Y-22784674D02*
G01*
X308732803Y-22788184D01*
X308756007Y-22793996D01*
X308778529Y-22802054D01*
X308800153Y-22812282D01*
X308820670Y-22824579D01*
X308839883Y-22838829D01*
X308857607Y-22854893D01*
X308873671Y-22872617D01*
X308887921Y-22891830D01*
X308900218Y-22912347D01*
X308910446Y-22933971D01*
X308918504Y-22956493D01*
X308924316Y-22979697D01*
X308927826Y-23003358D01*
X308929000Y-23027250D01*
X308929000Y-23514750D01*
X308927826Y-23538642D01*
X308924316Y-23562303D01*
X308918504Y-23585507D01*
X308910446Y-23608029D01*
X308900218Y-23629653D01*
X308887921Y-23650170D01*
X308873671Y-23669383D01*
X308857607Y-23687107D01*
X308839883Y-23703171D01*
X308820670Y-23717421D01*
X308800153Y-23729718D01*
X308778529Y-23739946D01*
X308756007Y-23748004D01*
X308732803Y-23753816D01*
X308709142Y-23757326D01*
X308685250Y-23758500D01*
X307772750Y-23758500D01*
X307748858Y-23757326D01*
X307725197Y-23753816D01*
X307701993Y-23748004D01*
X307679471Y-23739946D01*
X307657847Y-23729718D01*
X307637330Y-23717421D01*
X307618117Y-23703171D01*
X307600393Y-23687107D01*
X307584329Y-23669383D01*
X307570079Y-23650170D01*
X307557782Y-23629653D01*
X307547554Y-23608029D01*
X307539496Y-23585507D01*
X307533684Y-23562303D01*
X307530174Y-23538642D01*
X307529000Y-23514750D01*
X307529000Y-23027250D01*
X307530174Y-23003358D01*
X307533684Y-22979697D01*
X307539496Y-22956493D01*
X307547554Y-22933971D01*
X307557782Y-22912347D01*
X307570079Y-22891830D01*
X307584329Y-22872617D01*
X307600393Y-22854893D01*
X307618117Y-22838829D01*
X307637330Y-22824579D01*
X307657847Y-22812282D01*
X307679471Y-22802054D01*
X307701993Y-22793996D01*
X307725197Y-22788184D01*
X307748858Y-22784674D01*
X307772750Y-22783500D01*
X308685250Y-22783500D01*
X308709142Y-22784674D01*
X308709142Y-22784674D01*
G37*
D16*
X308229000Y-23271000D03*
D10*
G36*
X308709142Y-24659674D02*
G01*
X308732803Y-24663184D01*
X308756007Y-24668996D01*
X308778529Y-24677054D01*
X308800153Y-24687282D01*
X308820670Y-24699579D01*
X308839883Y-24713829D01*
X308857607Y-24729893D01*
X308873671Y-24747617D01*
X308887921Y-24766830D01*
X308900218Y-24787347D01*
X308910446Y-24808971D01*
X308918504Y-24831493D01*
X308924316Y-24854697D01*
X308927826Y-24878358D01*
X308929000Y-24902250D01*
X308929000Y-25389750D01*
X308927826Y-25413642D01*
X308924316Y-25437303D01*
X308918504Y-25460507D01*
X308910446Y-25483029D01*
X308900218Y-25504653D01*
X308887921Y-25525170D01*
X308873671Y-25544383D01*
X308857607Y-25562107D01*
X308839883Y-25578171D01*
X308820670Y-25592421D01*
X308800153Y-25604718D01*
X308778529Y-25614946D01*
X308756007Y-25623004D01*
X308732803Y-25628816D01*
X308709142Y-25632326D01*
X308685250Y-25633500D01*
X307772750Y-25633500D01*
X307748858Y-25632326D01*
X307725197Y-25628816D01*
X307701993Y-25623004D01*
X307679471Y-25614946D01*
X307657847Y-25604718D01*
X307637330Y-25592421D01*
X307618117Y-25578171D01*
X307600393Y-25562107D01*
X307584329Y-25544383D01*
X307570079Y-25525170D01*
X307557782Y-25504653D01*
X307547554Y-25483029D01*
X307539496Y-25460507D01*
X307533684Y-25437303D01*
X307530174Y-25413642D01*
X307529000Y-25389750D01*
X307529000Y-24902250D01*
X307530174Y-24878358D01*
X307533684Y-24854697D01*
X307539496Y-24831493D01*
X307547554Y-24808971D01*
X307557782Y-24787347D01*
X307570079Y-24766830D01*
X307584329Y-24747617D01*
X307600393Y-24729893D01*
X307618117Y-24713829D01*
X307637330Y-24699579D01*
X307657847Y-24687282D01*
X307679471Y-24677054D01*
X307701993Y-24668996D01*
X307725197Y-24663184D01*
X307748858Y-24659674D01*
X307772750Y-24658500D01*
X308685250Y-24658500D01*
X308709142Y-24659674D01*
X308709142Y-24659674D01*
G37*
D16*
X308229000Y-25146000D03*
D10*
G36*
X316837142Y-30882674D02*
G01*
X316860803Y-30886184D01*
X316884007Y-30891996D01*
X316906529Y-30900054D01*
X316928153Y-30910282D01*
X316948670Y-30922579D01*
X316967883Y-30936829D01*
X316985607Y-30952893D01*
X317001671Y-30970617D01*
X317015921Y-30989830D01*
X317028218Y-31010347D01*
X317038446Y-31031971D01*
X317046504Y-31054493D01*
X317052316Y-31077697D01*
X317055826Y-31101358D01*
X317057000Y-31125250D01*
X317057000Y-31612750D01*
X317055826Y-31636642D01*
X317052316Y-31660303D01*
X317046504Y-31683507D01*
X317038446Y-31706029D01*
X317028218Y-31727653D01*
X317015921Y-31748170D01*
X317001671Y-31767383D01*
X316985607Y-31785107D01*
X316967883Y-31801171D01*
X316948670Y-31815421D01*
X316928153Y-31827718D01*
X316906529Y-31837946D01*
X316884007Y-31846004D01*
X316860803Y-31851816D01*
X316837142Y-31855326D01*
X316813250Y-31856500D01*
X315900750Y-31856500D01*
X315876858Y-31855326D01*
X315853197Y-31851816D01*
X315829993Y-31846004D01*
X315807471Y-31837946D01*
X315785847Y-31827718D01*
X315765330Y-31815421D01*
X315746117Y-31801171D01*
X315728393Y-31785107D01*
X315712329Y-31767383D01*
X315698079Y-31748170D01*
X315685782Y-31727653D01*
X315675554Y-31706029D01*
X315667496Y-31683507D01*
X315661684Y-31660303D01*
X315658174Y-31636642D01*
X315657000Y-31612750D01*
X315657000Y-31125250D01*
X315658174Y-31101358D01*
X315661684Y-31077697D01*
X315667496Y-31054493D01*
X315675554Y-31031971D01*
X315685782Y-31010347D01*
X315698079Y-30989830D01*
X315712329Y-30970617D01*
X315728393Y-30952893D01*
X315746117Y-30936829D01*
X315765330Y-30922579D01*
X315785847Y-30910282D01*
X315807471Y-30900054D01*
X315829993Y-30891996D01*
X315853197Y-30886184D01*
X315876858Y-30882674D01*
X315900750Y-30881500D01*
X316813250Y-30881500D01*
X316837142Y-30882674D01*
X316837142Y-30882674D01*
G37*
D16*
X316357000Y-31369000D03*
D10*
G36*
X316837142Y-32757674D02*
G01*
X316860803Y-32761184D01*
X316884007Y-32766996D01*
X316906529Y-32775054D01*
X316928153Y-32785282D01*
X316948670Y-32797579D01*
X316967883Y-32811829D01*
X316985607Y-32827893D01*
X317001671Y-32845617D01*
X317015921Y-32864830D01*
X317028218Y-32885347D01*
X317038446Y-32906971D01*
X317046504Y-32929493D01*
X317052316Y-32952697D01*
X317055826Y-32976358D01*
X317057000Y-33000250D01*
X317057000Y-33487750D01*
X317055826Y-33511642D01*
X317052316Y-33535303D01*
X317046504Y-33558507D01*
X317038446Y-33581029D01*
X317028218Y-33602653D01*
X317015921Y-33623170D01*
X317001671Y-33642383D01*
X316985607Y-33660107D01*
X316967883Y-33676171D01*
X316948670Y-33690421D01*
X316928153Y-33702718D01*
X316906529Y-33712946D01*
X316884007Y-33721004D01*
X316860803Y-33726816D01*
X316837142Y-33730326D01*
X316813250Y-33731500D01*
X315900750Y-33731500D01*
X315876858Y-33730326D01*
X315853197Y-33726816D01*
X315829993Y-33721004D01*
X315807471Y-33712946D01*
X315785847Y-33702718D01*
X315765330Y-33690421D01*
X315746117Y-33676171D01*
X315728393Y-33660107D01*
X315712329Y-33642383D01*
X315698079Y-33623170D01*
X315685782Y-33602653D01*
X315675554Y-33581029D01*
X315667496Y-33558507D01*
X315661684Y-33535303D01*
X315658174Y-33511642D01*
X315657000Y-33487750D01*
X315657000Y-33000250D01*
X315658174Y-32976358D01*
X315661684Y-32952697D01*
X315667496Y-32929493D01*
X315675554Y-32906971D01*
X315685782Y-32885347D01*
X315698079Y-32864830D01*
X315712329Y-32845617D01*
X315728393Y-32827893D01*
X315746117Y-32811829D01*
X315765330Y-32797579D01*
X315785847Y-32785282D01*
X315807471Y-32775054D01*
X315829993Y-32766996D01*
X315853197Y-32761184D01*
X315876858Y-32757674D01*
X315900750Y-32756500D01*
X316813250Y-32756500D01*
X316837142Y-32757674D01*
X316837142Y-32757674D01*
G37*
D16*
X316357000Y-33244000D03*
D17*
X319537000Y-27690000D03*
X321237000Y-27690000D03*
X320387000Y-27690000D03*
X318687000Y-27690000D03*
X317837000Y-27690000D03*
X316987000Y-27690000D03*
X316137000Y-27690000D03*
X315287000Y-27690000D03*
X321237000Y-26365000D03*
X320382000Y-26365000D03*
X319532000Y-26365000D03*
X318682000Y-26365000D03*
X317832000Y-26365000D03*
X316982000Y-26365000D03*
X316132000Y-26365000D03*
X315282000Y-26365000D03*
D18*
X322587000Y-26710000D03*
X313937000Y-26710000D03*
D19*
X322587000Y-23330000D03*
X313937000Y-23330000D03*
D10*
G36*
X302343966Y-50051538D02*
G01*
X302367627Y-50055048D01*
X302390831Y-50060860D01*
X302413353Y-50068918D01*
X302434977Y-50079146D01*
X302455494Y-50091443D01*
X302474707Y-50105693D01*
X302492431Y-50121757D01*
X302508495Y-50139481D01*
X302522745Y-50158694D01*
X302535042Y-50179211D01*
X302545270Y-50200835D01*
X302553328Y-50223357D01*
X302559140Y-50246561D01*
X302562650Y-50270222D01*
X302563824Y-50294114D01*
X302563824Y-51206614D01*
X302562650Y-51230506D01*
X302559140Y-51254167D01*
X302553328Y-51277371D01*
X302545270Y-51299893D01*
X302535042Y-51321517D01*
X302522745Y-51342034D01*
X302508495Y-51361247D01*
X302492431Y-51378971D01*
X302474707Y-51395035D01*
X302455494Y-51409285D01*
X302434977Y-51421582D01*
X302413353Y-51431810D01*
X302390831Y-51439868D01*
X302367627Y-51445680D01*
X302343966Y-51449190D01*
X302320074Y-51450364D01*
X301832574Y-51450364D01*
X301808682Y-51449190D01*
X301785021Y-51445680D01*
X301761817Y-51439868D01*
X301739295Y-51431810D01*
X301717671Y-51421582D01*
X301697154Y-51409285D01*
X301677941Y-51395035D01*
X301660217Y-51378971D01*
X301644153Y-51361247D01*
X301629903Y-51342034D01*
X301617606Y-51321517D01*
X301607378Y-51299893D01*
X301599320Y-51277371D01*
X301593508Y-51254167D01*
X301589998Y-51230506D01*
X301588824Y-51206614D01*
X301588824Y-50294114D01*
X301589998Y-50270222D01*
X301593508Y-50246561D01*
X301599320Y-50223357D01*
X301607378Y-50200835D01*
X301617606Y-50179211D01*
X301629903Y-50158694D01*
X301644153Y-50139481D01*
X301660217Y-50121757D01*
X301677941Y-50105693D01*
X301697154Y-50091443D01*
X301717671Y-50079146D01*
X301739295Y-50068918D01*
X301761817Y-50060860D01*
X301785021Y-50055048D01*
X301808682Y-50051538D01*
X301832574Y-50050364D01*
X302320074Y-50050364D01*
X302343966Y-50051538D01*
X302343966Y-50051538D01*
G37*
D16*
X302076324Y-50750364D03*
D10*
G36*
X304218966Y-50051538D02*
G01*
X304242627Y-50055048D01*
X304265831Y-50060860D01*
X304288353Y-50068918D01*
X304309977Y-50079146D01*
X304330494Y-50091443D01*
X304349707Y-50105693D01*
X304367431Y-50121757D01*
X304383495Y-50139481D01*
X304397745Y-50158694D01*
X304410042Y-50179211D01*
X304420270Y-50200835D01*
X304428328Y-50223357D01*
X304434140Y-50246561D01*
X304437650Y-50270222D01*
X304438824Y-50294114D01*
X304438824Y-51206614D01*
X304437650Y-51230506D01*
X304434140Y-51254167D01*
X304428328Y-51277371D01*
X304420270Y-51299893D01*
X304410042Y-51321517D01*
X304397745Y-51342034D01*
X304383495Y-51361247D01*
X304367431Y-51378971D01*
X304349707Y-51395035D01*
X304330494Y-51409285D01*
X304309977Y-51421582D01*
X304288353Y-51431810D01*
X304265831Y-51439868D01*
X304242627Y-51445680D01*
X304218966Y-51449190D01*
X304195074Y-51450364D01*
X303707574Y-51450364D01*
X303683682Y-51449190D01*
X303660021Y-51445680D01*
X303636817Y-51439868D01*
X303614295Y-51431810D01*
X303592671Y-51421582D01*
X303572154Y-51409285D01*
X303552941Y-51395035D01*
X303535217Y-51378971D01*
X303519153Y-51361247D01*
X303504903Y-51342034D01*
X303492606Y-51321517D01*
X303482378Y-51299893D01*
X303474320Y-51277371D01*
X303468508Y-51254167D01*
X303464998Y-51230506D01*
X303463824Y-51206614D01*
X303463824Y-50294114D01*
X303464998Y-50270222D01*
X303468508Y-50246561D01*
X303474320Y-50223357D01*
X303482378Y-50200835D01*
X303492606Y-50179211D01*
X303504903Y-50158694D01*
X303519153Y-50139481D01*
X303535217Y-50121757D01*
X303552941Y-50105693D01*
X303572154Y-50091443D01*
X303592671Y-50079146D01*
X303614295Y-50068918D01*
X303636817Y-50060860D01*
X303660021Y-50055048D01*
X303683682Y-50051538D01*
X303707574Y-50050364D01*
X304195074Y-50050364D01*
X304218966Y-50051538D01*
X304218966Y-50051538D01*
G37*
D16*
X303951324Y-50750364D03*
D14*
X197802500Y-61595000D03*
X191452500Y-64135000D03*
D10*
G36*
X319845906Y-51093334D02*
G01*
X319869567Y-51096844D01*
X319892771Y-51102656D01*
X319915293Y-51110714D01*
X319936917Y-51120942D01*
X319957434Y-51133239D01*
X319976647Y-51147489D01*
X319994371Y-51163553D01*
X320010435Y-51181277D01*
X320024685Y-51200490D01*
X320036982Y-51221007D01*
X320047210Y-51242631D01*
X320055268Y-51265153D01*
X320061080Y-51288357D01*
X320064590Y-51312018D01*
X320065764Y-51335910D01*
X320065764Y-52248410D01*
X320064590Y-52272302D01*
X320061080Y-52295963D01*
X320055268Y-52319167D01*
X320047210Y-52341689D01*
X320036982Y-52363313D01*
X320024685Y-52383830D01*
X320010435Y-52403043D01*
X319994371Y-52420767D01*
X319976647Y-52436831D01*
X319957434Y-52451081D01*
X319936917Y-52463378D01*
X319915293Y-52473606D01*
X319892771Y-52481664D01*
X319869567Y-52487476D01*
X319845906Y-52490986D01*
X319822014Y-52492160D01*
X319334514Y-52492160D01*
X319310622Y-52490986D01*
X319286961Y-52487476D01*
X319263757Y-52481664D01*
X319241235Y-52473606D01*
X319219611Y-52463378D01*
X319199094Y-52451081D01*
X319179881Y-52436831D01*
X319162157Y-52420767D01*
X319146093Y-52403043D01*
X319131843Y-52383830D01*
X319119546Y-52363313D01*
X319109318Y-52341689D01*
X319101260Y-52319167D01*
X319095448Y-52295963D01*
X319091938Y-52272302D01*
X319090764Y-52248410D01*
X319090764Y-51335910D01*
X319091938Y-51312018D01*
X319095448Y-51288357D01*
X319101260Y-51265153D01*
X319109318Y-51242631D01*
X319119546Y-51221007D01*
X319131843Y-51200490D01*
X319146093Y-51181277D01*
X319162157Y-51163553D01*
X319179881Y-51147489D01*
X319199094Y-51133239D01*
X319219611Y-51120942D01*
X319241235Y-51110714D01*
X319263757Y-51102656D01*
X319286961Y-51096844D01*
X319310622Y-51093334D01*
X319334514Y-51092160D01*
X319822014Y-51092160D01*
X319845906Y-51093334D01*
X319845906Y-51093334D01*
G37*
D16*
X319578264Y-51792160D03*
D10*
G36*
X317970906Y-51093334D02*
G01*
X317994567Y-51096844D01*
X318017771Y-51102656D01*
X318040293Y-51110714D01*
X318061917Y-51120942D01*
X318082434Y-51133239D01*
X318101647Y-51147489D01*
X318119371Y-51163553D01*
X318135435Y-51181277D01*
X318149685Y-51200490D01*
X318161982Y-51221007D01*
X318172210Y-51242631D01*
X318180268Y-51265153D01*
X318186080Y-51288357D01*
X318189590Y-51312018D01*
X318190764Y-51335910D01*
X318190764Y-52248410D01*
X318189590Y-52272302D01*
X318186080Y-52295963D01*
X318180268Y-52319167D01*
X318172210Y-52341689D01*
X318161982Y-52363313D01*
X318149685Y-52383830D01*
X318135435Y-52403043D01*
X318119371Y-52420767D01*
X318101647Y-52436831D01*
X318082434Y-52451081D01*
X318061917Y-52463378D01*
X318040293Y-52473606D01*
X318017771Y-52481664D01*
X317994567Y-52487476D01*
X317970906Y-52490986D01*
X317947014Y-52492160D01*
X317459514Y-52492160D01*
X317435622Y-52490986D01*
X317411961Y-52487476D01*
X317388757Y-52481664D01*
X317366235Y-52473606D01*
X317344611Y-52463378D01*
X317324094Y-52451081D01*
X317304881Y-52436831D01*
X317287157Y-52420767D01*
X317271093Y-52403043D01*
X317256843Y-52383830D01*
X317244546Y-52363313D01*
X317234318Y-52341689D01*
X317226260Y-52319167D01*
X317220448Y-52295963D01*
X317216938Y-52272302D01*
X317215764Y-52248410D01*
X317215764Y-51335910D01*
X317216938Y-51312018D01*
X317220448Y-51288357D01*
X317226260Y-51265153D01*
X317234318Y-51242631D01*
X317244546Y-51221007D01*
X317256843Y-51200490D01*
X317271093Y-51181277D01*
X317287157Y-51163553D01*
X317304881Y-51147489D01*
X317324094Y-51133239D01*
X317344611Y-51120942D01*
X317366235Y-51110714D01*
X317388757Y-51102656D01*
X317411961Y-51096844D01*
X317435622Y-51093334D01*
X317459514Y-51092160D01*
X317947014Y-51092160D01*
X317970906Y-51093334D01*
X317970906Y-51093334D01*
G37*
D16*
X317703264Y-51792160D03*
D10*
G36*
X301261546Y-60935122D02*
G01*
X301285207Y-60938632D01*
X301308411Y-60944444D01*
X301330933Y-60952502D01*
X301352557Y-60962730D01*
X301373074Y-60975027D01*
X301392287Y-60989277D01*
X301410011Y-61005341D01*
X301426075Y-61023065D01*
X301440325Y-61042278D01*
X301452622Y-61062795D01*
X301462850Y-61084419D01*
X301470908Y-61106941D01*
X301476720Y-61130145D01*
X301480230Y-61153806D01*
X301481404Y-61177698D01*
X301481404Y-61665198D01*
X301480230Y-61689090D01*
X301476720Y-61712751D01*
X301470908Y-61735955D01*
X301462850Y-61758477D01*
X301452622Y-61780101D01*
X301440325Y-61800618D01*
X301426075Y-61819831D01*
X301410011Y-61837555D01*
X301392287Y-61853619D01*
X301373074Y-61867869D01*
X301352557Y-61880166D01*
X301330933Y-61890394D01*
X301308411Y-61898452D01*
X301285207Y-61904264D01*
X301261546Y-61907774D01*
X301237654Y-61908948D01*
X300325154Y-61908948D01*
X300301262Y-61907774D01*
X300277601Y-61904264D01*
X300254397Y-61898452D01*
X300231875Y-61890394D01*
X300210251Y-61880166D01*
X300189734Y-61867869D01*
X300170521Y-61853619D01*
X300152797Y-61837555D01*
X300136733Y-61819831D01*
X300122483Y-61800618D01*
X300110186Y-61780101D01*
X300099958Y-61758477D01*
X300091900Y-61735955D01*
X300086088Y-61712751D01*
X300082578Y-61689090D01*
X300081404Y-61665198D01*
X300081404Y-61177698D01*
X300082578Y-61153806D01*
X300086088Y-61130145D01*
X300091900Y-61106941D01*
X300099958Y-61084419D01*
X300110186Y-61062795D01*
X300122483Y-61042278D01*
X300136733Y-61023065D01*
X300152797Y-61005341D01*
X300170521Y-60989277D01*
X300189734Y-60975027D01*
X300210251Y-60962730D01*
X300231875Y-60952502D01*
X300254397Y-60944444D01*
X300277601Y-60938632D01*
X300301262Y-60935122D01*
X300325154Y-60933948D01*
X301237654Y-60933948D01*
X301261546Y-60935122D01*
X301261546Y-60935122D01*
G37*
D16*
X300781404Y-61421448D03*
D10*
G36*
X301261546Y-62810122D02*
G01*
X301285207Y-62813632D01*
X301308411Y-62819444D01*
X301330933Y-62827502D01*
X301352557Y-62837730D01*
X301373074Y-62850027D01*
X301392287Y-62864277D01*
X301410011Y-62880341D01*
X301426075Y-62898065D01*
X301440325Y-62917278D01*
X301452622Y-62937795D01*
X301462850Y-62959419D01*
X301470908Y-62981941D01*
X301476720Y-63005145D01*
X301480230Y-63028806D01*
X301481404Y-63052698D01*
X301481404Y-63540198D01*
X301480230Y-63564090D01*
X301476720Y-63587751D01*
X301470908Y-63610955D01*
X301462850Y-63633477D01*
X301452622Y-63655101D01*
X301440325Y-63675618D01*
X301426075Y-63694831D01*
X301410011Y-63712555D01*
X301392287Y-63728619D01*
X301373074Y-63742869D01*
X301352557Y-63755166D01*
X301330933Y-63765394D01*
X301308411Y-63773452D01*
X301285207Y-63779264D01*
X301261546Y-63782774D01*
X301237654Y-63783948D01*
X300325154Y-63783948D01*
X300301262Y-63782774D01*
X300277601Y-63779264D01*
X300254397Y-63773452D01*
X300231875Y-63765394D01*
X300210251Y-63755166D01*
X300189734Y-63742869D01*
X300170521Y-63728619D01*
X300152797Y-63712555D01*
X300136733Y-63694831D01*
X300122483Y-63675618D01*
X300110186Y-63655101D01*
X300099958Y-63633477D01*
X300091900Y-63610955D01*
X300086088Y-63587751D01*
X300082578Y-63564090D01*
X300081404Y-63540198D01*
X300081404Y-63052698D01*
X300082578Y-63028806D01*
X300086088Y-63005145D01*
X300091900Y-62981941D01*
X300099958Y-62959419D01*
X300110186Y-62937795D01*
X300122483Y-62917278D01*
X300136733Y-62898065D01*
X300152797Y-62880341D01*
X300170521Y-62864277D01*
X300189734Y-62850027D01*
X300210251Y-62837730D01*
X300231875Y-62827502D01*
X300254397Y-62819444D01*
X300277601Y-62813632D01*
X300301262Y-62810122D01*
X300325154Y-62808948D01*
X301237654Y-62808948D01*
X301261546Y-62810122D01*
X301261546Y-62810122D01*
G37*
D16*
X300781404Y-63296448D03*
D10*
G36*
X304427558Y-44544902D02*
G01*
X304451219Y-44548412D01*
X304474423Y-44554224D01*
X304496945Y-44562282D01*
X304518569Y-44572510D01*
X304539086Y-44584807D01*
X304558299Y-44599057D01*
X304576023Y-44615121D01*
X304592087Y-44632845D01*
X304606337Y-44652058D01*
X304618634Y-44672575D01*
X304628862Y-44694199D01*
X304636920Y-44716721D01*
X304642732Y-44739925D01*
X304646242Y-44763586D01*
X304647416Y-44787478D01*
X304647416Y-45699978D01*
X304646242Y-45723870D01*
X304642732Y-45747531D01*
X304636920Y-45770735D01*
X304628862Y-45793257D01*
X304618634Y-45814881D01*
X304606337Y-45835398D01*
X304592087Y-45854611D01*
X304576023Y-45872335D01*
X304558299Y-45888399D01*
X304539086Y-45902649D01*
X304518569Y-45914946D01*
X304496945Y-45925174D01*
X304474423Y-45933232D01*
X304451219Y-45939044D01*
X304427558Y-45942554D01*
X304403666Y-45943728D01*
X303916166Y-45943728D01*
X303892274Y-45942554D01*
X303868613Y-45939044D01*
X303845409Y-45933232D01*
X303822887Y-45925174D01*
X303801263Y-45914946D01*
X303780746Y-45902649D01*
X303761533Y-45888399D01*
X303743809Y-45872335D01*
X303727745Y-45854611D01*
X303713495Y-45835398D01*
X303701198Y-45814881D01*
X303690970Y-45793257D01*
X303682912Y-45770735D01*
X303677100Y-45747531D01*
X303673590Y-45723870D01*
X303672416Y-45699978D01*
X303672416Y-44787478D01*
X303673590Y-44763586D01*
X303677100Y-44739925D01*
X303682912Y-44716721D01*
X303690970Y-44694199D01*
X303701198Y-44672575D01*
X303713495Y-44652058D01*
X303727745Y-44632845D01*
X303743809Y-44615121D01*
X303761533Y-44599057D01*
X303780746Y-44584807D01*
X303801263Y-44572510D01*
X303822887Y-44562282D01*
X303845409Y-44554224D01*
X303868613Y-44548412D01*
X303892274Y-44544902D01*
X303916166Y-44543728D01*
X304403666Y-44543728D01*
X304427558Y-44544902D01*
X304427558Y-44544902D01*
G37*
D16*
X304159916Y-45243728D03*
D10*
G36*
X306302558Y-44544902D02*
G01*
X306326219Y-44548412D01*
X306349423Y-44554224D01*
X306371945Y-44562282D01*
X306393569Y-44572510D01*
X306414086Y-44584807D01*
X306433299Y-44599057D01*
X306451023Y-44615121D01*
X306467087Y-44632845D01*
X306481337Y-44652058D01*
X306493634Y-44672575D01*
X306503862Y-44694199D01*
X306511920Y-44716721D01*
X306517732Y-44739925D01*
X306521242Y-44763586D01*
X306522416Y-44787478D01*
X306522416Y-45699978D01*
X306521242Y-45723870D01*
X306517732Y-45747531D01*
X306511920Y-45770735D01*
X306503862Y-45793257D01*
X306493634Y-45814881D01*
X306481337Y-45835398D01*
X306467087Y-45854611D01*
X306451023Y-45872335D01*
X306433299Y-45888399D01*
X306414086Y-45902649D01*
X306393569Y-45914946D01*
X306371945Y-45925174D01*
X306349423Y-45933232D01*
X306326219Y-45939044D01*
X306302558Y-45942554D01*
X306278666Y-45943728D01*
X305791166Y-45943728D01*
X305767274Y-45942554D01*
X305743613Y-45939044D01*
X305720409Y-45933232D01*
X305697887Y-45925174D01*
X305676263Y-45914946D01*
X305655746Y-45902649D01*
X305636533Y-45888399D01*
X305618809Y-45872335D01*
X305602745Y-45854611D01*
X305588495Y-45835398D01*
X305576198Y-45814881D01*
X305565970Y-45793257D01*
X305557912Y-45770735D01*
X305552100Y-45747531D01*
X305548590Y-45723870D01*
X305547416Y-45699978D01*
X305547416Y-44787478D01*
X305548590Y-44763586D01*
X305552100Y-44739925D01*
X305557912Y-44716721D01*
X305565970Y-44694199D01*
X305576198Y-44672575D01*
X305588495Y-44652058D01*
X305602745Y-44632845D01*
X305618809Y-44615121D01*
X305636533Y-44599057D01*
X305655746Y-44584807D01*
X305676263Y-44572510D01*
X305697887Y-44562282D01*
X305720409Y-44554224D01*
X305743613Y-44548412D01*
X305767274Y-44544902D01*
X305791166Y-44543728D01*
X306278666Y-44543728D01*
X306302558Y-44544902D01*
X306302558Y-44544902D01*
G37*
D16*
X306034916Y-45243728D03*
D10*
G36*
X324117642Y-60023049D02*
G01*
X324141303Y-60026559D01*
X324164507Y-60032371D01*
X324187029Y-60040429D01*
X324208653Y-60050657D01*
X324229170Y-60062954D01*
X324248383Y-60077204D01*
X324266107Y-60093268D01*
X324282171Y-60110992D01*
X324296421Y-60130205D01*
X324308718Y-60150722D01*
X324318946Y-60172346D01*
X324327004Y-60194868D01*
X324332816Y-60218072D01*
X324336326Y-60241733D01*
X324337500Y-60265625D01*
X324337500Y-61178125D01*
X324336326Y-61202017D01*
X324332816Y-61225678D01*
X324327004Y-61248882D01*
X324318946Y-61271404D01*
X324308718Y-61293028D01*
X324296421Y-61313545D01*
X324282171Y-61332758D01*
X324266107Y-61350482D01*
X324248383Y-61366546D01*
X324229170Y-61380796D01*
X324208653Y-61393093D01*
X324187029Y-61403321D01*
X324164507Y-61411379D01*
X324141303Y-61417191D01*
X324117642Y-61420701D01*
X324093750Y-61421875D01*
X323606250Y-61421875D01*
X323582358Y-61420701D01*
X323558697Y-61417191D01*
X323535493Y-61411379D01*
X323512971Y-61403321D01*
X323491347Y-61393093D01*
X323470830Y-61380796D01*
X323451617Y-61366546D01*
X323433893Y-61350482D01*
X323417829Y-61332758D01*
X323403579Y-61313545D01*
X323391282Y-61293028D01*
X323381054Y-61271404D01*
X323372996Y-61248882D01*
X323367184Y-61225678D01*
X323363674Y-61202017D01*
X323362500Y-61178125D01*
X323362500Y-60265625D01*
X323363674Y-60241733D01*
X323367184Y-60218072D01*
X323372996Y-60194868D01*
X323381054Y-60172346D01*
X323391282Y-60150722D01*
X323403579Y-60130205D01*
X323417829Y-60110992D01*
X323433893Y-60093268D01*
X323451617Y-60077204D01*
X323470830Y-60062954D01*
X323491347Y-60050657D01*
X323512971Y-60040429D01*
X323535493Y-60032371D01*
X323558697Y-60026559D01*
X323582358Y-60023049D01*
X323606250Y-60021875D01*
X324093750Y-60021875D01*
X324117642Y-60023049D01*
X324117642Y-60023049D01*
G37*
D16*
X323850000Y-60721875D03*
D10*
G36*
X322242642Y-60023049D02*
G01*
X322266303Y-60026559D01*
X322289507Y-60032371D01*
X322312029Y-60040429D01*
X322333653Y-60050657D01*
X322354170Y-60062954D01*
X322373383Y-60077204D01*
X322391107Y-60093268D01*
X322407171Y-60110992D01*
X322421421Y-60130205D01*
X322433718Y-60150722D01*
X322443946Y-60172346D01*
X322452004Y-60194868D01*
X322457816Y-60218072D01*
X322461326Y-60241733D01*
X322462500Y-60265625D01*
X322462500Y-61178125D01*
X322461326Y-61202017D01*
X322457816Y-61225678D01*
X322452004Y-61248882D01*
X322443946Y-61271404D01*
X322433718Y-61293028D01*
X322421421Y-61313545D01*
X322407171Y-61332758D01*
X322391107Y-61350482D01*
X322373383Y-61366546D01*
X322354170Y-61380796D01*
X322333653Y-61393093D01*
X322312029Y-61403321D01*
X322289507Y-61411379D01*
X322266303Y-61417191D01*
X322242642Y-61420701D01*
X322218750Y-61421875D01*
X321731250Y-61421875D01*
X321707358Y-61420701D01*
X321683697Y-61417191D01*
X321660493Y-61411379D01*
X321637971Y-61403321D01*
X321616347Y-61393093D01*
X321595830Y-61380796D01*
X321576617Y-61366546D01*
X321558893Y-61350482D01*
X321542829Y-61332758D01*
X321528579Y-61313545D01*
X321516282Y-61293028D01*
X321506054Y-61271404D01*
X321497996Y-61248882D01*
X321492184Y-61225678D01*
X321488674Y-61202017D01*
X321487500Y-61178125D01*
X321487500Y-60265625D01*
X321488674Y-60241733D01*
X321492184Y-60218072D01*
X321497996Y-60194868D01*
X321506054Y-60172346D01*
X321516282Y-60150722D01*
X321528579Y-60130205D01*
X321542829Y-60110992D01*
X321558893Y-60093268D01*
X321576617Y-60077204D01*
X321595830Y-60062954D01*
X321616347Y-60050657D01*
X321637971Y-60040429D01*
X321660493Y-60032371D01*
X321683697Y-60026559D01*
X321707358Y-60023049D01*
X321731250Y-60021875D01*
X322218750Y-60021875D01*
X322242642Y-60023049D01*
X322242642Y-60023049D01*
G37*
D16*
X321975000Y-60721875D03*
D10*
G36*
X324161918Y-52879270D02*
G01*
X324185579Y-52882780D01*
X324208783Y-52888592D01*
X324231305Y-52896650D01*
X324252929Y-52906878D01*
X324273446Y-52919175D01*
X324292659Y-52933425D01*
X324310383Y-52949489D01*
X324326447Y-52967213D01*
X324340697Y-52986426D01*
X324352994Y-53006943D01*
X324363222Y-53028567D01*
X324371280Y-53051089D01*
X324377092Y-53074293D01*
X324380602Y-53097954D01*
X324381776Y-53121846D01*
X324381776Y-54034346D01*
X324380602Y-54058238D01*
X324377092Y-54081899D01*
X324371280Y-54105103D01*
X324363222Y-54127625D01*
X324352994Y-54149249D01*
X324340697Y-54169766D01*
X324326447Y-54188979D01*
X324310383Y-54206703D01*
X324292659Y-54222767D01*
X324273446Y-54237017D01*
X324252929Y-54249314D01*
X324231305Y-54259542D01*
X324208783Y-54267600D01*
X324185579Y-54273412D01*
X324161918Y-54276922D01*
X324138026Y-54278096D01*
X323650526Y-54278096D01*
X323626634Y-54276922D01*
X323602973Y-54273412D01*
X323579769Y-54267600D01*
X323557247Y-54259542D01*
X323535623Y-54249314D01*
X323515106Y-54237017D01*
X323495893Y-54222767D01*
X323478169Y-54206703D01*
X323462105Y-54188979D01*
X323447855Y-54169766D01*
X323435558Y-54149249D01*
X323425330Y-54127625D01*
X323417272Y-54105103D01*
X323411460Y-54081899D01*
X323407950Y-54058238D01*
X323406776Y-54034346D01*
X323406776Y-53121846D01*
X323407950Y-53097954D01*
X323411460Y-53074293D01*
X323417272Y-53051089D01*
X323425330Y-53028567D01*
X323435558Y-53006943D01*
X323447855Y-52986426D01*
X323462105Y-52967213D01*
X323478169Y-52949489D01*
X323495893Y-52933425D01*
X323515106Y-52919175D01*
X323535623Y-52906878D01*
X323557247Y-52896650D01*
X323579769Y-52888592D01*
X323602973Y-52882780D01*
X323626634Y-52879270D01*
X323650526Y-52878096D01*
X324138026Y-52878096D01*
X324161918Y-52879270D01*
X324161918Y-52879270D01*
G37*
D16*
X323894276Y-53578096D03*
D10*
G36*
X322286918Y-52879270D02*
G01*
X322310579Y-52882780D01*
X322333783Y-52888592D01*
X322356305Y-52896650D01*
X322377929Y-52906878D01*
X322398446Y-52919175D01*
X322417659Y-52933425D01*
X322435383Y-52949489D01*
X322451447Y-52967213D01*
X322465697Y-52986426D01*
X322477994Y-53006943D01*
X322488222Y-53028567D01*
X322496280Y-53051089D01*
X322502092Y-53074293D01*
X322505602Y-53097954D01*
X322506776Y-53121846D01*
X322506776Y-54034346D01*
X322505602Y-54058238D01*
X322502092Y-54081899D01*
X322496280Y-54105103D01*
X322488222Y-54127625D01*
X322477994Y-54149249D01*
X322465697Y-54169766D01*
X322451447Y-54188979D01*
X322435383Y-54206703D01*
X322417659Y-54222767D01*
X322398446Y-54237017D01*
X322377929Y-54249314D01*
X322356305Y-54259542D01*
X322333783Y-54267600D01*
X322310579Y-54273412D01*
X322286918Y-54276922D01*
X322263026Y-54278096D01*
X321775526Y-54278096D01*
X321751634Y-54276922D01*
X321727973Y-54273412D01*
X321704769Y-54267600D01*
X321682247Y-54259542D01*
X321660623Y-54249314D01*
X321640106Y-54237017D01*
X321620893Y-54222767D01*
X321603169Y-54206703D01*
X321587105Y-54188979D01*
X321572855Y-54169766D01*
X321560558Y-54149249D01*
X321550330Y-54127625D01*
X321542272Y-54105103D01*
X321536460Y-54081899D01*
X321532950Y-54058238D01*
X321531776Y-54034346D01*
X321531776Y-53121846D01*
X321532950Y-53097954D01*
X321536460Y-53074293D01*
X321542272Y-53051089D01*
X321550330Y-53028567D01*
X321560558Y-53006943D01*
X321572855Y-52986426D01*
X321587105Y-52967213D01*
X321603169Y-52949489D01*
X321620893Y-52933425D01*
X321640106Y-52919175D01*
X321660623Y-52906878D01*
X321682247Y-52896650D01*
X321704769Y-52888592D01*
X321727973Y-52882780D01*
X321751634Y-52879270D01*
X321775526Y-52878096D01*
X322263026Y-52878096D01*
X322286918Y-52879270D01*
X322286918Y-52879270D01*
G37*
D16*
X322019276Y-53578096D03*
D10*
G36*
X309487710Y-47670290D02*
G01*
X309511371Y-47673800D01*
X309534575Y-47679612D01*
X309557097Y-47687670D01*
X309578721Y-47697898D01*
X309599238Y-47710195D01*
X309618451Y-47724445D01*
X309636175Y-47740509D01*
X309652239Y-47758233D01*
X309666489Y-47777446D01*
X309678786Y-47797963D01*
X309689014Y-47819587D01*
X309697072Y-47842109D01*
X309702884Y-47865313D01*
X309706394Y-47888974D01*
X309707568Y-47912866D01*
X309707568Y-48825366D01*
X309706394Y-48849258D01*
X309702884Y-48872919D01*
X309697072Y-48896123D01*
X309689014Y-48918645D01*
X309678786Y-48940269D01*
X309666489Y-48960786D01*
X309652239Y-48979999D01*
X309636175Y-48997723D01*
X309618451Y-49013787D01*
X309599238Y-49028037D01*
X309578721Y-49040334D01*
X309557097Y-49050562D01*
X309534575Y-49058620D01*
X309511371Y-49064432D01*
X309487710Y-49067942D01*
X309463818Y-49069116D01*
X308976318Y-49069116D01*
X308952426Y-49067942D01*
X308928765Y-49064432D01*
X308905561Y-49058620D01*
X308883039Y-49050562D01*
X308861415Y-49040334D01*
X308840898Y-49028037D01*
X308821685Y-49013787D01*
X308803961Y-48997723D01*
X308787897Y-48979999D01*
X308773647Y-48960786D01*
X308761350Y-48940269D01*
X308751122Y-48918645D01*
X308743064Y-48896123D01*
X308737252Y-48872919D01*
X308733742Y-48849258D01*
X308732568Y-48825366D01*
X308732568Y-47912866D01*
X308733742Y-47888974D01*
X308737252Y-47865313D01*
X308743064Y-47842109D01*
X308751122Y-47819587D01*
X308761350Y-47797963D01*
X308773647Y-47777446D01*
X308787897Y-47758233D01*
X308803961Y-47740509D01*
X308821685Y-47724445D01*
X308840898Y-47710195D01*
X308861415Y-47697898D01*
X308883039Y-47687670D01*
X308905561Y-47679612D01*
X308928765Y-47673800D01*
X308952426Y-47670290D01*
X308976318Y-47669116D01*
X309463818Y-47669116D01*
X309487710Y-47670290D01*
X309487710Y-47670290D01*
G37*
D16*
X309220068Y-48369116D03*
D10*
G36*
X311362710Y-47670290D02*
G01*
X311386371Y-47673800D01*
X311409575Y-47679612D01*
X311432097Y-47687670D01*
X311453721Y-47697898D01*
X311474238Y-47710195D01*
X311493451Y-47724445D01*
X311511175Y-47740509D01*
X311527239Y-47758233D01*
X311541489Y-47777446D01*
X311553786Y-47797963D01*
X311564014Y-47819587D01*
X311572072Y-47842109D01*
X311577884Y-47865313D01*
X311581394Y-47888974D01*
X311582568Y-47912866D01*
X311582568Y-48825366D01*
X311581394Y-48849258D01*
X311577884Y-48872919D01*
X311572072Y-48896123D01*
X311564014Y-48918645D01*
X311553786Y-48940269D01*
X311541489Y-48960786D01*
X311527239Y-48979999D01*
X311511175Y-48997723D01*
X311493451Y-49013787D01*
X311474238Y-49028037D01*
X311453721Y-49040334D01*
X311432097Y-49050562D01*
X311409575Y-49058620D01*
X311386371Y-49064432D01*
X311362710Y-49067942D01*
X311338818Y-49069116D01*
X310851318Y-49069116D01*
X310827426Y-49067942D01*
X310803765Y-49064432D01*
X310780561Y-49058620D01*
X310758039Y-49050562D01*
X310736415Y-49040334D01*
X310715898Y-49028037D01*
X310696685Y-49013787D01*
X310678961Y-48997723D01*
X310662897Y-48979999D01*
X310648647Y-48960786D01*
X310636350Y-48940269D01*
X310626122Y-48918645D01*
X310618064Y-48896123D01*
X310612252Y-48872919D01*
X310608742Y-48849258D01*
X310607568Y-48825366D01*
X310607568Y-47912866D01*
X310608742Y-47888974D01*
X310612252Y-47865313D01*
X310618064Y-47842109D01*
X310626122Y-47819587D01*
X310636350Y-47797963D01*
X310648647Y-47777446D01*
X310662897Y-47758233D01*
X310678961Y-47740509D01*
X310696685Y-47724445D01*
X310715898Y-47710195D01*
X310736415Y-47697898D01*
X310758039Y-47687670D01*
X310780561Y-47679612D01*
X310803765Y-47673800D01*
X310827426Y-47670290D01*
X310851318Y-47669116D01*
X311338818Y-47669116D01*
X311362710Y-47670290D01*
X311362710Y-47670290D01*
G37*
D16*
X311095068Y-48369116D03*
D15*
X36909375Y-26925000D03*
X36909375Y-30225000D03*
X55959375Y-26925000D03*
X55959375Y-30225000D03*
X75009375Y-26925000D03*
X75009375Y-30225000D03*
X94059375Y-26925000D03*
X94059375Y-30225000D03*
X113109375Y-26925000D03*
X113109375Y-30225000D03*
X132159375Y-26925000D03*
X132159375Y-30225000D03*
X170259375Y-26925000D03*
X170259375Y-30225000D03*
X189309375Y-26925000D03*
X189309375Y-30225000D03*
X208359375Y-26925000D03*
X208359375Y-30225000D03*
X227409375Y-26925000D03*
X227409375Y-30225000D03*
X246459375Y-26925000D03*
X246459375Y-30225000D03*
X265509375Y-26925000D03*
X265509375Y-30225000D03*
X284559375Y-26925000D03*
X284559375Y-30225000D03*
X291703125Y-26925000D03*
X291703125Y-30225000D03*
X39290625Y-45975000D03*
X39290625Y-49275000D03*
X60721875Y-45975000D03*
X60721875Y-49275000D03*
X79771875Y-45975000D03*
X79771875Y-49275000D03*
X98821875Y-45975000D03*
X98821875Y-49275000D03*
X117871875Y-45975000D03*
X117871875Y-49275000D03*
X136921875Y-45975000D03*
X136921875Y-49275000D03*
X155971875Y-45975000D03*
X155971875Y-49275000D03*
X175021875Y-45975000D03*
X175021875Y-49275000D03*
X194071875Y-45975000D03*
X194071875Y-49275000D03*
X213121875Y-45975000D03*
X213121875Y-49275000D03*
X232171875Y-45975000D03*
X232171875Y-49275000D03*
X251221875Y-45975000D03*
X251221875Y-49275000D03*
X277415625Y-45975000D03*
X277415625Y-49275000D03*
X291703125Y-45975000D03*
X291703125Y-49275000D03*
X44053125Y-65025000D03*
X44053125Y-68325000D03*
X70246875Y-65025000D03*
X70246875Y-68325000D03*
X89296875Y-65025000D03*
X89296875Y-68325000D03*
X108346875Y-65025000D03*
X108346875Y-68325000D03*
X127396875Y-65025000D03*
X127396875Y-68325000D03*
X146446875Y-65025000D03*
X146446875Y-68325000D03*
X165496875Y-65025000D03*
X165496875Y-68325000D03*
X184546875Y-65025000D03*
X184546875Y-68325000D03*
X203596875Y-65025000D03*
X203596875Y-68325000D03*
X222646875Y-65025000D03*
X222646875Y-68325000D03*
X241696875Y-65025000D03*
X241696875Y-68325000D03*
X263128125Y-65025000D03*
X263128125Y-68325000D03*
X265509375Y-65025000D03*
X265509375Y-68325000D03*
X291703125Y-69787500D03*
X291703125Y-73087500D03*
X55959375Y-84075000D03*
X55959375Y-87375000D03*
X77390625Y-84075000D03*
X77390625Y-87375000D03*
X101203125Y-84075000D03*
X101203125Y-87375000D03*
X134540625Y-84075000D03*
X134540625Y-87375000D03*
X182165625Y-84075000D03*
X182165625Y-87375000D03*
X220265625Y-84075000D03*
X220265625Y-87375000D03*
X244078125Y-84075000D03*
X244078125Y-87375000D03*
X265509375Y-84075000D03*
X265509375Y-87375000D03*
X289321875Y-88837500D03*
X289321875Y-92137500D03*
X308371875Y-88837500D03*
X308371875Y-92137500D03*
X310753125Y-88837500D03*
X310753125Y-92137500D03*
D10*
G36*
X322852504Y-35638704D02*
G01*
X322876773Y-35642304D01*
X322900571Y-35648265D01*
X322923671Y-35656530D01*
X322945849Y-35667020D01*
X322966893Y-35679633D01*
X322986598Y-35694247D01*
X323004777Y-35710723D01*
X323021253Y-35728902D01*
X323035867Y-35748607D01*
X323048480Y-35769651D01*
X323058970Y-35791829D01*
X323067235Y-35814929D01*
X323073196Y-35838727D01*
X323076796Y-35862996D01*
X323078000Y-35887500D01*
X323078000Y-37137500D01*
X323076796Y-37162004D01*
X323073196Y-37186273D01*
X323067235Y-37210071D01*
X323058970Y-37233171D01*
X323048480Y-37255349D01*
X323035867Y-37276393D01*
X323021253Y-37296098D01*
X323004777Y-37314277D01*
X322986598Y-37330753D01*
X322966893Y-37345367D01*
X322945849Y-37357980D01*
X322923671Y-37368470D01*
X322900571Y-37376735D01*
X322876773Y-37382696D01*
X322852504Y-37386296D01*
X322828000Y-37387500D01*
X322078000Y-37387500D01*
X322053496Y-37386296D01*
X322029227Y-37382696D01*
X322005429Y-37376735D01*
X321982329Y-37368470D01*
X321960151Y-37357980D01*
X321939107Y-37345367D01*
X321919402Y-37330753D01*
X321901223Y-37314277D01*
X321884747Y-37296098D01*
X321870133Y-37276393D01*
X321857520Y-37255349D01*
X321847030Y-37233171D01*
X321838765Y-37210071D01*
X321832804Y-37186273D01*
X321829204Y-37162004D01*
X321828000Y-37137500D01*
X321828000Y-35887500D01*
X321829204Y-35862996D01*
X321832804Y-35838727D01*
X321838765Y-35814929D01*
X321847030Y-35791829D01*
X321857520Y-35769651D01*
X321870133Y-35748607D01*
X321884747Y-35728902D01*
X321901223Y-35710723D01*
X321919402Y-35694247D01*
X321939107Y-35679633D01*
X321960151Y-35667020D01*
X321982329Y-35656530D01*
X322005429Y-35648265D01*
X322029227Y-35642304D01*
X322053496Y-35638704D01*
X322078000Y-35637500D01*
X322828000Y-35637500D01*
X322852504Y-35638704D01*
X322852504Y-35638704D01*
G37*
D20*
X322453000Y-36512500D03*
D10*
G36*
X320052504Y-35638704D02*
G01*
X320076773Y-35642304D01*
X320100571Y-35648265D01*
X320123671Y-35656530D01*
X320145849Y-35667020D01*
X320166893Y-35679633D01*
X320186598Y-35694247D01*
X320204777Y-35710723D01*
X320221253Y-35728902D01*
X320235867Y-35748607D01*
X320248480Y-35769651D01*
X320258970Y-35791829D01*
X320267235Y-35814929D01*
X320273196Y-35838727D01*
X320276796Y-35862996D01*
X320278000Y-35887500D01*
X320278000Y-37137500D01*
X320276796Y-37162004D01*
X320273196Y-37186273D01*
X320267235Y-37210071D01*
X320258970Y-37233171D01*
X320248480Y-37255349D01*
X320235867Y-37276393D01*
X320221253Y-37296098D01*
X320204777Y-37314277D01*
X320186598Y-37330753D01*
X320166893Y-37345367D01*
X320145849Y-37357980D01*
X320123671Y-37368470D01*
X320100571Y-37376735D01*
X320076773Y-37382696D01*
X320052504Y-37386296D01*
X320028000Y-37387500D01*
X319278000Y-37387500D01*
X319253496Y-37386296D01*
X319229227Y-37382696D01*
X319205429Y-37376735D01*
X319182329Y-37368470D01*
X319160151Y-37357980D01*
X319139107Y-37345367D01*
X319119402Y-37330753D01*
X319101223Y-37314277D01*
X319084747Y-37296098D01*
X319070133Y-37276393D01*
X319057520Y-37255349D01*
X319047030Y-37233171D01*
X319038765Y-37210071D01*
X319032804Y-37186273D01*
X319029204Y-37162004D01*
X319028000Y-37137500D01*
X319028000Y-35887500D01*
X319029204Y-35862996D01*
X319032804Y-35838727D01*
X319038765Y-35814929D01*
X319047030Y-35791829D01*
X319057520Y-35769651D01*
X319070133Y-35748607D01*
X319084747Y-35728902D01*
X319101223Y-35710723D01*
X319119402Y-35694247D01*
X319139107Y-35679633D01*
X319160151Y-35667020D01*
X319182329Y-35656530D01*
X319205429Y-35648265D01*
X319229227Y-35642304D01*
X319253496Y-35638704D01*
X319278000Y-35637500D01*
X320028000Y-35637500D01*
X320052504Y-35638704D01*
X320052504Y-35638704D01*
G37*
D20*
X319653000Y-36512500D03*
D14*
X31115000Y-23495000D03*
X24765000Y-26035000D03*
X50165000Y-23495000D03*
X43815000Y-26035000D03*
X69215000Y-23495000D03*
X62865000Y-26035000D03*
X88265000Y-23495000D03*
X81915000Y-26035000D03*
X107315000Y-23495000D03*
X100965000Y-26035000D03*
X126365000Y-23495000D03*
X120015000Y-26035000D03*
X145415000Y-23495000D03*
X139065000Y-26035000D03*
X183515000Y-23495000D03*
X177165000Y-26035000D03*
X202565000Y-23495000D03*
X196215000Y-26035000D03*
X221615000Y-23495000D03*
X215265000Y-26035000D03*
X240665000Y-23495000D03*
X234315000Y-26035000D03*
X259715000Y-23495000D03*
X253365000Y-26035000D03*
X278765000Y-23495000D03*
X272415000Y-26035000D03*
X33496250Y-42545000D03*
X27146250Y-45085000D03*
X54927500Y-42545000D03*
X48577500Y-45085000D03*
X73977500Y-42545000D03*
X67627500Y-45085000D03*
X93027500Y-42545000D03*
X86677500Y-45085000D03*
X112077500Y-42545000D03*
X105727500Y-45085000D03*
X131127500Y-42545000D03*
X124777500Y-45085000D03*
X150177500Y-42545000D03*
X143827500Y-45085000D03*
X169227500Y-42545000D03*
X162877500Y-45085000D03*
X188277500Y-42545000D03*
X181927500Y-45085000D03*
X207327500Y-42545000D03*
X200977500Y-45085000D03*
X245427500Y-42545000D03*
X239077500Y-45085000D03*
X271621250Y-42545000D03*
X265271250Y-45085000D03*
X302577500Y-42545000D03*
X296227500Y-45085000D03*
X38258750Y-61595000D03*
X31908750Y-64135000D03*
X64452500Y-61595000D03*
X58102500Y-64135000D03*
X83502500Y-61595000D03*
X77152500Y-64135000D03*
X102552500Y-61595000D03*
X96202500Y-64135000D03*
X121602500Y-61595000D03*
X115252500Y-64135000D03*
X140652500Y-61595000D03*
X134302500Y-64135000D03*
X159702500Y-61595000D03*
X153352500Y-64135000D03*
X178752500Y-61595000D03*
X172402500Y-64135000D03*
X216852500Y-61595000D03*
X210502500Y-64135000D03*
X235902500Y-61595000D03*
X229552500Y-64135000D03*
X254952500Y-61595000D03*
X248602500Y-64135000D03*
X302577500Y-66357500D03*
X296227500Y-68897500D03*
X50165000Y-80645000D03*
X43815000Y-83185000D03*
X71596250Y-80645000D03*
X65246250Y-83185000D03*
X95408750Y-80645000D03*
X89058750Y-83185000D03*
X214471250Y-80645000D03*
X208121250Y-83185000D03*
X238283750Y-80645000D03*
X231933750Y-83185000D03*
X259715000Y-80645000D03*
X253365000Y-83185000D03*
X283527500Y-85407500D03*
X277177500Y-87947500D03*
X302577500Y-85407500D03*
X296227500Y-87947500D03*
X321627500Y-85407500D03*
X315277500Y-87947500D03*
D10*
G36*
X317970906Y-49009742D02*
G01*
X317994567Y-49013252D01*
X318017771Y-49019064D01*
X318040293Y-49027122D01*
X318061917Y-49037350D01*
X318082434Y-49049647D01*
X318101647Y-49063897D01*
X318119371Y-49079961D01*
X318135435Y-49097685D01*
X318149685Y-49116898D01*
X318161982Y-49137415D01*
X318172210Y-49159039D01*
X318180268Y-49181561D01*
X318186080Y-49204765D01*
X318189590Y-49228426D01*
X318190764Y-49252318D01*
X318190764Y-50164818D01*
X318189590Y-50188710D01*
X318186080Y-50212371D01*
X318180268Y-50235575D01*
X318172210Y-50258097D01*
X318161982Y-50279721D01*
X318149685Y-50300238D01*
X318135435Y-50319451D01*
X318119371Y-50337175D01*
X318101647Y-50353239D01*
X318082434Y-50367489D01*
X318061917Y-50379786D01*
X318040293Y-50390014D01*
X318017771Y-50398072D01*
X317994567Y-50403884D01*
X317970906Y-50407394D01*
X317947014Y-50408568D01*
X317459514Y-50408568D01*
X317435622Y-50407394D01*
X317411961Y-50403884D01*
X317388757Y-50398072D01*
X317366235Y-50390014D01*
X317344611Y-50379786D01*
X317324094Y-50367489D01*
X317304881Y-50353239D01*
X317287157Y-50337175D01*
X317271093Y-50319451D01*
X317256843Y-50300238D01*
X317244546Y-50279721D01*
X317234318Y-50258097D01*
X317226260Y-50235575D01*
X317220448Y-50212371D01*
X317216938Y-50188710D01*
X317215764Y-50164818D01*
X317215764Y-49252318D01*
X317216938Y-49228426D01*
X317220448Y-49204765D01*
X317226260Y-49181561D01*
X317234318Y-49159039D01*
X317244546Y-49137415D01*
X317256843Y-49116898D01*
X317271093Y-49097685D01*
X317287157Y-49079961D01*
X317304881Y-49063897D01*
X317324094Y-49049647D01*
X317344611Y-49037350D01*
X317366235Y-49027122D01*
X317388757Y-49019064D01*
X317411961Y-49013252D01*
X317435622Y-49009742D01*
X317459514Y-49008568D01*
X317947014Y-49008568D01*
X317970906Y-49009742D01*
X317970906Y-49009742D01*
G37*
D16*
X317703264Y-49708568D03*
D10*
G36*
X319845906Y-49009742D02*
G01*
X319869567Y-49013252D01*
X319892771Y-49019064D01*
X319915293Y-49027122D01*
X319936917Y-49037350D01*
X319957434Y-49049647D01*
X319976647Y-49063897D01*
X319994371Y-49079961D01*
X320010435Y-49097685D01*
X320024685Y-49116898D01*
X320036982Y-49137415D01*
X320047210Y-49159039D01*
X320055268Y-49181561D01*
X320061080Y-49204765D01*
X320064590Y-49228426D01*
X320065764Y-49252318D01*
X320065764Y-50164818D01*
X320064590Y-50188710D01*
X320061080Y-50212371D01*
X320055268Y-50235575D01*
X320047210Y-50258097D01*
X320036982Y-50279721D01*
X320024685Y-50300238D01*
X320010435Y-50319451D01*
X319994371Y-50337175D01*
X319976647Y-50353239D01*
X319957434Y-50367489D01*
X319936917Y-50379786D01*
X319915293Y-50390014D01*
X319892771Y-50398072D01*
X319869567Y-50403884D01*
X319845906Y-50407394D01*
X319822014Y-50408568D01*
X319334514Y-50408568D01*
X319310622Y-50407394D01*
X319286961Y-50403884D01*
X319263757Y-50398072D01*
X319241235Y-50390014D01*
X319219611Y-50379786D01*
X319199094Y-50367489D01*
X319179881Y-50353239D01*
X319162157Y-50337175D01*
X319146093Y-50319451D01*
X319131843Y-50300238D01*
X319119546Y-50279721D01*
X319109318Y-50258097D01*
X319101260Y-50235575D01*
X319095448Y-50212371D01*
X319091938Y-50188710D01*
X319090764Y-50164818D01*
X319090764Y-49252318D01*
X319091938Y-49228426D01*
X319095448Y-49204765D01*
X319101260Y-49181561D01*
X319109318Y-49159039D01*
X319119546Y-49137415D01*
X319131843Y-49116898D01*
X319146093Y-49097685D01*
X319162157Y-49079961D01*
X319179881Y-49063897D01*
X319199094Y-49049647D01*
X319219611Y-49037350D01*
X319241235Y-49027122D01*
X319263757Y-49019064D01*
X319286961Y-49013252D01*
X319310622Y-49009742D01*
X319334514Y-49008568D01*
X319822014Y-49008568D01*
X319845906Y-49009742D01*
X319845906Y-49009742D01*
G37*
D16*
X319578264Y-49708568D03*
D10*
G36*
X319123142Y-30882674D02*
G01*
X319146803Y-30886184D01*
X319170007Y-30891996D01*
X319192529Y-30900054D01*
X319214153Y-30910282D01*
X319234670Y-30922579D01*
X319253883Y-30936829D01*
X319271607Y-30952893D01*
X319287671Y-30970617D01*
X319301921Y-30989830D01*
X319314218Y-31010347D01*
X319324446Y-31031971D01*
X319332504Y-31054493D01*
X319338316Y-31077697D01*
X319341826Y-31101358D01*
X319343000Y-31125250D01*
X319343000Y-31612750D01*
X319341826Y-31636642D01*
X319338316Y-31660303D01*
X319332504Y-31683507D01*
X319324446Y-31706029D01*
X319314218Y-31727653D01*
X319301921Y-31748170D01*
X319287671Y-31767383D01*
X319271607Y-31785107D01*
X319253883Y-31801171D01*
X319234670Y-31815421D01*
X319214153Y-31827718D01*
X319192529Y-31837946D01*
X319170007Y-31846004D01*
X319146803Y-31851816D01*
X319123142Y-31855326D01*
X319099250Y-31856500D01*
X318186750Y-31856500D01*
X318162858Y-31855326D01*
X318139197Y-31851816D01*
X318115993Y-31846004D01*
X318093471Y-31837946D01*
X318071847Y-31827718D01*
X318051330Y-31815421D01*
X318032117Y-31801171D01*
X318014393Y-31785107D01*
X317998329Y-31767383D01*
X317984079Y-31748170D01*
X317971782Y-31727653D01*
X317961554Y-31706029D01*
X317953496Y-31683507D01*
X317947684Y-31660303D01*
X317944174Y-31636642D01*
X317943000Y-31612750D01*
X317943000Y-31125250D01*
X317944174Y-31101358D01*
X317947684Y-31077697D01*
X317953496Y-31054493D01*
X317961554Y-31031971D01*
X317971782Y-31010347D01*
X317984079Y-30989830D01*
X317998329Y-30970617D01*
X318014393Y-30952893D01*
X318032117Y-30936829D01*
X318051330Y-30922579D01*
X318071847Y-30910282D01*
X318093471Y-30900054D01*
X318115993Y-30891996D01*
X318139197Y-30886184D01*
X318162858Y-30882674D01*
X318186750Y-30881500D01*
X319099250Y-30881500D01*
X319123142Y-30882674D01*
X319123142Y-30882674D01*
G37*
D16*
X318643000Y-31369000D03*
D10*
G36*
X319123142Y-32757674D02*
G01*
X319146803Y-32761184D01*
X319170007Y-32766996D01*
X319192529Y-32775054D01*
X319214153Y-32785282D01*
X319234670Y-32797579D01*
X319253883Y-32811829D01*
X319271607Y-32827893D01*
X319287671Y-32845617D01*
X319301921Y-32864830D01*
X319314218Y-32885347D01*
X319324446Y-32906971D01*
X319332504Y-32929493D01*
X319338316Y-32952697D01*
X319341826Y-32976358D01*
X319343000Y-33000250D01*
X319343000Y-33487750D01*
X319341826Y-33511642D01*
X319338316Y-33535303D01*
X319332504Y-33558507D01*
X319324446Y-33581029D01*
X319314218Y-33602653D01*
X319301921Y-33623170D01*
X319287671Y-33642383D01*
X319271607Y-33660107D01*
X319253883Y-33676171D01*
X319234670Y-33690421D01*
X319214153Y-33702718D01*
X319192529Y-33712946D01*
X319170007Y-33721004D01*
X319146803Y-33726816D01*
X319123142Y-33730326D01*
X319099250Y-33731500D01*
X318186750Y-33731500D01*
X318162858Y-33730326D01*
X318139197Y-33726816D01*
X318115993Y-33721004D01*
X318093471Y-33712946D01*
X318071847Y-33702718D01*
X318051330Y-33690421D01*
X318032117Y-33676171D01*
X318014393Y-33660107D01*
X317998329Y-33642383D01*
X317984079Y-33623170D01*
X317971782Y-33602653D01*
X317961554Y-33581029D01*
X317953496Y-33558507D01*
X317947684Y-33535303D01*
X317944174Y-33511642D01*
X317943000Y-33487750D01*
X317943000Y-33000250D01*
X317944174Y-32976358D01*
X317947684Y-32952697D01*
X317953496Y-32929493D01*
X317961554Y-32906971D01*
X317971782Y-32885347D01*
X317984079Y-32864830D01*
X317998329Y-32845617D01*
X318014393Y-32827893D01*
X318032117Y-32811829D01*
X318051330Y-32797579D01*
X318071847Y-32785282D01*
X318093471Y-32775054D01*
X318115993Y-32766996D01*
X318139197Y-32761184D01*
X318162858Y-32757674D01*
X318186750Y-32756500D01*
X319099250Y-32756500D01*
X319123142Y-32757674D01*
X319123142Y-32757674D01*
G37*
D16*
X318643000Y-33244000D03*
D10*
G36*
X297987330Y-64000746D02*
G01*
X298010991Y-64004256D01*
X298034195Y-64010068D01*
X298056717Y-64018126D01*
X298078341Y-64028354D01*
X298098858Y-64040651D01*
X298118071Y-64054901D01*
X298135795Y-64070965D01*
X298151859Y-64088689D01*
X298166109Y-64107902D01*
X298178406Y-64128419D01*
X298188634Y-64150043D01*
X298196692Y-64172565D01*
X298202504Y-64195769D01*
X298206014Y-64219430D01*
X298207188Y-64243322D01*
X298207188Y-64730822D01*
X298206014Y-64754714D01*
X298202504Y-64778375D01*
X298196692Y-64801579D01*
X298188634Y-64824101D01*
X298178406Y-64845725D01*
X298166109Y-64866242D01*
X298151859Y-64885455D01*
X298135795Y-64903179D01*
X298118071Y-64919243D01*
X298098858Y-64933493D01*
X298078341Y-64945790D01*
X298056717Y-64956018D01*
X298034195Y-64964076D01*
X298010991Y-64969888D01*
X297987330Y-64973398D01*
X297963438Y-64974572D01*
X297050938Y-64974572D01*
X297027046Y-64973398D01*
X297003385Y-64969888D01*
X296980181Y-64964076D01*
X296957659Y-64956018D01*
X296936035Y-64945790D01*
X296915518Y-64933493D01*
X296896305Y-64919243D01*
X296878581Y-64903179D01*
X296862517Y-64885455D01*
X296848267Y-64866242D01*
X296835970Y-64845725D01*
X296825742Y-64824101D01*
X296817684Y-64801579D01*
X296811872Y-64778375D01*
X296808362Y-64754714D01*
X296807188Y-64730822D01*
X296807188Y-64243322D01*
X296808362Y-64219430D01*
X296811872Y-64195769D01*
X296817684Y-64172565D01*
X296825742Y-64150043D01*
X296835970Y-64128419D01*
X296848267Y-64107902D01*
X296862517Y-64088689D01*
X296878581Y-64070965D01*
X296896305Y-64054901D01*
X296915518Y-64040651D01*
X296936035Y-64028354D01*
X296957659Y-64018126D01*
X296980181Y-64010068D01*
X297003385Y-64004256D01*
X297027046Y-64000746D01*
X297050938Y-63999572D01*
X297963438Y-63999572D01*
X297987330Y-64000746D01*
X297987330Y-64000746D01*
G37*
D16*
X297507188Y-64487072D03*
D10*
G36*
X297987330Y-62125746D02*
G01*
X298010991Y-62129256D01*
X298034195Y-62135068D01*
X298056717Y-62143126D01*
X298078341Y-62153354D01*
X298098858Y-62165651D01*
X298118071Y-62179901D01*
X298135795Y-62195965D01*
X298151859Y-62213689D01*
X298166109Y-62232902D01*
X298178406Y-62253419D01*
X298188634Y-62275043D01*
X298196692Y-62297565D01*
X298202504Y-62320769D01*
X298206014Y-62344430D01*
X298207188Y-62368322D01*
X298207188Y-62855822D01*
X298206014Y-62879714D01*
X298202504Y-62903375D01*
X298196692Y-62926579D01*
X298188634Y-62949101D01*
X298178406Y-62970725D01*
X298166109Y-62991242D01*
X298151859Y-63010455D01*
X298135795Y-63028179D01*
X298118071Y-63044243D01*
X298098858Y-63058493D01*
X298078341Y-63070790D01*
X298056717Y-63081018D01*
X298034195Y-63089076D01*
X298010991Y-63094888D01*
X297987330Y-63098398D01*
X297963438Y-63099572D01*
X297050938Y-63099572D01*
X297027046Y-63098398D01*
X297003385Y-63094888D01*
X296980181Y-63089076D01*
X296957659Y-63081018D01*
X296936035Y-63070790D01*
X296915518Y-63058493D01*
X296896305Y-63044243D01*
X296878581Y-63028179D01*
X296862517Y-63010455D01*
X296848267Y-62991242D01*
X296835970Y-62970725D01*
X296825742Y-62949101D01*
X296817684Y-62926579D01*
X296811872Y-62903375D01*
X296808362Y-62879714D01*
X296807188Y-62855822D01*
X296807188Y-62368322D01*
X296808362Y-62344430D01*
X296811872Y-62320769D01*
X296817684Y-62297565D01*
X296825742Y-62275043D01*
X296835970Y-62253419D01*
X296848267Y-62232902D01*
X296862517Y-62213689D01*
X296878581Y-62195965D01*
X296896305Y-62179901D01*
X296915518Y-62165651D01*
X296936035Y-62153354D01*
X296957659Y-62143126D01*
X296980181Y-62135068D01*
X297003385Y-62129256D01*
X297027046Y-62125746D01*
X297050938Y-62124572D01*
X297963438Y-62124572D01*
X297987330Y-62125746D01*
X297987330Y-62125746D01*
G37*
D16*
X297507188Y-62612072D03*
D21*
X291231250Y-61381250D03*
X285031250Y-57681250D03*
X291231250Y-57681250D03*
X285031250Y-61381250D03*
D22*
X304159912Y-53447624D03*
X304159912Y-54247624D03*
X304159912Y-55047624D03*
X304159912Y-55847624D03*
X304159912Y-56647624D03*
X304159912Y-57447624D03*
X304159912Y-58247624D03*
X304159912Y-59047624D03*
X304159912Y-59847624D03*
X304159912Y-60647624D03*
X304159912Y-61447624D03*
D23*
X305859912Y-63147624D03*
X306659912Y-63147624D03*
X307459912Y-63147624D03*
X308259912Y-63147624D03*
X309059912Y-63147624D03*
X309859912Y-63147624D03*
X310659912Y-63147624D03*
X311459912Y-63147624D03*
X312259912Y-63147624D03*
X313059912Y-63147624D03*
X313859912Y-63147624D03*
D22*
X315559912Y-61447624D03*
X315559912Y-60647624D03*
X315559912Y-59847624D03*
X315559912Y-59047624D03*
X315559912Y-58247624D03*
X315559912Y-57447624D03*
X315559912Y-56647624D03*
X315559912Y-55847624D03*
X315559912Y-55047624D03*
X315559912Y-54247624D03*
X315559912Y-53447624D03*
D23*
X313859912Y-51747624D03*
X313059912Y-51747624D03*
X312259912Y-51747624D03*
X311459912Y-51747624D03*
X310659912Y-51747624D03*
X309859912Y-51747624D03*
X309059912Y-51747624D03*
X308259912Y-51747624D03*
X307459912Y-51747624D03*
X306659912Y-51747624D03*
X305859912Y-51747624D03*
D24*
X323806776Y-58249968D03*
X323806776Y-56049968D03*
X322106776Y-56049968D03*
X322106776Y-58249968D03*
D14*
X226377500Y-42545000D03*
X220027500Y-45085000D03*
X278765000Y-61595000D03*
X272415000Y-64135000D03*
X276383750Y-61595000D03*
X270033750Y-64135000D03*
X257333750Y-61595000D03*
X250983750Y-64135000D03*
X128746250Y-80645000D03*
X122396250Y-83185000D03*
X176371250Y-80645000D03*
X170021250Y-83185000D03*
D25*
X308818116Y-36760532D03*
X308818116Y-31922884D03*
X310659912Y-50006224D03*
X318640764Y-50646068D03*
X299590780Y-62358948D03*
X304799760Y-49366380D03*
D26*
X314706000Y-40132000D03*
X307975000Y-40132000D03*
X308229000Y-42926000D03*
X310261000Y-42926000D03*
X32067456Y-71437456D03*
X58102500Y-72001616D03*
X67627500Y-54173408D03*
X96202500Y-72367386D03*
X116588901Y-72733156D03*
X124866708Y-54699208D03*
X144135048Y-54917548D03*
X172402500Y-73098926D03*
X182760800Y-55443300D03*
X210502500Y-78103564D03*
X229552500Y-78469334D03*
X249058856Y-78878856D03*
X268485728Y-79200874D03*
X287833368Y-79566644D03*
X310157948Y-83939008D03*
X313593000Y-29434000D03*
X319532000Y-29337000D03*
X311404000Y-25146000D03*
X316357000Y-25146000D03*
X316557172Y-51345676D03*
X300334920Y-59977700D03*
D27*
X-340625Y255000D02*
X298276Y-383901D01*
D28*
X305290912Y-54247624D02*
X304159912Y-54247624D01*
X309059912Y-52878624D02*
X307690912Y-54247624D01*
X307690912Y-54247624D02*
X305290912Y-54247624D01*
X309059912Y-51747624D02*
X309059912Y-52878624D01*
X313859912Y-62016624D02*
X313859912Y-63147624D01*
X312490912Y-60647624D02*
X313859912Y-62016624D01*
X304159912Y-60647624D02*
X312490912Y-60647624D01*
X312028912Y-55847624D02*
X309059912Y-52878624D01*
X315559912Y-55847624D02*
X312028912Y-55847624D01*
X312490912Y-56309624D02*
X312028912Y-55847624D01*
X312490912Y-60647624D02*
X312490912Y-56309624D01*
X318194280Y-55847624D02*
X315559912Y-55847624D01*
X319087248Y-55215204D02*
X318454828Y-55847624D01*
X318454828Y-55847624D02*
X318194280Y-55847624D01*
X319578264Y-54724188D02*
X319087248Y-55215204D01*
X319578264Y-51792160D02*
X319578264Y-54724188D01*
X301555228Y-60647624D02*
X300781404Y-61421448D01*
X304159912Y-60647624D02*
X301555228Y-60647624D01*
X309059912Y-48529272D02*
X309220068Y-48369116D01*
X309059912Y-51747624D02*
X309059912Y-48529272D01*
X302076324Y-53295036D02*
X302076324Y-50750364D01*
X304159912Y-54247624D02*
X303028912Y-54247624D01*
X303028912Y-54247624D02*
X302076324Y-53295036D01*
X302632561Y-50194127D02*
X302076324Y-50750364D01*
X304159916Y-45243728D02*
X303162652Y-46240992D01*
X303162652Y-46240992D02*
X303162652Y-49664036D01*
X303162652Y-49664036D02*
X302632561Y-50194127D01*
X289096348Y-61381250D02*
X285031250Y-61381250D01*
X290026849Y-62311751D02*
X289096348Y-61381250D01*
X292435651Y-62311751D02*
X290026849Y-62311751D01*
X293325954Y-61421448D02*
X292435651Y-62311751D01*
X297953672Y-61421448D02*
X293325954Y-61421448D01*
X297507188Y-61867932D02*
X297953672Y-61421448D01*
X297507188Y-62612072D02*
X297507188Y-61867932D01*
X300781404Y-61421448D02*
X297953672Y-61421448D01*
X323806776Y-57965066D02*
X323806776Y-58249968D01*
X322106776Y-56265066D02*
X323806776Y-57965066D01*
X322106776Y-56049968D02*
X322106776Y-56265066D01*
X323806776Y-60678651D02*
X323850000Y-60721875D01*
X323806776Y-58249968D02*
X323806776Y-60678651D01*
X323894276Y-53578096D02*
X325189196Y-54873016D01*
X325189196Y-59382679D02*
X323850000Y-60721875D01*
X325189196Y-54873016D02*
X325189196Y-59382679D01*
X322908340Y-51792160D02*
X322361464Y-51792160D01*
X323894276Y-52778096D02*
X322908340Y-51792160D01*
X323894276Y-53578096D02*
X323894276Y-52778096D01*
X319578264Y-51792160D02*
X322361464Y-51792160D01*
X313751000Y-23144000D02*
X313937000Y-23330000D01*
X313937000Y-23330000D02*
X313937000Y-26710000D01*
X313088000Y-27559000D02*
X313937000Y-26710000D01*
X311531000Y-27559000D02*
X313088000Y-27559000D01*
X309220068Y-48369116D02*
X309220068Y-47569116D01*
X308818116Y-47167164D02*
X308818116Y-36760532D01*
X309220068Y-47569116D02*
X308818116Y-47167164D01*
X308818116Y-36760532D02*
X308818116Y-36760532D01*
X308818116Y-31922884D02*
X308818116Y-27604884D01*
X308864000Y-27559000D02*
X311531000Y-27559000D01*
X308818116Y-27604884D02*
X308864000Y-27559000D01*
X308288000Y-23330000D02*
X308229000Y-23271000D01*
X313937000Y-23330000D02*
X308288000Y-23330000D01*
X322587000Y-23330000D02*
X322587000Y-26710000D01*
X314937000Y-26710000D02*
X315282000Y-26365000D01*
X313937000Y-26710000D02*
X314937000Y-26710000D01*
X315282000Y-27685000D02*
X315287000Y-27690000D01*
X315282000Y-26365000D02*
X315282000Y-27685000D01*
X315559912Y-55047624D02*
X317617720Y-55047624D01*
X317617720Y-55047624D02*
X318640764Y-54024580D01*
X318259501Y-52348397D02*
X317703264Y-51792160D01*
X318640764Y-52729660D02*
X318259501Y-52348397D01*
X318640764Y-54024580D02*
X318640764Y-52729660D01*
X317703264Y-51792160D02*
X317703264Y-51583568D01*
X302630228Y-61447624D02*
X300781404Y-63296448D01*
X304159912Y-61447624D02*
X302630228Y-61447624D01*
X306659912Y-52878624D02*
X306659912Y-51747624D01*
X306090912Y-53447624D02*
X306659912Y-52878624D01*
X304159912Y-53447624D02*
X306090912Y-53447624D01*
X310659912Y-51747624D02*
X310659912Y-50006224D01*
X317703264Y-51583568D02*
X318640764Y-50646068D01*
X318640764Y-50646068D02*
X319578264Y-49708568D01*
X313059912Y-62237722D02*
X313059912Y-63147624D01*
X312269814Y-61447624D02*
X313059912Y-62237722D01*
X304159912Y-61447624D02*
X312269814Y-61447624D01*
X300528280Y-63296448D02*
X299590780Y-62358948D01*
X300781404Y-63296448D02*
X300528280Y-63296448D01*
X306659912Y-50616624D02*
X306659912Y-51747624D01*
X306347168Y-50303880D02*
X306659912Y-50616624D01*
X304985308Y-50303880D02*
X306347168Y-50303880D01*
X304538824Y-50750364D02*
X304985308Y-50303880D01*
X303951324Y-50750364D02*
X304538824Y-50750364D01*
X303951324Y-50214816D02*
X304799760Y-49366380D01*
X303951324Y-50750364D02*
X303951324Y-50214816D01*
X306034916Y-45243728D02*
X306034916Y-46043728D01*
X306034916Y-46043728D02*
X307032180Y-47040992D01*
X307032180Y-47040992D02*
X307032180Y-48815600D01*
X306481400Y-49366380D02*
X305543900Y-49366380D01*
X307032180Y-48815600D02*
X306481400Y-49366380D01*
X304799760Y-49366380D02*
X305543900Y-49366380D01*
X319653000Y-49633832D02*
X319578264Y-49708568D01*
X319653000Y-36512500D02*
X319653000Y-49633832D01*
D29*
X309859912Y-49604272D02*
X311095068Y-48369116D01*
X309859912Y-51747624D02*
X309859912Y-49604272D01*
D27*
X36909375Y-26271800D02*
X36909375Y-26925000D01*
X34132575Y-23495000D02*
X36909375Y-26271800D01*
X31115000Y-23495000D02*
X34132575Y-23495000D01*
X39290625Y-45321800D02*
X39290625Y-45975000D01*
X36513825Y-42545000D02*
X39290625Y-45321800D01*
X33496250Y-42545000D02*
X36513825Y-42545000D01*
X44053125Y-64371800D02*
X44053125Y-65025000D01*
X41276325Y-61595000D02*
X44053125Y-64371800D01*
X38258750Y-61595000D02*
X41276325Y-61595000D01*
D29*
X55959375Y-83375000D02*
X55959375Y-84075000D01*
X53229375Y-80645000D02*
X55959375Y-83375000D01*
X50165000Y-80645000D02*
X53229375Y-80645000D01*
D27*
X55959375Y-26271800D02*
X55959375Y-26925000D01*
X53182575Y-23495000D02*
X55959375Y-26271800D01*
X50165000Y-23495000D02*
X53182575Y-23495000D01*
X60721875Y-45321800D02*
X60721875Y-45975000D01*
X57945075Y-42545000D02*
X60721875Y-45321800D01*
X54927500Y-42545000D02*
X57945075Y-42545000D01*
X70246875Y-64371800D02*
X70246875Y-65025000D01*
X67470075Y-61595000D02*
X70246875Y-64371800D01*
X64452500Y-61595000D02*
X67470075Y-61595000D01*
X77390625Y-83421800D02*
X77390625Y-84075000D01*
X74613825Y-80645000D02*
X77390625Y-83421800D01*
X71596250Y-80645000D02*
X74613825Y-80645000D01*
X75009375Y-26271800D02*
X75009375Y-26925000D01*
X72232575Y-23495000D02*
X75009375Y-26271800D01*
X69215000Y-23495000D02*
X72232575Y-23495000D01*
X79771875Y-45321800D02*
X79771875Y-45975000D01*
X76995075Y-42545000D02*
X79771875Y-45321800D01*
X73977500Y-42545000D02*
X76995075Y-42545000D01*
X89296875Y-64371800D02*
X89296875Y-65025000D01*
X86520075Y-61595000D02*
X89296875Y-64371800D01*
X83502500Y-61595000D02*
X86520075Y-61595000D01*
X94059375Y-26271800D02*
X94059375Y-26925000D01*
X91282575Y-23495000D02*
X94059375Y-26271800D01*
X88265000Y-23495000D02*
X91282575Y-23495000D01*
X98821875Y-45321800D02*
X98821875Y-45975000D01*
X96045075Y-42545000D02*
X98821875Y-45321800D01*
X93027500Y-42545000D02*
X96045075Y-42545000D01*
X101203125Y-83421800D02*
X101203125Y-84075000D01*
X98426325Y-80645000D02*
X101203125Y-83421800D01*
X95408750Y-80645000D02*
X98426325Y-80645000D01*
X113109375Y-26271800D02*
X113109375Y-26925000D01*
X110332575Y-23495000D02*
X113109375Y-26271800D01*
X107315000Y-23495000D02*
X110332575Y-23495000D01*
X117871875Y-45321800D02*
X117871875Y-45975000D01*
X115095075Y-42545000D02*
X117871875Y-45321800D01*
X112077500Y-42545000D02*
X115095075Y-42545000D01*
X134540625Y-83421800D02*
X134540625Y-84075000D01*
X131763825Y-80645000D02*
X134540625Y-83421800D01*
X128746250Y-80645000D02*
X131763825Y-80645000D01*
X132159375Y-26271800D02*
X132159375Y-26925000D01*
X129382575Y-23495000D02*
X132159375Y-26271800D01*
X126365000Y-23495000D02*
X129382575Y-23495000D01*
X146446875Y-64371800D02*
X146446875Y-65025000D01*
X143670075Y-61595000D02*
X146446875Y-64371800D01*
X140652500Y-61595000D02*
X143670075Y-61595000D01*
X155971875Y-45321800D02*
X155971875Y-45975000D01*
X153195075Y-42545000D02*
X155971875Y-45321800D01*
X150177500Y-42545000D02*
X153195075Y-42545000D01*
X165496875Y-64371800D02*
X165496875Y-65025000D01*
X162720075Y-61595000D02*
X165496875Y-64371800D01*
X159702500Y-61595000D02*
X162720075Y-61595000D01*
X170259375Y-26271800D02*
X170259375Y-26925000D01*
X167482575Y-23495000D02*
X170259375Y-26271800D01*
X164465000Y-23495000D02*
X167482575Y-23495000D01*
X175021875Y-45321800D02*
X175021875Y-45975000D01*
X172245075Y-42545000D02*
X175021875Y-45321800D01*
X169227500Y-42545000D02*
X172245075Y-42545000D01*
X184546875Y-64371800D02*
X184546875Y-65025000D01*
X181770075Y-61595000D02*
X184546875Y-64371800D01*
X178752500Y-61595000D02*
X181770075Y-61595000D01*
X182165625Y-83421800D02*
X182165625Y-84075000D01*
X179388825Y-80645000D02*
X182165625Y-83421800D01*
X176371250Y-80645000D02*
X179388825Y-80645000D01*
X189309375Y-26271800D02*
X189309375Y-26925000D01*
X186532575Y-23495000D02*
X189309375Y-26271800D01*
X183515000Y-23495000D02*
X186532575Y-23495000D01*
X194071875Y-45321800D02*
X194071875Y-45975000D01*
X191295075Y-42545000D02*
X194071875Y-45321800D01*
X188277500Y-42545000D02*
X191295075Y-42545000D01*
X203596875Y-64371800D02*
X203596875Y-65025000D01*
X200820075Y-61595000D02*
X203596875Y-64371800D01*
X197802500Y-61595000D02*
X200820075Y-61595000D01*
X208359375Y-26271800D02*
X208359375Y-26925000D01*
X205582575Y-23495000D02*
X208359375Y-26271800D01*
X202565000Y-23495000D02*
X205582575Y-23495000D01*
X213121875Y-45321800D02*
X213121875Y-45975000D01*
X210345075Y-42545000D02*
X213121875Y-45321800D01*
X207327500Y-42545000D02*
X210345075Y-42545000D01*
X222646875Y-64371800D02*
X222646875Y-65025000D01*
X219870075Y-61595000D02*
X222646875Y-64371800D01*
X216852500Y-61595000D02*
X219870075Y-61595000D01*
X220265625Y-83421800D02*
X220265625Y-84075000D01*
X217488825Y-80645000D02*
X220265625Y-83421800D01*
X214471250Y-80645000D02*
X217488825Y-80645000D01*
X227409375Y-26271800D02*
X227409375Y-26925000D01*
X224632575Y-23495000D02*
X227409375Y-26271800D01*
X221615000Y-23495000D02*
X224632575Y-23495000D01*
X232171875Y-45321800D02*
X232171875Y-45975000D01*
X229395075Y-42545000D02*
X232171875Y-45321800D01*
X226377500Y-42545000D02*
X229395075Y-42545000D01*
X241696875Y-64371800D02*
X241696875Y-65025000D01*
X238920075Y-61595000D02*
X241696875Y-64371800D01*
X235902500Y-61595000D02*
X238920075Y-61595000D01*
X246459375Y-26271800D02*
X246459375Y-26925000D01*
X243682575Y-23495000D02*
X246459375Y-26271800D01*
X240665000Y-23495000D02*
X243682575Y-23495000D01*
X251221875Y-45321800D02*
X251221875Y-45975000D01*
X248445075Y-42545000D02*
X251221875Y-45321800D01*
X245427500Y-42545000D02*
X248445075Y-42545000D01*
X263128125Y-64371800D02*
X263128125Y-65025000D01*
X260351325Y-61595000D02*
X263128125Y-64371800D01*
X257333750Y-61595000D02*
X260351325Y-61595000D01*
X254952500Y-61595000D02*
X257333750Y-61595000D01*
X265509375Y-26271800D02*
X265509375Y-26925000D01*
X262732575Y-23495000D02*
X265509375Y-26271800D01*
X259715000Y-23495000D02*
X262732575Y-23495000D01*
X277415625Y-45321800D02*
X277415625Y-45975000D01*
X274638825Y-42545000D02*
X277415625Y-45321800D01*
X271621250Y-42545000D02*
X274638825Y-42545000D01*
X289321875Y-88137500D02*
X289321875Y-88837500D01*
X286591875Y-85407500D02*
X289321875Y-88137500D01*
X283527500Y-85407500D02*
X286591875Y-85407500D01*
X284559375Y-26271800D02*
X284559375Y-26925000D01*
X281782575Y-23495000D02*
X284559375Y-26271800D01*
X278765000Y-23495000D02*
X281782575Y-23495000D01*
X272415000Y-64135000D02*
X270033750Y-64135000D01*
X267552760Y-65025000D02*
X267295521Y-65025000D01*
X268442760Y-64135000D02*
X267552760Y-65025000D01*
X270033750Y-64135000D02*
X268442760Y-64135000D01*
X265509375Y-65025000D02*
X267295521Y-65025000D01*
X308371875Y-88137500D02*
X308371875Y-88837500D01*
X305641875Y-85407500D02*
X308371875Y-88137500D01*
X302577500Y-85407500D02*
X305641875Y-85407500D01*
X293746510Y-26925000D02*
X292893980Y-26925000D01*
X294636510Y-26035000D02*
X293746510Y-26925000D01*
X296227500Y-26035000D02*
X294636510Y-26035000D01*
X291703125Y-26925000D02*
X292893980Y-26925000D01*
D28*
X316103000Y-27724000D02*
X316137000Y-27690000D01*
X322453000Y-36512500D02*
X322453000Y-30480000D01*
X320387000Y-28414000D02*
X320387000Y-27690000D01*
X322453000Y-30480000D02*
X320387000Y-28414000D01*
D27*
X317881000Y-27734000D02*
X317837000Y-27690000D01*
X317500000Y-28027000D02*
X317837000Y-27690000D01*
X316611000Y-28575000D02*
X317500000Y-28575000D01*
X316357000Y-31369000D02*
X316357000Y-28829000D01*
X317500000Y-28575000D02*
X317500000Y-28027000D01*
X316357000Y-28829000D02*
X316611000Y-28575000D01*
X318643000Y-31369000D02*
X318643000Y-30781500D01*
X318687000Y-30737500D02*
X318687000Y-27690000D01*
X318643000Y-30781500D02*
X318687000Y-30737500D01*
X127396875Y-64371800D02*
X127396875Y-65025000D01*
X124620075Y-61595000D02*
X127396875Y-64371800D01*
X121602500Y-61595000D02*
X124620075Y-61595000D01*
X108346875Y-64371800D02*
X108346875Y-65025000D01*
X105570075Y-61595000D02*
X108346875Y-64371800D01*
X102552500Y-61595000D02*
X105570075Y-61595000D01*
X136921875Y-45321800D02*
X136921875Y-45975000D01*
X134145075Y-42545000D02*
X136921875Y-45321800D01*
X131127500Y-42545000D02*
X134145075Y-42545000D01*
X244078125Y-83421800D02*
X244078125Y-84075000D01*
X241301325Y-80645000D02*
X244078125Y-83421800D01*
X238283750Y-80645000D02*
X241301325Y-80645000D01*
D30*
X307634912Y-50447623D02*
X307459912Y-50622623D01*
X307459912Y-50622623D02*
X307459912Y-51747624D01*
D27*
X316357000Y-33244000D02*
X316357000Y-33831500D01*
X316357000Y-33831500D02*
X316357000Y-38481000D01*
X316357000Y-38481000D02*
X314706000Y-40132000D01*
X314706000Y-40132000D02*
X314706000Y-40132000D01*
X307975000Y-40132000D02*
X307675001Y-40431999D01*
X307634912Y-40472088D02*
X307675001Y-40431999D01*
X307634912Y-50447623D02*
X307634912Y-40472088D01*
X318643000Y-33831500D02*
X316738000Y-35736500D01*
X318643000Y-33244000D02*
X318643000Y-33831500D01*
X316738000Y-38617276D02*
X316722768Y-38632508D01*
X316738000Y-35736500D02*
X316738000Y-38617276D01*
X316738000Y-38617276D02*
X316738000Y-38862000D01*
X316738000Y-38862000D02*
X316738000Y-38934959D01*
X316738000Y-38862000D02*
X316738000Y-40894000D01*
X316738000Y-40894000D02*
X314706000Y-42926000D01*
X314706000Y-42926000D02*
X310261000Y-42926000D01*
X310261000Y-42926000D02*
X310261000Y-42926000D01*
X308229000Y-50927000D02*
X308259912Y-50957912D01*
X308229000Y-42926000D02*
X308229000Y-50927000D01*
D30*
X308259912Y-50957912D02*
X308259912Y-51747624D01*
D27*
X318700749Y-57447624D02*
X321975000Y-60721875D01*
X315559912Y-57447624D02*
X318700749Y-57447624D01*
X321975000Y-58381744D02*
X322106776Y-58249968D01*
X321975000Y-60721875D02*
X321975000Y-58381744D01*
X318949748Y-56647624D02*
X322019276Y-53578096D01*
X315559912Y-56647624D02*
X318949748Y-56647624D01*
X322575513Y-54134333D02*
X322019276Y-53578096D01*
X323806776Y-55365596D02*
X322575513Y-54134333D01*
X323806776Y-56049968D02*
X323806776Y-55365596D01*
X207509375Y-30225000D02*
X208359375Y-30225000D01*
X206870474Y-30863901D02*
X207509375Y-30225000D01*
X190798276Y-30863901D02*
X206870474Y-30863901D01*
X190159375Y-30225000D02*
X190798276Y-30863901D01*
X189309375Y-30225000D02*
X190159375Y-30225000D01*
X226559375Y-30225000D02*
X227409375Y-30225000D01*
X225920474Y-30863901D02*
X226559375Y-30225000D01*
X209848276Y-30863901D02*
X225920474Y-30863901D01*
X209209375Y-30225000D02*
X209848276Y-30863901D01*
X208359375Y-30225000D02*
X209209375Y-30225000D01*
X245609375Y-30225000D02*
X246459375Y-30225000D01*
X244970474Y-30863901D02*
X245609375Y-30225000D01*
X228898276Y-30863901D02*
X244970474Y-30863901D01*
X228259375Y-30225000D02*
X228898276Y-30863901D01*
X227409375Y-30225000D02*
X228259375Y-30225000D01*
X264659375Y-30225000D02*
X265509375Y-30225000D01*
X264020474Y-30863901D02*
X264659375Y-30225000D01*
X247948276Y-30863901D02*
X264020474Y-30863901D01*
X247309375Y-30225000D02*
X247948276Y-30863901D01*
X246459375Y-30225000D02*
X247309375Y-30225000D01*
X283709375Y-30225000D02*
X284559375Y-30225000D01*
X283070474Y-30863901D02*
X283709375Y-30225000D01*
X266998276Y-30863901D02*
X283070474Y-30863901D01*
X266359375Y-30225000D02*
X266998276Y-30863901D01*
X265509375Y-30225000D02*
X266359375Y-30225000D01*
X284559375Y-30225000D02*
X291703125Y-30225000D01*
X113959375Y-30225000D02*
X113109375Y-30225000D01*
X114598276Y-30863901D02*
X113959375Y-30225000D01*
X130670474Y-30863901D02*
X114598276Y-30863901D01*
X131309375Y-30225000D02*
X130670474Y-30863901D01*
X132159375Y-30225000D02*
X131309375Y-30225000D01*
X94909375Y-30225000D02*
X94059375Y-30225000D01*
X95548276Y-30863901D02*
X94909375Y-30225000D01*
X111620474Y-30863901D02*
X95548276Y-30863901D01*
X112259375Y-30225000D02*
X111620474Y-30863901D01*
X113109375Y-30225000D02*
X112259375Y-30225000D01*
X75859375Y-30225000D02*
X75009375Y-30225000D01*
X76498276Y-30863901D02*
X75859375Y-30225000D01*
X92570474Y-30863901D02*
X76498276Y-30863901D01*
X93209375Y-30225000D02*
X92570474Y-30863901D01*
X94059375Y-30225000D02*
X93209375Y-30225000D01*
X56809375Y-30225000D02*
X55959375Y-30225000D01*
X57448276Y-30863901D02*
X56809375Y-30225000D01*
X73520474Y-30863901D02*
X57448276Y-30863901D01*
X74159375Y-30225000D02*
X73520474Y-30863901D01*
X75009375Y-30225000D02*
X74159375Y-30225000D01*
X37759375Y-30225000D02*
X36909375Y-30225000D01*
X38398276Y-30863901D02*
X37759375Y-30225000D01*
X54470474Y-30863901D02*
X38398276Y-30863901D01*
X55109375Y-30225000D02*
X54470474Y-30863901D01*
X55959375Y-30225000D02*
X55109375Y-30225000D01*
X132159375Y-30225000D02*
X132962575Y-30225000D01*
X309562256Y-45094900D02*
X309562256Y-36462876D01*
X309562256Y-36462876D02*
X307925148Y-34825768D01*
X292506325Y-30225000D02*
X291703125Y-30225000D01*
X297107093Y-34825768D02*
X292506325Y-30225000D01*
X307925148Y-34825768D02*
X297107093Y-34825768D01*
X311459912Y-51747624D02*
X311459912Y-49764428D01*
X312092332Y-47624976D02*
X312092332Y-49132008D01*
X311459912Y-49764428D02*
X312092332Y-49132008D01*
X312092332Y-47624976D02*
X309562256Y-45094900D01*
X188459375Y-30225000D02*
X189309375Y-30225000D01*
X187820474Y-30863901D02*
X188459375Y-30225000D01*
X171748276Y-30863901D02*
X187820474Y-30863901D01*
X170259375Y-30225000D02*
X171109375Y-30225000D01*
X171109375Y-30225000D02*
X171748276Y-30863901D01*
X152698276Y-30863901D02*
X152059375Y-30225000D01*
X152701177Y-30861000D02*
X152698276Y-30863901D01*
X168783000Y-30861000D02*
X152701177Y-30861000D01*
X170259375Y-30225000D02*
X169419000Y-30225000D01*
X169419000Y-30225000D02*
X168783000Y-30861000D01*
X151258000Y-30225000D02*
X151257000Y-30224000D01*
X152059375Y-30225000D02*
X151258000Y-30225000D01*
X151257000Y-30224000D02*
X150497000Y-30224000D01*
X150497000Y-30224000D02*
X149860000Y-30861000D01*
X149839501Y-30840501D02*
X133624499Y-30840501D01*
X149860000Y-30861000D02*
X149839501Y-30840501D01*
X133008998Y-30225000D02*
X132962575Y-30225000D01*
X133624499Y-30840501D02*
X133008998Y-30225000D01*
X59871875Y-49275000D02*
X60721875Y-49275000D01*
X59232974Y-49913901D02*
X59871875Y-49275000D01*
X40779526Y-49913901D02*
X59232974Y-49913901D01*
X40140625Y-49275000D02*
X40779526Y-49913901D01*
X39290625Y-49275000D02*
X40140625Y-49275000D01*
X78921875Y-49275000D02*
X79771875Y-49275000D01*
X78282974Y-49913901D02*
X78921875Y-49275000D01*
X62210776Y-49913901D02*
X78282974Y-49913901D01*
X61571875Y-49275000D02*
X62210776Y-49913901D01*
X60721875Y-49275000D02*
X61571875Y-49275000D01*
X97971875Y-49275000D02*
X98821875Y-49275000D01*
X97332974Y-49913901D02*
X97971875Y-49275000D01*
X81260776Y-49913901D02*
X97332974Y-49913901D01*
X80621875Y-49275000D02*
X81260776Y-49913901D01*
X79771875Y-49275000D02*
X80621875Y-49275000D01*
X117021875Y-49275000D02*
X117871875Y-49275000D01*
X116382974Y-49913901D02*
X117021875Y-49275000D01*
X100310776Y-49913901D02*
X116382974Y-49913901D01*
X99671875Y-49275000D02*
X100310776Y-49913901D01*
X98821875Y-49275000D02*
X99671875Y-49275000D01*
X136071875Y-49275000D02*
X136921875Y-49275000D01*
X135432974Y-49913901D02*
X136071875Y-49275000D01*
X119360776Y-49913901D02*
X135432974Y-49913901D01*
X118721875Y-49275000D02*
X119360776Y-49913901D01*
X117871875Y-49275000D02*
X118721875Y-49275000D01*
X155121875Y-49275000D02*
X155971875Y-49275000D01*
X154482974Y-49913901D02*
X155121875Y-49275000D01*
X138410776Y-49913901D02*
X154482974Y-49913901D01*
X137771875Y-49275000D02*
X138410776Y-49913901D01*
X136921875Y-49275000D02*
X137771875Y-49275000D01*
X174171875Y-49275000D02*
X175021875Y-49275000D01*
X155971875Y-49275000D02*
X156821875Y-49275000D01*
X156821875Y-49275000D02*
X157460776Y-49913901D01*
X157460776Y-49913901D02*
X173532974Y-49913901D01*
X173532974Y-49913901D02*
X174171875Y-49275000D01*
X193221875Y-49275000D02*
X194071875Y-49275000D01*
X192582974Y-49913901D02*
X193221875Y-49275000D01*
X176510776Y-49913901D02*
X192582974Y-49913901D01*
X175871875Y-49275000D02*
X176510776Y-49913901D01*
X175021875Y-49275000D02*
X175871875Y-49275000D01*
X212271875Y-49275000D02*
X213121875Y-49275000D01*
X211632974Y-49913901D02*
X212271875Y-49275000D01*
X195560776Y-49913901D02*
X211632974Y-49913901D01*
X194921875Y-49275000D02*
X195560776Y-49913901D01*
X194071875Y-49275000D02*
X194921875Y-49275000D01*
X231321875Y-49275000D02*
X232171875Y-49275000D01*
X230682974Y-49913901D02*
X231321875Y-49275000D01*
X214610776Y-49913901D02*
X230682974Y-49913901D01*
X213971875Y-49275000D02*
X214610776Y-49913901D01*
X213121875Y-49275000D02*
X213971875Y-49275000D01*
X250371875Y-49275000D02*
X251221875Y-49275000D01*
X249732974Y-49913901D02*
X250371875Y-49275000D01*
X233660776Y-49913901D02*
X249732974Y-49913901D01*
X233021875Y-49275000D02*
X233660776Y-49913901D01*
X232171875Y-49275000D02*
X233021875Y-49275000D01*
X276565625Y-49275000D02*
X277415625Y-49275000D01*
X275926724Y-49913901D02*
X276565625Y-49275000D01*
X252710776Y-49913901D02*
X275926724Y-49913901D01*
X252071875Y-49275000D02*
X252710776Y-49913901D01*
X251221875Y-49275000D02*
X252071875Y-49275000D01*
X277415625Y-49275000D02*
X291703125Y-49275000D01*
X304159912Y-55847624D02*
X300655196Y-55847624D01*
X294082572Y-49275000D02*
X291703125Y-49275000D01*
X300655196Y-55847624D02*
X294082572Y-49275000D01*
X69396875Y-68325000D02*
X70246875Y-68325000D01*
X68757974Y-68963901D02*
X69396875Y-68325000D01*
X45542026Y-68963901D02*
X68757974Y-68963901D01*
X44903125Y-68325000D02*
X45542026Y-68963901D01*
X44053125Y-68325000D02*
X44903125Y-68325000D01*
X88446875Y-68325000D02*
X89296875Y-68325000D01*
X87807974Y-68963901D02*
X88446875Y-68325000D01*
X71735776Y-68963901D02*
X87807974Y-68963901D01*
X71096875Y-68325000D02*
X71735776Y-68963901D01*
X70246875Y-68325000D02*
X71096875Y-68325000D01*
X107496875Y-68325000D02*
X108346875Y-68325000D01*
X106857974Y-68963901D02*
X107496875Y-68325000D01*
X90785776Y-68963901D02*
X106857974Y-68963901D01*
X90146875Y-68325000D02*
X90785776Y-68963901D01*
X89296875Y-68325000D02*
X90146875Y-68325000D01*
X126546875Y-68325000D02*
X127396875Y-68325000D01*
X125907974Y-68963901D02*
X126546875Y-68325000D01*
X109835776Y-68963901D02*
X125907974Y-68963901D01*
X109196875Y-68325000D02*
X109835776Y-68963901D01*
X108346875Y-68325000D02*
X109196875Y-68325000D01*
X145596875Y-68325000D02*
X146446875Y-68325000D01*
X144957974Y-68963901D02*
X145596875Y-68325000D01*
X128885776Y-68963901D02*
X144957974Y-68963901D01*
X128246875Y-68325000D02*
X128885776Y-68963901D01*
X127396875Y-68325000D02*
X128246875Y-68325000D01*
X164646875Y-68325000D02*
X165496875Y-68325000D01*
X164007974Y-68963901D02*
X164646875Y-68325000D01*
X147935776Y-68963901D02*
X164007974Y-68963901D01*
X147296875Y-68325000D02*
X147935776Y-68963901D01*
X146446875Y-68325000D02*
X147296875Y-68325000D01*
X183696875Y-68325000D02*
X184546875Y-68325000D01*
X183057974Y-68963901D02*
X183696875Y-68325000D01*
X166985776Y-68963901D02*
X183057974Y-68963901D01*
X166346875Y-68325000D02*
X166985776Y-68963901D01*
X165496875Y-68325000D02*
X166346875Y-68325000D01*
X202746875Y-68325000D02*
X203596875Y-68325000D01*
X202107974Y-68963901D02*
X202746875Y-68325000D01*
X186035776Y-68963901D02*
X202107974Y-68963901D01*
X185396875Y-68325000D02*
X186035776Y-68963901D01*
X184546875Y-68325000D02*
X185396875Y-68325000D01*
X204446875Y-68325000D02*
X203596875Y-68325000D01*
X205085776Y-68963901D02*
X204446875Y-68325000D01*
X221157974Y-68963901D02*
X205085776Y-68963901D01*
X221796875Y-68325000D02*
X221157974Y-68963901D01*
X222646875Y-68325000D02*
X221796875Y-68325000D01*
X240846875Y-68325000D02*
X241696875Y-68325000D01*
X240207974Y-68963901D02*
X240846875Y-68325000D01*
X224135776Y-68963901D02*
X240207974Y-68963901D01*
X223496875Y-68325000D02*
X224135776Y-68963901D01*
X222646875Y-68325000D02*
X223496875Y-68325000D01*
X262278125Y-68325000D02*
X263128125Y-68325000D01*
X261639224Y-68963901D02*
X262278125Y-68325000D01*
X243185776Y-68963901D02*
X261639224Y-68963901D01*
X242546875Y-68325000D02*
X243185776Y-68963901D01*
X241696875Y-68325000D02*
X242546875Y-68325000D01*
X263128125Y-68325000D02*
X265509375Y-68325000D01*
X290853125Y-73087500D02*
X291703125Y-73087500D01*
X271121875Y-73087500D02*
X290853125Y-73087500D01*
X266359375Y-68325000D02*
X271121875Y-73087500D01*
X265509375Y-68325000D02*
X266359375Y-68325000D01*
X306659912Y-64100824D02*
X306659912Y-63147624D01*
X291703125Y-73087500D02*
X292506325Y-73087500D01*
X292506325Y-73087500D02*
X295129379Y-75710554D01*
X295129379Y-75710554D02*
X306583018Y-75710554D01*
X306583018Y-75710554D02*
X308396832Y-73896740D01*
X308396832Y-73896740D02*
X308396832Y-65837744D01*
X308396832Y-65837744D02*
X306659912Y-64100824D01*
X265509375Y-83421800D02*
X265509375Y-84075000D01*
X262732575Y-80645000D02*
X265509375Y-83421800D01*
X259715000Y-80645000D02*
X262732575Y-80645000D01*
X76540625Y-87375000D02*
X77390625Y-87375000D01*
X75901724Y-88013901D02*
X76540625Y-87375000D01*
X57448276Y-88013901D02*
X75901724Y-88013901D01*
X56809375Y-87375000D02*
X57448276Y-88013901D01*
X55959375Y-87375000D02*
X56809375Y-87375000D01*
X100353125Y-87375000D02*
X101203125Y-87375000D01*
X99714224Y-88013901D02*
X100353125Y-87375000D01*
X78879526Y-88013901D02*
X99714224Y-88013901D01*
X78240625Y-87375000D02*
X78879526Y-88013901D01*
X77390625Y-87375000D02*
X78240625Y-87375000D01*
X133690625Y-87375000D02*
X134540625Y-87375000D01*
X133051724Y-88013901D02*
X133690625Y-87375000D01*
X102692026Y-88013901D02*
X133051724Y-88013901D01*
X102053125Y-87375000D02*
X102692026Y-88013901D01*
X101203125Y-87375000D02*
X102053125Y-87375000D01*
X181315625Y-87375000D02*
X182165625Y-87375000D01*
X180676724Y-88013901D02*
X181315625Y-87375000D01*
X136029526Y-88013901D02*
X180676724Y-88013901D01*
X135390625Y-87375000D02*
X136029526Y-88013901D01*
X134540625Y-87375000D02*
X135390625Y-87375000D01*
X219415625Y-87375000D02*
X220265625Y-87375000D01*
X218776724Y-88013901D02*
X219415625Y-87375000D01*
X183654526Y-88013901D02*
X218776724Y-88013901D01*
X183015625Y-87375000D02*
X183654526Y-88013901D01*
X182165625Y-87375000D02*
X183015625Y-87375000D01*
X243228125Y-87375000D02*
X244078125Y-87375000D01*
X242589224Y-88013901D02*
X243228125Y-87375000D01*
X221754526Y-88013901D02*
X242589224Y-88013901D01*
X221115625Y-87375000D02*
X221754526Y-88013901D01*
X220265625Y-87375000D02*
X221115625Y-87375000D01*
X264659375Y-87375000D02*
X265509375Y-87375000D01*
X264020474Y-88013901D02*
X264659375Y-87375000D01*
X245567026Y-88013901D02*
X264020474Y-88013901D01*
X244928125Y-87375000D02*
X245567026Y-88013901D01*
X244078125Y-87375000D02*
X244928125Y-87375000D01*
X288471875Y-92137500D02*
X287771875Y-92837500D01*
X289321875Y-92137500D02*
X288471875Y-92137500D01*
X307521875Y-92137500D02*
X308371875Y-92137500D01*
X306882974Y-92776401D02*
X307521875Y-92137500D01*
X290810776Y-92776401D02*
X306882974Y-92776401D01*
X290171875Y-92137500D02*
X290810776Y-92776401D01*
X289321875Y-92137500D02*
X290171875Y-92137500D01*
X308371875Y-92137500D02*
X310753125Y-92137500D01*
X310753125Y-91484300D02*
X310753125Y-92137500D01*
X309562256Y-90293431D02*
X310753125Y-91484300D01*
X315559912Y-59047624D02*
X316513112Y-59047624D01*
X317803310Y-60337822D02*
X317803310Y-63234750D01*
X317803310Y-63234750D02*
X312420302Y-68617758D01*
X309562256Y-78421352D02*
X309562256Y-90293431D01*
X312420302Y-68617758D02*
X312420302Y-75563306D01*
X316513112Y-59047624D02*
X317803310Y-60337822D01*
X312420302Y-75563306D02*
X309562256Y-78421352D01*
X270018144Y-87375000D02*
X275480644Y-92837500D01*
X265509375Y-87375000D02*
X270018144Y-87375000D01*
X287771875Y-92837500D02*
X275480644Y-92837500D01*
X293746510Y-45975000D02*
X292893980Y-45975000D01*
X294636510Y-45085000D02*
X293746510Y-45975000D01*
X296227500Y-45085000D02*
X294636510Y-45085000D01*
X291703125Y-45975000D02*
X292893980Y-45975000D01*
X293746510Y-69787500D02*
X292893980Y-69787500D01*
X294636510Y-68897500D02*
X293746510Y-69787500D01*
X296227500Y-68897500D02*
X294636510Y-68897500D01*
X291703125Y-69787500D02*
X292893980Y-69787500D01*
X312796510Y-88837500D02*
X311943996Y-88837500D01*
X313686510Y-87947500D02*
X312796510Y-88837500D01*
X315277500Y-87947500D02*
X313686510Y-87947500D01*
X310753125Y-88837500D02*
X311943996Y-88837500D01*
X187076812Y-71437456D02*
X32067456Y-71437456D01*
X306734524Y-76076324D02*
X191715680Y-76076324D01*
X191715680Y-76076324D02*
X187076812Y-71437456D01*
X307459912Y-63147624D02*
X307459912Y-64100824D01*
X307459912Y-64100824D02*
X308762602Y-65403514D01*
X308762602Y-74048246D02*
X308222804Y-74588044D01*
X308762602Y-65403514D02*
X308762602Y-74048246D01*
X308396832Y-74414016D02*
X308222804Y-74588044D01*
X308222804Y-74588044D02*
X306734524Y-76076324D01*
X58222916Y-72001616D02*
X58102500Y-72001616D01*
X308259912Y-64100824D02*
X309128372Y-64969284D01*
X58421306Y-71803226D02*
X58222916Y-72001616D01*
X308259912Y-63147624D02*
X308259912Y-64100824D01*
X186925306Y-71803226D02*
X58421306Y-71803226D01*
X309128372Y-64969284D02*
X309128372Y-74199752D01*
X309128372Y-74199752D02*
X306886030Y-76442094D01*
X306886030Y-76442094D02*
X191564174Y-76442094D01*
X191564174Y-76442094D02*
X186925306Y-71803226D01*
X304159912Y-56647624D02*
X300937920Y-56647624D01*
X300937920Y-56647624D02*
X298259362Y-53969066D01*
X298259362Y-53969066D02*
X67831842Y-53969066D01*
X67831842Y-53969066D02*
X67627500Y-54173408D01*
X96254770Y-72367386D02*
X96202500Y-72367386D01*
X96453160Y-72168996D02*
X96254770Y-72367386D01*
X186773800Y-72168996D02*
X96453160Y-72168996D01*
X309059912Y-64100824D02*
X309494142Y-64535054D01*
X309059912Y-63147624D02*
X309059912Y-64100824D01*
X309494142Y-64535054D02*
X309494142Y-74351258D01*
X309494142Y-74351258D02*
X307037536Y-76807864D01*
X307037536Y-76807864D02*
X191412668Y-76807864D01*
X191412668Y-76807864D02*
X186773800Y-72168996D01*
X116588901Y-72720347D02*
X116588901Y-72733156D01*
X309859912Y-63147624D02*
X309859912Y-74502764D01*
X309859912Y-74502764D02*
X307189042Y-77173634D01*
X307189042Y-77173634D02*
X191261162Y-77173634D01*
X191261162Y-77173634D02*
X186622294Y-72534766D01*
X186622294Y-72534766D02*
X116774482Y-72534766D01*
X116774482Y-72534766D02*
X116588901Y-72720347D01*
X304159912Y-57447624D02*
X301220644Y-57447624D01*
X125231080Y-54334836D02*
X124866708Y-54699208D01*
X298107856Y-54334836D02*
X125231080Y-54334836D01*
X301220644Y-57447624D02*
X298107856Y-54334836D01*
X304159912Y-58247624D02*
X301503368Y-58247624D01*
X144351990Y-54700606D02*
X144135048Y-54917548D01*
X297956350Y-54700606D02*
X144351990Y-54700606D01*
X301503368Y-58247624D02*
X297956350Y-54700606D01*
X307340548Y-77539404D02*
X191109656Y-77539404D01*
X191109656Y-77539404D02*
X186470788Y-72900536D01*
X186470788Y-72900536D02*
X172665696Y-72900536D01*
X172665696Y-72900536D02*
X172467306Y-73098926D01*
X172467306Y-73098926D02*
X172402500Y-73098926D01*
X309859912Y-75020040D02*
X309721796Y-75158156D01*
X309721796Y-75158156D02*
X307340548Y-77539404D01*
X310225682Y-74654270D02*
X309721796Y-75158156D01*
X310225682Y-67708722D02*
X310225682Y-74654270D01*
X310659912Y-67274492D02*
X310225682Y-67708722D01*
X310659912Y-63147624D02*
X310659912Y-67274492D01*
X304159912Y-59047624D02*
X301786092Y-59047624D01*
X301786092Y-59047624D02*
X297804844Y-55066376D01*
X183137724Y-55066376D02*
X182760800Y-55443300D01*
X183802596Y-55066376D02*
X183137724Y-55066376D01*
X297804844Y-55066376D02*
X183802596Y-55066376D01*
X210700890Y-77905174D02*
X210502500Y-78103564D01*
X307492054Y-77905174D02*
X210700890Y-77905174D01*
X310225682Y-75171546D02*
X309941416Y-75455812D01*
X309941416Y-75455812D02*
X307492054Y-77905174D01*
X311459912Y-66991768D02*
X311459912Y-63147624D01*
X310591452Y-67860228D02*
X311459912Y-66991768D01*
X310591452Y-74805776D02*
X310591452Y-67860228D01*
X309941416Y-75455812D02*
X310591452Y-74805776D01*
X229750890Y-78270944D02*
X229552500Y-78469334D01*
X307643560Y-78270944D02*
X229750890Y-78270944D01*
X310591452Y-75323052D02*
X310458692Y-75455812D01*
X310458692Y-75455812D02*
X307643560Y-78270944D01*
X310957222Y-74957282D02*
X310458692Y-75455812D01*
X310957222Y-68011734D02*
X310957222Y-74957282D01*
X312259912Y-66709044D02*
X310957222Y-68011734D01*
X312259912Y-63147624D02*
X312259912Y-66709044D01*
X248602500Y-64135000D02*
X250983750Y-64135000D01*
X307795066Y-78636714D02*
X249300998Y-78636714D01*
X249300998Y-78636714D02*
X249058856Y-78878856D01*
X310957222Y-75474558D02*
X310827140Y-75604640D01*
X310827140Y-75604640D02*
X307795066Y-78636714D01*
X311322992Y-75108788D02*
X310827140Y-75604640D01*
X311322992Y-68163240D02*
X311322992Y-75108788D01*
X316706000Y-62780232D02*
X311322992Y-68163240D01*
X316706000Y-61640512D02*
X316706000Y-62780232D01*
X316513112Y-61447624D02*
X316706000Y-61640512D01*
X315559912Y-61447624D02*
X316513112Y-61447624D01*
X317071770Y-61206282D02*
X317071770Y-61489006D01*
X315559912Y-60647624D02*
X316513112Y-60647624D01*
X316513112Y-60647624D02*
X317071770Y-61206282D01*
X317071770Y-62931738D02*
X311688762Y-68314746D01*
X317071770Y-61489006D02*
X317071770Y-62931738D01*
X311688762Y-75260294D02*
X307946572Y-79002484D01*
X311688762Y-68314746D02*
X311688762Y-75260294D01*
X307946572Y-79002484D02*
X268684118Y-79002484D01*
X268684118Y-79002484D02*
X268485728Y-79200874D01*
X276383750Y-61595000D02*
X278765000Y-61595000D01*
X317437540Y-61054776D02*
X317437540Y-63083244D01*
X315559912Y-59847624D02*
X316230388Y-59847624D01*
X316230388Y-59847624D02*
X317437540Y-61054776D01*
X317437540Y-63083244D02*
X312054532Y-68466252D01*
X312054532Y-75411800D02*
X308098078Y-79368254D01*
X312054532Y-68466252D02*
X312054532Y-75411800D01*
X288031758Y-79368254D02*
X287833368Y-79566644D01*
X308098078Y-79368254D02*
X288031758Y-79368254D01*
X309928026Y-83709086D02*
X310157948Y-83939008D01*
X312786072Y-75714812D02*
X309928026Y-78572858D01*
X318169080Y-63386256D02*
X312786072Y-68769264D01*
X312786072Y-68769264D02*
X312786072Y-75714812D01*
X315559912Y-58247624D02*
X316513112Y-58247624D01*
X309928026Y-78572858D02*
X309928026Y-83709086D01*
X316513112Y-58247624D02*
X318169080Y-59903592D01*
X318169080Y-59903592D02*
X318169080Y-63386256D01*
D29*
X311531000Y-29434000D02*
X313593000Y-29434000D01*
X313593000Y-29434000D02*
X313593000Y-29434000D01*
X319532000Y-27695000D02*
X319537000Y-27690000D01*
X319532000Y-29337000D02*
X319532000Y-27695000D01*
X308229000Y-25146000D02*
X311404000Y-25146000D01*
X311404000Y-25146000D02*
X311404000Y-25146000D01*
X316992000Y-26355000D02*
X316982000Y-26365000D01*
X316982000Y-26365000D02*
X316982000Y-25791000D01*
X316982000Y-25791000D02*
X316357000Y-25166000D01*
X315559912Y-54247624D02*
X317227096Y-54247624D01*
X317227096Y-54247624D02*
X317598968Y-53875752D01*
X317598968Y-53875752D02*
X317598968Y-53429268D01*
X317598968Y-53429268D02*
X316557172Y-52387472D01*
X316557172Y-50854660D02*
X317703264Y-49708568D01*
X316557172Y-52387472D02*
X316557172Y-51345676D01*
X316557172Y-51345676D02*
X316557172Y-50854660D01*
X299590780Y-60721840D02*
X300334920Y-59977700D01*
X293340004Y-60721840D02*
X299590780Y-60721840D01*
X291231250Y-58613086D02*
X293340004Y-60721840D01*
X291231250Y-57681250D02*
X291231250Y-58613086D01*
X302864992Y-63147624D02*
X301525544Y-64487072D01*
X305859912Y-63147624D02*
X302864992Y-63147624D01*
X297507188Y-64487072D02*
X301525544Y-64487072D01*
D31*
G36*
X326686617Y-62976088D02*
G01*
X318905680Y-62976088D01*
X318905680Y-59939767D01*
X318909243Y-59903591D01*
X318905680Y-59867415D01*
X318905680Y-59867406D01*
X318895022Y-59759193D01*
X318852902Y-59620343D01*
X318784504Y-59492379D01*
X318692454Y-59380217D01*
X318664348Y-59357151D01*
X318023624Y-58716427D01*
X318023624Y-58184224D01*
X318395640Y-58184224D01*
X320849428Y-60638013D01*
X320849428Y-61178125D01*
X320866372Y-61350160D01*
X320916553Y-61515584D01*
X320998042Y-61668039D01*
X321107708Y-61801667D01*
X321241336Y-61911333D01*
X321393791Y-61992822D01*
X321559215Y-62043003D01*
X321731250Y-62059947D01*
X322218750Y-62059947D01*
X322390785Y-62043003D01*
X322556209Y-61992822D01*
X322708664Y-61911333D01*
X322842292Y-61801667D01*
X322847508Y-61795311D01*
X322911315Y-61873060D01*
X323008006Y-61952412D01*
X323118320Y-62011377D01*
X323238018Y-62047687D01*
X323362500Y-62059947D01*
X323564250Y-62056875D01*
X323723000Y-61898125D01*
X323723000Y-60848875D01*
X323977000Y-60848875D01*
X323977000Y-61898125D01*
X324135750Y-62056875D01*
X324337500Y-62059947D01*
X324461982Y-62047687D01*
X324581680Y-62011377D01*
X324691994Y-61952412D01*
X324788685Y-61873060D01*
X324868037Y-61776369D01*
X324927002Y-61666055D01*
X324963312Y-61546357D01*
X324975572Y-61421875D01*
X324972500Y-61007625D01*
X324813750Y-60848875D01*
X323977000Y-60848875D01*
X323723000Y-60848875D01*
X323703000Y-60848875D01*
X323703000Y-60594875D01*
X323723000Y-60594875D01*
X323723000Y-59545625D01*
X323641685Y-59464310D01*
X323679776Y-59426218D01*
X323679776Y-58376968D01*
X323933776Y-58376968D01*
X323933776Y-59426218D01*
X324015092Y-59507534D01*
X323977000Y-59545625D01*
X323977000Y-60594875D01*
X324813750Y-60594875D01*
X324972500Y-60436125D01*
X324975572Y-60021875D01*
X324963312Y-59897393D01*
X324927002Y-59777695D01*
X324868037Y-59667381D01*
X324788685Y-59570690D01*
X324711324Y-59507202D01*
X324761270Y-59480505D01*
X324857961Y-59401153D01*
X324937313Y-59304462D01*
X324996278Y-59194148D01*
X325032588Y-59074450D01*
X325044848Y-58949968D01*
X325041776Y-58535718D01*
X324883026Y-58376968D01*
X323933776Y-58376968D01*
X323679776Y-58376968D01*
X323659776Y-58376968D01*
X323659776Y-58122968D01*
X323679776Y-58122968D01*
X323679776Y-58102968D01*
X323933776Y-58102968D01*
X323933776Y-58122968D01*
X324883026Y-58122968D01*
X325041776Y-57964218D01*
X325044848Y-57549968D01*
X325032588Y-57425486D01*
X324996278Y-57305788D01*
X324937313Y-57195474D01*
X324899967Y-57149968D01*
X324937313Y-57104462D01*
X324996278Y-56994148D01*
X325032588Y-56874450D01*
X325044848Y-56749968D01*
X325044848Y-55349968D01*
X325032588Y-55225486D01*
X324996278Y-55105788D01*
X324937313Y-54995474D01*
X324857961Y-54898783D01*
X324761270Y-54819431D01*
X324738163Y-54807080D01*
X324832961Y-54729281D01*
X324912313Y-54632590D01*
X324971278Y-54522276D01*
X325007588Y-54402578D01*
X325019848Y-54278096D01*
X325016776Y-53863846D01*
X324858026Y-53705096D01*
X324021276Y-53705096D01*
X324021276Y-53725096D01*
X323767276Y-53725096D01*
X323767276Y-53705096D01*
X323747276Y-53705096D01*
X323747276Y-53451096D01*
X323767276Y-53451096D01*
X323767276Y-52401846D01*
X324021276Y-52401846D01*
X324021276Y-53451096D01*
X324858026Y-53451096D01*
X325016776Y-53292346D01*
X325019848Y-52878096D01*
X325007588Y-52753614D01*
X324971278Y-52633916D01*
X324912313Y-52523602D01*
X324832961Y-52426911D01*
X324736270Y-52347559D01*
X324625956Y-52288594D01*
X324506258Y-52252284D01*
X324381776Y-52240024D01*
X324180026Y-52243096D01*
X324021276Y-52401846D01*
X323767276Y-52401846D01*
X323608526Y-52243096D01*
X323406776Y-52240024D01*
X323282294Y-52252284D01*
X323162596Y-52288594D01*
X323052282Y-52347559D01*
X322955591Y-52426911D01*
X322891784Y-52504660D01*
X322886568Y-52498304D01*
X322752940Y-52388638D01*
X322600485Y-52307149D01*
X322435061Y-52256968D01*
X322263026Y-52240024D01*
X321775526Y-52240024D01*
X321603491Y-52256968D01*
X321438067Y-52307149D01*
X321285612Y-52388638D01*
X321151984Y-52498304D01*
X321042318Y-52631932D01*
X320960829Y-52784387D01*
X320910648Y-52949811D01*
X320893704Y-53121846D01*
X320893704Y-53661958D01*
X318644639Y-55911024D01*
X318023624Y-55911024D01*
X318023624Y-55766688D01*
X318078562Y-55737323D01*
X318204261Y-55634165D01*
X318230118Y-55602659D01*
X319195810Y-54636968D01*
X319227305Y-54611121D01*
X319253153Y-54579625D01*
X319253156Y-54579622D01*
X319330463Y-54485423D01*
X319407117Y-54342014D01*
X319419853Y-54300028D01*
X319454320Y-54186406D01*
X319466264Y-54065133D01*
X319466264Y-54065131D01*
X319470258Y-54024580D01*
X319466264Y-53984030D01*
X319466264Y-52770210D01*
X319470258Y-52729659D01*
X319460828Y-52633916D01*
X319454320Y-52567834D01*
X319451264Y-52557760D01*
X319451264Y-51919160D01*
X319705264Y-51919160D01*
X319705264Y-52968410D01*
X319864014Y-53127160D01*
X320065764Y-53130232D01*
X320190246Y-53117972D01*
X320309944Y-53081662D01*
X320420258Y-53022697D01*
X320516949Y-52943345D01*
X320596301Y-52846654D01*
X320655266Y-52736340D01*
X320691576Y-52616642D01*
X320703836Y-52492160D01*
X320700764Y-52077910D01*
X320542014Y-51919160D01*
X319705264Y-51919160D01*
X319451264Y-51919160D01*
X319431264Y-51919160D01*
X319431264Y-51665160D01*
X319451264Y-51665160D01*
X319451264Y-51645160D01*
X319705264Y-51645160D01*
X319705264Y-51665160D01*
X320542014Y-51665160D01*
X320700764Y-51506410D01*
X320702118Y-51323848D01*
X326686616Y-51323848D01*
X326686617Y-62976088D01*
X326686617Y-62976088D01*
G37*
X326686617Y-62976088D02*
X318905680Y-62976088D01*
X318905680Y-59939767D01*
X318909243Y-59903591D01*
X318905680Y-59867415D01*
X318905680Y-59867406D01*
X318895022Y-59759193D01*
X318852902Y-59620343D01*
X318784504Y-59492379D01*
X318692454Y-59380217D01*
X318664348Y-59357151D01*
X318023624Y-58716427D01*
X318023624Y-58184224D01*
X318395640Y-58184224D01*
X320849428Y-60638013D01*
X320849428Y-61178125D01*
X320866372Y-61350160D01*
X320916553Y-61515584D01*
X320998042Y-61668039D01*
X321107708Y-61801667D01*
X321241336Y-61911333D01*
X321393791Y-61992822D01*
X321559215Y-62043003D01*
X321731250Y-62059947D01*
X322218750Y-62059947D01*
X322390785Y-62043003D01*
X322556209Y-61992822D01*
X322708664Y-61911333D01*
X322842292Y-61801667D01*
X322847508Y-61795311D01*
X322911315Y-61873060D01*
X323008006Y-61952412D01*
X323118320Y-62011377D01*
X323238018Y-62047687D01*
X323362500Y-62059947D01*
X323564250Y-62056875D01*
X323723000Y-61898125D01*
X323723000Y-60848875D01*
X323977000Y-60848875D01*
X323977000Y-61898125D01*
X324135750Y-62056875D01*
X324337500Y-62059947D01*
X324461982Y-62047687D01*
X324581680Y-62011377D01*
X324691994Y-61952412D01*
X324788685Y-61873060D01*
X324868037Y-61776369D01*
X324927002Y-61666055D01*
X324963312Y-61546357D01*
X324975572Y-61421875D01*
X324972500Y-61007625D01*
X324813750Y-60848875D01*
X323977000Y-60848875D01*
X323723000Y-60848875D01*
X323703000Y-60848875D01*
X323703000Y-60594875D01*
X323723000Y-60594875D01*
X323723000Y-59545625D01*
X323641685Y-59464310D01*
X323679776Y-59426218D01*
X323679776Y-58376968D01*
X323933776Y-58376968D01*
X323933776Y-59426218D01*
X324015092Y-59507534D01*
X323977000Y-59545625D01*
X323977000Y-60594875D01*
X324813750Y-60594875D01*
X324972500Y-60436125D01*
X324975572Y-60021875D01*
X324963312Y-59897393D01*
X324927002Y-59777695D01*
X324868037Y-59667381D01*
X324788685Y-59570690D01*
X324711324Y-59507202D01*
X324761270Y-59480505D01*
X324857961Y-59401153D01*
X324937313Y-59304462D01*
X324996278Y-59194148D01*
X325032588Y-59074450D01*
X325044848Y-58949968D01*
X325041776Y-58535718D01*
X324883026Y-58376968D01*
X323933776Y-58376968D01*
X323679776Y-58376968D01*
X323659776Y-58376968D01*
X323659776Y-58122968D01*
X323679776Y-58122968D01*
X323679776Y-58102968D01*
X323933776Y-58102968D01*
X323933776Y-58122968D01*
X324883026Y-58122968D01*
X325041776Y-57964218D01*
X325044848Y-57549968D01*
X325032588Y-57425486D01*
X324996278Y-57305788D01*
X324937313Y-57195474D01*
X324899967Y-57149968D01*
X324937313Y-57104462D01*
X324996278Y-56994148D01*
X325032588Y-56874450D01*
X325044848Y-56749968D01*
X325044848Y-55349968D01*
X325032588Y-55225486D01*
X324996278Y-55105788D01*
X324937313Y-54995474D01*
X324857961Y-54898783D01*
X324761270Y-54819431D01*
X324738163Y-54807080D01*
X324832961Y-54729281D01*
X324912313Y-54632590D01*
X324971278Y-54522276D01*
X325007588Y-54402578D01*
X325019848Y-54278096D01*
X325016776Y-53863846D01*
X324858026Y-53705096D01*
X324021276Y-53705096D01*
X324021276Y-53725096D01*
X323767276Y-53725096D01*
X323767276Y-53705096D01*
X323747276Y-53705096D01*
X323747276Y-53451096D01*
X323767276Y-53451096D01*
X323767276Y-52401846D01*
X324021276Y-52401846D01*
X324021276Y-53451096D01*
X324858026Y-53451096D01*
X325016776Y-53292346D01*
X325019848Y-52878096D01*
X325007588Y-52753614D01*
X324971278Y-52633916D01*
X324912313Y-52523602D01*
X324832961Y-52426911D01*
X324736270Y-52347559D01*
X324625956Y-52288594D01*
X324506258Y-52252284D01*
X324381776Y-52240024D01*
X324180026Y-52243096D01*
X324021276Y-52401846D01*
X323767276Y-52401846D01*
X323608526Y-52243096D01*
X323406776Y-52240024D01*
X323282294Y-52252284D01*
X323162596Y-52288594D01*
X323052282Y-52347559D01*
X322955591Y-52426911D01*
X322891784Y-52504660D01*
X322886568Y-52498304D01*
X322752940Y-52388638D01*
X322600485Y-52307149D01*
X322435061Y-52256968D01*
X322263026Y-52240024D01*
X321775526Y-52240024D01*
X321603491Y-52256968D01*
X321438067Y-52307149D01*
X321285612Y-52388638D01*
X321151984Y-52498304D01*
X321042318Y-52631932D01*
X320960829Y-52784387D01*
X320910648Y-52949811D01*
X320893704Y-53121846D01*
X320893704Y-53661958D01*
X318644639Y-55911024D01*
X318023624Y-55911024D01*
X318023624Y-55766688D01*
X318078562Y-55737323D01*
X318204261Y-55634165D01*
X318230118Y-55602659D01*
X319195810Y-54636968D01*
X319227305Y-54611121D01*
X319253153Y-54579625D01*
X319253156Y-54579622D01*
X319330463Y-54485423D01*
X319407117Y-54342014D01*
X319419853Y-54300028D01*
X319454320Y-54186406D01*
X319466264Y-54065133D01*
X319466264Y-54065131D01*
X319470258Y-54024580D01*
X319466264Y-53984030D01*
X319466264Y-52770210D01*
X319470258Y-52729659D01*
X319460828Y-52633916D01*
X319454320Y-52567834D01*
X319451264Y-52557760D01*
X319451264Y-51919160D01*
X319705264Y-51919160D01*
X319705264Y-52968410D01*
X319864014Y-53127160D01*
X320065764Y-53130232D01*
X320190246Y-53117972D01*
X320309944Y-53081662D01*
X320420258Y-53022697D01*
X320516949Y-52943345D01*
X320596301Y-52846654D01*
X320655266Y-52736340D01*
X320691576Y-52616642D01*
X320703836Y-52492160D01*
X320700764Y-52077910D01*
X320542014Y-51919160D01*
X319705264Y-51919160D01*
X319451264Y-51919160D01*
X319431264Y-51919160D01*
X319431264Y-51665160D01*
X319451264Y-51665160D01*
X319451264Y-51645160D01*
X319705264Y-51645160D01*
X319705264Y-51665160D01*
X320542014Y-51665160D01*
X320700764Y-51506410D01*
X320702118Y-51323848D01*
X326686616Y-51323848D01*
X326686617Y-62976088D01*
G36*
X321030526Y-55922968D02*
G01*
X321979776Y-55922968D01*
X321979776Y-55902968D01*
X322233776Y-55902968D01*
X322233776Y-55922968D01*
X322253776Y-55922968D01*
X322253776Y-56176968D01*
X322233776Y-56176968D01*
X322233776Y-56196968D01*
X321979776Y-56196968D01*
X321979776Y-56176968D01*
X321030526Y-56176968D01*
X320871776Y-56335718D01*
X320868704Y-56749968D01*
X320880964Y-56874450D01*
X320917274Y-56994148D01*
X320976239Y-57104462D01*
X321013585Y-57149968D01*
X320976239Y-57195474D01*
X320917274Y-57305788D01*
X320880964Y-57425486D01*
X320868704Y-57549968D01*
X320868704Y-58573869D01*
X319469119Y-57174285D01*
X319473123Y-57170999D01*
X319496194Y-57142887D01*
X320873320Y-55765762D01*
X321030526Y-55922968D01*
X321030526Y-55922968D01*
G37*
X321030526Y-55922968D02*
X321979776Y-55922968D01*
X321979776Y-55902968D01*
X322233776Y-55902968D01*
X322233776Y-55922968D01*
X322253776Y-55922968D01*
X322253776Y-56176968D01*
X322233776Y-56176968D01*
X322233776Y-56196968D01*
X321979776Y-56196968D01*
X321979776Y-56176968D01*
X321030526Y-56176968D01*
X320871776Y-56335718D01*
X320868704Y-56749968D01*
X320880964Y-56874450D01*
X320917274Y-56994148D01*
X320976239Y-57104462D01*
X321013585Y-57149968D01*
X320976239Y-57195474D01*
X320917274Y-57305788D01*
X320880964Y-57425486D01*
X320868704Y-57549968D01*
X320868704Y-58573869D01*
X319469119Y-57174285D01*
X319473123Y-57170999D01*
X319496194Y-57142887D01*
X320873320Y-55765762D01*
X321030526Y-55922968D01*
M02*
