M48
INCH
T1C0.0689
T2C0.1200
T3C0.1570
%
G90
G05
T1
X3.9925Y-6.245
X4.3925Y-6.245
X12.3362Y-6.245
X12.7363Y-6.245
X9.8987Y-6.995
X10.2988Y-6.995
X4.18Y-4.745
X4.58Y-4.745
X8.68Y-4.745
X9.08Y-4.745
X3.6175Y-5.495
X4.0175Y-5.495
X10.7425Y-6.245
X11.1425Y-6.245
X11.68Y-6.995
X12.08Y-6.995
X8.4925Y-6.245
X8.8925Y-6.245
X3.43Y-4.745
X3.83Y-4.745
X6.5237Y-6.995
X6.9238Y-6.995
X7.18Y-4.745
X7.58Y-4.745
X5.2112Y-6.995
X5.6113Y-6.995
X7.3675Y-5.495
X7.7675Y-5.495
X11.5862Y-6.245
X11.9863Y-6.245
X13.3675Y-7.1825
X13.7675Y-7.1825
X9.9925Y-6.245
X10.3925Y-6.245
X10.3675Y-5.495
X10.7675Y-5.495
X4.2737Y-6.995
X4.6738Y-6.995
X5.68Y-4.745
X6.08Y-4.745
X4.7425Y-6.245
X5.1425Y-6.245
X11.4925Y-6.245
X11.8925Y-6.245
X7.7425Y-6.245
X8.1425Y-6.245
X8.1175Y-5.495
X8.5175Y-5.495
X4.93Y-4.745
X5.33Y-4.745
X6.43Y-4.745
X6.83Y-4.745
X2.9612Y-6.245
X3.3613Y-6.245
X12.43Y-6.245
X12.83Y-6.245
X5.4925Y-6.245
X5.8925Y-6.245
X5.8675Y-5.495
X6.2675Y-5.495
X3.43Y-6.995
X3.83Y-6.995
X11.68Y-4.745
X12.08Y-4.745
X10.8362Y-6.995
X11.2363Y-6.995
X8.8675Y-5.495
X9.2675Y-5.495
X12.43Y-4.745
X12.83Y-4.745
X11.1175Y-5.495
X11.5175Y-5.495
X10.18Y-4.745
X10.58Y-4.745
X12.1487Y-5.495
X12.5488Y-5.495
X10.93Y-4.745
X11.33Y-4.745
X4.3675Y-5.495
X4.7675Y-5.495
X9.43Y-4.745
X9.83Y-4.745
X6.2425Y-6.245
X6.6425Y-6.245
X9.2425Y-6.245
X9.6425Y-6.245
X2.7737Y-5.495
X3.1738Y-5.495
X6.6175Y-5.495
X7.0175Y-5.495
X2.68Y-4.745
X3.08Y-4.745
X9.6175Y-5.495
X10.0175Y-5.495
X5.1175Y-5.495
X5.5175Y-5.495
X13.3675Y-6.4325
X13.7675Y-6.4325
X13.3675Y-4.745
X13.7675Y-4.745
X14.1175Y-7.1825
X14.5175Y-7.1825
X6.9925Y-6.245
X7.3925Y-6.245
X12.6175Y-7.1825
X13.0175Y-7.1825
X13.3675Y-5.495
X13.7675Y-5.495
X8.3987Y-6.995
X8.7988Y-6.995
X7.93Y-4.745
X8.33Y-4.745
T2
X8.13Y-7.27
X9.0675Y-7.27
X6.255Y-7.27
X7.1925Y-7.27
T3
X12.63Y-4.745
X11.3175Y-5.495
X10.38Y-4.745
X12.3487Y-5.495
X11.13Y-4.745
X4.5675Y-5.495
X9.63Y-4.745
X6.4425Y-6.245
X9.4425Y-6.245
X2.9737Y-5.495
X6.8175Y-5.495
X2.88Y-4.745
X9.8175Y-5.495
X5.3175Y-5.495
X13.5675Y-6.4325
X13.5675Y-4.745
X14.3175Y-7.1825
X7.1925Y-6.245
X12.8175Y-7.1825
X13.5675Y-5.495
X8.13Y-6.67
X8.5987Y-6.995
X9.0675Y-6.67
X8.13Y-4.745
X4.1925Y-6.245
X12.5362Y-6.245
X10.0987Y-6.995
X4.38Y-4.745
X8.88Y-4.745
X3.8175Y-5.495
X10.9425Y-6.245
X11.88Y-6.995
X8.6925Y-6.245
X3.63Y-4.745
X6.255Y-6.67
X6.7237Y-6.995
X7.1925Y-6.67
X7.38Y-4.745
X5.4112Y-6.995
X7.5675Y-5.495
X11.7862Y-6.245
X13.5675Y-7.1825
X10.1925Y-6.245
X10.5675Y-5.495
X4.4737Y-6.995
X5.88Y-4.745
X4.9425Y-6.245
X11.6925Y-6.245
X7.9425Y-6.245
X8.3175Y-5.495
X5.13Y-4.745
X6.63Y-4.745
X3.1612Y-6.245
X12.63Y-6.245
X5.6925Y-6.245
X6.0675Y-5.495
X3.63Y-6.995
X11.88Y-4.745
X11.0362Y-6.995
X9.0675Y-5.495
T0
M30
