%TF.GenerationSoftware,KiCad,Pcbnew,5.1.2*%
%TF.CreationDate,2019-06-09T19:24:23-04:00*%
%TF.ProjectId,CoquiKeyboard,436f7175-694b-4657-9962-6f6172642e6b,rev?*%
%TF.SameCoordinates,Original*%
%TF.FileFunction,Paste,Bot*%
%TF.FilePolarity,Positive*%
%FSLAX46Y46*%
G04 Gerber Fmt 4.6, Leading zero omitted, Abs format (unit mm)*
G04 Created by KiCad (PCBNEW 5.1.2) date 2019-06-09 19:24:23*
%MOMM*%
%LPD*%
G04 APERTURE LIST*
%ADD10C,0.100000*%
%ADD11C,0.150000*%
%ADD12C,0.300000*%
%ADD13C,0.400000*%
%ADD14R,1.200000X0.900000*%
%ADD15C,0.975000*%
%ADD16C,1.250000*%
%ADD17R,1.800000X1.100000*%
%ADD18R,1.500000X0.550000*%
%ADD19R,0.550000X1.500000*%
%ADD20R,1.200000X1.400000*%
G04 APERTURE END LIST*
D10*
D11*
X177002200Y-166007200D02*
X177002200Y-198007200D01*
X285002200Y-198007200D01*
X285002200Y-166007200D01*
X177002200Y-166007200D01*
D10*
D11*
X10000000Y-10000000D02*
X10000000Y-200007200D01*
X287002200Y-200007200D01*
X287002200Y-10000000D01*
X10000000Y-10000000D01*
D10*
D11*
X12000000Y-12000000D02*
X12000000Y-198007200D01*
X285002200Y-198007200D01*
X285002200Y-12000000D01*
X12000000Y-12000000D01*
D10*
D11*
X60000000Y-12000000D02*
X60000000Y-10000000D01*
D10*
D11*
X110000000Y-12000000D02*
X110000000Y-10000000D01*
D10*
D11*
X160000000Y-12000000D02*
X160000000Y-10000000D01*
D10*
D11*
X210000000Y-12000000D02*
X210000000Y-10000000D01*
D10*
D11*
X260000000Y-12000000D02*
X260000000Y-10000000D01*
D10*
D11*
X36065476Y-11588095D02*
X35322619Y-11588095D01*
X35694047Y-11588095D02*
X35694047Y-10288095D01*
X35570238Y-10473809D01*
X35446428Y-10597619D01*
X35322619Y-10659523D01*
D10*
D11*
X85322619Y-10411904D02*
X85384523Y-10350000D01*
X85508333Y-10288095D01*
X85817857Y-10288095D01*
X85941666Y-10350000D01*
X86003571Y-10411904D01*
X86065476Y-10535714D01*
X86065476Y-10659523D01*
X86003571Y-10845238D01*
X85260714Y-11588095D01*
X86065476Y-11588095D01*
D10*
D11*
X135260714Y-10288095D02*
X136065476Y-10288095D01*
X135632142Y-10783333D01*
X135817857Y-10783333D01*
X135941666Y-10845238D01*
X136003571Y-10907142D01*
X136065476Y-11030952D01*
X136065476Y-11340476D01*
X136003571Y-11464285D01*
X135941666Y-11526190D01*
X135817857Y-11588095D01*
X135446428Y-11588095D01*
X135322619Y-11526190D01*
X135260714Y-11464285D01*
D10*
D11*
X185941666Y-10721428D02*
X185941666Y-11588095D01*
X185632142Y-10226190D02*
X185322619Y-11154761D01*
X186127380Y-11154761D01*
D10*
D11*
X236003571Y-10288095D02*
X235384523Y-10288095D01*
X235322619Y-10907142D01*
X235384523Y-10845238D01*
X235508333Y-10783333D01*
X235817857Y-10783333D01*
X235941666Y-10845238D01*
X236003571Y-10907142D01*
X236065476Y-11030952D01*
X236065476Y-11340476D01*
X236003571Y-11464285D01*
X235941666Y-11526190D01*
X235817857Y-11588095D01*
X235508333Y-11588095D01*
X235384523Y-11526190D01*
X235322619Y-11464285D01*
D10*
D11*
X285941666Y-10288095D02*
X285694047Y-10288095D01*
X285570238Y-10350000D01*
X285508333Y-10411904D01*
X285384523Y-10597619D01*
X285322619Y-10845238D01*
X285322619Y-11340476D01*
X285384523Y-11464285D01*
X285446428Y-11526190D01*
X285570238Y-11588095D01*
X285817857Y-11588095D01*
X285941666Y-11526190D01*
X286003571Y-11464285D01*
X286065476Y-11340476D01*
X286065476Y-11030952D01*
X286003571Y-10907142D01*
X285941666Y-10845238D01*
X285817857Y-10783333D01*
X285570238Y-10783333D01*
X285446428Y-10845238D01*
X285384523Y-10907142D01*
X285322619Y-11030952D01*
D10*
D11*
X60000000Y-198007200D02*
X60000000Y-200007200D01*
D10*
D11*
X110000000Y-198007200D02*
X110000000Y-200007200D01*
D10*
D11*
X160000000Y-198007200D02*
X160000000Y-200007200D01*
D10*
D11*
X210000000Y-198007200D02*
X210000000Y-200007200D01*
D10*
D11*
X260000000Y-198007200D02*
X260000000Y-200007200D01*
D10*
D11*
X36065476Y-199595295D02*
X35322619Y-199595295D01*
X35694047Y-199595295D02*
X35694047Y-198295295D01*
X35570238Y-198481009D01*
X35446428Y-198604819D01*
X35322619Y-198666723D01*
D10*
D11*
X85322619Y-198419104D02*
X85384523Y-198357200D01*
X85508333Y-198295295D01*
X85817857Y-198295295D01*
X85941666Y-198357200D01*
X86003571Y-198419104D01*
X86065476Y-198542914D01*
X86065476Y-198666723D01*
X86003571Y-198852438D01*
X85260714Y-199595295D01*
X86065476Y-199595295D01*
D10*
D11*
X135260714Y-198295295D02*
X136065476Y-198295295D01*
X135632142Y-198790533D01*
X135817857Y-198790533D01*
X135941666Y-198852438D01*
X136003571Y-198914342D01*
X136065476Y-199038152D01*
X136065476Y-199347676D01*
X136003571Y-199471485D01*
X135941666Y-199533390D01*
X135817857Y-199595295D01*
X135446428Y-199595295D01*
X135322619Y-199533390D01*
X135260714Y-199471485D01*
D10*
D11*
X185941666Y-198728628D02*
X185941666Y-199595295D01*
X185632142Y-198233390D02*
X185322619Y-199161961D01*
X186127380Y-199161961D01*
D10*
D11*
X236003571Y-198295295D02*
X235384523Y-198295295D01*
X235322619Y-198914342D01*
X235384523Y-198852438D01*
X235508333Y-198790533D01*
X235817857Y-198790533D01*
X235941666Y-198852438D01*
X236003571Y-198914342D01*
X236065476Y-199038152D01*
X236065476Y-199347676D01*
X236003571Y-199471485D01*
X235941666Y-199533390D01*
X235817857Y-199595295D01*
X235508333Y-199595295D01*
X235384523Y-199533390D01*
X235322619Y-199471485D01*
D10*
D11*
X285941666Y-198295295D02*
X285694047Y-198295295D01*
X285570238Y-198357200D01*
X285508333Y-198419104D01*
X285384523Y-198604819D01*
X285322619Y-198852438D01*
X285322619Y-199347676D01*
X285384523Y-199471485D01*
X285446428Y-199533390D01*
X285570238Y-199595295D01*
X285817857Y-199595295D01*
X285941666Y-199533390D01*
X286003571Y-199471485D01*
X286065476Y-199347676D01*
X286065476Y-199038152D01*
X286003571Y-198914342D01*
X285941666Y-198852438D01*
X285817857Y-198790533D01*
X285570238Y-198790533D01*
X285446428Y-198852438D01*
X285384523Y-198914342D01*
X285322619Y-199038152D01*
D10*
D11*
X10000000Y-60000000D02*
X12000000Y-60000000D01*
D10*
D11*
X10000000Y-110000000D02*
X12000000Y-110000000D01*
D10*
D11*
X10000000Y-160000000D02*
X12000000Y-160000000D01*
D10*
D11*
X10690476Y-35216666D02*
X11309523Y-35216666D01*
X10566666Y-35588095D02*
X11000000Y-34288095D01*
X11433333Y-35588095D01*
D10*
D11*
X11092857Y-84907142D02*
X11278571Y-84969047D01*
X11340476Y-85030952D01*
X11402380Y-85154761D01*
X11402380Y-85340476D01*
X11340476Y-85464285D01*
X11278571Y-85526190D01*
X11154761Y-85588095D01*
X10659523Y-85588095D01*
X10659523Y-84288095D01*
X11092857Y-84288095D01*
X11216666Y-84350000D01*
X11278571Y-84411904D01*
X11340476Y-84535714D01*
X11340476Y-84659523D01*
X11278571Y-84783333D01*
X11216666Y-84845238D01*
X11092857Y-84907142D01*
X10659523Y-84907142D01*
D10*
D11*
X11402380Y-135464285D02*
X11340476Y-135526190D01*
X11154761Y-135588095D01*
X11030952Y-135588095D01*
X10845238Y-135526190D01*
X10721428Y-135402380D01*
X10659523Y-135278571D01*
X10597619Y-135030952D01*
X10597619Y-134845238D01*
X10659523Y-134597619D01*
X10721428Y-134473809D01*
X10845238Y-134350000D01*
X11030952Y-134288095D01*
X11154761Y-134288095D01*
X11340476Y-134350000D01*
X11402380Y-134411904D01*
D10*
D11*
X10659523Y-185588095D02*
X10659523Y-184288095D01*
X10969047Y-184288095D01*
X11154761Y-184350000D01*
X11278571Y-184473809D01*
X11340476Y-184597619D01*
X11402380Y-184845238D01*
X11402380Y-185030952D01*
X11340476Y-185278571D01*
X11278571Y-185402380D01*
X11154761Y-185526190D01*
X10969047Y-185588095D01*
X10659523Y-185588095D01*
D10*
D11*
X287002200Y-60000000D02*
X285002200Y-60000000D01*
D10*
D11*
X287002200Y-110000000D02*
X285002200Y-110000000D01*
D10*
D11*
X287002200Y-160000000D02*
X285002200Y-160000000D01*
D10*
D11*
X285692676Y-35216666D02*
X286311723Y-35216666D01*
X285568866Y-35588095D02*
X286002200Y-34288095D01*
X286435533Y-35588095D01*
D10*
D11*
X286095057Y-84907142D02*
X286280771Y-84969047D01*
X286342676Y-85030952D01*
X286404580Y-85154761D01*
X286404580Y-85340476D01*
X286342676Y-85464285D01*
X286280771Y-85526190D01*
X286156961Y-85588095D01*
X285661723Y-85588095D01*
X285661723Y-84288095D01*
X286095057Y-84288095D01*
X286218866Y-84350000D01*
X286280771Y-84411904D01*
X286342676Y-84535714D01*
X286342676Y-84659523D01*
X286280771Y-84783333D01*
X286218866Y-84845238D01*
X286095057Y-84907142D01*
X285661723Y-84907142D01*
D10*
D11*
X286404580Y-135464285D02*
X286342676Y-135526190D01*
X286156961Y-135588095D01*
X286033152Y-135588095D01*
X285847438Y-135526190D01*
X285723628Y-135402380D01*
X285661723Y-135278571D01*
X285599819Y-135030952D01*
X285599819Y-134845238D01*
X285661723Y-134597619D01*
X285723628Y-134473809D01*
X285847438Y-134350000D01*
X286033152Y-134288095D01*
X286156961Y-134288095D01*
X286342676Y-134350000D01*
X286404580Y-134411904D01*
D10*
D11*
X285661723Y-185588095D02*
X285661723Y-184288095D01*
X285971247Y-184288095D01*
X286156961Y-184350000D01*
X286280771Y-184473809D01*
X286342676Y-184597619D01*
X286404580Y-184845238D01*
X286404580Y-185030952D01*
X286342676Y-185278571D01*
X286280771Y-185402380D01*
X286156961Y-185526190D01*
X285971247Y-185588095D01*
X285661723Y-185588095D01*
D10*
D11*
X200434342Y-193785771D02*
X200434342Y-192285771D01*
X200791485Y-192285771D01*
X201005771Y-192357200D01*
X201148628Y-192500057D01*
X201220057Y-192642914D01*
X201291485Y-192928628D01*
X201291485Y-193142914D01*
X201220057Y-193428628D01*
X201148628Y-193571485D01*
X201005771Y-193714342D01*
X200791485Y-193785771D01*
X200434342Y-193785771D01*
X202577200Y-193785771D02*
X202577200Y-193000057D01*
X202505771Y-192857200D01*
X202362914Y-192785771D01*
X202077200Y-192785771D01*
X201934342Y-192857200D01*
X202577200Y-193714342D02*
X202434342Y-193785771D01*
X202077200Y-193785771D01*
X201934342Y-193714342D01*
X201862914Y-193571485D01*
X201862914Y-193428628D01*
X201934342Y-193285771D01*
X202077200Y-193214342D01*
X202434342Y-193214342D01*
X202577200Y-193142914D01*
X203077200Y-192785771D02*
X203648628Y-192785771D01*
X203291485Y-192285771D02*
X203291485Y-193571485D01*
X203362914Y-193714342D01*
X203505771Y-193785771D01*
X203648628Y-193785771D01*
X204720057Y-193714342D02*
X204577200Y-193785771D01*
X204291485Y-193785771D01*
X204148628Y-193714342D01*
X204077200Y-193571485D01*
X204077200Y-193000057D01*
X204148628Y-192857200D01*
X204291485Y-192785771D01*
X204577200Y-192785771D01*
X204720057Y-192857200D01*
X204791485Y-193000057D01*
X204791485Y-193142914D01*
X204077200Y-193285771D01*
X205434342Y-193642914D02*
X205505771Y-193714342D01*
X205434342Y-193785771D01*
X205362914Y-193714342D01*
X205434342Y-193642914D01*
X205434342Y-193785771D01*
X205434342Y-192857200D02*
X205505771Y-192928628D01*
X205434342Y-193000057D01*
X205362914Y-192928628D01*
X205434342Y-192857200D01*
X205434342Y-193000057D01*
D10*
D11*
X177002200Y-194507200D02*
X285002200Y-194507200D01*
D10*
D11*
X178434342Y-196585771D02*
X178434342Y-195085771D01*
X179291485Y-196585771D02*
X178648628Y-195728628D01*
X179291485Y-195085771D02*
X178434342Y-195942914D01*
X179934342Y-196585771D02*
X179934342Y-195585771D01*
X179934342Y-195085771D02*
X179862914Y-195157200D01*
X179934342Y-195228628D01*
X180005771Y-195157200D01*
X179934342Y-195085771D01*
X179934342Y-195228628D01*
X181505771Y-196442914D02*
X181434342Y-196514342D01*
X181220057Y-196585771D01*
X181077200Y-196585771D01*
X180862914Y-196514342D01*
X180720057Y-196371485D01*
X180648628Y-196228628D01*
X180577200Y-195942914D01*
X180577200Y-195728628D01*
X180648628Y-195442914D01*
X180720057Y-195300057D01*
X180862914Y-195157200D01*
X181077200Y-195085771D01*
X181220057Y-195085771D01*
X181434342Y-195157200D01*
X181505771Y-195228628D01*
X182791485Y-196585771D02*
X182791485Y-195800057D01*
X182720057Y-195657200D01*
X182577200Y-195585771D01*
X182291485Y-195585771D01*
X182148628Y-195657200D01*
X182791485Y-196514342D02*
X182648628Y-196585771D01*
X182291485Y-196585771D01*
X182148628Y-196514342D01*
X182077200Y-196371485D01*
X182077200Y-196228628D01*
X182148628Y-196085771D01*
X182291485Y-196014342D01*
X182648628Y-196014342D01*
X182791485Y-195942914D01*
X184148628Y-196585771D02*
X184148628Y-195085771D01*
X184148628Y-196514342D02*
X184005771Y-196585771D01*
X183720057Y-196585771D01*
X183577200Y-196514342D01*
X183505771Y-196442914D01*
X183434342Y-196300057D01*
X183434342Y-195871485D01*
X183505771Y-195728628D01*
X183577200Y-195657200D01*
X183720057Y-195585771D01*
X184005771Y-195585771D01*
X184148628Y-195657200D01*
X186005771Y-195800057D02*
X186505771Y-195800057D01*
X186720057Y-196585771D02*
X186005771Y-196585771D01*
X186005771Y-195085771D01*
X186720057Y-195085771D01*
X187362914Y-196442914D02*
X187434342Y-196514342D01*
X187362914Y-196585771D01*
X187291485Y-196514342D01*
X187362914Y-196442914D01*
X187362914Y-196585771D01*
X188077200Y-196585771D02*
X188077200Y-195085771D01*
X188434342Y-195085771D01*
X188648628Y-195157200D01*
X188791485Y-195300057D01*
X188862914Y-195442914D01*
X188934342Y-195728628D01*
X188934342Y-195942914D01*
X188862914Y-196228628D01*
X188791485Y-196371485D01*
X188648628Y-196514342D01*
X188434342Y-196585771D01*
X188077200Y-196585771D01*
X189577200Y-196442914D02*
X189648628Y-196514342D01*
X189577200Y-196585771D01*
X189505771Y-196514342D01*
X189577200Y-196442914D01*
X189577200Y-196585771D01*
X190220057Y-196157200D02*
X190934342Y-196157200D01*
X190077200Y-196585771D02*
X190577200Y-195085771D01*
X191077200Y-196585771D01*
X191577200Y-196442914D02*
X191648628Y-196514342D01*
X191577200Y-196585771D01*
X191505771Y-196514342D01*
X191577200Y-196442914D01*
X191577200Y-196585771D01*
X194577200Y-195585771D02*
X194577200Y-197085771D01*
X194577200Y-195657200D02*
X194720057Y-195585771D01*
X195005771Y-195585771D01*
X195148628Y-195657200D01*
X195220057Y-195728628D01*
X195291485Y-195871485D01*
X195291485Y-196300057D01*
X195220057Y-196442914D01*
X195148628Y-196514342D01*
X195005771Y-196585771D01*
X194720057Y-196585771D01*
X194577200Y-196514342D01*
X196577200Y-196514342D02*
X196434342Y-196585771D01*
X196148628Y-196585771D01*
X196005771Y-196514342D01*
X195934342Y-196442914D01*
X195862914Y-196300057D01*
X195862914Y-195871485D01*
X195934342Y-195728628D01*
X196005771Y-195657200D01*
X196148628Y-195585771D01*
X196434342Y-195585771D01*
X196577200Y-195657200D01*
X197220057Y-196585771D02*
X197220057Y-195085771D01*
X197220057Y-195657200D02*
X197362914Y-195585771D01*
X197648628Y-195585771D01*
X197791485Y-195657200D01*
X197862914Y-195728628D01*
X197934342Y-195871485D01*
X197934342Y-196300057D01*
X197862914Y-196442914D01*
X197791485Y-196514342D01*
X197648628Y-196585771D01*
X197362914Y-196585771D01*
X197220057Y-196514342D01*
X198577200Y-195585771D02*
X198577200Y-196585771D01*
X198577200Y-195728628D02*
X198648628Y-195657200D01*
X198791485Y-195585771D01*
X199005771Y-195585771D01*
X199148628Y-195657200D01*
X199220057Y-195800057D01*
X199220057Y-196585771D01*
X200505771Y-196514342D02*
X200362914Y-196585771D01*
X200077200Y-196585771D01*
X199934342Y-196514342D01*
X199862914Y-196371485D01*
X199862914Y-195800057D01*
X199934342Y-195657200D01*
X200077200Y-195585771D01*
X200362914Y-195585771D01*
X200505771Y-195657200D01*
X200577200Y-195800057D01*
X200577200Y-195942914D01*
X199862914Y-196085771D01*
X201077200Y-195585771D02*
X201362914Y-196585771D01*
X201648628Y-195871485D01*
X201934342Y-196585771D01*
X202220057Y-195585771D01*
X204648628Y-195085771D02*
X203934342Y-195085771D01*
X203862914Y-195800057D01*
X203934342Y-195728628D01*
X204077200Y-195657200D01*
X204434342Y-195657200D01*
X204577200Y-195728628D01*
X204648628Y-195800057D01*
X204720057Y-195942914D01*
X204720057Y-196300057D01*
X204648628Y-196442914D01*
X204577200Y-196514342D01*
X204434342Y-196585771D01*
X204077200Y-196585771D01*
X203934342Y-196514342D01*
X203862914Y-196442914D01*
X205362914Y-196442914D02*
X205434342Y-196514342D01*
X205362914Y-196585771D01*
X205291485Y-196514342D01*
X205362914Y-196442914D01*
X205362914Y-196585771D01*
X206862914Y-196585771D02*
X206005771Y-196585771D01*
X206434342Y-196585771D02*
X206434342Y-195085771D01*
X206291485Y-195300057D01*
X206148628Y-195442914D01*
X206005771Y-195514342D01*
X207505771Y-196442914D02*
X207577200Y-196514342D01*
X207505771Y-196585771D01*
X207434342Y-196514342D01*
X207505771Y-196442914D01*
X207505771Y-196585771D01*
X208148628Y-195228628D02*
X208220057Y-195157200D01*
X208362914Y-195085771D01*
X208720057Y-195085771D01*
X208862914Y-195157200D01*
X208934342Y-195228628D01*
X209005771Y-195371485D01*
X209005771Y-195514342D01*
X208934342Y-195728628D01*
X208077200Y-196585771D01*
X209005771Y-196585771D01*
D10*
D11*
X177002200Y-191507200D02*
X285002200Y-191507200D01*
D10*
D12*
X264411485Y-193785771D02*
X263911485Y-193071485D01*
X263554342Y-193785771D02*
X263554342Y-192285771D01*
X264125771Y-192285771D01*
X264268628Y-192357200D01*
X264340057Y-192428628D01*
X264411485Y-192571485D01*
X264411485Y-192785771D01*
X264340057Y-192928628D01*
X264268628Y-193000057D01*
X264125771Y-193071485D01*
X263554342Y-193071485D01*
X265625771Y-193714342D02*
X265482914Y-193785771D01*
X265197200Y-193785771D01*
X265054342Y-193714342D01*
X264982914Y-193571485D01*
X264982914Y-193000057D01*
X265054342Y-192857200D01*
X265197200Y-192785771D01*
X265482914Y-192785771D01*
X265625771Y-192857200D01*
X265697200Y-193000057D01*
X265697200Y-193142914D01*
X264982914Y-193285771D01*
X266197200Y-192785771D02*
X266554342Y-193785771D01*
X266911485Y-192785771D01*
X267482914Y-193642914D02*
X267554342Y-193714342D01*
X267482914Y-193785771D01*
X267411485Y-193714342D01*
X267482914Y-193642914D01*
X267482914Y-193785771D01*
X267482914Y-192857200D02*
X267554342Y-192928628D01*
X267482914Y-193000057D01*
X267411485Y-192928628D01*
X267482914Y-192857200D01*
X267482914Y-193000057D01*
D10*
D11*
X178362914Y-193714342D02*
X178577200Y-193785771D01*
X178934342Y-193785771D01*
X179077200Y-193714342D01*
X179148628Y-193642914D01*
X179220057Y-193500057D01*
X179220057Y-193357200D01*
X179148628Y-193214342D01*
X179077200Y-193142914D01*
X178934342Y-193071485D01*
X178648628Y-193000057D01*
X178505771Y-192928628D01*
X178434342Y-192857200D01*
X178362914Y-192714342D01*
X178362914Y-192571485D01*
X178434342Y-192428628D01*
X178505771Y-192357200D01*
X178648628Y-192285771D01*
X179005771Y-192285771D01*
X179220057Y-192357200D01*
X179862914Y-193785771D02*
X179862914Y-192785771D01*
X179862914Y-192285771D02*
X179791485Y-192357200D01*
X179862914Y-192428628D01*
X179934342Y-192357200D01*
X179862914Y-192285771D01*
X179862914Y-192428628D01*
X180434342Y-192785771D02*
X181220057Y-192785771D01*
X180434342Y-193785771D01*
X181220057Y-193785771D01*
X182362914Y-193714342D02*
X182220057Y-193785771D01*
X181934342Y-193785771D01*
X181791485Y-193714342D01*
X181720057Y-193571485D01*
X181720057Y-193000057D01*
X181791485Y-192857200D01*
X181934342Y-192785771D01*
X182220057Y-192785771D01*
X182362914Y-192857200D01*
X182434342Y-193000057D01*
X182434342Y-193142914D01*
X181720057Y-193285771D01*
X183077200Y-193642914D02*
X183148628Y-193714342D01*
X183077200Y-193785771D01*
X183005771Y-193714342D01*
X183077200Y-193642914D01*
X183077200Y-193785771D01*
X183077200Y-192857200D02*
X183148628Y-192928628D01*
X183077200Y-193000057D01*
X183005771Y-192928628D01*
X183077200Y-192857200D01*
X183077200Y-193000057D01*
X184862914Y-193357200D02*
X185577200Y-193357200D01*
X184720057Y-193785771D02*
X185220057Y-192285771D01*
X185720057Y-193785771D01*
X186862914Y-192785771D02*
X186862914Y-193785771D01*
X186505771Y-192214342D02*
X186148628Y-193285771D01*
X187077200Y-193285771D01*
D10*
D11*
X263434342Y-196585771D02*
X263434342Y-195085771D01*
X264791485Y-196585771D02*
X264791485Y-195085771D01*
X264791485Y-196514342D02*
X264648628Y-196585771D01*
X264362914Y-196585771D01*
X264220057Y-196514342D01*
X264148628Y-196442914D01*
X264077200Y-196300057D01*
X264077200Y-195871485D01*
X264148628Y-195728628D01*
X264220057Y-195657200D01*
X264362914Y-195585771D01*
X264648628Y-195585771D01*
X264791485Y-195657200D01*
X265505771Y-196442914D02*
X265577200Y-196514342D01*
X265505771Y-196585771D01*
X265434342Y-196514342D01*
X265505771Y-196442914D01*
X265505771Y-196585771D01*
X265505771Y-195657200D02*
X265577200Y-195728628D01*
X265505771Y-195800057D01*
X265434342Y-195728628D01*
X265505771Y-195657200D01*
X265505771Y-195800057D01*
X268148628Y-196585771D02*
X267291485Y-196585771D01*
X267720057Y-196585771D02*
X267720057Y-195085771D01*
X267577200Y-195300057D01*
X267434342Y-195442914D01*
X267291485Y-195514342D01*
X269862914Y-195014342D02*
X268577200Y-196942914D01*
X271148628Y-196585771D02*
X270291485Y-196585771D01*
X270720057Y-196585771D02*
X270720057Y-195085771D01*
X270577200Y-195300057D01*
X270434342Y-195442914D01*
X270291485Y-195514342D01*
D10*
D11*
X177002200Y-187507200D02*
X285002200Y-187507200D01*
D10*
D13*
X178714580Y-188211961D02*
X179857438Y-188211961D01*
X179036009Y-190211961D02*
X179286009Y-188211961D01*
X180274104Y-190211961D02*
X180440771Y-188878628D01*
X180524104Y-188211961D02*
X180416961Y-188307200D01*
X180500295Y-188402438D01*
X180607438Y-188307200D01*
X180524104Y-188211961D01*
X180500295Y-188402438D01*
X181107438Y-188878628D02*
X181869342Y-188878628D01*
X181476485Y-188211961D02*
X181262200Y-189926247D01*
X181333628Y-190116723D01*
X181512200Y-190211961D01*
X181702676Y-190211961D01*
X182655057Y-190211961D02*
X182476485Y-190116723D01*
X182405057Y-189926247D01*
X182619342Y-188211961D01*
X184190771Y-190116723D02*
X183988390Y-190211961D01*
X183607438Y-190211961D01*
X183428866Y-190116723D01*
X183357438Y-189926247D01*
X183452676Y-189164342D01*
X183571723Y-188973866D01*
X183774104Y-188878628D01*
X184155057Y-188878628D01*
X184333628Y-188973866D01*
X184405057Y-189164342D01*
X184381247Y-189354819D01*
X183405057Y-189545295D01*
X185155057Y-190021485D02*
X185238390Y-190116723D01*
X185131247Y-190211961D01*
X185047914Y-190116723D01*
X185155057Y-190021485D01*
X185131247Y-190211961D01*
X185286009Y-188973866D02*
X185369342Y-189069104D01*
X185262200Y-189164342D01*
X185178866Y-189069104D01*
X185286009Y-188973866D01*
X185262200Y-189164342D01*
D10*
D11*
X178934342Y-185600057D02*
X178434342Y-185600057D01*
X178434342Y-186385771D02*
X178434342Y-184885771D01*
X179148628Y-184885771D01*
X179720057Y-186385771D02*
X179720057Y-185385771D01*
X179720057Y-184885771D02*
X179648628Y-184957200D01*
X179720057Y-185028628D01*
X179791485Y-184957200D01*
X179720057Y-184885771D01*
X179720057Y-185028628D01*
X180648628Y-186385771D02*
X180505771Y-186314342D01*
X180434342Y-186171485D01*
X180434342Y-184885771D01*
X181791485Y-186314342D02*
X181648628Y-186385771D01*
X181362914Y-186385771D01*
X181220057Y-186314342D01*
X181148628Y-186171485D01*
X181148628Y-185600057D01*
X181220057Y-185457200D01*
X181362914Y-185385771D01*
X181648628Y-185385771D01*
X181791485Y-185457200D01*
X181862914Y-185600057D01*
X181862914Y-185742914D01*
X181148628Y-185885771D01*
X182505771Y-186242914D02*
X182577200Y-186314342D01*
X182505771Y-186385771D01*
X182434342Y-186314342D01*
X182505771Y-186242914D01*
X182505771Y-186385771D01*
X182505771Y-185457200D02*
X182577200Y-185528628D01*
X182505771Y-185600057D01*
X182434342Y-185528628D01*
X182505771Y-185457200D01*
X182505771Y-185600057D01*
X185220057Y-186242914D02*
X185148628Y-186314342D01*
X184934342Y-186385771D01*
X184791485Y-186385771D01*
X184577200Y-186314342D01*
X184434342Y-186171485D01*
X184362914Y-186028628D01*
X184291485Y-185742914D01*
X184291485Y-185528628D01*
X184362914Y-185242914D01*
X184434342Y-185100057D01*
X184577200Y-184957200D01*
X184791485Y-184885771D01*
X184934342Y-184885771D01*
X185148628Y-184957200D01*
X185220057Y-185028628D01*
X186077200Y-186385771D02*
X185934342Y-186314342D01*
X185862914Y-186242914D01*
X185791485Y-186100057D01*
X185791485Y-185671485D01*
X185862914Y-185528628D01*
X185934342Y-185457200D01*
X186077200Y-185385771D01*
X186291485Y-185385771D01*
X186434342Y-185457200D01*
X186505771Y-185528628D01*
X186577200Y-185671485D01*
X186577200Y-186100057D01*
X186505771Y-186242914D01*
X186434342Y-186314342D01*
X186291485Y-186385771D01*
X186077200Y-186385771D01*
X187862914Y-185385771D02*
X187862914Y-186885771D01*
X187862914Y-186314342D02*
X187720057Y-186385771D01*
X187434342Y-186385771D01*
X187291485Y-186314342D01*
X187220057Y-186242914D01*
X187148628Y-186100057D01*
X187148628Y-185671485D01*
X187220057Y-185528628D01*
X187291485Y-185457200D01*
X187434342Y-185385771D01*
X187720057Y-185385771D01*
X187862914Y-185457200D01*
X189220057Y-185385771D02*
X189220057Y-186385771D01*
X188577200Y-185385771D02*
X188577200Y-186171485D01*
X188648628Y-186314342D01*
X188791485Y-186385771D01*
X189005771Y-186385771D01*
X189148628Y-186314342D01*
X189220057Y-186242914D01*
X189934342Y-186385771D02*
X189934342Y-185385771D01*
X189934342Y-184885771D02*
X189862914Y-184957200D01*
X189934342Y-185028628D01*
X190005771Y-184957200D01*
X189934342Y-184885771D01*
X189934342Y-185028628D01*
X190648628Y-186385771D02*
X190648628Y-184885771D01*
X191505771Y-186385771D02*
X190862914Y-185528628D01*
X191505771Y-184885771D02*
X190648628Y-185742914D01*
X192720057Y-186314342D02*
X192577200Y-186385771D01*
X192291485Y-186385771D01*
X192148628Y-186314342D01*
X192077200Y-186171485D01*
X192077200Y-185600057D01*
X192148628Y-185457200D01*
X192291485Y-185385771D01*
X192577200Y-185385771D01*
X192720057Y-185457200D01*
X192791485Y-185600057D01*
X192791485Y-185742914D01*
X192077200Y-185885771D01*
X193291485Y-185385771D02*
X193648628Y-186385771D01*
X194005771Y-185385771D02*
X193648628Y-186385771D01*
X193505771Y-186742914D01*
X193434342Y-186814342D01*
X193291485Y-186885771D01*
X194577200Y-186385771D02*
X194577200Y-184885771D01*
X194577200Y-185457200D02*
X194720057Y-185385771D01*
X195005771Y-185385771D01*
X195148628Y-185457200D01*
X195220057Y-185528628D01*
X195291485Y-185671485D01*
X195291485Y-186100057D01*
X195220057Y-186242914D01*
X195148628Y-186314342D01*
X195005771Y-186385771D01*
X194720057Y-186385771D01*
X194577200Y-186314342D01*
X196148628Y-186385771D02*
X196005771Y-186314342D01*
X195934342Y-186242914D01*
X195862914Y-186100057D01*
X195862914Y-185671485D01*
X195934342Y-185528628D01*
X196005771Y-185457200D01*
X196148628Y-185385771D01*
X196362914Y-185385771D01*
X196505771Y-185457200D01*
X196577200Y-185528628D01*
X196648628Y-185671485D01*
X196648628Y-186100057D01*
X196577200Y-186242914D01*
X196505771Y-186314342D01*
X196362914Y-186385771D01*
X196148628Y-186385771D01*
X197934342Y-186385771D02*
X197934342Y-185600057D01*
X197862914Y-185457200D01*
X197720057Y-185385771D01*
X197434342Y-185385771D01*
X197291485Y-185457200D01*
X197934342Y-186314342D02*
X197791485Y-186385771D01*
X197434342Y-186385771D01*
X197291485Y-186314342D01*
X197220057Y-186171485D01*
X197220057Y-186028628D01*
X197291485Y-185885771D01*
X197434342Y-185814342D01*
X197791485Y-185814342D01*
X197934342Y-185742914D01*
X198648628Y-186385771D02*
X198648628Y-185385771D01*
X198648628Y-185671485D02*
X198720057Y-185528628D01*
X198791485Y-185457200D01*
X198934342Y-185385771D01*
X199077200Y-185385771D01*
X200220057Y-186385771D02*
X200220057Y-184885771D01*
X200220057Y-186314342D02*
X200077200Y-186385771D01*
X199791485Y-186385771D01*
X199648628Y-186314342D01*
X199577200Y-186242914D01*
X199505771Y-186100057D01*
X199505771Y-185671485D01*
X199577200Y-185528628D01*
X199648628Y-185457200D01*
X199791485Y-185385771D01*
X200077200Y-185385771D01*
X200220057Y-185457200D01*
X200934342Y-186242914D02*
X201005771Y-186314342D01*
X200934342Y-186385771D01*
X200862914Y-186314342D01*
X200934342Y-186242914D01*
X200934342Y-186385771D01*
X201648628Y-186385771D02*
X201648628Y-184885771D01*
X201791485Y-185814342D02*
X202220057Y-186385771D01*
X202220057Y-185385771D02*
X201648628Y-185957200D01*
X202862914Y-186385771D02*
X202862914Y-185385771D01*
X202862914Y-184885771D02*
X202791485Y-184957200D01*
X202862914Y-185028628D01*
X202934342Y-184957200D01*
X202862914Y-184885771D01*
X202862914Y-185028628D01*
X204220057Y-186314342D02*
X204077200Y-186385771D01*
X203791485Y-186385771D01*
X203648628Y-186314342D01*
X203577200Y-186242914D01*
X203505771Y-186100057D01*
X203505771Y-185671485D01*
X203577200Y-185528628D01*
X203648628Y-185457200D01*
X203791485Y-185385771D01*
X204077200Y-185385771D01*
X204220057Y-185457200D01*
X205505771Y-186385771D02*
X205505771Y-185600057D01*
X205434342Y-185457200D01*
X205291485Y-185385771D01*
X205005771Y-185385771D01*
X204862914Y-185457200D01*
X205505771Y-186314342D02*
X205362914Y-186385771D01*
X205005771Y-186385771D01*
X204862914Y-186314342D01*
X204791485Y-186171485D01*
X204791485Y-186028628D01*
X204862914Y-185885771D01*
X205005771Y-185814342D01*
X205362914Y-185814342D01*
X205505771Y-185742914D01*
X206862914Y-186385771D02*
X206862914Y-184885771D01*
X206862914Y-186314342D02*
X206720057Y-186385771D01*
X206434342Y-186385771D01*
X206291485Y-186314342D01*
X206220057Y-186242914D01*
X206148628Y-186100057D01*
X206148628Y-185671485D01*
X206220057Y-185528628D01*
X206291485Y-185457200D01*
X206434342Y-185385771D01*
X206720057Y-185385771D01*
X206862914Y-185457200D01*
X207220057Y-186528628D02*
X208362914Y-186528628D01*
X208720057Y-185385771D02*
X208720057Y-186885771D01*
X208720057Y-185457200D02*
X208862914Y-185385771D01*
X209148628Y-185385771D01*
X209291485Y-185457200D01*
X209362914Y-185528628D01*
X209434342Y-185671485D01*
X209434342Y-186100057D01*
X209362914Y-186242914D01*
X209291485Y-186314342D01*
X209148628Y-186385771D01*
X208862914Y-186385771D01*
X208720057Y-186314342D01*
X210720057Y-186314342D02*
X210577200Y-186385771D01*
X210291485Y-186385771D01*
X210148628Y-186314342D01*
X210077200Y-186242914D01*
X210005771Y-186100057D01*
X210005771Y-185671485D01*
X210077200Y-185528628D01*
X210148628Y-185457200D01*
X210291485Y-185385771D01*
X210577200Y-185385771D01*
X210720057Y-185457200D01*
X211362914Y-186385771D02*
X211362914Y-184885771D01*
X211362914Y-185457200D02*
X211505771Y-185385771D01*
X211791485Y-185385771D01*
X211934342Y-185457200D01*
X212005771Y-185528628D01*
X212077200Y-185671485D01*
X212077200Y-186100057D01*
X212005771Y-186242914D01*
X211934342Y-186314342D01*
X211791485Y-186385771D01*
X211505771Y-186385771D01*
X211362914Y-186314342D01*
D10*
D11*
X177002200Y-181507200D02*
X285002200Y-181507200D01*
D10*
D11*
X178362914Y-183614342D02*
X178577200Y-183685771D01*
X178934342Y-183685771D01*
X179077200Y-183614342D01*
X179148628Y-183542914D01*
X179220057Y-183400057D01*
X179220057Y-183257200D01*
X179148628Y-183114342D01*
X179077200Y-183042914D01*
X178934342Y-182971485D01*
X178648628Y-182900057D01*
X178505771Y-182828628D01*
X178434342Y-182757200D01*
X178362914Y-182614342D01*
X178362914Y-182471485D01*
X178434342Y-182328628D01*
X178505771Y-182257200D01*
X178648628Y-182185771D01*
X179005771Y-182185771D01*
X179220057Y-182257200D01*
X179862914Y-183685771D02*
X179862914Y-182185771D01*
X180505771Y-183685771D02*
X180505771Y-182900057D01*
X180434342Y-182757200D01*
X180291485Y-182685771D01*
X180077200Y-182685771D01*
X179934342Y-182757200D01*
X179862914Y-182828628D01*
X181791485Y-183614342D02*
X181648628Y-183685771D01*
X181362914Y-183685771D01*
X181220057Y-183614342D01*
X181148628Y-183471485D01*
X181148628Y-182900057D01*
X181220057Y-182757200D01*
X181362914Y-182685771D01*
X181648628Y-182685771D01*
X181791485Y-182757200D01*
X181862914Y-182900057D01*
X181862914Y-183042914D01*
X181148628Y-183185771D01*
X183077200Y-183614342D02*
X182934342Y-183685771D01*
X182648628Y-183685771D01*
X182505771Y-183614342D01*
X182434342Y-183471485D01*
X182434342Y-182900057D01*
X182505771Y-182757200D01*
X182648628Y-182685771D01*
X182934342Y-182685771D01*
X183077200Y-182757200D01*
X183148628Y-182900057D01*
X183148628Y-183042914D01*
X182434342Y-183185771D01*
X183577200Y-182685771D02*
X184148628Y-182685771D01*
X183791485Y-182185771D02*
X183791485Y-183471485D01*
X183862914Y-183614342D01*
X184005771Y-183685771D01*
X184148628Y-183685771D01*
X184648628Y-183542914D02*
X184720057Y-183614342D01*
X184648628Y-183685771D01*
X184577200Y-183614342D01*
X184648628Y-183542914D01*
X184648628Y-183685771D01*
X184648628Y-182757200D02*
X184720057Y-182828628D01*
X184648628Y-182900057D01*
X184577200Y-182828628D01*
X184648628Y-182757200D01*
X184648628Y-182900057D01*
D10*
D11*
X197002200Y-191507200D02*
X197002200Y-194507200D01*
D10*
D11*
X261002200Y-191507200D02*
X261002200Y-198007200D01*
D14*
X151257000Y-26924000D03*
X151257000Y-30224000D03*
D10*
G36*
X312011142Y-28947674D02*
G01*
X312034803Y-28951184D01*
X312058007Y-28956996D01*
X312080529Y-28965054D01*
X312102153Y-28975282D01*
X312122670Y-28987579D01*
X312141883Y-29001829D01*
X312159607Y-29017893D01*
X312175671Y-29035617D01*
X312189921Y-29054830D01*
X312202218Y-29075347D01*
X312212446Y-29096971D01*
X312220504Y-29119493D01*
X312226316Y-29142697D01*
X312229826Y-29166358D01*
X312231000Y-29190250D01*
X312231000Y-29677750D01*
X312229826Y-29701642D01*
X312226316Y-29725303D01*
X312220504Y-29748507D01*
X312212446Y-29771029D01*
X312202218Y-29792653D01*
X312189921Y-29813170D01*
X312175671Y-29832383D01*
X312159607Y-29850107D01*
X312141883Y-29866171D01*
X312122670Y-29880421D01*
X312102153Y-29892718D01*
X312080529Y-29902946D01*
X312058007Y-29911004D01*
X312034803Y-29916816D01*
X312011142Y-29920326D01*
X311987250Y-29921500D01*
X311074750Y-29921500D01*
X311050858Y-29920326D01*
X311027197Y-29916816D01*
X311003993Y-29911004D01*
X310981471Y-29902946D01*
X310959847Y-29892718D01*
X310939330Y-29880421D01*
X310920117Y-29866171D01*
X310902393Y-29850107D01*
X310886329Y-29832383D01*
X310872079Y-29813170D01*
X310859782Y-29792653D01*
X310849554Y-29771029D01*
X310841496Y-29748507D01*
X310835684Y-29725303D01*
X310832174Y-29701642D01*
X310831000Y-29677750D01*
X310831000Y-29190250D01*
X310832174Y-29166358D01*
X310835684Y-29142697D01*
X310841496Y-29119493D01*
X310849554Y-29096971D01*
X310859782Y-29075347D01*
X310872079Y-29054830D01*
X310886329Y-29035617D01*
X310902393Y-29017893D01*
X310920117Y-29001829D01*
X310939330Y-28987579D01*
X310959847Y-28975282D01*
X310981471Y-28965054D01*
X311003993Y-28956996D01*
X311027197Y-28951184D01*
X311050858Y-28947674D01*
X311074750Y-28946500D01*
X311987250Y-28946500D01*
X312011142Y-28947674D01*
X312011142Y-28947674D01*
G37*
D15*
X311531000Y-29434000D03*
D10*
G36*
X312011142Y-27072674D02*
G01*
X312034803Y-27076184D01*
X312058007Y-27081996D01*
X312080529Y-27090054D01*
X312102153Y-27100282D01*
X312122670Y-27112579D01*
X312141883Y-27126829D01*
X312159607Y-27142893D01*
X312175671Y-27160617D01*
X312189921Y-27179830D01*
X312202218Y-27200347D01*
X312212446Y-27221971D01*
X312220504Y-27244493D01*
X312226316Y-27267697D01*
X312229826Y-27291358D01*
X312231000Y-27315250D01*
X312231000Y-27802750D01*
X312229826Y-27826642D01*
X312226316Y-27850303D01*
X312220504Y-27873507D01*
X312212446Y-27896029D01*
X312202218Y-27917653D01*
X312189921Y-27938170D01*
X312175671Y-27957383D01*
X312159607Y-27975107D01*
X312141883Y-27991171D01*
X312122670Y-28005421D01*
X312102153Y-28017718D01*
X312080529Y-28027946D01*
X312058007Y-28036004D01*
X312034803Y-28041816D01*
X312011142Y-28045326D01*
X311987250Y-28046500D01*
X311074750Y-28046500D01*
X311050858Y-28045326D01*
X311027197Y-28041816D01*
X311003993Y-28036004D01*
X310981471Y-28027946D01*
X310959847Y-28017718D01*
X310939330Y-28005421D01*
X310920117Y-27991171D01*
X310902393Y-27975107D01*
X310886329Y-27957383D01*
X310872079Y-27938170D01*
X310859782Y-27917653D01*
X310849554Y-27896029D01*
X310841496Y-27873507D01*
X310835684Y-27850303D01*
X310832174Y-27826642D01*
X310831000Y-27802750D01*
X310831000Y-27315250D01*
X310832174Y-27291358D01*
X310835684Y-27267697D01*
X310841496Y-27244493D01*
X310849554Y-27221971D01*
X310859782Y-27200347D01*
X310872079Y-27179830D01*
X310886329Y-27160617D01*
X310902393Y-27142893D01*
X310920117Y-27126829D01*
X310939330Y-27112579D01*
X310959847Y-27100282D01*
X310981471Y-27090054D01*
X311003993Y-27081996D01*
X311027197Y-27076184D01*
X311050858Y-27072674D01*
X311074750Y-27071500D01*
X311987250Y-27071500D01*
X312011142Y-27072674D01*
X312011142Y-27072674D01*
G37*
D15*
X311531000Y-27559000D03*
D10*
G36*
X308709142Y-22784674D02*
G01*
X308732803Y-22788184D01*
X308756007Y-22793996D01*
X308778529Y-22802054D01*
X308800153Y-22812282D01*
X308820670Y-22824579D01*
X308839883Y-22838829D01*
X308857607Y-22854893D01*
X308873671Y-22872617D01*
X308887921Y-22891830D01*
X308900218Y-22912347D01*
X308910446Y-22933971D01*
X308918504Y-22956493D01*
X308924316Y-22979697D01*
X308927826Y-23003358D01*
X308929000Y-23027250D01*
X308929000Y-23514750D01*
X308927826Y-23538642D01*
X308924316Y-23562303D01*
X308918504Y-23585507D01*
X308910446Y-23608029D01*
X308900218Y-23629653D01*
X308887921Y-23650170D01*
X308873671Y-23669383D01*
X308857607Y-23687107D01*
X308839883Y-23703171D01*
X308820670Y-23717421D01*
X308800153Y-23729718D01*
X308778529Y-23739946D01*
X308756007Y-23748004D01*
X308732803Y-23753816D01*
X308709142Y-23757326D01*
X308685250Y-23758500D01*
X307772750Y-23758500D01*
X307748858Y-23757326D01*
X307725197Y-23753816D01*
X307701993Y-23748004D01*
X307679471Y-23739946D01*
X307657847Y-23729718D01*
X307637330Y-23717421D01*
X307618117Y-23703171D01*
X307600393Y-23687107D01*
X307584329Y-23669383D01*
X307570079Y-23650170D01*
X307557782Y-23629653D01*
X307547554Y-23608029D01*
X307539496Y-23585507D01*
X307533684Y-23562303D01*
X307530174Y-23538642D01*
X307529000Y-23514750D01*
X307529000Y-23027250D01*
X307530174Y-23003358D01*
X307533684Y-22979697D01*
X307539496Y-22956493D01*
X307547554Y-22933971D01*
X307557782Y-22912347D01*
X307570079Y-22891830D01*
X307584329Y-22872617D01*
X307600393Y-22854893D01*
X307618117Y-22838829D01*
X307637330Y-22824579D01*
X307657847Y-22812282D01*
X307679471Y-22802054D01*
X307701993Y-22793996D01*
X307725197Y-22788184D01*
X307748858Y-22784674D01*
X307772750Y-22783500D01*
X308685250Y-22783500D01*
X308709142Y-22784674D01*
X308709142Y-22784674D01*
G37*
D15*
X308229000Y-23271000D03*
D10*
G36*
X308709142Y-24659674D02*
G01*
X308732803Y-24663184D01*
X308756007Y-24668996D01*
X308778529Y-24677054D01*
X308800153Y-24687282D01*
X308820670Y-24699579D01*
X308839883Y-24713829D01*
X308857607Y-24729893D01*
X308873671Y-24747617D01*
X308887921Y-24766830D01*
X308900218Y-24787347D01*
X308910446Y-24808971D01*
X308918504Y-24831493D01*
X308924316Y-24854697D01*
X308927826Y-24878358D01*
X308929000Y-24902250D01*
X308929000Y-25389750D01*
X308927826Y-25413642D01*
X308924316Y-25437303D01*
X308918504Y-25460507D01*
X308910446Y-25483029D01*
X308900218Y-25504653D01*
X308887921Y-25525170D01*
X308873671Y-25544383D01*
X308857607Y-25562107D01*
X308839883Y-25578171D01*
X308820670Y-25592421D01*
X308800153Y-25604718D01*
X308778529Y-25614946D01*
X308756007Y-25623004D01*
X308732803Y-25628816D01*
X308709142Y-25632326D01*
X308685250Y-25633500D01*
X307772750Y-25633500D01*
X307748858Y-25632326D01*
X307725197Y-25628816D01*
X307701993Y-25623004D01*
X307679471Y-25614946D01*
X307657847Y-25604718D01*
X307637330Y-25592421D01*
X307618117Y-25578171D01*
X307600393Y-25562107D01*
X307584329Y-25544383D01*
X307570079Y-25525170D01*
X307557782Y-25504653D01*
X307547554Y-25483029D01*
X307539496Y-25460507D01*
X307533684Y-25437303D01*
X307530174Y-25413642D01*
X307529000Y-25389750D01*
X307529000Y-24902250D01*
X307530174Y-24878358D01*
X307533684Y-24854697D01*
X307539496Y-24831493D01*
X307547554Y-24808971D01*
X307557782Y-24787347D01*
X307570079Y-24766830D01*
X307584329Y-24747617D01*
X307600393Y-24729893D01*
X307618117Y-24713829D01*
X307637330Y-24699579D01*
X307657847Y-24687282D01*
X307679471Y-24677054D01*
X307701993Y-24668996D01*
X307725197Y-24663184D01*
X307748858Y-24659674D01*
X307772750Y-24658500D01*
X308685250Y-24658500D01*
X308709142Y-24659674D01*
X308709142Y-24659674D01*
G37*
D15*
X308229000Y-25146000D03*
D10*
G36*
X316837142Y-30882674D02*
G01*
X316860803Y-30886184D01*
X316884007Y-30891996D01*
X316906529Y-30900054D01*
X316928153Y-30910282D01*
X316948670Y-30922579D01*
X316967883Y-30936829D01*
X316985607Y-30952893D01*
X317001671Y-30970617D01*
X317015921Y-30989830D01*
X317028218Y-31010347D01*
X317038446Y-31031971D01*
X317046504Y-31054493D01*
X317052316Y-31077697D01*
X317055826Y-31101358D01*
X317057000Y-31125250D01*
X317057000Y-31612750D01*
X317055826Y-31636642D01*
X317052316Y-31660303D01*
X317046504Y-31683507D01*
X317038446Y-31706029D01*
X317028218Y-31727653D01*
X317015921Y-31748170D01*
X317001671Y-31767383D01*
X316985607Y-31785107D01*
X316967883Y-31801171D01*
X316948670Y-31815421D01*
X316928153Y-31827718D01*
X316906529Y-31837946D01*
X316884007Y-31846004D01*
X316860803Y-31851816D01*
X316837142Y-31855326D01*
X316813250Y-31856500D01*
X315900750Y-31856500D01*
X315876858Y-31855326D01*
X315853197Y-31851816D01*
X315829993Y-31846004D01*
X315807471Y-31837946D01*
X315785847Y-31827718D01*
X315765330Y-31815421D01*
X315746117Y-31801171D01*
X315728393Y-31785107D01*
X315712329Y-31767383D01*
X315698079Y-31748170D01*
X315685782Y-31727653D01*
X315675554Y-31706029D01*
X315667496Y-31683507D01*
X315661684Y-31660303D01*
X315658174Y-31636642D01*
X315657000Y-31612750D01*
X315657000Y-31125250D01*
X315658174Y-31101358D01*
X315661684Y-31077697D01*
X315667496Y-31054493D01*
X315675554Y-31031971D01*
X315685782Y-31010347D01*
X315698079Y-30989830D01*
X315712329Y-30970617D01*
X315728393Y-30952893D01*
X315746117Y-30936829D01*
X315765330Y-30922579D01*
X315785847Y-30910282D01*
X315807471Y-30900054D01*
X315829993Y-30891996D01*
X315853197Y-30886184D01*
X315876858Y-30882674D01*
X315900750Y-30881500D01*
X316813250Y-30881500D01*
X316837142Y-30882674D01*
X316837142Y-30882674D01*
G37*
D15*
X316357000Y-31369000D03*
D10*
G36*
X316837142Y-32757674D02*
G01*
X316860803Y-32761184D01*
X316884007Y-32766996D01*
X316906529Y-32775054D01*
X316928153Y-32785282D01*
X316948670Y-32797579D01*
X316967883Y-32811829D01*
X316985607Y-32827893D01*
X317001671Y-32845617D01*
X317015921Y-32864830D01*
X317028218Y-32885347D01*
X317038446Y-32906971D01*
X317046504Y-32929493D01*
X317052316Y-32952697D01*
X317055826Y-32976358D01*
X317057000Y-33000250D01*
X317057000Y-33487750D01*
X317055826Y-33511642D01*
X317052316Y-33535303D01*
X317046504Y-33558507D01*
X317038446Y-33581029D01*
X317028218Y-33602653D01*
X317015921Y-33623170D01*
X317001671Y-33642383D01*
X316985607Y-33660107D01*
X316967883Y-33676171D01*
X316948670Y-33690421D01*
X316928153Y-33702718D01*
X316906529Y-33712946D01*
X316884007Y-33721004D01*
X316860803Y-33726816D01*
X316837142Y-33730326D01*
X316813250Y-33731500D01*
X315900750Y-33731500D01*
X315876858Y-33730326D01*
X315853197Y-33726816D01*
X315829993Y-33721004D01*
X315807471Y-33712946D01*
X315785847Y-33702718D01*
X315765330Y-33690421D01*
X315746117Y-33676171D01*
X315728393Y-33660107D01*
X315712329Y-33642383D01*
X315698079Y-33623170D01*
X315685782Y-33602653D01*
X315675554Y-33581029D01*
X315667496Y-33558507D01*
X315661684Y-33535303D01*
X315658174Y-33511642D01*
X315657000Y-33487750D01*
X315657000Y-33000250D01*
X315658174Y-32976358D01*
X315661684Y-32952697D01*
X315667496Y-32929493D01*
X315675554Y-32906971D01*
X315685782Y-32885347D01*
X315698079Y-32864830D01*
X315712329Y-32845617D01*
X315728393Y-32827893D01*
X315746117Y-32811829D01*
X315765330Y-32797579D01*
X315785847Y-32785282D01*
X315807471Y-32775054D01*
X315829993Y-32766996D01*
X315853197Y-32761184D01*
X315876858Y-32757674D01*
X315900750Y-32756500D01*
X316813250Y-32756500D01*
X316837142Y-32757674D01*
X316837142Y-32757674D01*
G37*
D15*
X316357000Y-33244000D03*
D10*
G36*
X302343966Y-50051538D02*
G01*
X302367627Y-50055048D01*
X302390831Y-50060860D01*
X302413353Y-50068918D01*
X302434977Y-50079146D01*
X302455494Y-50091443D01*
X302474707Y-50105693D01*
X302492431Y-50121757D01*
X302508495Y-50139481D01*
X302522745Y-50158694D01*
X302535042Y-50179211D01*
X302545270Y-50200835D01*
X302553328Y-50223357D01*
X302559140Y-50246561D01*
X302562650Y-50270222D01*
X302563824Y-50294114D01*
X302563824Y-51206614D01*
X302562650Y-51230506D01*
X302559140Y-51254167D01*
X302553328Y-51277371D01*
X302545270Y-51299893D01*
X302535042Y-51321517D01*
X302522745Y-51342034D01*
X302508495Y-51361247D01*
X302492431Y-51378971D01*
X302474707Y-51395035D01*
X302455494Y-51409285D01*
X302434977Y-51421582D01*
X302413353Y-51431810D01*
X302390831Y-51439868D01*
X302367627Y-51445680D01*
X302343966Y-51449190D01*
X302320074Y-51450364D01*
X301832574Y-51450364D01*
X301808682Y-51449190D01*
X301785021Y-51445680D01*
X301761817Y-51439868D01*
X301739295Y-51431810D01*
X301717671Y-51421582D01*
X301697154Y-51409285D01*
X301677941Y-51395035D01*
X301660217Y-51378971D01*
X301644153Y-51361247D01*
X301629903Y-51342034D01*
X301617606Y-51321517D01*
X301607378Y-51299893D01*
X301599320Y-51277371D01*
X301593508Y-51254167D01*
X301589998Y-51230506D01*
X301588824Y-51206614D01*
X301588824Y-50294114D01*
X301589998Y-50270222D01*
X301593508Y-50246561D01*
X301599320Y-50223357D01*
X301607378Y-50200835D01*
X301617606Y-50179211D01*
X301629903Y-50158694D01*
X301644153Y-50139481D01*
X301660217Y-50121757D01*
X301677941Y-50105693D01*
X301697154Y-50091443D01*
X301717671Y-50079146D01*
X301739295Y-50068918D01*
X301761817Y-50060860D01*
X301785021Y-50055048D01*
X301808682Y-50051538D01*
X301832574Y-50050364D01*
X302320074Y-50050364D01*
X302343966Y-50051538D01*
X302343966Y-50051538D01*
G37*
D15*
X302076324Y-50750364D03*
D10*
G36*
X304218966Y-50051538D02*
G01*
X304242627Y-50055048D01*
X304265831Y-50060860D01*
X304288353Y-50068918D01*
X304309977Y-50079146D01*
X304330494Y-50091443D01*
X304349707Y-50105693D01*
X304367431Y-50121757D01*
X304383495Y-50139481D01*
X304397745Y-50158694D01*
X304410042Y-50179211D01*
X304420270Y-50200835D01*
X304428328Y-50223357D01*
X304434140Y-50246561D01*
X304437650Y-50270222D01*
X304438824Y-50294114D01*
X304438824Y-51206614D01*
X304437650Y-51230506D01*
X304434140Y-51254167D01*
X304428328Y-51277371D01*
X304420270Y-51299893D01*
X304410042Y-51321517D01*
X304397745Y-51342034D01*
X304383495Y-51361247D01*
X304367431Y-51378971D01*
X304349707Y-51395035D01*
X304330494Y-51409285D01*
X304309977Y-51421582D01*
X304288353Y-51431810D01*
X304265831Y-51439868D01*
X304242627Y-51445680D01*
X304218966Y-51449190D01*
X304195074Y-51450364D01*
X303707574Y-51450364D01*
X303683682Y-51449190D01*
X303660021Y-51445680D01*
X303636817Y-51439868D01*
X303614295Y-51431810D01*
X303592671Y-51421582D01*
X303572154Y-51409285D01*
X303552941Y-51395035D01*
X303535217Y-51378971D01*
X303519153Y-51361247D01*
X303504903Y-51342034D01*
X303492606Y-51321517D01*
X303482378Y-51299893D01*
X303474320Y-51277371D01*
X303468508Y-51254167D01*
X303464998Y-51230506D01*
X303463824Y-51206614D01*
X303463824Y-50294114D01*
X303464998Y-50270222D01*
X303468508Y-50246561D01*
X303474320Y-50223357D01*
X303482378Y-50200835D01*
X303492606Y-50179211D01*
X303504903Y-50158694D01*
X303519153Y-50139481D01*
X303535217Y-50121757D01*
X303552941Y-50105693D01*
X303572154Y-50091443D01*
X303592671Y-50079146D01*
X303614295Y-50068918D01*
X303636817Y-50060860D01*
X303660021Y-50055048D01*
X303683682Y-50051538D01*
X303707574Y-50050364D01*
X304195074Y-50050364D01*
X304218966Y-50051538D01*
X304218966Y-50051538D01*
G37*
D15*
X303951324Y-50750364D03*
D10*
G36*
X319845906Y-51093334D02*
G01*
X319869567Y-51096844D01*
X319892771Y-51102656D01*
X319915293Y-51110714D01*
X319936917Y-51120942D01*
X319957434Y-51133239D01*
X319976647Y-51147489D01*
X319994371Y-51163553D01*
X320010435Y-51181277D01*
X320024685Y-51200490D01*
X320036982Y-51221007D01*
X320047210Y-51242631D01*
X320055268Y-51265153D01*
X320061080Y-51288357D01*
X320064590Y-51312018D01*
X320065764Y-51335910D01*
X320065764Y-52248410D01*
X320064590Y-52272302D01*
X320061080Y-52295963D01*
X320055268Y-52319167D01*
X320047210Y-52341689D01*
X320036982Y-52363313D01*
X320024685Y-52383830D01*
X320010435Y-52403043D01*
X319994371Y-52420767D01*
X319976647Y-52436831D01*
X319957434Y-52451081D01*
X319936917Y-52463378D01*
X319915293Y-52473606D01*
X319892771Y-52481664D01*
X319869567Y-52487476D01*
X319845906Y-52490986D01*
X319822014Y-52492160D01*
X319334514Y-52492160D01*
X319310622Y-52490986D01*
X319286961Y-52487476D01*
X319263757Y-52481664D01*
X319241235Y-52473606D01*
X319219611Y-52463378D01*
X319199094Y-52451081D01*
X319179881Y-52436831D01*
X319162157Y-52420767D01*
X319146093Y-52403043D01*
X319131843Y-52383830D01*
X319119546Y-52363313D01*
X319109318Y-52341689D01*
X319101260Y-52319167D01*
X319095448Y-52295963D01*
X319091938Y-52272302D01*
X319090764Y-52248410D01*
X319090764Y-51335910D01*
X319091938Y-51312018D01*
X319095448Y-51288357D01*
X319101260Y-51265153D01*
X319109318Y-51242631D01*
X319119546Y-51221007D01*
X319131843Y-51200490D01*
X319146093Y-51181277D01*
X319162157Y-51163553D01*
X319179881Y-51147489D01*
X319199094Y-51133239D01*
X319219611Y-51120942D01*
X319241235Y-51110714D01*
X319263757Y-51102656D01*
X319286961Y-51096844D01*
X319310622Y-51093334D01*
X319334514Y-51092160D01*
X319822014Y-51092160D01*
X319845906Y-51093334D01*
X319845906Y-51093334D01*
G37*
D15*
X319578264Y-51792160D03*
D10*
G36*
X317970906Y-51093334D02*
G01*
X317994567Y-51096844D01*
X318017771Y-51102656D01*
X318040293Y-51110714D01*
X318061917Y-51120942D01*
X318082434Y-51133239D01*
X318101647Y-51147489D01*
X318119371Y-51163553D01*
X318135435Y-51181277D01*
X318149685Y-51200490D01*
X318161982Y-51221007D01*
X318172210Y-51242631D01*
X318180268Y-51265153D01*
X318186080Y-51288357D01*
X318189590Y-51312018D01*
X318190764Y-51335910D01*
X318190764Y-52248410D01*
X318189590Y-52272302D01*
X318186080Y-52295963D01*
X318180268Y-52319167D01*
X318172210Y-52341689D01*
X318161982Y-52363313D01*
X318149685Y-52383830D01*
X318135435Y-52403043D01*
X318119371Y-52420767D01*
X318101647Y-52436831D01*
X318082434Y-52451081D01*
X318061917Y-52463378D01*
X318040293Y-52473606D01*
X318017771Y-52481664D01*
X317994567Y-52487476D01*
X317970906Y-52490986D01*
X317947014Y-52492160D01*
X317459514Y-52492160D01*
X317435622Y-52490986D01*
X317411961Y-52487476D01*
X317388757Y-52481664D01*
X317366235Y-52473606D01*
X317344611Y-52463378D01*
X317324094Y-52451081D01*
X317304881Y-52436831D01*
X317287157Y-52420767D01*
X317271093Y-52403043D01*
X317256843Y-52383830D01*
X317244546Y-52363313D01*
X317234318Y-52341689D01*
X317226260Y-52319167D01*
X317220448Y-52295963D01*
X317216938Y-52272302D01*
X317215764Y-52248410D01*
X317215764Y-51335910D01*
X317216938Y-51312018D01*
X317220448Y-51288357D01*
X317226260Y-51265153D01*
X317234318Y-51242631D01*
X317244546Y-51221007D01*
X317256843Y-51200490D01*
X317271093Y-51181277D01*
X317287157Y-51163553D01*
X317304881Y-51147489D01*
X317324094Y-51133239D01*
X317344611Y-51120942D01*
X317366235Y-51110714D01*
X317388757Y-51102656D01*
X317411961Y-51096844D01*
X317435622Y-51093334D01*
X317459514Y-51092160D01*
X317947014Y-51092160D01*
X317970906Y-51093334D01*
X317970906Y-51093334D01*
G37*
D15*
X317703264Y-51792160D03*
D10*
G36*
X301261546Y-60935122D02*
G01*
X301285207Y-60938632D01*
X301308411Y-60944444D01*
X301330933Y-60952502D01*
X301352557Y-60962730D01*
X301373074Y-60975027D01*
X301392287Y-60989277D01*
X301410011Y-61005341D01*
X301426075Y-61023065D01*
X301440325Y-61042278D01*
X301452622Y-61062795D01*
X301462850Y-61084419D01*
X301470908Y-61106941D01*
X301476720Y-61130145D01*
X301480230Y-61153806D01*
X301481404Y-61177698D01*
X301481404Y-61665198D01*
X301480230Y-61689090D01*
X301476720Y-61712751D01*
X301470908Y-61735955D01*
X301462850Y-61758477D01*
X301452622Y-61780101D01*
X301440325Y-61800618D01*
X301426075Y-61819831D01*
X301410011Y-61837555D01*
X301392287Y-61853619D01*
X301373074Y-61867869D01*
X301352557Y-61880166D01*
X301330933Y-61890394D01*
X301308411Y-61898452D01*
X301285207Y-61904264D01*
X301261546Y-61907774D01*
X301237654Y-61908948D01*
X300325154Y-61908948D01*
X300301262Y-61907774D01*
X300277601Y-61904264D01*
X300254397Y-61898452D01*
X300231875Y-61890394D01*
X300210251Y-61880166D01*
X300189734Y-61867869D01*
X300170521Y-61853619D01*
X300152797Y-61837555D01*
X300136733Y-61819831D01*
X300122483Y-61800618D01*
X300110186Y-61780101D01*
X300099958Y-61758477D01*
X300091900Y-61735955D01*
X300086088Y-61712751D01*
X300082578Y-61689090D01*
X300081404Y-61665198D01*
X300081404Y-61177698D01*
X300082578Y-61153806D01*
X300086088Y-61130145D01*
X300091900Y-61106941D01*
X300099958Y-61084419D01*
X300110186Y-61062795D01*
X300122483Y-61042278D01*
X300136733Y-61023065D01*
X300152797Y-61005341D01*
X300170521Y-60989277D01*
X300189734Y-60975027D01*
X300210251Y-60962730D01*
X300231875Y-60952502D01*
X300254397Y-60944444D01*
X300277601Y-60938632D01*
X300301262Y-60935122D01*
X300325154Y-60933948D01*
X301237654Y-60933948D01*
X301261546Y-60935122D01*
X301261546Y-60935122D01*
G37*
D15*
X300781404Y-61421448D03*
D10*
G36*
X301261546Y-62810122D02*
G01*
X301285207Y-62813632D01*
X301308411Y-62819444D01*
X301330933Y-62827502D01*
X301352557Y-62837730D01*
X301373074Y-62850027D01*
X301392287Y-62864277D01*
X301410011Y-62880341D01*
X301426075Y-62898065D01*
X301440325Y-62917278D01*
X301452622Y-62937795D01*
X301462850Y-62959419D01*
X301470908Y-62981941D01*
X301476720Y-63005145D01*
X301480230Y-63028806D01*
X301481404Y-63052698D01*
X301481404Y-63540198D01*
X301480230Y-63564090D01*
X301476720Y-63587751D01*
X301470908Y-63610955D01*
X301462850Y-63633477D01*
X301452622Y-63655101D01*
X301440325Y-63675618D01*
X301426075Y-63694831D01*
X301410011Y-63712555D01*
X301392287Y-63728619D01*
X301373074Y-63742869D01*
X301352557Y-63755166D01*
X301330933Y-63765394D01*
X301308411Y-63773452D01*
X301285207Y-63779264D01*
X301261546Y-63782774D01*
X301237654Y-63783948D01*
X300325154Y-63783948D01*
X300301262Y-63782774D01*
X300277601Y-63779264D01*
X300254397Y-63773452D01*
X300231875Y-63765394D01*
X300210251Y-63755166D01*
X300189734Y-63742869D01*
X300170521Y-63728619D01*
X300152797Y-63712555D01*
X300136733Y-63694831D01*
X300122483Y-63675618D01*
X300110186Y-63655101D01*
X300099958Y-63633477D01*
X300091900Y-63610955D01*
X300086088Y-63587751D01*
X300082578Y-63564090D01*
X300081404Y-63540198D01*
X300081404Y-63052698D01*
X300082578Y-63028806D01*
X300086088Y-63005145D01*
X300091900Y-62981941D01*
X300099958Y-62959419D01*
X300110186Y-62937795D01*
X300122483Y-62917278D01*
X300136733Y-62898065D01*
X300152797Y-62880341D01*
X300170521Y-62864277D01*
X300189734Y-62850027D01*
X300210251Y-62837730D01*
X300231875Y-62827502D01*
X300254397Y-62819444D01*
X300277601Y-62813632D01*
X300301262Y-62810122D01*
X300325154Y-62808948D01*
X301237654Y-62808948D01*
X301261546Y-62810122D01*
X301261546Y-62810122D01*
G37*
D15*
X300781404Y-63296448D03*
D10*
G36*
X304427558Y-44544902D02*
G01*
X304451219Y-44548412D01*
X304474423Y-44554224D01*
X304496945Y-44562282D01*
X304518569Y-44572510D01*
X304539086Y-44584807D01*
X304558299Y-44599057D01*
X304576023Y-44615121D01*
X304592087Y-44632845D01*
X304606337Y-44652058D01*
X304618634Y-44672575D01*
X304628862Y-44694199D01*
X304636920Y-44716721D01*
X304642732Y-44739925D01*
X304646242Y-44763586D01*
X304647416Y-44787478D01*
X304647416Y-45699978D01*
X304646242Y-45723870D01*
X304642732Y-45747531D01*
X304636920Y-45770735D01*
X304628862Y-45793257D01*
X304618634Y-45814881D01*
X304606337Y-45835398D01*
X304592087Y-45854611D01*
X304576023Y-45872335D01*
X304558299Y-45888399D01*
X304539086Y-45902649D01*
X304518569Y-45914946D01*
X304496945Y-45925174D01*
X304474423Y-45933232D01*
X304451219Y-45939044D01*
X304427558Y-45942554D01*
X304403666Y-45943728D01*
X303916166Y-45943728D01*
X303892274Y-45942554D01*
X303868613Y-45939044D01*
X303845409Y-45933232D01*
X303822887Y-45925174D01*
X303801263Y-45914946D01*
X303780746Y-45902649D01*
X303761533Y-45888399D01*
X303743809Y-45872335D01*
X303727745Y-45854611D01*
X303713495Y-45835398D01*
X303701198Y-45814881D01*
X303690970Y-45793257D01*
X303682912Y-45770735D01*
X303677100Y-45747531D01*
X303673590Y-45723870D01*
X303672416Y-45699978D01*
X303672416Y-44787478D01*
X303673590Y-44763586D01*
X303677100Y-44739925D01*
X303682912Y-44716721D01*
X303690970Y-44694199D01*
X303701198Y-44672575D01*
X303713495Y-44652058D01*
X303727745Y-44632845D01*
X303743809Y-44615121D01*
X303761533Y-44599057D01*
X303780746Y-44584807D01*
X303801263Y-44572510D01*
X303822887Y-44562282D01*
X303845409Y-44554224D01*
X303868613Y-44548412D01*
X303892274Y-44544902D01*
X303916166Y-44543728D01*
X304403666Y-44543728D01*
X304427558Y-44544902D01*
X304427558Y-44544902D01*
G37*
D15*
X304159916Y-45243728D03*
D10*
G36*
X306302558Y-44544902D02*
G01*
X306326219Y-44548412D01*
X306349423Y-44554224D01*
X306371945Y-44562282D01*
X306393569Y-44572510D01*
X306414086Y-44584807D01*
X306433299Y-44599057D01*
X306451023Y-44615121D01*
X306467087Y-44632845D01*
X306481337Y-44652058D01*
X306493634Y-44672575D01*
X306503862Y-44694199D01*
X306511920Y-44716721D01*
X306517732Y-44739925D01*
X306521242Y-44763586D01*
X306522416Y-44787478D01*
X306522416Y-45699978D01*
X306521242Y-45723870D01*
X306517732Y-45747531D01*
X306511920Y-45770735D01*
X306503862Y-45793257D01*
X306493634Y-45814881D01*
X306481337Y-45835398D01*
X306467087Y-45854611D01*
X306451023Y-45872335D01*
X306433299Y-45888399D01*
X306414086Y-45902649D01*
X306393569Y-45914946D01*
X306371945Y-45925174D01*
X306349423Y-45933232D01*
X306326219Y-45939044D01*
X306302558Y-45942554D01*
X306278666Y-45943728D01*
X305791166Y-45943728D01*
X305767274Y-45942554D01*
X305743613Y-45939044D01*
X305720409Y-45933232D01*
X305697887Y-45925174D01*
X305676263Y-45914946D01*
X305655746Y-45902649D01*
X305636533Y-45888399D01*
X305618809Y-45872335D01*
X305602745Y-45854611D01*
X305588495Y-45835398D01*
X305576198Y-45814881D01*
X305565970Y-45793257D01*
X305557912Y-45770735D01*
X305552100Y-45747531D01*
X305548590Y-45723870D01*
X305547416Y-45699978D01*
X305547416Y-44787478D01*
X305548590Y-44763586D01*
X305552100Y-44739925D01*
X305557912Y-44716721D01*
X305565970Y-44694199D01*
X305576198Y-44672575D01*
X305588495Y-44652058D01*
X305602745Y-44632845D01*
X305618809Y-44615121D01*
X305636533Y-44599057D01*
X305655746Y-44584807D01*
X305676263Y-44572510D01*
X305697887Y-44562282D01*
X305720409Y-44554224D01*
X305743613Y-44548412D01*
X305767274Y-44544902D01*
X305791166Y-44543728D01*
X306278666Y-44543728D01*
X306302558Y-44544902D01*
X306302558Y-44544902D01*
G37*
D15*
X306034916Y-45243728D03*
D10*
G36*
X324117642Y-60023049D02*
G01*
X324141303Y-60026559D01*
X324164507Y-60032371D01*
X324187029Y-60040429D01*
X324208653Y-60050657D01*
X324229170Y-60062954D01*
X324248383Y-60077204D01*
X324266107Y-60093268D01*
X324282171Y-60110992D01*
X324296421Y-60130205D01*
X324308718Y-60150722D01*
X324318946Y-60172346D01*
X324327004Y-60194868D01*
X324332816Y-60218072D01*
X324336326Y-60241733D01*
X324337500Y-60265625D01*
X324337500Y-61178125D01*
X324336326Y-61202017D01*
X324332816Y-61225678D01*
X324327004Y-61248882D01*
X324318946Y-61271404D01*
X324308718Y-61293028D01*
X324296421Y-61313545D01*
X324282171Y-61332758D01*
X324266107Y-61350482D01*
X324248383Y-61366546D01*
X324229170Y-61380796D01*
X324208653Y-61393093D01*
X324187029Y-61403321D01*
X324164507Y-61411379D01*
X324141303Y-61417191D01*
X324117642Y-61420701D01*
X324093750Y-61421875D01*
X323606250Y-61421875D01*
X323582358Y-61420701D01*
X323558697Y-61417191D01*
X323535493Y-61411379D01*
X323512971Y-61403321D01*
X323491347Y-61393093D01*
X323470830Y-61380796D01*
X323451617Y-61366546D01*
X323433893Y-61350482D01*
X323417829Y-61332758D01*
X323403579Y-61313545D01*
X323391282Y-61293028D01*
X323381054Y-61271404D01*
X323372996Y-61248882D01*
X323367184Y-61225678D01*
X323363674Y-61202017D01*
X323362500Y-61178125D01*
X323362500Y-60265625D01*
X323363674Y-60241733D01*
X323367184Y-60218072D01*
X323372996Y-60194868D01*
X323381054Y-60172346D01*
X323391282Y-60150722D01*
X323403579Y-60130205D01*
X323417829Y-60110992D01*
X323433893Y-60093268D01*
X323451617Y-60077204D01*
X323470830Y-60062954D01*
X323491347Y-60050657D01*
X323512971Y-60040429D01*
X323535493Y-60032371D01*
X323558697Y-60026559D01*
X323582358Y-60023049D01*
X323606250Y-60021875D01*
X324093750Y-60021875D01*
X324117642Y-60023049D01*
X324117642Y-60023049D01*
G37*
D15*
X323850000Y-60721875D03*
D10*
G36*
X322242642Y-60023049D02*
G01*
X322266303Y-60026559D01*
X322289507Y-60032371D01*
X322312029Y-60040429D01*
X322333653Y-60050657D01*
X322354170Y-60062954D01*
X322373383Y-60077204D01*
X322391107Y-60093268D01*
X322407171Y-60110992D01*
X322421421Y-60130205D01*
X322433718Y-60150722D01*
X322443946Y-60172346D01*
X322452004Y-60194868D01*
X322457816Y-60218072D01*
X322461326Y-60241733D01*
X322462500Y-60265625D01*
X322462500Y-61178125D01*
X322461326Y-61202017D01*
X322457816Y-61225678D01*
X322452004Y-61248882D01*
X322443946Y-61271404D01*
X322433718Y-61293028D01*
X322421421Y-61313545D01*
X322407171Y-61332758D01*
X322391107Y-61350482D01*
X322373383Y-61366546D01*
X322354170Y-61380796D01*
X322333653Y-61393093D01*
X322312029Y-61403321D01*
X322289507Y-61411379D01*
X322266303Y-61417191D01*
X322242642Y-61420701D01*
X322218750Y-61421875D01*
X321731250Y-61421875D01*
X321707358Y-61420701D01*
X321683697Y-61417191D01*
X321660493Y-61411379D01*
X321637971Y-61403321D01*
X321616347Y-61393093D01*
X321595830Y-61380796D01*
X321576617Y-61366546D01*
X321558893Y-61350482D01*
X321542829Y-61332758D01*
X321528579Y-61313545D01*
X321516282Y-61293028D01*
X321506054Y-61271404D01*
X321497996Y-61248882D01*
X321492184Y-61225678D01*
X321488674Y-61202017D01*
X321487500Y-61178125D01*
X321487500Y-60265625D01*
X321488674Y-60241733D01*
X321492184Y-60218072D01*
X321497996Y-60194868D01*
X321506054Y-60172346D01*
X321516282Y-60150722D01*
X321528579Y-60130205D01*
X321542829Y-60110992D01*
X321558893Y-60093268D01*
X321576617Y-60077204D01*
X321595830Y-60062954D01*
X321616347Y-60050657D01*
X321637971Y-60040429D01*
X321660493Y-60032371D01*
X321683697Y-60026559D01*
X321707358Y-60023049D01*
X321731250Y-60021875D01*
X322218750Y-60021875D01*
X322242642Y-60023049D01*
X322242642Y-60023049D01*
G37*
D15*
X321975000Y-60721875D03*
D10*
G36*
X324161918Y-52879270D02*
G01*
X324185579Y-52882780D01*
X324208783Y-52888592D01*
X324231305Y-52896650D01*
X324252929Y-52906878D01*
X324273446Y-52919175D01*
X324292659Y-52933425D01*
X324310383Y-52949489D01*
X324326447Y-52967213D01*
X324340697Y-52986426D01*
X324352994Y-53006943D01*
X324363222Y-53028567D01*
X324371280Y-53051089D01*
X324377092Y-53074293D01*
X324380602Y-53097954D01*
X324381776Y-53121846D01*
X324381776Y-54034346D01*
X324380602Y-54058238D01*
X324377092Y-54081899D01*
X324371280Y-54105103D01*
X324363222Y-54127625D01*
X324352994Y-54149249D01*
X324340697Y-54169766D01*
X324326447Y-54188979D01*
X324310383Y-54206703D01*
X324292659Y-54222767D01*
X324273446Y-54237017D01*
X324252929Y-54249314D01*
X324231305Y-54259542D01*
X324208783Y-54267600D01*
X324185579Y-54273412D01*
X324161918Y-54276922D01*
X324138026Y-54278096D01*
X323650526Y-54278096D01*
X323626634Y-54276922D01*
X323602973Y-54273412D01*
X323579769Y-54267600D01*
X323557247Y-54259542D01*
X323535623Y-54249314D01*
X323515106Y-54237017D01*
X323495893Y-54222767D01*
X323478169Y-54206703D01*
X323462105Y-54188979D01*
X323447855Y-54169766D01*
X323435558Y-54149249D01*
X323425330Y-54127625D01*
X323417272Y-54105103D01*
X323411460Y-54081899D01*
X323407950Y-54058238D01*
X323406776Y-54034346D01*
X323406776Y-53121846D01*
X323407950Y-53097954D01*
X323411460Y-53074293D01*
X323417272Y-53051089D01*
X323425330Y-53028567D01*
X323435558Y-53006943D01*
X323447855Y-52986426D01*
X323462105Y-52967213D01*
X323478169Y-52949489D01*
X323495893Y-52933425D01*
X323515106Y-52919175D01*
X323535623Y-52906878D01*
X323557247Y-52896650D01*
X323579769Y-52888592D01*
X323602973Y-52882780D01*
X323626634Y-52879270D01*
X323650526Y-52878096D01*
X324138026Y-52878096D01*
X324161918Y-52879270D01*
X324161918Y-52879270D01*
G37*
D15*
X323894276Y-53578096D03*
D10*
G36*
X322286918Y-52879270D02*
G01*
X322310579Y-52882780D01*
X322333783Y-52888592D01*
X322356305Y-52896650D01*
X322377929Y-52906878D01*
X322398446Y-52919175D01*
X322417659Y-52933425D01*
X322435383Y-52949489D01*
X322451447Y-52967213D01*
X322465697Y-52986426D01*
X322477994Y-53006943D01*
X322488222Y-53028567D01*
X322496280Y-53051089D01*
X322502092Y-53074293D01*
X322505602Y-53097954D01*
X322506776Y-53121846D01*
X322506776Y-54034346D01*
X322505602Y-54058238D01*
X322502092Y-54081899D01*
X322496280Y-54105103D01*
X322488222Y-54127625D01*
X322477994Y-54149249D01*
X322465697Y-54169766D01*
X322451447Y-54188979D01*
X322435383Y-54206703D01*
X322417659Y-54222767D01*
X322398446Y-54237017D01*
X322377929Y-54249314D01*
X322356305Y-54259542D01*
X322333783Y-54267600D01*
X322310579Y-54273412D01*
X322286918Y-54276922D01*
X322263026Y-54278096D01*
X321775526Y-54278096D01*
X321751634Y-54276922D01*
X321727973Y-54273412D01*
X321704769Y-54267600D01*
X321682247Y-54259542D01*
X321660623Y-54249314D01*
X321640106Y-54237017D01*
X321620893Y-54222767D01*
X321603169Y-54206703D01*
X321587105Y-54188979D01*
X321572855Y-54169766D01*
X321560558Y-54149249D01*
X321550330Y-54127625D01*
X321542272Y-54105103D01*
X321536460Y-54081899D01*
X321532950Y-54058238D01*
X321531776Y-54034346D01*
X321531776Y-53121846D01*
X321532950Y-53097954D01*
X321536460Y-53074293D01*
X321542272Y-53051089D01*
X321550330Y-53028567D01*
X321560558Y-53006943D01*
X321572855Y-52986426D01*
X321587105Y-52967213D01*
X321603169Y-52949489D01*
X321620893Y-52933425D01*
X321640106Y-52919175D01*
X321660623Y-52906878D01*
X321682247Y-52896650D01*
X321704769Y-52888592D01*
X321727973Y-52882780D01*
X321751634Y-52879270D01*
X321775526Y-52878096D01*
X322263026Y-52878096D01*
X322286918Y-52879270D01*
X322286918Y-52879270D01*
G37*
D15*
X322019276Y-53578096D03*
D10*
G36*
X309487710Y-47670290D02*
G01*
X309511371Y-47673800D01*
X309534575Y-47679612D01*
X309557097Y-47687670D01*
X309578721Y-47697898D01*
X309599238Y-47710195D01*
X309618451Y-47724445D01*
X309636175Y-47740509D01*
X309652239Y-47758233D01*
X309666489Y-47777446D01*
X309678786Y-47797963D01*
X309689014Y-47819587D01*
X309697072Y-47842109D01*
X309702884Y-47865313D01*
X309706394Y-47888974D01*
X309707568Y-47912866D01*
X309707568Y-48825366D01*
X309706394Y-48849258D01*
X309702884Y-48872919D01*
X309697072Y-48896123D01*
X309689014Y-48918645D01*
X309678786Y-48940269D01*
X309666489Y-48960786D01*
X309652239Y-48979999D01*
X309636175Y-48997723D01*
X309618451Y-49013787D01*
X309599238Y-49028037D01*
X309578721Y-49040334D01*
X309557097Y-49050562D01*
X309534575Y-49058620D01*
X309511371Y-49064432D01*
X309487710Y-49067942D01*
X309463818Y-49069116D01*
X308976318Y-49069116D01*
X308952426Y-49067942D01*
X308928765Y-49064432D01*
X308905561Y-49058620D01*
X308883039Y-49050562D01*
X308861415Y-49040334D01*
X308840898Y-49028037D01*
X308821685Y-49013787D01*
X308803961Y-48997723D01*
X308787897Y-48979999D01*
X308773647Y-48960786D01*
X308761350Y-48940269D01*
X308751122Y-48918645D01*
X308743064Y-48896123D01*
X308737252Y-48872919D01*
X308733742Y-48849258D01*
X308732568Y-48825366D01*
X308732568Y-47912866D01*
X308733742Y-47888974D01*
X308737252Y-47865313D01*
X308743064Y-47842109D01*
X308751122Y-47819587D01*
X308761350Y-47797963D01*
X308773647Y-47777446D01*
X308787897Y-47758233D01*
X308803961Y-47740509D01*
X308821685Y-47724445D01*
X308840898Y-47710195D01*
X308861415Y-47697898D01*
X308883039Y-47687670D01*
X308905561Y-47679612D01*
X308928765Y-47673800D01*
X308952426Y-47670290D01*
X308976318Y-47669116D01*
X309463818Y-47669116D01*
X309487710Y-47670290D01*
X309487710Y-47670290D01*
G37*
D15*
X309220068Y-48369116D03*
D10*
G36*
X311362710Y-47670290D02*
G01*
X311386371Y-47673800D01*
X311409575Y-47679612D01*
X311432097Y-47687670D01*
X311453721Y-47697898D01*
X311474238Y-47710195D01*
X311493451Y-47724445D01*
X311511175Y-47740509D01*
X311527239Y-47758233D01*
X311541489Y-47777446D01*
X311553786Y-47797963D01*
X311564014Y-47819587D01*
X311572072Y-47842109D01*
X311577884Y-47865313D01*
X311581394Y-47888974D01*
X311582568Y-47912866D01*
X311582568Y-48825366D01*
X311581394Y-48849258D01*
X311577884Y-48872919D01*
X311572072Y-48896123D01*
X311564014Y-48918645D01*
X311553786Y-48940269D01*
X311541489Y-48960786D01*
X311527239Y-48979999D01*
X311511175Y-48997723D01*
X311493451Y-49013787D01*
X311474238Y-49028037D01*
X311453721Y-49040334D01*
X311432097Y-49050562D01*
X311409575Y-49058620D01*
X311386371Y-49064432D01*
X311362710Y-49067942D01*
X311338818Y-49069116D01*
X310851318Y-49069116D01*
X310827426Y-49067942D01*
X310803765Y-49064432D01*
X310780561Y-49058620D01*
X310758039Y-49050562D01*
X310736415Y-49040334D01*
X310715898Y-49028037D01*
X310696685Y-49013787D01*
X310678961Y-48997723D01*
X310662897Y-48979999D01*
X310648647Y-48960786D01*
X310636350Y-48940269D01*
X310626122Y-48918645D01*
X310618064Y-48896123D01*
X310612252Y-48872919D01*
X310608742Y-48849258D01*
X310607568Y-48825366D01*
X310607568Y-47912866D01*
X310608742Y-47888974D01*
X310612252Y-47865313D01*
X310618064Y-47842109D01*
X310626122Y-47819587D01*
X310636350Y-47797963D01*
X310648647Y-47777446D01*
X310662897Y-47758233D01*
X310678961Y-47740509D01*
X310696685Y-47724445D01*
X310715898Y-47710195D01*
X310736415Y-47697898D01*
X310758039Y-47687670D01*
X310780561Y-47679612D01*
X310803765Y-47673800D01*
X310827426Y-47670290D01*
X310851318Y-47669116D01*
X311338818Y-47669116D01*
X311362710Y-47670290D01*
X311362710Y-47670290D01*
G37*
D15*
X311095068Y-48369116D03*
D14*
X36909375Y-26925000D03*
X36909375Y-30225000D03*
X55959375Y-26925000D03*
X55959375Y-30225000D03*
X75009375Y-26925000D03*
X75009375Y-30225000D03*
X94059375Y-26925000D03*
X94059375Y-30225000D03*
X113109375Y-26925000D03*
X113109375Y-30225000D03*
X132159375Y-26925000D03*
X132159375Y-30225000D03*
X170259375Y-26925000D03*
X170259375Y-30225000D03*
X189309375Y-26925000D03*
X189309375Y-30225000D03*
X208359375Y-26925000D03*
X208359375Y-30225000D03*
X227409375Y-26925000D03*
X227409375Y-30225000D03*
X246459375Y-26925000D03*
X246459375Y-30225000D03*
X265509375Y-26925000D03*
X265509375Y-30225000D03*
X284559375Y-26925000D03*
X284559375Y-30225000D03*
X291703125Y-26925000D03*
X291703125Y-30225000D03*
X39290625Y-45975000D03*
X39290625Y-49275000D03*
X60721875Y-45975000D03*
X60721875Y-49275000D03*
X79771875Y-45975000D03*
X79771875Y-49275000D03*
X98821875Y-45975000D03*
X98821875Y-49275000D03*
X117871875Y-45975000D03*
X117871875Y-49275000D03*
X136921875Y-45975000D03*
X136921875Y-49275000D03*
X155971875Y-45975000D03*
X155971875Y-49275000D03*
X175021875Y-45975000D03*
X175021875Y-49275000D03*
X194071875Y-45975000D03*
X194071875Y-49275000D03*
X213121875Y-45975000D03*
X213121875Y-49275000D03*
X232171875Y-45975000D03*
X232171875Y-49275000D03*
X251221875Y-45975000D03*
X251221875Y-49275000D03*
X277415625Y-45975000D03*
X277415625Y-49275000D03*
X291703125Y-45975000D03*
X291703125Y-49275000D03*
X44053125Y-65025000D03*
X44053125Y-68325000D03*
X70246875Y-65025000D03*
X70246875Y-68325000D03*
X89296875Y-65025000D03*
X89296875Y-68325000D03*
X108346875Y-65025000D03*
X108346875Y-68325000D03*
X127396875Y-65025000D03*
X127396875Y-68325000D03*
X146446875Y-65025000D03*
X146446875Y-68325000D03*
X165496875Y-65025000D03*
X165496875Y-68325000D03*
X184546875Y-65025000D03*
X184546875Y-68325000D03*
X203596875Y-65025000D03*
X203596875Y-68325000D03*
X222646875Y-65025000D03*
X222646875Y-68325000D03*
X241696875Y-65025000D03*
X241696875Y-68325000D03*
X263128125Y-65025000D03*
X263128125Y-68325000D03*
X265509375Y-65025000D03*
X265509375Y-68325000D03*
X291703125Y-69787500D03*
X291703125Y-73087500D03*
X55959375Y-84075000D03*
X55959375Y-87375000D03*
X77390625Y-84075000D03*
X77390625Y-87375000D03*
X101203125Y-84075000D03*
X101203125Y-87375000D03*
X134540625Y-84075000D03*
X134540625Y-87375000D03*
X182165625Y-84075000D03*
X182165625Y-87375000D03*
X220265625Y-84075000D03*
X220265625Y-87375000D03*
X244078125Y-84075000D03*
X244078125Y-87375000D03*
X265509375Y-84075000D03*
X265509375Y-87375000D03*
X289321875Y-88837500D03*
X289321875Y-92137500D03*
X308371875Y-88837500D03*
X308371875Y-92137500D03*
X310753125Y-88837500D03*
X310753125Y-92137500D03*
D10*
G36*
X322852504Y-35638704D02*
G01*
X322876773Y-35642304D01*
X322900571Y-35648265D01*
X322923671Y-35656530D01*
X322945849Y-35667020D01*
X322966893Y-35679633D01*
X322986598Y-35694247D01*
X323004777Y-35710723D01*
X323021253Y-35728902D01*
X323035867Y-35748607D01*
X323048480Y-35769651D01*
X323058970Y-35791829D01*
X323067235Y-35814929D01*
X323073196Y-35838727D01*
X323076796Y-35862996D01*
X323078000Y-35887500D01*
X323078000Y-37137500D01*
X323076796Y-37162004D01*
X323073196Y-37186273D01*
X323067235Y-37210071D01*
X323058970Y-37233171D01*
X323048480Y-37255349D01*
X323035867Y-37276393D01*
X323021253Y-37296098D01*
X323004777Y-37314277D01*
X322986598Y-37330753D01*
X322966893Y-37345367D01*
X322945849Y-37357980D01*
X322923671Y-37368470D01*
X322900571Y-37376735D01*
X322876773Y-37382696D01*
X322852504Y-37386296D01*
X322828000Y-37387500D01*
X322078000Y-37387500D01*
X322053496Y-37386296D01*
X322029227Y-37382696D01*
X322005429Y-37376735D01*
X321982329Y-37368470D01*
X321960151Y-37357980D01*
X321939107Y-37345367D01*
X321919402Y-37330753D01*
X321901223Y-37314277D01*
X321884747Y-37296098D01*
X321870133Y-37276393D01*
X321857520Y-37255349D01*
X321847030Y-37233171D01*
X321838765Y-37210071D01*
X321832804Y-37186273D01*
X321829204Y-37162004D01*
X321828000Y-37137500D01*
X321828000Y-35887500D01*
X321829204Y-35862996D01*
X321832804Y-35838727D01*
X321838765Y-35814929D01*
X321847030Y-35791829D01*
X321857520Y-35769651D01*
X321870133Y-35748607D01*
X321884747Y-35728902D01*
X321901223Y-35710723D01*
X321919402Y-35694247D01*
X321939107Y-35679633D01*
X321960151Y-35667020D01*
X321982329Y-35656530D01*
X322005429Y-35648265D01*
X322029227Y-35642304D01*
X322053496Y-35638704D01*
X322078000Y-35637500D01*
X322828000Y-35637500D01*
X322852504Y-35638704D01*
X322852504Y-35638704D01*
G37*
D16*
X322453000Y-36512500D03*
D10*
G36*
X320052504Y-35638704D02*
G01*
X320076773Y-35642304D01*
X320100571Y-35648265D01*
X320123671Y-35656530D01*
X320145849Y-35667020D01*
X320166893Y-35679633D01*
X320186598Y-35694247D01*
X320204777Y-35710723D01*
X320221253Y-35728902D01*
X320235867Y-35748607D01*
X320248480Y-35769651D01*
X320258970Y-35791829D01*
X320267235Y-35814929D01*
X320273196Y-35838727D01*
X320276796Y-35862996D01*
X320278000Y-35887500D01*
X320278000Y-37137500D01*
X320276796Y-37162004D01*
X320273196Y-37186273D01*
X320267235Y-37210071D01*
X320258970Y-37233171D01*
X320248480Y-37255349D01*
X320235867Y-37276393D01*
X320221253Y-37296098D01*
X320204777Y-37314277D01*
X320186598Y-37330753D01*
X320166893Y-37345367D01*
X320145849Y-37357980D01*
X320123671Y-37368470D01*
X320100571Y-37376735D01*
X320076773Y-37382696D01*
X320052504Y-37386296D01*
X320028000Y-37387500D01*
X319278000Y-37387500D01*
X319253496Y-37386296D01*
X319229227Y-37382696D01*
X319205429Y-37376735D01*
X319182329Y-37368470D01*
X319160151Y-37357980D01*
X319139107Y-37345367D01*
X319119402Y-37330753D01*
X319101223Y-37314277D01*
X319084747Y-37296098D01*
X319070133Y-37276393D01*
X319057520Y-37255349D01*
X319047030Y-37233171D01*
X319038765Y-37210071D01*
X319032804Y-37186273D01*
X319029204Y-37162004D01*
X319028000Y-37137500D01*
X319028000Y-35887500D01*
X319029204Y-35862996D01*
X319032804Y-35838727D01*
X319038765Y-35814929D01*
X319047030Y-35791829D01*
X319057520Y-35769651D01*
X319070133Y-35748607D01*
X319084747Y-35728902D01*
X319101223Y-35710723D01*
X319119402Y-35694247D01*
X319139107Y-35679633D01*
X319160151Y-35667020D01*
X319182329Y-35656530D01*
X319205429Y-35648265D01*
X319229227Y-35642304D01*
X319253496Y-35638704D01*
X319278000Y-35637500D01*
X320028000Y-35637500D01*
X320052504Y-35638704D01*
X320052504Y-35638704D01*
G37*
D16*
X319653000Y-36512500D03*
D10*
G36*
X317970906Y-49009742D02*
G01*
X317994567Y-49013252D01*
X318017771Y-49019064D01*
X318040293Y-49027122D01*
X318061917Y-49037350D01*
X318082434Y-49049647D01*
X318101647Y-49063897D01*
X318119371Y-49079961D01*
X318135435Y-49097685D01*
X318149685Y-49116898D01*
X318161982Y-49137415D01*
X318172210Y-49159039D01*
X318180268Y-49181561D01*
X318186080Y-49204765D01*
X318189590Y-49228426D01*
X318190764Y-49252318D01*
X318190764Y-50164818D01*
X318189590Y-50188710D01*
X318186080Y-50212371D01*
X318180268Y-50235575D01*
X318172210Y-50258097D01*
X318161982Y-50279721D01*
X318149685Y-50300238D01*
X318135435Y-50319451D01*
X318119371Y-50337175D01*
X318101647Y-50353239D01*
X318082434Y-50367489D01*
X318061917Y-50379786D01*
X318040293Y-50390014D01*
X318017771Y-50398072D01*
X317994567Y-50403884D01*
X317970906Y-50407394D01*
X317947014Y-50408568D01*
X317459514Y-50408568D01*
X317435622Y-50407394D01*
X317411961Y-50403884D01*
X317388757Y-50398072D01*
X317366235Y-50390014D01*
X317344611Y-50379786D01*
X317324094Y-50367489D01*
X317304881Y-50353239D01*
X317287157Y-50337175D01*
X317271093Y-50319451D01*
X317256843Y-50300238D01*
X317244546Y-50279721D01*
X317234318Y-50258097D01*
X317226260Y-50235575D01*
X317220448Y-50212371D01*
X317216938Y-50188710D01*
X317215764Y-50164818D01*
X317215764Y-49252318D01*
X317216938Y-49228426D01*
X317220448Y-49204765D01*
X317226260Y-49181561D01*
X317234318Y-49159039D01*
X317244546Y-49137415D01*
X317256843Y-49116898D01*
X317271093Y-49097685D01*
X317287157Y-49079961D01*
X317304881Y-49063897D01*
X317324094Y-49049647D01*
X317344611Y-49037350D01*
X317366235Y-49027122D01*
X317388757Y-49019064D01*
X317411961Y-49013252D01*
X317435622Y-49009742D01*
X317459514Y-49008568D01*
X317947014Y-49008568D01*
X317970906Y-49009742D01*
X317970906Y-49009742D01*
G37*
D15*
X317703264Y-49708568D03*
D10*
G36*
X319845906Y-49009742D02*
G01*
X319869567Y-49013252D01*
X319892771Y-49019064D01*
X319915293Y-49027122D01*
X319936917Y-49037350D01*
X319957434Y-49049647D01*
X319976647Y-49063897D01*
X319994371Y-49079961D01*
X320010435Y-49097685D01*
X320024685Y-49116898D01*
X320036982Y-49137415D01*
X320047210Y-49159039D01*
X320055268Y-49181561D01*
X320061080Y-49204765D01*
X320064590Y-49228426D01*
X320065764Y-49252318D01*
X320065764Y-50164818D01*
X320064590Y-50188710D01*
X320061080Y-50212371D01*
X320055268Y-50235575D01*
X320047210Y-50258097D01*
X320036982Y-50279721D01*
X320024685Y-50300238D01*
X320010435Y-50319451D01*
X319994371Y-50337175D01*
X319976647Y-50353239D01*
X319957434Y-50367489D01*
X319936917Y-50379786D01*
X319915293Y-50390014D01*
X319892771Y-50398072D01*
X319869567Y-50403884D01*
X319845906Y-50407394D01*
X319822014Y-50408568D01*
X319334514Y-50408568D01*
X319310622Y-50407394D01*
X319286961Y-50403884D01*
X319263757Y-50398072D01*
X319241235Y-50390014D01*
X319219611Y-50379786D01*
X319199094Y-50367489D01*
X319179881Y-50353239D01*
X319162157Y-50337175D01*
X319146093Y-50319451D01*
X319131843Y-50300238D01*
X319119546Y-50279721D01*
X319109318Y-50258097D01*
X319101260Y-50235575D01*
X319095448Y-50212371D01*
X319091938Y-50188710D01*
X319090764Y-50164818D01*
X319090764Y-49252318D01*
X319091938Y-49228426D01*
X319095448Y-49204765D01*
X319101260Y-49181561D01*
X319109318Y-49159039D01*
X319119546Y-49137415D01*
X319131843Y-49116898D01*
X319146093Y-49097685D01*
X319162157Y-49079961D01*
X319179881Y-49063897D01*
X319199094Y-49049647D01*
X319219611Y-49037350D01*
X319241235Y-49027122D01*
X319263757Y-49019064D01*
X319286961Y-49013252D01*
X319310622Y-49009742D01*
X319334514Y-49008568D01*
X319822014Y-49008568D01*
X319845906Y-49009742D01*
X319845906Y-49009742D01*
G37*
D15*
X319578264Y-49708568D03*
D10*
G36*
X319123142Y-30882674D02*
G01*
X319146803Y-30886184D01*
X319170007Y-30891996D01*
X319192529Y-30900054D01*
X319214153Y-30910282D01*
X319234670Y-30922579D01*
X319253883Y-30936829D01*
X319271607Y-30952893D01*
X319287671Y-30970617D01*
X319301921Y-30989830D01*
X319314218Y-31010347D01*
X319324446Y-31031971D01*
X319332504Y-31054493D01*
X319338316Y-31077697D01*
X319341826Y-31101358D01*
X319343000Y-31125250D01*
X319343000Y-31612750D01*
X319341826Y-31636642D01*
X319338316Y-31660303D01*
X319332504Y-31683507D01*
X319324446Y-31706029D01*
X319314218Y-31727653D01*
X319301921Y-31748170D01*
X319287671Y-31767383D01*
X319271607Y-31785107D01*
X319253883Y-31801171D01*
X319234670Y-31815421D01*
X319214153Y-31827718D01*
X319192529Y-31837946D01*
X319170007Y-31846004D01*
X319146803Y-31851816D01*
X319123142Y-31855326D01*
X319099250Y-31856500D01*
X318186750Y-31856500D01*
X318162858Y-31855326D01*
X318139197Y-31851816D01*
X318115993Y-31846004D01*
X318093471Y-31837946D01*
X318071847Y-31827718D01*
X318051330Y-31815421D01*
X318032117Y-31801171D01*
X318014393Y-31785107D01*
X317998329Y-31767383D01*
X317984079Y-31748170D01*
X317971782Y-31727653D01*
X317961554Y-31706029D01*
X317953496Y-31683507D01*
X317947684Y-31660303D01*
X317944174Y-31636642D01*
X317943000Y-31612750D01*
X317943000Y-31125250D01*
X317944174Y-31101358D01*
X317947684Y-31077697D01*
X317953496Y-31054493D01*
X317961554Y-31031971D01*
X317971782Y-31010347D01*
X317984079Y-30989830D01*
X317998329Y-30970617D01*
X318014393Y-30952893D01*
X318032117Y-30936829D01*
X318051330Y-30922579D01*
X318071847Y-30910282D01*
X318093471Y-30900054D01*
X318115993Y-30891996D01*
X318139197Y-30886184D01*
X318162858Y-30882674D01*
X318186750Y-30881500D01*
X319099250Y-30881500D01*
X319123142Y-30882674D01*
X319123142Y-30882674D01*
G37*
D15*
X318643000Y-31369000D03*
D10*
G36*
X319123142Y-32757674D02*
G01*
X319146803Y-32761184D01*
X319170007Y-32766996D01*
X319192529Y-32775054D01*
X319214153Y-32785282D01*
X319234670Y-32797579D01*
X319253883Y-32811829D01*
X319271607Y-32827893D01*
X319287671Y-32845617D01*
X319301921Y-32864830D01*
X319314218Y-32885347D01*
X319324446Y-32906971D01*
X319332504Y-32929493D01*
X319338316Y-32952697D01*
X319341826Y-32976358D01*
X319343000Y-33000250D01*
X319343000Y-33487750D01*
X319341826Y-33511642D01*
X319338316Y-33535303D01*
X319332504Y-33558507D01*
X319324446Y-33581029D01*
X319314218Y-33602653D01*
X319301921Y-33623170D01*
X319287671Y-33642383D01*
X319271607Y-33660107D01*
X319253883Y-33676171D01*
X319234670Y-33690421D01*
X319214153Y-33702718D01*
X319192529Y-33712946D01*
X319170007Y-33721004D01*
X319146803Y-33726816D01*
X319123142Y-33730326D01*
X319099250Y-33731500D01*
X318186750Y-33731500D01*
X318162858Y-33730326D01*
X318139197Y-33726816D01*
X318115993Y-33721004D01*
X318093471Y-33712946D01*
X318071847Y-33702718D01*
X318051330Y-33690421D01*
X318032117Y-33676171D01*
X318014393Y-33660107D01*
X317998329Y-33642383D01*
X317984079Y-33623170D01*
X317971782Y-33602653D01*
X317961554Y-33581029D01*
X317953496Y-33558507D01*
X317947684Y-33535303D01*
X317944174Y-33511642D01*
X317943000Y-33487750D01*
X317943000Y-33000250D01*
X317944174Y-32976358D01*
X317947684Y-32952697D01*
X317953496Y-32929493D01*
X317961554Y-32906971D01*
X317971782Y-32885347D01*
X317984079Y-32864830D01*
X317998329Y-32845617D01*
X318014393Y-32827893D01*
X318032117Y-32811829D01*
X318051330Y-32797579D01*
X318071847Y-32785282D01*
X318093471Y-32775054D01*
X318115993Y-32766996D01*
X318139197Y-32761184D01*
X318162858Y-32757674D01*
X318186750Y-32756500D01*
X319099250Y-32756500D01*
X319123142Y-32757674D01*
X319123142Y-32757674D01*
G37*
D15*
X318643000Y-33244000D03*
D10*
G36*
X297987330Y-64000746D02*
G01*
X298010991Y-64004256D01*
X298034195Y-64010068D01*
X298056717Y-64018126D01*
X298078341Y-64028354D01*
X298098858Y-64040651D01*
X298118071Y-64054901D01*
X298135795Y-64070965D01*
X298151859Y-64088689D01*
X298166109Y-64107902D01*
X298178406Y-64128419D01*
X298188634Y-64150043D01*
X298196692Y-64172565D01*
X298202504Y-64195769D01*
X298206014Y-64219430D01*
X298207188Y-64243322D01*
X298207188Y-64730822D01*
X298206014Y-64754714D01*
X298202504Y-64778375D01*
X298196692Y-64801579D01*
X298188634Y-64824101D01*
X298178406Y-64845725D01*
X298166109Y-64866242D01*
X298151859Y-64885455D01*
X298135795Y-64903179D01*
X298118071Y-64919243D01*
X298098858Y-64933493D01*
X298078341Y-64945790D01*
X298056717Y-64956018D01*
X298034195Y-64964076D01*
X298010991Y-64969888D01*
X297987330Y-64973398D01*
X297963438Y-64974572D01*
X297050938Y-64974572D01*
X297027046Y-64973398D01*
X297003385Y-64969888D01*
X296980181Y-64964076D01*
X296957659Y-64956018D01*
X296936035Y-64945790D01*
X296915518Y-64933493D01*
X296896305Y-64919243D01*
X296878581Y-64903179D01*
X296862517Y-64885455D01*
X296848267Y-64866242D01*
X296835970Y-64845725D01*
X296825742Y-64824101D01*
X296817684Y-64801579D01*
X296811872Y-64778375D01*
X296808362Y-64754714D01*
X296807188Y-64730822D01*
X296807188Y-64243322D01*
X296808362Y-64219430D01*
X296811872Y-64195769D01*
X296817684Y-64172565D01*
X296825742Y-64150043D01*
X296835970Y-64128419D01*
X296848267Y-64107902D01*
X296862517Y-64088689D01*
X296878581Y-64070965D01*
X296896305Y-64054901D01*
X296915518Y-64040651D01*
X296936035Y-64028354D01*
X296957659Y-64018126D01*
X296980181Y-64010068D01*
X297003385Y-64004256D01*
X297027046Y-64000746D01*
X297050938Y-63999572D01*
X297963438Y-63999572D01*
X297987330Y-64000746D01*
X297987330Y-64000746D01*
G37*
D15*
X297507188Y-64487072D03*
D10*
G36*
X297987330Y-62125746D02*
G01*
X298010991Y-62129256D01*
X298034195Y-62135068D01*
X298056717Y-62143126D01*
X298078341Y-62153354D01*
X298098858Y-62165651D01*
X298118071Y-62179901D01*
X298135795Y-62195965D01*
X298151859Y-62213689D01*
X298166109Y-62232902D01*
X298178406Y-62253419D01*
X298188634Y-62275043D01*
X298196692Y-62297565D01*
X298202504Y-62320769D01*
X298206014Y-62344430D01*
X298207188Y-62368322D01*
X298207188Y-62855822D01*
X298206014Y-62879714D01*
X298202504Y-62903375D01*
X298196692Y-62926579D01*
X298188634Y-62949101D01*
X298178406Y-62970725D01*
X298166109Y-62991242D01*
X298151859Y-63010455D01*
X298135795Y-63028179D01*
X298118071Y-63044243D01*
X298098858Y-63058493D01*
X298078341Y-63070790D01*
X298056717Y-63081018D01*
X298034195Y-63089076D01*
X298010991Y-63094888D01*
X297987330Y-63098398D01*
X297963438Y-63099572D01*
X297050938Y-63099572D01*
X297027046Y-63098398D01*
X297003385Y-63094888D01*
X296980181Y-63089076D01*
X296957659Y-63081018D01*
X296936035Y-63070790D01*
X296915518Y-63058493D01*
X296896305Y-63044243D01*
X296878581Y-63028179D01*
X296862517Y-63010455D01*
X296848267Y-62991242D01*
X296835970Y-62970725D01*
X296825742Y-62949101D01*
X296817684Y-62926579D01*
X296811872Y-62903375D01*
X296808362Y-62879714D01*
X296807188Y-62855822D01*
X296807188Y-62368322D01*
X296808362Y-62344430D01*
X296811872Y-62320769D01*
X296817684Y-62297565D01*
X296825742Y-62275043D01*
X296835970Y-62253419D01*
X296848267Y-62232902D01*
X296862517Y-62213689D01*
X296878581Y-62195965D01*
X296896305Y-62179901D01*
X296915518Y-62165651D01*
X296936035Y-62153354D01*
X296957659Y-62143126D01*
X296980181Y-62135068D01*
X297003385Y-62129256D01*
X297027046Y-62125746D01*
X297050938Y-62124572D01*
X297963438Y-62124572D01*
X297987330Y-62125746D01*
X297987330Y-62125746D01*
G37*
D15*
X297507188Y-62612072D03*
D17*
X291231250Y-61381250D03*
X285031250Y-57681250D03*
X291231250Y-57681250D03*
X285031250Y-61381250D03*
D18*
X304159912Y-53447624D03*
X304159912Y-54247624D03*
X304159912Y-55047624D03*
X304159912Y-55847624D03*
X304159912Y-56647624D03*
X304159912Y-57447624D03*
X304159912Y-58247624D03*
X304159912Y-59047624D03*
X304159912Y-59847624D03*
X304159912Y-60647624D03*
X304159912Y-61447624D03*
D19*
X305859912Y-63147624D03*
X306659912Y-63147624D03*
X307459912Y-63147624D03*
X308259912Y-63147624D03*
X309059912Y-63147624D03*
X309859912Y-63147624D03*
X310659912Y-63147624D03*
X311459912Y-63147624D03*
X312259912Y-63147624D03*
X313059912Y-63147624D03*
X313859912Y-63147624D03*
D18*
X315559912Y-61447624D03*
X315559912Y-60647624D03*
X315559912Y-59847624D03*
X315559912Y-59047624D03*
X315559912Y-58247624D03*
X315559912Y-57447624D03*
X315559912Y-56647624D03*
X315559912Y-55847624D03*
X315559912Y-55047624D03*
X315559912Y-54247624D03*
X315559912Y-53447624D03*
D19*
X313859912Y-51747624D03*
X313059912Y-51747624D03*
X312259912Y-51747624D03*
X311459912Y-51747624D03*
X310659912Y-51747624D03*
X309859912Y-51747624D03*
X309059912Y-51747624D03*
X308259912Y-51747624D03*
X307459912Y-51747624D03*
X306659912Y-51747624D03*
X305859912Y-51747624D03*
D20*
X323806776Y-58249968D03*
X323806776Y-56049968D03*
X322106776Y-56049968D03*
X322106776Y-58249968D03*
M02*
