M48
INCH
T1C0.0689
T2C0.1200
T3C0.1570
%
G90
G05
T1
X6.6437Y-3.375
X7.0438Y-3.375
X5.6125Y-1.875
X6.0125Y-1.875
X4.1125Y-1.875
X4.5125Y-1.875
X1.0188Y-1.875
X1.4187Y-1.875
X10.8625Y-3.5625
X11.2625Y-3.5625
X1.675Y-3.375
X2.075Y-3.375
X8.1437Y-3.375
X8.5437Y-3.375
X6.3625Y-1.875
X6.7625Y-1.875
X2.2375Y-2.625
X2.6375Y-2.625
X6.175Y-1.125
X6.575Y-1.125
X9.3625Y-1.875
X9.7625Y-1.875
X9.175Y-1.125
X9.575Y-1.125
X1.8625Y-1.875
X2.2625Y-1.875
X0.925Y-1.125
X1.325Y-1.125
X4.4875Y-2.625
X4.8875Y-2.625
X3.925Y-1.125
X4.325Y-1.125
X6.7375Y-2.625
X7.1375Y-2.625
X11.6125Y-1.125
X12.0125Y-1.125
X6.925Y-1.125
X7.325Y-1.125
X4.8625Y-1.875
X5.2625Y-1.875
X8.6125Y-1.875
X9.0125Y-1.875
X3.3625Y-1.875
X3.7625Y-1.875
X3.4562Y-3.375
X3.8562Y-3.375
X10.5812Y-2.625
X10.9812Y-2.625
X4.7687Y-3.375
X5.1688Y-3.375
X11.6125Y-2.8125
X12.0125Y-2.8125
X12.3625Y-3.5625
X12.7625Y-3.5625
X1.675Y-1.125
X2.075Y-1.125
X1.2063Y-2.625
X1.6062Y-2.625
X7.8625Y-1.875
X8.2625Y-1.875
X8.425Y-1.125
X8.825Y-1.125
X10.675Y-1.125
X11.075Y-1.125
X9.925Y-3.375
X10.325Y-3.375
X3.7375Y-2.625
X4.1375Y-2.625
X3.175Y-1.125
X3.575Y-1.125
X5.9875Y-2.625
X6.3875Y-2.625
X5.425Y-1.125
X5.825Y-1.125
X11.6125Y-1.875
X12.0125Y-1.875
X9.8312Y-2.625
X10.2312Y-2.625
X2.5187Y-3.375
X2.9187Y-3.375
X8.9875Y-2.625
X9.3875Y-2.625
X9.7375Y-2.625
X10.1375Y-2.625
X11.6125Y-3.5625
X12.0125Y-3.5625
X2.9875Y-2.625
X3.3875Y-2.625
X7.1125Y-1.875
X7.5125Y-1.875
X2.6125Y-1.875
X3.0125Y-1.875
X9.0812Y-3.375
X9.4812Y-3.375
X9.925Y-1.125
X10.325Y-1.125
X10.675Y-2.625
X11.075Y-2.625
X5.2375Y-2.625
X5.6375Y-2.625
X4.675Y-1.125
X5.075Y-1.125
X8.2375Y-2.625
X8.6375Y-2.625
X2.425Y-1.125
X2.825Y-1.125
X7.675Y-1.125
X8.075Y-1.125
X10.3937Y-1.875
X10.7937Y-1.875
X7.4875Y-2.625
X7.8875Y-2.625
T2
X6.375Y-3.65
X7.3125Y-3.65
X4.5Y-3.65
X5.4375Y-3.65
T3
X8.0625Y-1.875
X8.625Y-1.125
X10.875Y-1.125
X10.125Y-3.375
X3.9375Y-2.625
X3.375Y-1.125
X6.1875Y-2.625
X5.625Y-1.125
X11.8125Y-1.875
X10.0312Y-2.625
X2.7188Y-3.375
X9.1875Y-2.625
X9.9375Y-2.625
X11.8125Y-3.5625
X3.1875Y-2.625
X7.3125Y-1.875
X2.8125Y-1.875
X9.2812Y-3.375
X10.125Y-1.125
X10.875Y-2.625
X5.4375Y-2.625
X4.875Y-1.125
X8.4375Y-2.625
X2.625Y-1.125
X7.875Y-1.125
X10.5938Y-1.875
X7.6875Y-2.625
X6.375Y-3.05
X6.8438Y-3.375
X7.3125Y-3.05
X5.8125Y-1.875
X4.3125Y-1.875
X1.2188Y-1.875
X11.0625Y-3.5625
X1.875Y-3.375
X8.3438Y-3.375
X6.5625Y-1.875
X2.4375Y-2.625
X6.375Y-1.125
X9.5625Y-1.875
X9.375Y-1.125
X2.0625Y-1.875
X1.125Y-1.125
X4.6875Y-2.625
X4.125Y-1.125
X6.9375Y-2.625
X11.8125Y-1.125
X7.125Y-1.125
X5.0625Y-1.875
X8.8125Y-1.875
X3.5625Y-1.875
X3.6562Y-3.375
X10.7812Y-2.625
X4.5Y-3.05
X4.9688Y-3.375
X5.4375Y-3.05
X11.8125Y-2.8125
X12.5625Y-3.5625
X1.875Y-1.125
X1.4062Y-2.625
T0
M30
